<?xml version="1.0" standalone="no"?>
<!DOCTYPE svg PUBLIC "-//W3C//DTD SVG 1.1//EN" "http://www.w3.org/Graphics/SVG/1.1/DTD/svg11.dtd" >
<svg>
<metadata>
Created by FontForge 20090622 at Fri Jun 22 09:11:32 2018
 By deploy user
a_FuturaOrtodoxalRough *Arsenal Company &#194;&#169;1996* FAX: (095)924-3775; e-Mail: arsenal@itco.msk.su; Phone: (095)924-5811 (Design and Featuring W.Chufarofsky &#38; M.Slutsker)
</metadata>
<defs>
<font id="a_FuturaOrtoRg-Bold" horiz-adv-x="630" >
  <font-face 
    font-family="a_FuturaOrtoRg"
    font-weight="700"
    font-stretch="normal"
    units-per-em="1000"
    panose-1="2 11 8 2 2 2 4 2 3 3"
    ascent="800"
    descent="-200"
    x-height="529"
    cap-height="741"
    bbox="-36 -313 1224 935"
    underline-thickness="42"
    underline-position="-159"
    unicode-range="U+0020-U+2219"
  />
<missing-glyph horiz-adv-x="657" 
d="M40 0v762h577v-762h-577zM80 40h497v682h-497v-682z" />
    <glyph glyph-name=".notdef" horiz-adv-x="657" 
d="M40 0v762h577v-762h-577zM80 40h497v682h-497v-682z" />
    <glyph glyph-name="space" unicode=" " horiz-adv-x="250" 
 />
    <glyph glyph-name="exclam" unicode="!" horiz-adv-x="310" 
d="M84 754v-4l9 10l9 -10l9 5l9 -1v-4h9h9l9 15l9 -11v-4l9 8l9 -8l9 1l9 3v-4l9 12l9 -12l9 12l9 -8l-4 -16l10 -9l-6 -9l-4 -17l14 -9l-10 -9l-4 -16l15 -9l-11 -9l-4 -17l7 -9l-3 -9l-4 -16l13 -9l-9 -9l-4 -16l17 -9l-13 -9l-4 -17l10 -9l-6 -9l-4 -16l14 -9l-10 -9
l-4 -16l10 -9l-6 -9l-4 -17v-9l4 -9l-4 -16l15 -9l-11 -9l-4 -16l15 -9l-11 -9l-4 -17l7 -9l-3 -9l-4 -16l15 -9l-11 -9l-4 -17l13 -9l-9 -9l-4 -16l1 -9l3 -9v4l-9 -10l-9 10l-9 -4h-9v4l-9 -8l-9 8l-9 -5l-9 1v4l-9 -3l-9 3l-9 -9l-9 5v4l-9 -4l-9 4l-9 -16l-9 12l4 16
l-3 9l-1 9l4 17l-12 9l8 9l4 16v9l-4 9l4 17l-2 9l-2 9l4 16l-4 9v9l4 16l-8 9l4 9l4 17l-2 9l-2 9l4 16l-11 9l7 9l4 16l-15 9l11 9l4 17l-10 9l6 9l4 16l-12 9l8 9l4 16l-9 9l5 9l4 17l-11 9l7 9l4 16l-17 9l13 9l4 17l-1 9l-3 9l4 16l-17 9zM72 59l6 6v9l5 8l-9 12l9 7
l8 1l5 7l7 6l4 10l6 6l8 -2l7 11l11 -7l7 8l9 1l6 -6l9 -2l8 -3l14 15l5 -15l1 -8l8 -5l5 -7l10 -3l6 -7l-2 -8l11 -7l-7 -11l12 -6l-3 -10l-6 -6l12 -13l-17 -4l5 -11l-5 -8l-8 -1l4 -17l-16 4l-2 -11l-8 -5l-8 2l-6 -15l-12 11l-4 -18l-12 9l-6 6l-11 -4l-6 9l-10 -2l-9 2
l-1 8l-10 3l-3 9h-14l-2 10l2 8l-5 8l1 10l-5 8z" />
    <glyph glyph-name="quotedbl" unicode="&#x22;" horiz-adv-x="375" 
d="M221 453l5 17l-11 9l6 9l5 17l-16 9l11 9l5 17l-3 9l-2 9l5 16l-3 9l-2 9l5 17l-13 9l8 9l5 17l-18 9l13 9l5 17l-16 9l11 9l5 17l-12 9l7 9l12 -4l9 10l9 -10l9 12l9 -8l12 -4l9 4l9 -4l9 2l9 2l-5 -17l17 -9l-12 -9l-5 -17l5 -9v-9l-5 -17l3 -9l2 -9l-5 -17l7 -9l-2 -9
l-5 -16l15 -9l-10 -9l-5 -17l18 -9l-13 -9l-5 -17l13 -9l-8 -9l-5 -17l8 -9l-3 -9l-12 5l-9 -14l-9 14l-9 -7l-9 2l-12 5l-9 -16l-9 16l-9 -11zM58 453l4 17l-14 9l10 9l4 17l-14 9l10 9l4 17l-3 9l-1 9l4 16l-15 9l11 9l4 17l-8 9l4 9l4 17l-2 9l-2 9l4 17l-16 9l12 9l4 17
l-15 9l11 9l12 -4l9 17l9 -17l9 12l9 -8l12 -4l9 17l9 -17l9 12l9 -8l-4 -17l17 -9l-13 -9l-4 -17l9 -9l-5 -9l-4 -17l14 -9l-10 -9l-4 -17l4 -9v-9l-4 -16l13 -9l-9 -9l-4 -17l13 -9l-9 -9l-4 -17l11 -9l-7 -9l-4 -17l10 -9l-6 -9l-12 5l-9 -11l-9 11l-9 -14l-9 9l-12 5
l-9 -18l-9 18l-9 -5h-9z" />
    <glyph glyph-name="numbersign" unicode="#" horiz-adv-x="750" 
d="M455 429l-3 5l-9 -11l-9 11l-9 -16l-9 11l-2 5l-9 -3l-9 3l-9 -3l-9 -2l-3 5l-9 -13l-9 13l-9 -18l-9 13l-6 -5l12 -14l-18 -3l9 -13l-10 -6l-6 -5l7 -12l-13 -5l8 -12l-10 -6l-6 -5l2 -10l-8 -7v-10l-1 -9l3 -5l9 17l9 -17l9 5h9l2 -5l9 3l9 -3l9 7l9 -2l3 -5l9 15
l9 -15l9 18l9 -13l6 5l-9 13l15 4l-4 11l5 8l6 5l-9 12l15 5l-3 10l5 8l6 5l-12 14l18 3l-7 12zM271 529l10 15l2 8l-1 10l10 15l-9 13l10 6l10 15l-10 12l11 6l10 15l-3 10l4 8l16 -4l9 12l9 -8l16 -4l9 7l9 -3l16 -4l9 7l9 -3l-10 -15l2 -10l-3 -8l-10 -15l7 -11l-8 -7
l-9 -15l8 -12l-9 -7l-10 -15l1 -9l-2 -9l1 -5l9 1l9 -1l9 18l9 -13l1 -5l9 6l9 -6l9 18l9 -13l1 -5l9 8l9 -8l9 17l9 -12l10 15l-12 13l13 5l10 15l1 10v9l10 15v9l1 9l10 15l-13 13l14 5l16 -4l9 6l9 -2l16 -4l9 16l9 -12l16 -4l9 3l9 1l-10 -15l8 -12l-9 -6l-10 -15l3 -10
l-4 -8l-9 -15l9 -12l-10 -7l-10 -15l11 -13l-12 -5l7 -5l9 13l9 -13l9 7l9 -2l8 -5l9 9l9 -9l9 17l9 -12l7 -5l9 17l9 -17l9 13l9 -8l-10 -15l7 -11l-8 -7l-4 1l8 -12l-14 -5l10 -13l-12 -5l-10 -15l11 -12l-12 -6l-7 5l-9 -13l-9 13l-9 -13l-9 8l-8 5l-9 -11l-9 11l-9 -15
l-9 10l-7 5l-9 -10l-9 10l-9 -5h-9l-6 -4l14 -14l-20 -3l5 -11l-6 -8l-6 -5l-2 -9l-3 -8l14 -14l-15 -5l-6 -4l12 -14l-18 -3l11 -14l-12 -5l15 -4l9 13l9 -9l15 -4l9 3l9 1l16 -4l9 14l9 -10l15 -4l9 12l9 -8l-9 -14l-2 -9l1 -10l-10 -15l9 -13l-10 -6l-9 -14l7 -12l-8 -7
l-16 4l-9 -4h-9l-16 4l-9 -9l-9 5l-15 4l-9 -4h-9l-16 4l-9 -7l-9 3l-5 1l11 -13l-16 -5l6 -11l-8 -7l-10 -15l-1 -10v-9l-5 1l12 -14l-17 -4l9 -12l-11 -6l-4 1l7 -12l-13 -5l14 -14l-15 -5l-16 5l-9 -6l-9 1l-15 5l-9 -9l-9 4l-16 5l-9 -13l-9 8l5 -1l-7 12l12 6l-6 11
l8 7l10 15l-8 12l9 7l5 -1l-2 11l7 7l-7 12l9 6l4 -1l-1 10l7 7v10l1 9l-2 4l-9 -9l-9 9l-9 -17l-9 13l-1 4l-9 -2l-9 2l-9 -8l-9 4l-2 4l-9 -12l-9 12l-9 -6l-9 2l-5 1l3 -11l-8 -7l1 -10l-3 -8l-10 -15l7 -12l-8 -7l-5 1l1 -10l-6 -8l-3 -8l1 -10l-4 1l3 -11l-9 -6l14 -14
l-15 -5l-16 5l-9 -11l-9 6l-16 5l-9 -13l-9 8l-16 5l-9 -14l-9 9l4 -1l-11 13l17 4l-4 11l5 8l5 -1l1 9l4 9l-9 12l11 6l10 15l-12 14l13 5l4 -1l1 10l5 7l-12 14l13 5l-15 4l-9 -2l-9 -2l-15 4l-9 -14l-9 10l-16 4l-9 -10l-9 6l-15 4l-9 -8l-9 4l10 15l-3 10l5 8l4 -1
l-11 13l17 4l-12 13l14 5l10 15l-11 13l13 5l7 -4l9 14l9 -14l9 3l9 1l8 -4l9 15l9 -15l9 8l9 -4l7 -4l9 2l9 -2l9 16l9 -12l6 4l-12 14l18 3l-14 15l15 4l6 5l-8 13l14 4l-14 14l15 5l6 4l-9 13l15 4l-14 14l15 5l-16 5l-9 -10l-9 5l-17 5l-9 -15l-9 10l-17 5l-9 -5h-9
l-16 5l-9 -14l-9 9l10 15l-10 13l12 5l10 15l-9 13l10 6l10 15l-7 12l9 6l16 -5l9 11l9 -6l16 -5l9 14l9 -9l16 -5l9 18l9 -13l16 -5l9 5h9z" />
    <glyph glyph-name="dollar" unicode="$" 
d="M294 -63l4 9l-8 9l8 9l-13 9l13 9l-5 9l1 9l-9 5l-10 -14l-8 16l-9 -2h-9l-5 6l-9 -2l-8 6l-11 -6l-8 5l-2 6l-15 -13l-2 19l-12 -5l-6 8l1 5l-13 -4l-2 14l-14 -5l-3 11l2 4l-10 1l-3 11l-19 -7l3 16l3 4l-7 6l-3 9h-15l1 12l3 5l-13 4l6 12l-10 6l-1 9l3 7l-17 5l13 13
l-7 7l-2 9l4 10l-10 9l9 9l-15 8l9 10v-5l9 18l9 -18l9 17l9 -12v-5l9 3l9 -3l9 3l9 2v-5l9 4l9 -4l9 6l9 -1v-5l9 10l9 -10l9 13l9 -8l-3 -14l10 -8l-8 -10l15 -7l-9 -10l-3 -3l11 -5l-4 -12l10 -5l2 -9l10 -13l10 -2l7 -5l2 -5l12 12l5 -16l11 6l8 -6l4 2l-11 9l11 9l-8 9
l4 9l4 2l-3 9l3 9l-15 9l11 9l4 2l-12 9l12 9l-13 9l9 9l4 2l-6 9l6 9v9l-4 9l4 2l-13 9l13 9v9l-4 9l4 2l-2 9l2 9l-3 9l-1 9l-5 2l-7 9l-14 -9l-2 17l-8 3l-8 5l-11 -1l-7 5l-12 12l-16 -9l1 19l-16 -10l-2 15l-4 9l-15 -6l1 17l-17 -8v15l2 5l-6 6l-6 7l-16 -2l1 13
l-4 16l-10 5l-2 9v17l-15 5l6 11l4 1l-10 9l9 9l-5 9l-1 9l5 1l-4 9l6 9l-7 9l4 9l5 2l2 8l4 9l2 8v10h5l-4 13l14 2l-4 13l10 5h7l5 8l7 5v13l10 3h8l-1 18l16 -8v17l13 -4h11l6 10l11 -4l4 13l11 -2l14 -2l6 19l12 -16l6 18l11 -11l4 14l-11 9l11 9l-5 9l1 9l6 -5l9 4
l9 -4l9 7l9 -2l-4 -14l7 -9l-7 -9l5 -9l-1 -9l8 -6l9 -1l8 -2l10 4l9 -3l5 -7l15 13l2 -19l9 -2l9 -1l3 -7l10 -2l5 -8l9 -4l9 -2l1 -7l10 -2l3 -10l11 -1l5 -8l-1 -6l14 -1l-4 -14l18 2l-4 -14l-2 -6l7 -7l-1 -10l12 -5l-1 -10l-4 -6l9 -8l-7 -10l15 -7l-8 -10l-17 4h-9
l-9 -4v4l-9 -7l-9 7l-9 -7l-9 3v4l-9 -16l-9 16l-9 -7l-9 3l-17 4l-9 -16l-9 12l2 11l-15 6l10 12l-17 4l8 12l-6 9l-11 -2l-4 11h-11l-7 5l-4 -4l12 -9l-12 -9l3 -9l1 -9l-4 -4l11 -9l-11 -9l9 -9l-5 -9l-4 -5l14 -9l-14 -9l6 -9l-2 -9l-4 -4l8 -9l-8 -9l8 -9l-4 -9l5 -7
l10 1l8 -5l-1 -4l14 7l2 -16l11 4l5 -12l9 -1l7 -7h10l8 -4l3 -7l8 -4l7 -6l12 2l3 -11h11l7 -6l8 -12h12l1 -12l7 -5l10 -3v-7l10 -3l2 -10h14l1 -11l-3 -3l7 -6l1 -10l10 -5l2 -9v-18l10 -6l-1 -10l-4 -1l8 -9l-7 -9l15 -8l-9 -10l-5 -6l16 -10l-18 -8l12 -10l-9 -8l-6 -4
l-1 -9l-4 -8l14 -13l-14 -6l-6 -2l8 -15l-17 -1l2 -11l-6 -7l-6 -1l4 -15l-15 1l-5 -8l-3 -9l-8 -1l-3 -11h-11v-14l-11 -1h-10l-6 -9h-10l-5 -10l-9 -2h-14l-4 -18l-13 13l-3 -20l-13 10l-1 4l-8 -6l-10 4l-9 -1l-9 -1l-6 -19l-11 12l-4 -9l11 -9l-11 -9l12 -9l-12 -9l7 -9
l-3 -9l-6 5l-9 -15l-9 15l-9 -12zM294 485l4 17l-8 9l4 9l4 17l-3 9l-1 9l4 17l-13 9l9 9l4 17l-7 9l3 9l-12 -1l-7 -7l-9 -2l-7 -5l-7 -7l-6 -4l4 -11l-11 -6l8 -13l-11 -5l-2 -9l11 -6l-6 -11l15 -5l-6 -11l1 -7l10 -1l4 -10l18 8l-4 -19l10 -2zM426 219l4 2l-19 5l16 12
l-19 6l11 11l-1 8l-18 -3l7 17l-15 -1v12l-8 11l-17 -10l2 19l-16 -7l1 17l-13 -3l-5 9l-4 -16l6 -9l-2 -9l-4 -17l13 -9l-9 -9l-4 -16l12 -9l-8 -9l-4 -16l4 -9v-9l-4 -17l6 -9l-2 -9l-4 -16l4 -9v-9h16l8 5l10 -1l7 9h9l9 3l-2 15l14 -1l-2 14l11 2l5 1l-11 11l14 7l-1 9
l4 8l-7 11z" />
    <glyph glyph-name="percent" unicode="%" horiz-adv-x="866" 
d="M370 538l-6 -16l7 -9l-8 -9l7 -9l-4 -9l-7 -8l14 -13l-18 -4l5 -11l-5 -8l-7 -4l10 -15l-18 -1l7 -14l-11 -4l-5 1l6 -17l-18 4v-12l-8 -5l-5 2l-4 -9l-11 -1v-15l-12 1l-6 3l-8 -6h-9l-5 -14l-11 4l-9 4l-8 -11l-10 9l-7 -16l-10 9l-9 5l-9 -5l-9 7l-9 -7l-9 5l-2 6
l-12 -6l-6 11l-10 -2l-8 4l-1 6l-14 -6l-1 16l-11 -2l-6 8l1 5l-8 5l-4 9l-9 3l-6 7l1 8l-5 7l-3 9l-11 4l-1 10l2 10l-8 7l4 11l-10 6l1 10l3 16l-1 9v9l-6 9v9l6 15l-10 10l11 8l-3 9v9l7 8l-4 11l9 6l-6 11l6 8l7 3l-3 11l11 5l-9 14l13 4h6l-7 18l19 -5l-4 16l12 1l5 -2
l6 6l9 4l-2 19l14 -5l6 -3l4 17l13 -11l7 9l9 1l9 -4l7 14l11 -12l8 3l9 4l9 -5l9 6l9 -8l10 10l8 -7l3 -6l10 2l7 -8l10 4l8 -6l-1 -5l17 8l-2 -18l18 10v-16l-2 -5l10 -4l2 -10l6 -7l9 -4l-1 -7h19l-11 -16l14 -3l-2 -11l-2 -11l14 -6l-10 -12l10 -7l-1 -9l-3 -15l15 -8
l-14 -10l13 -8zM127 538l-4 -3l10 -8l-9 -10l17 -7l-15 -10l16 -8l-10 -10l-2 -8l10 -6l-5 -11l13 -6l-3 -10l7 -15l19 4l-4 -15l10 -8l14 13l5 -14h14l5 13l11 -4l13 8l1 11l7 6l6 5v10l6 7l-3 11l4 8l5 3l-7 9l8 9l-4 9l5 9v9l-3 9l4 2l-6 9l5 9l-18 8l17 10l-2 9l-4 9
l2 8l-6 7l1 10l-4 8l-6 8l-7 14l-10 4l-5 7l-10 8l-11 -5l-8 5l-13 1l-5 -13l-11 4l-13 -9l5 -16h-14l-6 -5l1 -10l-7 -7l6 -12l-7 -7l-5 -2l8 -9l-9 -9l12 -10l-14 -8l-1 -9zM705 740l-12 -10l3 -12l-8 -6l-12 -10l10 -18h-16l-12 -10l4 -13l-9 -5l-12 -11l4 -14l-10 -4
l-12 -10l6 -14l-11 -4l-12 -10v-11l-6 -7l-12 -10l11 -17l-16 -1l-12 -10l-3 -9l-3 -9l-12 -10l6 -14l-11 -4l-12 -10l4 -14l-10 -4l-12 -11l2 -12l-7 -6l-12 -10l8 -16l-14 -2l-12 -10v-10l-5 -8l-12 -10l3 -13l-9 -5l-12 -10l8 -15l-13 -3l-12 -10l10 -18h-16l-12 -11
l10 -16l-15 -2l-12 -10l-2 -10l-4 -8l-12 -10l-2 -9l-3 -9l-12 -10l-2 -10l-4 -8l-12 -10v-11l-5 -7l-12 -10l3 -13l-9 -5l-12 -10l7 -15l-12 -3l-12 -11l2 -13l-8 -5l-12 -10l9 -16l-14 -2l-12 -10l2 -12l-8 -6l-12 -10l1 -11l-6 -7l-1 4l-9 -4l-9 4l-9 -14l-9 10l-2 4
l-9 -9l-9 9l-9 -11l-9 7l12 10l-3 12l8 6l12 10l2 10l4 8l12 10l-9 16l14 2l12 11l-6 15l12 3l12 10l-7 15l12 3l12 10v11l6 7l12 10l4 8l1 10l12 10l-7 16l13 2l12 10l4 8l1 10l12 10l3 9l3 9l12 11l1 10l4 8l12 10l-7 16l13 2l12 10l3 9l2 9l12 10v11l6 7l12 10l-10 17
l15 1l12 10l-9 17l15 1l12 11l-7 15l12 3l12 10l-9 17l15 1l12 10l4 8l1 10l12 10l-6 15l12 3l12 10l-2 12l7 6l12 10l-6 15l12 3l12 10l-4 13l9 5l12 11l1 10l5 8l12 10v10l5 8l12 10l-2 12l8 6l12 10l3 9l2 9l2 -4l9 1l9 -1l9 10l9 -6l1 -4l9 10l9 -10l9 2zM846 184
l-6 -16l4 -9l-5 -9l10 -10l-7 -8l-7 -8l9 -12l-14 -5l5 -11l-5 -8l-7 -4l2 -11l-10 -5v-10l-4 -8h-6l-1 -11l-11 -2l3 -15l-11 -2l-5 2l3 -19l-18 9l-6 -7l-6 -7l-6 3l-4 -17l-13 11l-6 -13l-10 3l-9 4l-8 -11l-10 9l-7 -17l-10 10l-9 5l-9 -5l-9 7l-11 -16l-7 14l-2 6
l-12 -8l-6 13l-14 -13l-4 15l-1 6l-17 -10l2 20l-16 -9l-1 15l1 6l-15 -1l3 14l-19 -4l4 15l1 8l-17 1l9 15l-13 4l1 10l2 10l-8 7l4 11l-16 5l7 11l3 16l-13 8l12 10l-6 9v9l6 15l-6 9l7 9l-3 9v9l7 8v9l5 8l-5 11l5 8l7 3l-7 13l15 3l-6 13l10 5h6l-4 15l16 -2l3 9l5 8
l4 -3l3 13l12 -3l3 13l10 1l6 -3l8 7l9 -1l5 16l11 -6l9 -4l8 9l10 -7l8 4l9 3l9 -5h9l9 -2l9 8l9 -5l3 -6l13 10l5 -16l11 6l7 -7v-5l15 6v-17h10l7 -6l-1 -5l19 5l-7 -19l9 -3l6 -7l-1 -7l11 -4l-3 -12l16 -2l-4 -12l-2 -11l8 -7l-4 -11l17 -5l-8 -11l-3 -15l3 -9l-2 -9
l4 -9zM601 182l-4 -2l1 -9v-9l16 -7l-14 -10l15 -8l-9 -10l-2 -8l17 -4l-12 -13l7 -7l3 -9l7 -14l9 -4l6 -7l10 -8l11 5l8 -6h14l4 17l12 -8l13 9l-1 12l10 4l6 5v10l6 7l-4 11l5 8l5 3v9l1 9l-16 10l18 8l-6 9l3 9l4 3l-12 8l11 10l-2 8v9l-7 9l1 9l2 8l-8 7l3 10l-14 5
l4 11l-7 14h-14l-1 11l-11 8l-13 -11l-6 11l-13 1l-8 -6l-8 -4l-13 -9l1 -13l-10 -3l-7 -6l3 -11l-8 -6l5 -12l-6 -7l-5 -2l7 -9l-8 -9l6 -9l-8 -9v-9z" />
    <glyph glyph-name="ampersand" unicode="&#x26;" horiz-adv-x="726" 
d="M710 0l-16 4l-9 -7l-9 3l-15 4l-9 -1l-9 -3l-16 4l-9 -8l-9 4l-15 4l-9 -8l-9 4l-16 4l-9 -7l-9 3l-4 11l-15 -2l3 16l-19 -5l4 15l-3 11l-15 -1l3 14l-16 -2l1 13l-10 -3l-1 -12h-12l-3 -10l-7 -6l-9 -1l-6 -7l-8 -4l-6 -6l-6 -8l-7 1l-2 -16l-14 8l-5 -10l-9 -2l-9 2
l-6 -9l-11 4l-6 -13l-10 4l-12 4l-8 -2h-9l-8 -18l-10 12v5l-10 -12l-8 13l-9 -6l-9 8l-10 -14l-8 11l-11 8l-9 2l-8 3l-12 -7l-7 7l-6 8l-15 -8l-1 17l-8 3l-10 1l-1 7l-8 5l-6 6l-16 -5l-1 13l1 6l-17 -3l5 16l-16 -2l1 13l3 3l-15 1l6 15l-7 6l-6 7l-3 18l-14 4l3 11
l1 15l-13 7l5 10l3 12l-11 7l5 10l5 5l-11 10l13 8l-16 10l13 8l6 4l-2 10l8 7l-10 13l11 6l8 4v10l8 6l-8 15l13 3l11 7l-1 12l12 2l-7 17h14l16 8l2 11l11 1l3 10l7 6h7l-3 18l17 -7l7 5l7 5l-1 17l13 -2l-5 15l-7 7l-4 8l-9 5l-5 7l-4 18l-11 4l3 12l-15 3l3 11l1 18
l-16 7l13 11l-19 6l11 11l5 4l-9 10l12 8l-4 9l2 9l5 1l-12 16l20 1l-12 15l15 3h6l5 7l6 7l5 8l3 9l6 -1l5 8l9 3l6 7l5 8l6 -2l1 15l14 -7l2 16l12 -3l5 -3l4 17l13 -12l5 16l11 -6l4 -4l8 11l10 -9l7 12l10 -6l1 -5l9 4l9 -6l10 13l8 -15h9l9 2l9 -9l12 5l5 -12l12 5
l6 -8l3 -9l9 -3l5 -8l13 2l4 -10l-1 -7l9 -6l1 -9l11 -4l3 -9l-3 -6l15 -4l-8 -13l12 -5l-2 -10l-4 -4l17 -7l-15 -11l12 -7l-5 -10l-6 -9l10 -10l-13 -8l15 -11l-13 -7l-9 -9l-1 -9l-7 -7l10 -15l-14 -3l-14 -10l4 -15l-16 2v-12l-8 -5l-9 -2l3 -17l-17 6l-3 -10l-10 -2
l3 -18l-14 3l6 -15l13 -1l2 -10l6 -15l8 -5l7 -6l6 -15l17 1l-3 -13l6 -15l6 -7l9 -4l6 -15l17 2l-2 -13h6l4 8l8 5l-2 14l10 3h6l-3 14h14v12l8 5l16 -4l9 6l9 -2l17 -4l9 11l9 -7l16 -4l9 9l9 -5l17 -4l9 10l9 -6l16 -4l9 6l9 -2l-4 2l-1 -11l-11 -2l-4 -8l-4 -9l-15 -10
l-3 -9l-5 -8l-4 2l-5 -7l-7 -6l3 -15l-11 -2l-15 -10l3 -14l-11 -3l-4 2l7 -17l-19 4l-3 -9l-5 -8l-15 -10l6 -17h-14l7 -17l16 1l-1 -12l-3 -3l8 -4l3 -10l11 -2l4 -9l-3 -3l19 4l-8 -18l13 -2l1 -10l7 -17l17 2l-2 -13l-3 -3l16 2l-5 -16h14l1 -11l7 -17l9 -4zM289 100
l16 -2l7 10l10 -3l5 -3v18l15 -8l5 9l8 4l12 5l-1 15l14 -3l3 10l11 2l6 6l4 9l-6 16l-17 -2l2 13l-7 16l-16 -1l1 12l-6 15l-13 1l-2 10l-6 16l-8 5l-7 6l-7 16h-14l-1 11l-6 16l-17 -2l2 13l-10 -2l1 -16l-15 4l-5 -8l-9 -3l-1 -13l-10 -2l-10 -7l6 -14l-16 -1l6 -14
l-12 -3l-7 -16l17 -11l-19 -7l13 -10l-11 -8l-1 -17l9 -7l-5 -11l15 -5l-6 -11l4 -11l13 -1v-13l10 -3l5 -7l15 -8l12 9l5 -14l11 4zM279 572v-10l14 -4l-7 -13l12 -4l-4 -12l11 -5l-4 -12l7 -6l5 -8l11 6l4 8l8 5l-2 13l10 4l6 5l-4 10l8 7l-2 10l1 9l2 6l-9 5l-1 10l-12 3
l2 12l-10 4l-4 8l-11 -6v-12l-12 -2l-1 -11l-10 -3l8 -19z" />
    <glyph glyph-name="quotesingle" unicode="'" horiz-adv-x="250" 
d="M77 440l5 17l-5 9v9l5 17l-6 9l1 9l5 17l-9 9l4 9l5 17l-2 9l-3 9l5 16l-18 9l13 9l5 17l-6 9l1 9l5 17l-6 9l1 9l5 17l-15 9l10 9l12 -5l9 5l9 -5l9 8l9 -3l12 -5l9 14l9 -14l9 1l9 4l-5 -17l5 -9v-9l-5 -17l6 -9l-1 -9l-5 -17l11 -9l-6 -9l-5 -16l7 -9l-2 -9l-5 -17
l14 -9l-9 -9l-5 -17l9 -9l-4 -9l-5 -17l5 -9v-9l-5 -17l15 -9l-10 -9l-12 4l-9 -13l-9 13l-9 -14l-9 10l-12 4l-9 -9l-9 9l-9 -5z" />
    <glyph glyph-name="parenleft" unicode="(" horiz-adv-x="250" 
d="M246 -221l-8 2l-8 -2l-9 -3l-6 -10l-10 1l-8 2l-7 -9l-11 5l-5 -16l-11 7l-8 2l-7 -6l-10 1l-5 -13l-11 4l1 11l-19 3l14 14l-20 3l10 13l1 12l-18 4l13 13l-3 8l-6 8l2 10l-15 6l10 12l-4 8l-5 8l2 11l-9 7l5 11l-3 8l-6 8l2 10l-6 8l2 9l-16 6l8 11l2 11l-8 7l5 10
l-8 8v9l2 17l-19 6l16 11l-4 9l1 9l-3 9v9l-14 7l7 10l4 8l-10 8l8 10l-14 7l7 10l3 14l-7 8l6 10l-16 7l14 11l-15 7l13 11l-16 7l10 10l4 9l-13 9l13 9l-9 9l8 9l-7 9l7 9l-5 9v9l5 10l-4 9l4 9l-3 9l4 9l-12 9l12 9l-10 9l6 9l6 12l-4 9l5 9l-7 10l9 8l-12 10l14 8l-5 9
l2 9l5 8l-6 10l8 8l-6 9l4 9l7 15l-9 11l12 7l-12 11l15 7l-10 10l13 8l-2 9v9l6 9v9l4 8l-10 12l9 7l6 8l-10 12l14 5l-14 13l14 6l7 9l-2 10l6 7l-13 13l13 6l7 8v9l5 8l-6 11l6 8l7 9l-9 12l14 5l-8 12l9 7l7 8l1 10l5 7l-13 14l14 5l5 -6l11 4l6 -9l12 7l7 -8l6 -6l11 7
l6 -12l13 12l6 -12l5 -6l11 6l6 -11l12 9l7 -10l-6 -7l-2 -9l-3 -9l-1 -9l-3 -8l4 -11l-4 -8l-5 -3l6 -11l-11 -7l9 -11l-13 -6l7 -12l-7 -7l-5 -1l-1 -9l-2 -9l2 -9l-6 -8l5 -11l-4 -8l-7 -15l13 -12l-17 -5l9 -11l-8 -8l-7 -12l7 -10l-10 -7l9 -11l-8 -8l-7 -16l9 -10
l-11 -8l9 -10l-12 -8v-9l-2 -9l1 -9l1 -9l-5 -3l15 -10l-17 -8l3 -9v-9l-5 -1l12 -10l-13 -8l13 -10l-10 -8l-5 -16l9 -9l-6 -9l-5 -13l17 -9l-13 -9l-5 -10l15 -9l-10 -9l-5 -11l5 -9v-9l-4 -13l6 -9l-1 -9l-4 -15l9 -9l-3 -9l-4 -1l2 -9l-1 -9l18 -8l-12 -10l-4 -4l6 -8
l-4 -10l6 -8v-9l-2 -17l15 -7l-13 -11l6 -8l-3 -10l8 -8l-6 -10l15 -7l-8 -10l-2 -13l2 -9l1 -9l7 -8l1 -9l-1 -17l7 -7l-4 -10l12 -7l-4 -10l-4 -2l8 -7l-5 -11l15 -6l-11 -11l10 -7l-2 -10l-3 -6l6 -7l-2 -10l16 -5l-12 -13l15 -5l-6 -11l-2 -10l16 -5l-12 -12l12 -6
l-8 -12l8 -7z" />
    <glyph glyph-name="parenright" unicode=")" horiz-adv-x="250" 
d="M4 -221l6 7l-4 11l9 7l1 9l3 8l2 9l-2 10l5 3l-5 11l10 7l-5 10l9 7l-12 13l12 6h5l-3 10l7 8l-10 11l13 6l-15 13l15 6l6 10l-16 12l20 5l-15 12l18 6l1 9l2 9l-11 11l14 6v10l-1 9l7 16l-6 10l8 8v9l3 9l-3 9l5 9l-13 10l11 8l5 3l-6 9l8 9l-6 9l3 9l5 1l-18 10l19 8
l-2 9l-1 9l5 15l-1 9l-2 9l5 13l-13 9l9 9l5 11l-9 9l4 9l5 10l-13 9l8 9l4 13l-7 9l2 9l4 16l-15 8l9 10l4 1l-15 8l14 10l-16 8l10 10l4 4l-13 7l11 11l-9 8l3 9l2 17l-8 8l6 10l-7 8l4 10l-5 8l3 10l-4 8l-3 9l3 11l-14 7l10 11l-11 7l8 11l-6 8l3 9l-10 8l7 10l-15 7
l7 10l4 3l-7 8l3 10l-9 7l5 10l-9 8l1 9l3 6l-12 6l8 11l-15 6l11 12l-14 6l5 10l2 10l-4 8v9l-4 8v10l-14 6l5 10l8 -2l5 15l12 -10l4 19l12 -10l8 -2l8 5l10 -1l4 17l12 -8l8 -2l8 5h9l6 10l10 -1l-1 -11l14 -5l-9 -12l14 -5l-4 -11l-1 -12l4 -8l1 -9l18 -4l-9 -12l-2 -10
l9 -7l-4 -11l12 -6l-3 -10l-2 -11l12 -7l-8 -11l17 -5l-8 -11l-2 -10l11 -7l-7 -10l13 -7l-5 -10l-2 -11l1 -8l2 -9l3 -9l5 -8l-2 -17l8 -7l-5 -10l10 -8l-7 -10l12 -7l-9 -11l11 -7l-4 -10l-4 -9l3 -9l-1 -9l6 -8l1 -9l-3 -13l8 -8l-7 -10l17 -7l-15 -11l12 -7l-10 -11
l10 -8l-4 -9l-4 -10l11 -9l-11 -9l10 -9l-9 -9l10 -9l-10 -9l1 -9l4 -9l-5 -9l3 -9l-3 -9l15 -9l-16 -9l4 -9l-4 -9l12 -9l-8 -9l-6 -13l14 -10l-15 -8l9 -10l-11 -8l17 -10l-19 -8l13 -10l-10 -8l-5 -7l3 -9l-5 -9l4 -9l-2 -9l-7 -15l7 -10l-10 -8v-9l-3 -9l16 -11l-19 -7
l4 -9l-2 -9l-6 -9l3 -10l-7 -7l12 -12l-11 -7l-6 -8l2 -10l-6 -7l5 -11l-5 -8l-7 -9l11 -12l-15 -5l-2 -9l2 -10l-7 -8l2 -10l-7 -7l3 -11l-3 -8l-7 -9l7 -12l-12 -5l4 -11l-5 -8l-7 -8l9 -13l-15 -4l5 -11l-6 -8l-5 6l-10 -1l-7 6l-13 -11l-6 12l-6 6l-12 -10l-5 15
l-13 -12l-6 12l-5 6l-12 -7l-5 12l-11 -3z" />
    <glyph glyph-name="asterisk" unicode="*" horiz-adv-x="486" 
d="M214 490h-8l-6 -7l-9 -3l-3 -11l-9 -3l-9 -1l-2 -13l-13 3v-15l-12 1h-8l-1 -15l-14 5l-4 -9l-8 -5l1 6l-18 -1l9 16l-19 -1l5 14l1 7l-8 6l-2 9l-19 -2l6 15h9l1 18l15 -10l1 18l13 -6h9l5 10l11 -2l6 9l8 3h9l4 12l12 -4l4 12h10l-4 7l-16 -11v20l-15 -9l-3 13l-5 8
l-15 -11l-1 19l-8 3l-10 1l-4 7l-12 -3l-4 12l-9 1l-9 3l6 2l-4 13l14 2l4 8l1 10l6 1l4 8l5 7l-5 15l11 3l3 -8l9 -2l6 -8l9 -3l8 -4l2 -7l8 -5l7 -6l10 -2l7 -5l3 -8h11l4 -10h11l6 -7l4 15l-11 9l5 9l4 15l-14 9l8 9l4 15l-7 9l2 9l4 15l-15 8l9 10l5 -4l9 13l9 -13l9 6
l9 -2l4 -4l9 4l9 -4l9 2l9 2l-5 -7l13 -10l-14 -8l16 -10l-13 -8l-5 -8l13 -9l-14 -9l11 -9l-7 -9l-5 -7l3 -9l-4 -9l7 -9l-4 -9h7l5 8l10 2l1 14h11h8l2 13l13 -2l2 12l10 2h7l1 14l14 -4l1 14h11l-2 -6l9 -5v-11l11 -4l2 -9l-2 -5l17 -1l-8 -15l16 -1l-3 -12l-7 1l-2 -16
l-14 8l-1 -17l-13 4h-9v-17l-15 9l-7 -7l-7 -6l-7 1l-2 -17l-14 9l-4 -13h-10l3 -7l11 2l5 -10l13 5l5 -9l2 -6l16 11v-20l12 3l6 -7l3 -7l16 12v-20l12 3l6 -7l-6 -1l-1 -10l-7 -6l10 -16l-15 -2l-6 -1v-10l-8 -6l10 -16l-15 -2l-2 7l-9 4l-6 7l-17 -8v15l-3 7l-12 -2
l-3 13l-14 -6l-3 12l-2 7l-17 -7l2 18l-13 -2l-4 9l-4 -6l13 -8l-12 -10l8 -9l-2 -9l-4 -6v-9l1 -9l1 -9l4 -9l-4 -6l17 -8l-16 -10l2 -9l4 -9l-4 4l-9 -10l-9 10l-9 -1l-9 -3l-4 4l-9 -11l-9 11l-9 -14l-9 10l5 5l-4 9l5 9l-11 10l8 8l5 6l-15 10l16 8l-3 9l-1 9l5 5l-5 9
l6 9l-15 10z" />
    <glyph glyph-name="plus" unicode="+" horiz-adv-x="853" 
d="M376 378h4l-10 9l10 9l-15 9l11 9l4 1l-2 9l2 9l-9 9l5 9h4l-14 9l14 9l-17 9l13 9h4l-8 9l8 9l-14 9l10 9h4l-1 9l1 9l-12 9l8 9l4 1l-14 9l14 9l-17 9l13 9h4l-8 9l8 9l-14 9l10 9l16 -4l9 1l9 3l15 -4l9 14l9 -10l16 -4l9 11l9 -7h-5l14 -9l-14 -9l3 -9l2 -9l-5 -1
l7 -9l-7 -9l11 -9l-6 -9h-5l12 -9l-12 -9l12 -9l-7 -9h-5l5 -9l-5 -9l16 -9l-11 -9h-5l17 -9l-17 -9l4 -9l1 -9l-5 -1l18 -9l-18 -9l16 -9l-11 -9h-5l16 -9l-16 -9l8 -9l-3 -9v-4l9 5l9 -5l9 9l9 -5l17 -4l9 9l9 -5v-4l9 17l9 -17l9 14l9 -10l17 -4l9 16l9 -12v-4l9 1l9 -1
l9 8l9 -4l17 -4l9 3l9 1v-4l9 10l9 -10h9l9 4l-4 -15l1 -9l3 -9l-4 -16l12 -9l-8 -9l-4 -15l3 -9l1 -9v4l-9 -3l-9 3h-9l-9 -4l-17 4l-9 -4h-9v4l-9 -6l-9 6l-9 -6l-9 2l-17 4l-9 -9l-9 5v4l-9 -12l-9 12l-9 -6l-9 2l-17 4l-9 -13l-9 9v4l-9 -13l-9 13l-9 -6l-9 2l-5 -1
l5 -9l-5 -9l3 -9l2 -9h-5l15 -9l-15 -9l17 -9l-12 -9l-5 -1l14 -9l-14 -9l12 -9l-7 -9h-5l4 -9l-4 -9l8 -9l-3 -9l-5 -1l5 -9l-5 -9l12 -9l-7 -9h-5l10 -9l-10 -9l9 -9l-4 -9l-5 -1l12 -9l-12 -9l11 -9l-6 -9l-16 4l-9 -5l-9 1l-15 4l-9 -7l-9 3l-16 4l-9 -14l-9 10l4 1
l-13 9l13 9l-13 9l9 9h4l-14 9l14 9l-14 9l10 9l4 1l-2 9l2 9l-14 9l10 9h4l-9 9l9 9l-5 9l1 9l4 1l-10 9l10 9l-17 9l13 9h4l-7 9l7 9l-17 9l13 9l4 1l-7 9l7 9l-3 9l-1 9v4l-9 -17l-9 17l-9 -4h-9l-17 4l-9 -16l-9 12v4l-9 -2l-9 2l-9 -16l-9 12l-17 4l-9 -8l-9 4v4
l-9 -13l-9 13l-9 -16l-9 12l-17 4l-9 -9l-9 5v4l-9 -12l-9 12l-9 -7l-9 3l5 15l-1 9l-4 9l5 16l-1 9l-4 9l5 15l-17 9l12 9v-4l9 1l9 -1l9 10l9 -6l17 -4l9 1l9 3v-4l9 11l9 -11l9 14l9 -10l17 -4l9 4h9v-4l9 11l9 -11l9 15l9 -11l17 -4l9 3l9 1v-4l9 5l9 -5l9 16z" />
    <glyph glyph-name="comma" unicode="," horiz-adv-x="288" 
d="M29 -126l8 15l-14 13l14 6l8 15l-2 10l2 9l8 16l-13 13l13 6l8 15v10v9l8 15l-13 13l13 6l8 15l-6 11l6 8l8 16l-10 12l10 7l8 15l-13 13l13 6l15 -4l9 9l9 -5l15 -4l9 12l9 -8l16 -4l9 7l9 -3l15 -4h9l9 4l15 -4h9l9 4l-10 -12l11 -15l-15 -3l-11 -13l-2 -8l-1 -10
l-11 -12l5 -12l-9 -6l-11 -13l-2 -9l-1 -9l-10 -12l6 -13l-10 -5l-11 -13l10 -14l-13 -4l-11 -12v-10l-4 -8l-11 -13l8 -13l-11 -5l-10 -12l9 -14l-13 -4l-16 4l-9 -3l-9 -1l-16 4l-9 -5l-9 1l-16 4l-9 -16z" />
    <glyph glyph-name="hyphen" unicode="-" horiz-adv-x="375" 
d="M76 211l4 3l-14 9l14 9l-2 9l-2 9l4 3l-14 9l14 9l-9 9l5 9l4 3l-5 9l5 9l-10 9l6 9l1 -4l9 17l9 -17l9 7l9 -3l1 -4l9 17l9 -17l9 7l9 -3l2 -4l9 3l9 -3l9 17l9 -13l1 -4l9 4l9 -4l9 16l9 -12l1 -4l9 2l9 -2l9 16l9 -12l1 -4l9 8l9 -8l9 13l9 -9l-5 -3l17 -9l-17 -9
l10 -9l-5 -9l-5 -3l13 -9l-13 -9l8 -9l-3 -9l-5 -3l1 -9l-1 -9l1 -9l4 -9l-1 5l-9 -17l-9 17l-9 -2l-9 -3l-1 5l-9 -11l-9 11l-9 -2l-9 -3l-1 5l-9 -12l-9 12l-9 -15l-9 10l-2 5l-9 -5l-9 5l-9 -12l-9 7l-1 5l-9 -16l-9 16l-9 -4l-9 -1l-1 5l-9 -6l-9 6l-9 -17z" />
    <glyph glyph-name="period" unicode="." horiz-adv-x="288" 
d="M61 61l6 6l1 9l4 8l-12 13l12 6l8 1l-6 19l18 -6l1 12l9 4l8 -2l5 17l13 -13l5 14l11 -5l6 -6l12 12l5 -17l10 2l9 -2l1 -8l17 4l-4 -16l16 3v-13l-2 -8l4 -9v-9l11 -6l-2 -10l-6 -6l2 -10l-7 -7l1 -10l-1 -9l-8 -1l-2 -11l-10 -2l3 -16h-13l-8 2l-8 -5l-10 1l-4 -18
l-12 9l-6 6l-11 -7l-6 12l-13 -14l-6 14l-1 8l-16 -4l3 16l-9 4l-7 6l2 8l-7 8l3 10l-2 8z" />
    <glyph glyph-name="slash" unicode="/" horiz-adv-x="422" 
d="M-36 -93l10 13l3 8v10l10 14l-1 10l4 8l10 13l-6 12l9 6l10 13l-5 12l8 6l10 14l-9 13l12 5l10 13l-5 12l8 6l11 14l-7 13l10 5l10 13v10l3 8l10 13l-10 14l13 4l10 14l-3 11l6 7l10 13l-11 14l14 4l10 13l-9 13l12 5l10 14l1 9l2 9l10 13l-12 15l15 3l10 14l1 9l2 9
l10 13l-12 14l15 4l10 13l-8 13l11 5l10 14l-4 11l7 7l10 13l-5 12l8 6l10 13l-1 10l4 8l11 14l-8 13l11 5l10 13l-1 10l4 8l10 14l-9 13l12 5l10 13l-13 15l16 3l10 13l-2 10l5 8l10 14l-3 11l6 7l10 13l-5 12l8 6l17 -4l9 10l9 -6v-4h9h9l9 14l9 -10l17 -4l9 1l9 3l17 -4
l9 12l9 -8l-10 -13l12 -14l-15 -4l-10 -14l1 -10l-4 -8l-10 -13l2 -10l-5 -8l-10 -13l-2 -9l-1 -9l-10 -14l13 -15l-16 -3l-10 -13l11 -14l-14 -4l-11 -14l6 -12l-9 -6l-10 -13l-1 -9l-2 -9l-10 -13l-2 -9l-1 -9l-10 -14l10 -14l-13 -4l-10 -13l12 -15l-15 -3l-10 -13l4 -11
l-7 -7l-10 -14l11 -14l-14 -4l-10 -13l7 -13l-10 -5l-10 -14l10 -14l-13 -4l-10 -13v-9l-3 -9l-10 -13l10 -14l-13 -4l-10 -14l9 -13l-12 -5l-10 -13l-2 -9l-1 -9l-10 -13l4 -11l-7 -7l-11 -14l1 -10l-4 -8l-10 -13v-9l-3 -9l-10 -14l2 -10l-5 -8l-10 -13l9 -13l-12 -5
l-10 -13l-1 -9l-2 -9l-10 -14l11 -14l-14 -4l-10 -13l5 -12l-8 -6l-17 5l-9 -17l-9 12v5l-9 -14l-9 14l-9 -5h-9l-17 5l-9 -5h-9l-17 5l-9 -1z" />
    <glyph glyph-name="zero" unicode="0" 
d="M432 374l4 15l-16 9l15 9l-14 9l13 9l-4 9l-1 9l4 5l-18 7l16 11l-5 8l3 10l-18 7l11 10l1 13l-15 5l10 12l-10 6l1 10l2 5l-12 4l5 13l-9 6l-3 8l-6 15l-16 -1l1 12l-8 10h-10l-8 5l-12 6l-11 -11l-7 10l-13 2l-6 -19l-11 12l-13 -2l-5 -10l-8 -3l-13 -9v-12l-8 -5
l-6 -2l5 -12l-12 -4l5 -12l-9 -6l-8 -11l-1 -9l-4 -8l13 -13l-13 -6l-5 -4v-9l-2 -9l11 -10l-13 -8l15 -11l-13 -7l-5 -16l4 -9l-5 -9l6 -9l-7 -9l2 -9l2 -9l-4 -12l18 -9l-18 -9l17 -9l-16 -9l11 -9l-6 -9l-4 -2l3 -8l-1 -10l2 -8v-10l15 -7l-9 -10l-2 -13l19 -5l-15 -12
l10 -7l-2 -10l-3 -5l18 -3l-12 -14l14 -4l-4 -11l3 -15h17l-4 -13l5 -11l9 -3l7 -6l5 -8l15 9l3 -13l8 -6l11 13l7 -11l9 -3l8 3l9 4h10l4 12h10l10 4l3 10l7 6l11 10l1 10l4 8l6 2l-3 11l8 7l-9 12l11 6l7 11l-1 9l5 8l-14 13l13 6l5 2l-9 10l11 8l-16 10l18 8l-13 10l10 8
l5 12l-4 9l4 9l-4 9l5 9v9zM315 754v-4l10 14l8 -16l9 2l9 1l16 -8l12 8l7 -8l13 -10l11 4l7 -7l12 -13l16 8l2 -14l9 -14l13 1l4 -9l-3 -4l7 -5l5 -8l12 -2l3 -9l-3 -4l17 1l-7 -16l7 -6l7 -6l-2 -5h18l-10 -16l17 -1l-5 -13l-2 -7l13 -5l-7 -12l6 -7l5 -8l-2 -8l10 -6
l-5 -11l19 -4l-10 -12l-2 -11l5 -8l-2 -9l6 -8l2 -9l-3 -13l6 -8l-4 -10l15 -7l-9 -10l-4 -14l11 -9l-10 -9l5 -9v-9l-5 -17l11 -9l-12 -9l11 -9l-7 -9l-6 -13l4 -9l-6 -9l9 -10l-6 -8l-7 -11l7 -10l-10 -7l2 -10l-1 -9l-7 -7l9 -12l-13 -5l1 -10l-2 -9l-7 -5l2 -10l-8 -7
l-1 -9l-1 -9l-6 -2l3 -11l-11 -5l6 -13l-10 -5l-5 1l6 -15h-16l-1 -10l-5 -8l-4 2l6 -16l-18 3l5 -17h-13l-15 -8l-7 -6l-4 -9l-17 -5l-7 -5l-6 -8l-16 -2l-8 -6l-7 -6h-18l-8 -6l-9 -2v4l-8 -15l-10 14l-9 -7l-9 1v4l-10 -8l-8 10l-10 -10l-8 7l-16 8l-13 -15l-6 15l-13 11
l-11 -2l-7 5l-12 13h-11l-7 5l-10 14l-16 -5v14l3 4l-19 -4l7 17l-8 5l-7 6l3 4l-13 3l3 12l-10 5l-4 8l2 6l-15 3l7 13l-4 8l-8 6l2 8l-4 8l-2 9l-13 5l2 10l2 10l-17 4l12 13l-5 8l-4 8l2 12l-19 6l16 12l-4 9l-4 8l3 14l-16 7l14 11l-7 8l1 9l4 17l-7 9l6 9l-9 9l4 9
l5 14l-2 9l3 9l-14 9l10 9l6 12l-2 9l4 9l-3 9v9l6 9l-8 11l12 6l-12 12l11 7l6 5l-12 13l17 4l-5 11l6 8l6 4v10l7 7l2 8v10l6 1l2 9l6 7l-12 16l16 2l5 -1l4 8l6 7l1 10l5 7l4 -2l-2 13h14l-2 13l10 4l15 7l-2 17l13 -2l17 6l3 12l10 1l16 2l4 14l11 -3h18l8 6l9 2v-4
l8 15l10 -14l9 8z" />
    <glyph glyph-name="one" unicode="1" 
d="M516 0l-16 4l-9 -2l-9 -2l-16 4l-9 -1l-9 -3l-15 4l-9 -9l-9 5l-16 4l-9 -2l-9 -2l-16 4l-9 -2l-9 -2l-15 4h-9l-9 -4l-16 4l-9 -10l-9 6l-16 4l-9 -8l-9 4l-16 4l-9 -9l-9 5l-16 4l-9 -5l-9 1l-15 4l-9 -2l-9 -2l-16 4l-9 -8l-9 4l5 6l-1 9l1 9l-13 9l8 9l5 6l-5 9l5 9
l-12 9l7 9l5 6l-10 9l10 9l-14 9l9 9l15 -4l9 8l9 -4l15 -4l9 10l9 -6l15 -4l9 2l9 2l15 -4l9 3l9 1l5 16l-7 9l2 9l5 16l-10 9l5 9l5 16l-4 9l-1 9l5 16l-11 9l6 9l5 16l-17 9l12 9l5 16l-8 9l3 9l5 16l-11 9l6 9l5 16l-9 9l4 9l5 16l-10 9l5 9l5 16l-18 9l13 9l5 16l-14 9
l9 9l5 16l-16 9l11 9l5 16l-16 9l11 9l5 16l-10 9l5 9l-10 4l-9 -3l-9 3l-9 -13l-9 9l-10 4l-9 -4l-9 4l-9 -15l-9 11l5 5l-11 9l11 9l-1 9l-4 9l5 5l-14 9l14 9l-14 9l9 9l5 5l-7 9l7 9l-9 9l4 9l16 -5l9 11l9 -6l15 -5l9 6l9 -1l16 -5l9 13l9 -8l16 -5l9 7l9 -2l16 -5l9 6
l9 -1l15 -5l9 2l9 3l16 -5l9 12l9 -7l-5 -15l13 -9l-8 -9l-5 -16l10 -9l-5 -9l-5 -15l12 -9l-7 -9l-5 -15l14 -9l-9 -9l-5 -15l15 -9l-10 -9l-5 -16l5 -9v-9l-5 -15l8 -9l-3 -9l-5 -15l7 -9l-2 -9l-5 -15l16 -9l-11 -9l-5 -16l2 -9l3 -9l-5 -15l12 -9l-7 -9l-5 -15l8 -9
l-3 -9l-5 -16l6 -9l-1 -9l-5 -15l17 -9l-12 -9l-5 -15l7 -9l-2 -9l-5 -15l12 -9l-7 -9l-5 -16l3 -9l2 -9l-5 -15l12 -9l-7 -9l7 -4l9 8l9 -8l9 6l9 -2l7 -4l9 17l9 -17l9 9l9 -5l7 -4l9 7l9 -7l9 14l9 -10l-4 -6l15 -9l-15 -9l7 -9l-3 -9l-4 -6l2 -9l-2 -9l12 -9l-8 -9
l-4 -6l8 -9l-8 -9v-9z" />
    <glyph glyph-name="two" unicode="2" 
d="M305 126l17 -4l9 1l9 3l16 -4l9 2l9 2l17 -4l9 15l9 -11l17 -4l9 9l9 -5l17 -4l9 8l9 -4l17 -4l9 10l9 -6l16 -4h9l9 4l17 -4h9l9 4l-5 -6l5 -9l-5 -9l8 -9l-3 -9l-5 -6l7 -9l-7 -9l11 -9l-6 -9l-5 -6l3 -9l-3 -9l9 -9l-4 -9l-16 4l-9 -9l-9 5l-15 4l-9 -3l-9 -1l-16 4
l-9 -14l-9 10l-15 4l-9 -16l-9 12l-16 4l-9 -15l-9 11l-16 4l-9 -14l-9 10l-15 4l-9 -13l-9 9l-16 4l-9 -11l-9 7l-15 4l-9 -15l-9 11l-16 4l-9 -1l-9 -3l-15 4l-9 -6l-9 2l-16 4l-9 -1l-9 -3l-16 4l-9 -13l-9 9l-15 4l-9 -8l-9 4l-16 4l-9 -6l-9 2l-15 4l-9 -5l-9 1l-16 4
l-9 -5l-9 1l15 10l-4 16l12 1l15 10l-8 19l16 -2l15 10l-1 13l10 3l15 10l-4 16l12 1l15 10l3 9l5 8l15 10l4 9l4 8l15 10l-2 14l11 2l15 10l-5 16l13 1l15 10l5 7l3 10l15 10l5 8l3 9l15 10l-2 14l11 2l15 10l-4 16l12 1l12 7l-4 16l16 -2l2 9l9 5l4 8l8 5l-7 18l15 -1l8 3
l-2 12l12 2v12l11 3l-9 18l16 -1l7 3l-10 16h19l-3 12l8 6l9 12l-11 14l12 5l5 11l-14 10l11 8l3 7l-3 8v9l-13 7l5 10l2 5l-16 -1l5 15l-19 -3l5 15l-1 6l-9 2l-7 6l-9 3l-9 2l-8 6l-10 -8l-8 11l-9 -1l-9 -1l-5 4l-8 -4l-10 2l-8 -1l-9 -5l-18 -3l-5 -13l-10 2l-4 3l2 -13
l-13 -1l2 -13l-10 -4l-7 -8l2 -10l-8 -7l-1 -9l-1 -9l-5 -9l7 -9l-9 -9v-9l-1 -9l11 -10l-8 -8l-1 4l-9 -4l-9 4l-9 -11l-9 7v4l-9 -9l-9 9l-9 -13l-9 9l-1 4l-9 -8l-9 8l-9 -10l-9 6l-1 4l-9 -2l-9 2l-9 -3l-9 -1l4 5l-6 9l2 9l5 4l-9 9l10 9l-2 9l-1 9l5 3l-8 11l12 6
l-14 13l14 6l5 1l-4 11l11 6l-7 12l9 6h5l-2 12l12 3l-4 13l9 5l5 -1l-8 18l19 -4l-4 15l12 2l5 -2l-3 18l17 -6l-3 17l14 -2l6 -2l3 13l12 -3l6 7l7 6l7 -2l4 16l13 -9l7 8l8 3l9 -3l5 17l12 -12l7 12l10 -4l11 -4l9 1h9l8 14l10 -8l17 -6l10 13l8 -14l9 5l9 -2l12 -7l10 7
l7 -11l11 9l8 -8l6 -7l10 1l7 -8l13 8l5 -11l2 -7l11 1l4 -10h11l7 -6l-1 -5l7 -6l6 -7l14 2l2 -11l-2 -4h15l-5 -14l13 -2l2 -10l-4 -3l14 -3l-6 -13l16 -2l-4 -12l1 -18l16 -5l-7 -11h-4l5 -9l-4 -9l8 -9l-2 -9l-5 -12l6 -9l-2 -9l-6 -9l13 -12l-12 -7l-9 -12l-1 -8v-10
l-11 -13l6 -13l-10 -5l-7 -3l2 -11l-11 -4v-11l-5 -7l-12 -9l8 -17l-18 2v-11l-7 -6l-8 -2l4 -15h-15l-3 -9l-8 -5l4 -14l-11 -3l-5 1l1 -12l-12 -2l-1 -11l-10 -3l8 -18l-19 4l2 -13l-10 -4l-4 3l1 -12l-12 -2l5 -16l-13 -1l-4 2l7 -17l-18 3v-12l-8 -5l-4 2l-4 -8l-8 -5
l4 -16l-12 -1l-4 3l1 -13l-12 -1l-5 -8z" />
    <glyph glyph-name="three" unicode="3" 
d="M36 227v-5l9 4l9 -4l9 11l9 -6v-5l9 13l9 -13l9 8l9 -3l1 -5l9 5l9 -5l9 9l9 -4v-5l9 12l9 -12l9 18l9 -13l-4 -11l8 -8l-6 -9l2 -9l4 -9l-3 -4l5 -8l1 -9l6 -7l5 -8l8 -14l17 4l-1 -14l1 -5l12 6l5 -13l11 5l7 -7l12 -6l10 10l8 -12h9l9 3l5 -4l9 2l9 1l8 6l9 1l3 -4
l4 11l12 -2l4 10l9 3l5 -1l-3 14h14l4 9l4 8l7 7l-5 11l11 6l-6 11l8 7l6 17l-3 9l5 9l-13 10l10 8l4 3l-17 8l16 10l-16 8l10 10l-1 17l-17 4l7 12l-5 16l-17 -1l3 13l2 4l-14 -4l-1 14l-16 -8l-2 14l-8 7l-9 1l-8 4l-11 -3l-8 4l-4 5h-9l-9 1l-10 -12l-8 14l-9 -7l-9 4
l-9 5l-9 -7l-9 7l-9 -6l-9 1l-8 5l-9 -6l-9 6l-9 -14l-9 9l13 11l-9 17h16l13 10l-3 13l10 4l13 11l-5 14l12 3l13 10l3 9l4 8l13 11l2 9l4 8l13 11l-4 13l11 4l13 10l-6 16l13 1l13 11l5 7l2 10v4l-9 -1l-9 1l-9 -11l-9 7v4l-9 -12l-9 12l-9 -13l-9 9v4l-9 -4l-9 4l-9 -2
l-9 -2v4l-9 -16l-9 16l-9 -8l-9 4v4l-9 -6l-9 6l-9 -17l-9 13v4l-9 -16l-9 16l-9 -8l-9 4v4l-9 -14l-9 14l-9 -15l-9 11l5 5l-2 9l2 9l-12 9l7 9l5 4l-13 9l13 9l-17 9l12 9l5 5l-3 9l3 9l-2 9l-3 9l17 -4l9 9l9 -5l17 -4l9 2l9 2l17 -4l9 2l9 2v-4h9h9l9 10l9 -6l17 -4l9 8
l9 -4l17 -4l9 9l9 -5l17 -4l9 5l9 -1l17 -4l9 2l9 2l17 -4l9 8l9 -4l17 -4h9l9 4v-4l9 12l9 -12l9 4h9l17 -4l9 11l9 -7l17 -4l9 9l9 -5l17 -4l9 13l9 -9l-13 -10l2 -12l-9 -5l-13 -10l3 -13l-10 -4l-12 -10l-4 -8l-3 -9l-13 -10l-2 -9l-5 -8l-13 -11v-11l-7 -6l-13 -10
l2 -13l-9 -4l-12 -10l-3 -9l-4 -8l-13 -10l3 -13l-10 -4l-13 -10l8 -17h-15l13 -9l11 5l6 -10l12 7l7 -8l5 -8l12 3l4 -11l12 4l6 -9l2 -7l18 8l-5 -20l16 4l1 -12l-2 -5l18 2l-7 -17l18 3l-3 -14l-3 -4l12 -4l-4 -12l7 -6l5 -8l-4 -2l16 -5l-10 -12l7 -7l3 -9l-4 -2l16 -7
l-13 -11l12 -7l-5 -10l-4 -1l1 -9v-9l13 -9l-8 -9l-5 -6l13 -10l-14 -8l5 -9l-2 -9l-6 -5l7 -11l-11 -6l9 -12l-8 -7l-6 -4l1 -10l-8 -7l8 -13l-11 -5l-6 -2l1 -11l-10 -5l1 -11l-6 -7l-7 -1l-5 -8l-6 -6l3 -15l-11 -2h-7l2 -16l-15 4v-13l-10 -3l-7 1l-2 -15l-13 5l-1 -16
l-12 2l-7 2l-2 -17l-14 9l-7 -7l-8 -4l-8 2l-7 -9l-11 5l-7 -8l-9 -1l-11 4l-7 -16l-10 14l-9 -2l-9 -4l-12 5l-9 -11l-9 12l-9 -7l-9 4l-7 6l-10 -4l-7 7l-12 -14l-7 13l-4 6l-11 -3l-6 9l-13 -9l-6 10l-1 6l-9 1l-7 7l-13 -6l-5 10l1 5l-12 -1l-2 12l-11 1l-6 7l2 5
l-19 -6l7 19h-14l-2 10l3 4l-11 3l1 12h-17l4 13l3 5l-18 3l11 14l-11 5v10l3 7l-4 8v9l-14 6l6 11l4 9l-10 9l9 9l-1 9z" />
    <glyph glyph-name="four" unicode="4" 
d="M232 270l1 -4l9 4l9 -4l9 4h9l1 -4l9 11l9 -11l9 11l9 -7l1 -4h9h9l9 6l9 -2l5 1l-4 9l4 9l-11 9l6 9l5 1l-9 9l9 9l-1 9l-4 9l5 1l-5 9l5 9l-1 9l-4 9l5 1l-15 9l15 9l-9 9l4 9l-4 2l5 -15h-16l-2 -9l-5 -8l-4 2l8 -17l-19 3l7 -16l-14 -1l-5 1l-3 -8l-8 -6l5 -15
l-12 -2l-4 2l-5 -7l-6 -7l6 -15l-13 -2l-4 2l1 -12l-12 -3l-4 -8zM488 0v4l-9 -7l-9 7l-9 -16l-9 12v4l-9 -9l-9 9l-9 -2l-9 -2l-1 4l-9 -10l-9 10l-9 -2l-9 -2v4l-9 -5l-9 5l-9 -5l-9 1l5 2l-18 9l18 9l-5 9v9l5 2l-4 9l4 9l-1 9l-4 9l5 3l-9 9l9 9l-11 9l6 9l5 2l-12 9
l12 9l-15 9l10 9l-15 5l-9 -7l-9 2l-16 5l-9 -8l-9 3l-15 5l-9 -6l-9 1l-16 5l-9 -16l-9 11l-15 5l-9 -12l-9 7l-15 5l-9 -4l-9 -1l-16 5l-9 -9l-9 4l-15 5l-9 -6l-9 1l-16 5l-9 -17l-9 12l-15 5l-9 -8l-9 3l14 10l-5 15l12 2l13 9l1 11l7 6l13 10l-2 12l9 5l14 10l-9 18
l16 -1l14 10l-1 12l8 5l13 9l2 10l6 7l14 10l-5 15l12 2l14 10l2 10l5 7l13 10l-9 18l16 -1l13 9l3 9l5 8l14 10l-1 12l8 5l14 10l-6 16l13 1l14 10l-1 12l8 5l13 9l6 7l2 10l13 10l-4 14l11 3l14 10l-1 12l8 5l14 10l-7 16l14 1l13 9l3 10l5 7l14 10l1 10l6 7l14 10l5 8
l2 9l13 10l2 9l5 8l13 9l3 9l5 8l14 10l-9 18l16 -1l-4 -15l16 -9l-12 -9l-4 -15l8 -9l-4 -9l-4 -16l14 -9l-10 -9l-4 -15l17 -9l-13 -9l-4 -15l15 -9l-11 -9l-4 -15l10 -9l-6 -9l-4 -15l6 -9l-2 -9l-4 -16l7 -9l-3 -9l-4 -15l1 -9l3 -9l-4 -15l15 -9l-11 -9l-4 -15l6 -9
l-2 -9l-4 -15l17 -9l-13 -9l-4 -16v-9l4 -9l-4 -15l13 -9l-9 -9l-4 -15l1 -9l3 -9l15 -4l9 15l9 -11l16 -4l9 4h9l15 -4l9 8l9 -4l-4 -3l5 -9l-5 -9l4 -9v-9l-4 -3v-9v-9l4 -9v-9l-4 -3l6 -9l-6 -9l9 -9l-5 -9l-15 5l-9 -8l-9 3l-16 5l-9 -12l-9 7l-15 5l-9 -9l-9 4l-4 -2
l12 -9l-12 -9l5 -9l-1 -9l-4 -3l1 -9l-1 -9l3 -9l1 -9l-4 -2l11 -9l-11 -9l3 -9l1 -9l-4 -2l3 -9l-3 -9l8 -9z" />
    <glyph glyph-name="five" unicode="5" 
d="M541 725l-5 -4l10 -9l-10 -9l3 -9l2 -9l-5 -5l18 -9l-18 -9l13 -9l-8 -9l-5 -4l17 -9l-17 -9l16 -9l-11 -9l-16 4l-9 -14l-9 10l-15 4l-9 -9l-9 5l-16 4l-9 -8l-9 4l-15 4l-9 -4h-9l-16 4h-9l-9 -4l-15 4l-9 -14l-9 10l-16 4l-9 -12l-9 8l-15 4l-9 -10l-9 6l-16 4l-9 -9
l-9 5l-5 -7l11 -10l-12 -8l13 -10l-10 -8l-5 -6v-9l-1 -9l3 -9v-9l-5 -7l2 -9l-3 -9l1 -9l2 -9l11 -3l7 18l11 -15l9 2h9l8 10l10 -7l8 8l9 -1l9 -5l9 8l9 -9l9 9l9 -6l5 -5l9 -2l8 -1l12 13l7 -12l2 -5l11 5l6 -11l13 12l5 -14v-5l11 2l5 -10l8 -4h10l-2 -4l11 -1l3 -10
l15 4l2 -12l8 -16l15 2l1 -12l-3 -3l6 -7l3 -9l13 -3v-10l-4 -3l7 -8v-9l9 -6l2 -9l-3 -6l5 -8l-1 -9l5 -8l3 -9l-4 -8l3 -9l-2 -9l8 -9l-2 -9l-6 -16l2 -9l-3 -9v-9l3 -9l-7 -10l-1 -9l-3 -8l9 -12l-8 -7l-7 -6l-3 -8l-4 -9l-2 -8v-10l-7 -2l2 -12l-11 -3l9 -17l-15 -1h-6
l1 -13l-13 -1l-5 -8l-4 -8l-5 2l-1 -14l-14 3l-5 -8l-6 -7l-5 2l-5 -9l-11 1l-5 -9l-9 -3l-5 3l-3 -19l-14 13l-8 -7l-8 -3l-6 3l-8 -4l-9 1l-9 -2l-8 -6l-6 4l-9 -9l-9 8l-9 -11l-9 5l-13 5l-9 -10l-9 11l-10 -14l-8 11l-9 6l-10 -4l-7 8l-11 -6l-8 5l-5 7l-10 -2l-7 8
l-14 -12l-4 14l-1 6l-13 -6l-2 15l-10 1l-8 4l1 5h-13l-1 12l-10 2l-6 7l2 4l-18 -3l8 17l-12 3l-3 9l3 4l-15 2l7 14l-10 5l-2 9l3 5l-10 7l6 11l-20 4l11 12l4 8l-8 8l6 9l-5 9l-1 9l17 -5l9 13l9 -8l17 -5l9 5h9l17 -5l9 18l9 -13l17 -5l9 4l9 1l-3 -7l9 -7l-6 -10l16 -6
l-8 -11l-3 -3l12 -2l-1 -12l5 -7l9 -5l2 -6l13 7l3 -14l11 2l7 -6l11 -6l11 14l7 -16l9 2h9l6 -4l8 6l10 -4l9 2l8 5l18 3l6 8l8 4l15 10l3 9l5 8l7 5l-14 15l19 3l-12 13l14 5l5 3l-8 9l9 9l-14 10l15 8l-17 10l14 8l4 9l-16 7l14 10l-11 9l5 9l4 2l-9 6l3 11l-11 5v10
l-8 14l-7 6l-9 4l1 5l-15 -11l-2 18l-10 -2l-8 5l-11 6l-11 -17l-7 19h-9l-9 -3l-2 4l-9 -14l-9 13l-9 -1l-9 -4l-10 3l-7 -17l-11 15l-8 -6l-9 -1l-6 3l-7 -10l-11 7l-7 -8l-10 4l-8 -6l-9 -2l-5 3l-9 -2l-9 -2l-7 -7l-10 2l-7 -8l-11 4l-6 -12l-10 3h4l-6 9l8 9l-11 10
l8 8l6 17l-7 10l5 8h4l-11 10l13 8l-5 9l2 9h4v9l2 9l-3 9v9h4l-10 10l12 8l-3 9v9l6 17l-2 9v9h4l-7 9l9 9l-3 9v9h4l-4 9l6 9l-11 10l8 8h4l-10 10l12 8v9l-3 9l6 17l-5 9l3 9h4l-3 9l5 9l-10 10l7 8l17 -5l9 9l9 -4v-5l9 1l9 -1l9 5h9l17 -5l9 1l9 4l17 -5l9 15l9 -10v-5
l9 9l9 -9l9 14l9 -9l17 -5l9 4l9 1l17 -5l9 18l9 -13v-5l9 16l9 -16l9 3l9 2l17 -5l9 13l9 -8l17 -5l9 1l9 4v-5l9 14l9 -14l9 8l9 -3l17 -5l9 3z" />
    <glyph glyph-name="six" unicode="6" 
d="M208 225l-4 -2l16 -7l-14 -11l19 -6l-16 -12l16 -7l-9 -10l-1 -8l6 -7l3 -9h19l-6 -13l1 -6l16 9l-1 -19l15 7l2 -13l7 -6h9l9 -3l10 6l8 -4l11 -3l7 12l11 -9l8 6l9 1l6 -2l-2 18l17 -8l4 10l8 4l7 3l-3 12l11 4l-4 12l9 6l5 1l-14 10l16 8l-14 10l16 8l-5 9l2 9l2 18
l-17 7l15 11l-2 9l-5 8l1 8l-13 4l4 12l-5 8l-7 6l-1 6l-12 -2l-3 12l-10 1l-7 5l-9 6l-11 -11l-6 14l-12 -15l-7 14l-9 3l-6 -17l-12 14l-8 -6l-9 -2l-6 2l-6 -8l-9 -2l-1 -14h-11l-8 -4l-1 -10l-7 -6l-3 -9l-2 -9l-7 -17l3 -9l-5 -9l11 -10zM352 732l15 -4l9 5l9 -1l16 -4
l9 10l9 -6l15 -4l9 8l9 -4l16 -4l9 13l9 -9l15 -4l9 16l9 -12l-13 -10l-3 -9l-4 -8l-12 -10l-4 -8l-3 -9l-13 -9l8 -17h-15l-13 -10l-3 -9l-4 -8l-12 -10l-3 -9l-4 -8l-13 -10l5 -15l-12 -2l-13 -10l2 -13l-9 -4l-13 -9l5 -15l-12 -2l-12 -10l-3 -9l-4 -8l-13 -10l-1 -10
l-6 -7l13 -6l10 9l8 -10l10 14l8 -11l8 -7l10 5l7 -9l11 6l8 -6l4 -7l13 7l4 -15l13 8l5 -11l2 -7l13 3l2 -13l14 4l3 -11v-6l6 -6l6 -7l16 3v-13l-1 -6h16l-7 -15l6 -8l8 -5l-2 -5l8 -6l-1 -11l4 -8l8 -6l-3 -6l19 -5l-15 -13l15 -5l-6 -11l-4 -5l14 -8l-13 -10l8 -9l-2 -9
l-5 -3l4 -9l-5 -9l1 -9l3 -9l-5 -2l-2 -9l-2 -8l-1 -9l2 -10l-5 1l-2 -9l-3 -9l9 -12l-11 -6l-5 1l10 -16h-18l7 -14l-12 -4l-4 2l-5 -7l-6 -7l7 -16l-14 -1l-5 2l-2 -11l-11 -1v-13l-10 -3l-5 3l-3 -12l-12 2l-6 -7l-7 -6l-7 2l-6 -9l-10 2l-2 -18l-13 7l-10 2l-7 -9l-10 5
l-9 -3l-8 -5l-13 4l-8 -15l-10 14l-9 -13l-9 7l-15 6l-9 -6l-9 7l-10 -13l-8 10l-10 7l-10 -3l-7 8l-13 -11l-6 11l-5 7l-12 -4l-5 12l-11 -3l-7 6l-3 8l-16 -7l1 17l-15 -5l-2 12v7l-7 6l-6 6l-14 -1l-2 11l1 7l-11 3l1 12l-19 -2l5 14l2 6l-19 1l12 15l-6 7l-5 8l3 6
l-11 7l6 11l-16 5l7 11l4 6l-15 8l14 10l-17 8l11 10h4l-7 9l8 9l-10 9l6 9l7 16l1 9l-3 9l9 15v10l1 9l6 2l1 10l7 7l-6 12l9 6l11 10l-4 13l13 3l2 9l3 9l9 5l4 9l6 6l-10 18l20 -3l-6 15l12 3l8 4l-4 14h14l-7 17l18 -2l-3 13l13 2l4 8l3 9l4 -2l2 10l9 5l-3 13l10 4
l4 -2l-8 17l19 -2l4 8l3 9l4 -2l-8 17l19 -2l1 10l6 7l4 -2l-5 15h15l-2 12l9 5l4 -2l-4 15h15l-8 16l15 1l4 -2v12l11 3l-4 14l11 3l4 -2l-5 15h16l-9 18z" />
    <glyph glyph-name="seven" unicode="7" 
d="M252 0l-4 4l-9 -1l-9 1l-9 -14l-9 10l-5 4l-9 -12l-9 12l-9 -6l-9 2l-5 4l-9 -13l-9 13l-9 -6l-9 2l-4 4l-9 -13l-9 13l-9 -8l-9 4l11 12l-2 11l6 7l11 12l-9 15l13 3l11 12l-8 14l12 4l11 12l3 8l1 10l11 12l-6 13l10 5l11 12l-3 11l7 7l11 12l-11 15l15 3l11 12l-12 16
l16 2l11 12l1 9l3 9l11 12l-3 12l8 6l11 11l-8 14l12 4l11 12l-9 14l13 4l11 12l-10 15l14 3l11 12l-3 12l7 6l11 12l-5 12l9 6l11 12l4 8v10l11 12l1 9l3 9l11 12l1 10l3 8l11 12l-5 12l9 6l11 12l-5 12l9 6l-16 5l-9 -3l-9 -2l-15 5l-9 -2l-9 -3l-16 5l-9 -18l-9 13l-16 5
l-9 -13l-9 8l-16 5l-9 -12l-9 7l-15 5l-9 -16l-9 11l-16 5l-9 -10l-9 5l-16 5l-9 -2l-9 -3l-15 5l-9 -5h-9l-16 5l-9 -11l-9 6l4 6l-16 9l16 9l-1 9l-3 9l4 6l-16 9l16 9l-5 9l1 9l4 6l-12 9l12 9l-8 9l4 9l16 -5l9 13l9 -8l16 -5l9 16l9 -11l17 -5l9 7l9 -2l16 -5l9 12
l9 -7l16 -5l9 13l9 -8l16 -5l9 18l9 -13l16 -5l9 16l9 -11l17 -5l9 18l9 -13l16 -5l9 16l9 -11l16 -5l9 2l9 3l16 -5l9 16l9 -11l16 -5l9 17l9 -12l16 -5l9 15l9 -10l17 -5l9 2l9 3l16 -5l9 8l9 -3l16 -5l9 11l9 -6l-11 -12v-10l-4 -8l-10 -12l10 -15l-14 -3l-11 -13l1 -11
l-5 -7l-10 -12l3 -11l-7 -7l-11 -12l5 -12l-9 -6l-10 -12l9 -14l-13 -4l-11 -12l9 -14l-13 -4l-11 -13l2 -10l-5 -8l-11 -12l11 -15l-15 -3l-10 -12l-4 -8v-10l-11 -12l4 -12l-8 -6l-11 -13l-2 -8l-1 -10l-11 -12l3 -12l-7 -6l-11 -12v-10l-4 -8l-10 -12l7 -13l-11 -5
l-11 -12l11 -15l-15 -3l-11 -13l11 -14l-14 -4l-11 -12v-10l-4 -8l-10 -12l-2 -9l-2 -9l-11 -12l5 -12l-9 -6l-10 -12l-2 -9l-2 -9l-11 -13l-2 -9l-2 -9l-10 -12l-1 -10l-3 -8l-11 -12l7 -14z" />
    <glyph glyph-name="eight" unicode="8" 
d="M419 210l4 1l-3 9l1 9l-3 8l1 10l-9 8l3 9l1 9l-16 2l8 14l-8 6l-4 8l-2 7l-13 -3l-1 14l-16 -7l-1 14l-10 6l-10 -8l-7 11l-12 -13l-7 12l-11 3l-7 -16l-11 13l-9 -3l-8 -5h-7l1 -16l-15 5l-6 -7l-6 -7l-7 -5l-4 -8l-4 -8l11 -15l-15 -3h-5l13 -10l-14 -8l12 -10l-14 -8
l-1 -9l3 -9l-3 -13l2 -9l1 -9l8 -8l-1 -9l-3 -5l15 -1l-5 -14l12 -3l1 -10v-5l15 8v-18l12 2l6 -7l8 -6l10 7l8 -10l10 9l8 -7l9 -3l8 8l10 -5l8 6l9 1l5 -3l4 11l11 -1v17l13 -4h5l3 8l7 7l2 10l3 8l6 12l-1 9l4 9l-13 11zM568 210l-5 -11l2 -9l-4 -9l6 -9l-3 -9l-6 -6
l14 -13l-19 -4l12 -13l-12 -6l-6 -2l6 -13l-14 -3l10 -15l-14 -3l-6 -1l3 -14h-14v-12l-8 -5h-6l-5 -8l-9 -4v-12l-10 -3l-6 1l-3 -13l-13 4l-1 -16l-12 3l-8 2l-2 -20l-15 14l-4 -16l-11 5l-9 3l-7 -11l-10 7l-8 -8h-9l-11 4l-8 -18l-10 17l-8 -18l-10 12l-11 5l-10 -14
l-8 15l-9 1l-9 -4l-7 6l-12 -15l-5 19l-10 -2l-9 1l-5 7l-11 -6l-6 12l-10 -2l-8 4l-2 6h-11l-4 10l-10 1l-8 4v6l-11 2l-3 10l-10 2l-6 7l1 6l-7 7l-4 8l-18 -3l3 14l2 6l-19 1l11 15l-13 4l1 10l2 8l-9 7l5 11l-19 4l10 12l4 12l-14 7l12 10l-3 9l-3 9l6 17l-12 10l14 8
l-8 9l5 9l7 8l-4 11l10 6l-7 12l8 7l7 4l-2 12l12 3l-8 15l13 3h6l5 7l8 6l-1 13l10 3l6 -1l-1 18l16 -9l3 12l10 2l-2 7l-9 2l-5 9l-17 -8v15l-1 8l-10 4v10l-13 2l-2 10v11l-19 1l12 15l-10 5l-1 10l2 17l-14 7l12 11l-2 9l-5 8l5 8v9l2 9l1 9l-3 9l6 5l-1 10l7 7l-1 10
l2 9l6 2l3 8l6 7l2 9l3 9l7 1l4 8l8 5l4 8l5 8h8l1 14l14 -4l2 13l10 1l8 -2l5 10l11 -2l8 5l7 6l11 -2l6 13l12 -9l8 5l8 4l13 -3l8 13l10 -12l8 14l10 -8l13 -6l9 3l9 -4l9 5l9 -2l8 -7l12 13l5 -17l12 7l7 -7l5 -7l13 7l4 -14l10 2l8 -5l2 -7l13 3l2 -13l16 7l1 -14v-7
l14 1l-2 -14l19 5l-3 -15l-1 -6l11 -4l-2 -12l11 -4l2 -9l-2 -8l14 -5l-9 -12l9 -7l1 -9l-4 -9l2 -8v-9l10 -9l-4 -9l-6 -16v-9l-2 -9l2 -9v-9l-8 -7l5 -12l-12 -5l7 -12l-10 -6l-8 -3l4 -15l-15 1v-12l-8 -5l-6 1l3 -19l-18 8l3 -18l-14 3l1 -6l17 9l-2 -19l18 10v-16v-6
l8 -4l4 -9l8 -5l8 -5v-8l7 -6l2 -10l13 -3v-10l-1 -11l5 -8v-9l10 -7v-9l-3 -18l18 -7l-16 -11l13 -7zM316 447l15 -1l7 9l11 -5l5 18l11 -9l9 4v12l12 2l6 7l2 10h5l-10 11l13 7l-6 10l9 7l-14 12l13 7l2 13l-20 5l15 12l-9 7l1 10l-2 8l-10 2l-3 10l-11 1l-5 8l-11 7
l-12 -12l-5 16l-11 -8l-8 7l-13 2l-7 -9l-10 5l-8 -9l-9 1l-8 -1l-3 -11l-11 -2l-1 -12l-9 -3l-7 -11l10 -12l-14 -5l3 -11l-3 -8l-4 -2l16 -6l-13 -11l6 -8l-3 -10l13 -7l-5 -10l3 -11l17 3l-5 -16l12 -2l3 -9l13 -8l13 15l4 -19l13 12l6 -12h2z" />
    <glyph glyph-name="nine" unicode="9" 
d="M422 507l4 2l-3 9l1 9l-4 9l1 9l-10 8l3 9l1 8l-16 1l7 15l-9 5l-4 8l-1 6l-13 -4l-2 14l-15 -8l-2 14l-7 6l-10 -8l-8 11l-11 -13l-7 11l-11 3l-7 -16l-11 13l-9 -2l-8 -5l-6 2l1 -17l-16 7l-6 -7l-6 -7l-7 -3l-4 -8l-4 -8l10 -16l-15 -2l-5 -1l13 -10l-15 -8l12 -10
l-14 -8v-9l3 -9l-2 -18l2 -9v-9l8 -8l-1 -9l-1 -8l14 -3l-5 -13l12 -4v-10l1 -6l15 8v-18l11 1l6 -7l9 -6l10 6l7 -9l11 8l8 -7l9 -3l8 9l10 -6l8 7l9 1l6 -2l3 11l12 -1l-1 17l13 -3l8 4l2 9l6 7l2 9l3 9l7 17l-2 9l4 9l-13 10zM278 0l-15 4l-9 -11l-9 7l-16 4l-9 -15
l-9 11l-15 4l-9 -10l-9 6l-16 4l-9 -7l-9 3l-15 4l-9 -3l-9 -1l13 10l-2 12l9 5l12 10l-3 13l10 4l13 9l-6 15l13 2l13 10l-9 18l16 -1l12 10l-5 15l12 2l13 10l-2 13l9 4l13 10l1 11l6 6l13 9l-9 18l16 -1l12 10l-8 17h15l13 10l-6 16l13 1l-14 6h-9l-9 1l-10 -16l-8 13
l-8 7l-10 -2l-7 6l-11 -7l-8 7l-5 7l-11 -1l-6 8l-10 -2l-8 5l-1 6l-10 3l-5 8h-11l-6 7l1 6l-11 2l-2 10l-7 6l-9 4l2 6l-18 -1l8 16l-19 -2l5 14l2 6l-12 4l5 12l-10 6l-1 9l3 6l-18 5l14 13l-15 5l6 11l4 7l-3 9l2 9l-14 8l8 10l5 3l-9 9l10 9l-7 9l3 9l5 2l-8 11l12 6
l-7 11l6 8l5 -1l-11 14l16 4l2 8v10l5 -1l-4 13l12 3l-10 16l15 2l4 -2l-1 12l12 2l2 9l5 8l5 -2l-5 18l18 -6l2 11l8 5l5 -3l2 13l13 -3l-1 19l14 -6l7 -2l5 11l11 -4l3 15l12 -4l10 -2l9 2l8 2l9 3l8 5l13 -4l9 2l9 -1l9 6h9l15 -6l9 3l9 -4l9 1l9 2l10 -7h9l8 -5h10h9
l5 -7l10 -1l7 -7l12 7l6 -10l3 -8l13 3l2 -13h11l6 -7v-7l8 -5l5 -7l14 1l2 -11l-1 -7l8 -5l2 -10h16l-2 -12l-2 -6l15 -3l-8 -13l7 -7l4 -8l-3 -6l8 -8l-3 -10l17 -4l-8 -12l-4 -6l10 -9l-9 -9l12 -9l-6 -9h-4l6 -9l-7 -9l10 -9l-6 -9l-7 -16l14 -11l-12 -7l-9 -15l8 -12
l-9 -7l-6 -2l12 -16l-20 -1l4 -11l-7 -7l-11 -10l2 -12l-11 -4l6 -14l-11 -4l-9 -5v-11l-10 -4l-4 -8l-6 -7l3 -13l-9 -5l-8 -4l-4 -8l-6 -6l-3 -10l-8 -5l3 -13l-13 -2l4 -13l-11 -4l-4 2l5 -15h-16l1 -12l-8 -5l-4 2l8 -17l-19 2l8 -16l-15 -1l-4 2l8 -18l-19 3l9 -18
l-16 1l-4 2l-3 -9l-7 -6l-4 -8l-3 -9l-4 2l-3 -10l-8 -5l3 -13l-10 -4l-4 2l-3 -9l-8 -6l1 -11l-8 -6l-4 2l8 -18l-19 3l5 -14z" />
    <glyph glyph-name="colon" unicode=":" horiz-adv-x="300" 
d="M66 65l6 6l1 9l4 8l-5 11l5 8l8 1l-4 17l16 -4l-4 17l14 -1l8 -2l7 9l11 -5l8 6l8 3l6 -6l10 3l7 -8l13 11l6 -11l1 -8h13v-12l11 -2l5 -8l-2 -8l17 -5l-13 -13l11 -6l-2 -10l-6 -6l6 -11l-11 -6l1 -10l-1 -9l-8 -1l-1 -12l-11 -1l-3 -10l-7 -6l-8 2l-8 -7l-10 3l-5 -14
l-11 5l-6 6l-11 -5l-6 10l-12 -10l-7 10l-1 8l-9 4l-4 8h-13l-3 10l2 8l-18 5l14 13l-9 7v9zM67 439l6 6l-14 13l19 4l-15 14l15 5l8 1l5 8l7 5l-4 18l14 -2l8 -2l4 19l14 -15l8 3l8 6l6 -6l11 4l6 -9l10 2l9 -2l1 -8l14 2l-1 -14l12 -1l4 -9l-2 -8l7 -8l-3 -10l15 -5
l-6 -11l-6 -6v-9l-5 -8l3 -10l-3 -9l-8 -1l-2 -11l-10 -2l1 -14l-11 -2l-8 2l-6 -13l-12 9l-6 -11l-10 2l-6 6l-9 1l-8 4l-11 -4l-8 4l-1 8l-7 6l-6 6l-12 1l-4 9l2 8l-19 4l15 14l-19 4z" />
    <glyph glyph-name="semicolon" unicode=";" horiz-adv-x="300" 
d="M67 439l6 6l1 9l4 8l-5 11l5 8l8 1l-4 17l16 -4l-4 17l14 -1l8 -2l7 9l11 -5l8 6l8 3l6 -6l10 3l7 -8l13 11l6 -11l1 -8h13v-12l11 -2l5 -8l-2 -8l17 -5l-13 -13l11 -6l-2 -10l-6 -6l6 -11l-11 -6l1 -10l-1 -9l-8 -1l-1 -12l-11 -1l-3 -10l-7 -6l-8 2l-8 -7l-10 3l-5 -14
l-11 5l-6 6l-11 -5l-6 10l-12 -10l-7 10l-1 8l-9 4l-4 8h-13l-3 10l2 8l-18 5l14 13l-9 7v9zM17 -124l8 15l-4 11l4 8l8 15l-14 13l14 6l8 15l-15 13l15 6l8 15l1 10l-1 9l8 15l-13 13l13 6l8 15l-15 13l15 6l8 15l2 9l-2 10l8 15l-5 11l5 8l15 -4l9 4h9l15 -4l9 10l9 -6
l16 -4l9 7l9 -3l15 -4l9 5l9 -1l15 -4l9 12l9 -8l-10 -12l-2 -9l-2 -9l-11 -13l1 -10l-4 -8l-11 -12l2 -11l-6 -7l-11 -13l6 -12l-9 -6l-10 -12l6 -13l-10 -5l-11 -13l4 -11l-7 -7l-11 -12l-3 -8l-1 -10l-11 -13l2 -10l-5 -8l-10 -12l-4 -8v-10l-16 5l-9 -7l-9 3l-16 5
l-9 -18l-9 13l-16 5l-9 -17z" />
    <glyph glyph-name="less" unicode="&#x3c;" horiz-adv-x="853" 
d="M733 593l-5 -4l5 -9l-5 -9l4 -9l1 -9l-5 -5l8 -9l-8 -9l10 -9l-5 -9l-5 -4l9 -9l-9 -9l8 -9l-3 -9l-17 -2l-6 -8l-9 -3l-17 -2l-8 -5l-7 -6l-17 -2l-8 -5l-7 -6l-17 -1l-2 -20l-13 9l-17 -2l-3 -16l-12 5l-17 -2l-3 -17l-12 6l-17 -2l-7 -7l-8 -4l-17 -2l-4 -15l-11 4
l-17 -2l-3 -16l-12 5l-17 -1l-6 -10l-9 -1l-17 -2l-3 -17l-12 6l-17 -2l-7 -6l-8 -5l-17 -2l-7 -7l-8 -4l14 -10l13 9l5 -12l14 -10l14 12l4 -15l14 -10l13 8l5 -11l14 -10l13 10l5 -12l14 -10h10l8 -3l14 -10l11 4l7 -7l14 -10l9 -1l9 -2l14 -10l14 10l4 -13l14 -10l12 6
l6 -9l14 -10l11 5l7 -7l14 -10l14 11l4 -14l14 -10l10 1l8 -4l14 -10l15 13l3 -16l-5 -4l4 -9l-4 -9l7 -9l-2 -9l-5 -4l18 -9l-18 -9l18 -9l-13 -9l-5 -4l2 -9l-2 -9l16 -9l-11 -9l-13 10l-15 -13l-3 16l-12 9l-8 3h-10l-13 10l-11 -3l-7 6l-13 10l-10 -1l-8 3l-12 10
l-12 -6l-6 9l-13 10l-11 -4l-7 6l-13 10l-10 -1l-8 4l-12 9l-13 -8l-5 11l-13 10l-9 1l-9 2l-13 10l-10 -2l-8 4l-12 10l-11 -2l-7 5l-13 10l-12 -7l-6 9l-12 10l-13 -7l-5 10l-13 10l-11 -5l-7 7l-13 10l-8 3h-10l-12 9l-10 -2l-8 5l-13 10l-8 3h-10l-13 10l-11 -4l-7 6
l-12 10l-15 -13l-3 16l-13 10l-14 -13l-4 15l4 1l-1 9l1 9l-6 9l2 9l4 1l-14 9l14 9l-14 9l10 9l16 2l6 10l9 1l15 1l7 7l8 4l16 2l6 9l9 2l16 1l3 16l12 -5l15 2l5 11h10l16 1l6 10l9 1l16 2l2 18l13 -7l15 1l5 12l10 -1l16 2l5 11h10l16 1l7 6l8 5l15 2l6 10l9 1l16 2l6 8
l9 3l15 1l6 9l9 2l16 2l4 15l11 -4l16 1l5 11h10l15 2l4 15l11 -4l16 1l7 7l8 4l16 2l5 12l10 -1l15 1l2 19l13 -8l16 2l6 10z" />
    <glyph glyph-name="equal" unicode="=" horiz-adv-x="853" 
d="M130 279l17 -5l9 2l9 3l17 -5l9 2l9 3l17 -5l9 1l9 4l17 -5l9 9l9 -4l16 -5l9 7l9 -2l17 -5l9 18l9 -13l17 -5l9 12l9 -7l17 -5l9 14l9 -9l17 -5l9 5h9l17 -5l9 3l9 2l17 -5l9 8l9 -3l17 -5l9 1l9 4l16 -5l9 1l9 4l17 -5l9 16l9 -11l17 -5l9 8l9 -3l17 -5l9 3l9 2l17 -5
l9 17l9 -12l-5 -16l6 -9l-1 -9l-5 -17l12 -9l-7 -9l-5 -16l8 -9l-3 -9l-17 4l-9 -14l-9 10l-17 4l-9 -2l-9 -2l-17 4l-9 -4h-9l-17 4l-9 -8l-9 4l-16 4l-9 -10l-9 6l-17 4l-9 -13l-9 9l-17 4l-9 -17l-9 13l-17 4l-9 -17l-9 13l-17 4l-9 -14l-9 10l-17 4l-9 -5l-9 1l-17 4
l-9 -3l-9 -1l-17 4l-9 -17l-9 13l-16 4l-9 -14l-9 10l-17 4l-9 -13l-9 9l-17 4l-9 -12l-9 8l-17 4l-9 -17l-9 13l-17 4l-9 -2l-9 -2l4 16l-10 9l6 9l4 17l-15 9l11 9l4 16l-8 9zM130 472l17 -4l9 13l9 -9l17 -4l9 6l9 -2l17 -4l9 15l9 -11l17 -4l9 1l9 3l16 -4l9 9l9 -5
l17 -4l9 14l9 -10l17 -4l9 14l9 -10l17 -4l9 17l9 -13l17 -4l9 13l9 -9l17 -4l9 9l9 -5l17 -4l9 17l9 -13l17 -4l9 8l9 -4l16 -4l9 13l9 -9l17 -4l9 4h9l17 -4l9 16l9 -12l17 -4l9 15l9 -11l17 -4l9 17l9 -13l-5 -16l13 -9l-8 -9l-5 -17l17 -9l-12 -9l-5 -16l9 -9l-4 -9
l-17 5l-9 -5h-9l-17 5l-9 -18l-9 13l-17 5l-9 -7l-9 2l-17 5l-9 -1l-9 -4l-16 5l-9 -7l-9 2l-17 5l-9 -15l-9 10l-17 5l-9 -10l-9 5l-17 5l-9 -13l-9 8l-17 5l-9 -14l-9 9l-17 5l-9 -7l-9 2l-17 5l-9 -4l-9 -1l-17 5l-9 -16l-9 11l-16 5l-9 -8l-9 3l-17 5l-9 -15l-9 10
l-17 5l-9 -2l-9 -3l-17 5l-9 -13l-9 8l-17 5l-9 -1l-9 -4l4 16l-12 9l8 9l4 17l-15 9l11 9l4 16l-15 9z" />
    <glyph glyph-name="greater" unicode="&#x3e;" horiz-adv-x="853" 
d="M120 593l13 -10l14 10l4 -13l12 -9l8 -3h10l13 -10l13 9l5 -12l13 -10l10 3l8 -5l12 -10l14 11l4 -14l13 -10l9 -1l9 -1l13 -10l12 5l6 -8l12 -9l13 10l5 -13l13 -10l13 9l5 -12l13 -10l14 14l4 -16l12 -10l13 9l5 -12l13 -10l12 5l6 -8l12 -9l15 13l3 -16l13 -10l11 4
l7 -7l13 -10l13 10l5 -12l12 -10h10l8 -3l13 -10l14 12l4 -14l13 -10l14 11l4 -14l12 -9l14 12l4 -15l13 -10l13 7l5 -10l-5 -1l17 -9l-17 -9l9 -9l-4 -9l-5 -1l5 -9l-5 -9l18 -9l-13 -9l-16 -2l-6 -9l-9 -2l-15 -1l-8 -4l-7 -7l-16 -2l-6 -10l-9 -1l-16 -1l-3 -17l-12 6
l-15 -2l-5 -12l-10 1l-16 -1l-4 -15l-11 4l-16 -2l-3 -16l-12 5l-15 -1l-6 -9l-9 -2l-16 -2l-7 -7l-8 -4l-16 -1l-3 -18l-12 7l-15 -2l-5 -10l-10 -1l-16 -1l-3 -18l-12 7l-15 -2l-8 -5l-7 -6l-16 -1l-4 -15l-11 4l-16 -2l-8 -4l-7 -7l-15 -1l-4 -15l-11 4l-16 -2l-2 -18
l-13 7l-16 -1l-3 -18l-12 7l-15 -2l-8 -5l-7 -6l-16 -1l-8 -5l-7 -6l4 4v9v9l-8 9l4 9l4 4l-6 9l6 9l-17 9l13 9l4 4l-11 9l11 9l-13 9l9 9l17 2l7 8l8 3l17 2l7 6l8 5l17 2l5 11h10l17 1l8 4l7 7l17 2l8 4l7 7l17 2l2 18l13 -7l16 2l5 10l10 1l17 2l7 6l8 5l17 2l2 18
l13 -7l17 1l6 9l9 2l17 2l4 14l11 -3l17 2l6 10l9 1l17 2l3 17l12 -6l-14 10l-9 2l-9 1l-14 10h-10l-8 3l-14 10l-11 -4l-7 7l-14 10l-12 -7l-6 9l-14 10l-13 -9l-5 12l-14 10l-15 -13l-3 16l-13 10l-15 -12l-3 15l-14 10l-14 -10l-4 13l-14 10l-10 -1l-8 4l-14 10h-9l-9 2
l-14 10l-14 -12l-4 15l-14 10l-14 -10l-4 13l-14 10l-13 -9l-5 12l4 4l-12 9l12 9l-17 9l13 9l4 5l-2 9l2 9l-10 9l6 9l4 4l-15 9l15 9l-8 9z" />
    <glyph glyph-name="question" unicode="?" horiz-adv-x="504" 
d="M201 558l-17 4l-9 -2l-9 -2v4l-9 -4l-9 4l-9 -13l-9 9l-17 4l-9 -15l-9 11l-17 4l-9 -1l-9 -3l5 5l-1 9l3 9l-11 10l8 8l5 1l-12 13l17 4l-12 13l12 6l5 -1l-8 15l16 1l-5 13l10 5l5 -2l-4 15l15 -1l-1 13l9 4l5 -2l5 8l9 3l6 7l5 8l5 -2l8 4l9 3l5 10l9 2l7 -3l7 9
l11 -4l8 5l8 4l12 -4l8 5l9 -3l8 12l10 -6l16 -6l10 16l8 -18l10 13l8 -10l8 -7l10 1l7 -7l12 8l6 -10l3 -7l15 8v-17l8 -5l10 -1l-1 -6l16 3l-4 -16l11 -2l5 -8l-2 -5h17l-9 -15l6 -8l7 -6l-3 -6l11 -6l-6 -11l16 -5l-7 -11l-4 -6l15 -7l-13 -11l18 -7l-12 -10h-4l12 -10
l-14 -8l9 -9l-6 -9l-10 -14l14 -14l-16 -4h-6l1 -12l-13 -1l5 -16l-13 -1l-4 3l-5 -9l-10 -2l3 -18l-17 7l2 -18l-14 4l-6 2l1 -20l-17 10l-1 -15l-14 6v-19l-16 10l-3 -12l-10 -1l-6 2l-5 -9l-10 -1l2 -20l-17 10l-4 -10h-11l-8 -5l-5 -8h-5l1 -12l-10 -4l8 -15l-13 -3
l6 -11l13 1l1 -13l15 3l1 -12h6l-3 15l15 -2l2 11l11 2l3 9l6 7l17 -4l9 15l9 -11l16 -4l9 7l9 -3l17 -4l9 14l9 -10l17 -4l9 1l9 3l-7 -17l11 -10l-9 -8l-11 -15l-3 -8v-10l-5 1l4 -15l-16 1l6 -17h-14l-9 -1l1 -18l-16 8l-6 -7l-6 -7h-15l-8 -5l-9 -1l-9 -4l-7 -6l-7 4
l-8 -9l-10 7l-8 -8l-10 6l-7 -18l-10 12l-16 6l-10 -10l-8 12l-10 -12l-8 10l-8 8l-10 -2l-7 8l-9 1l-9 1l-1 6l-11 -1l-3 12l-7 5l-10 2l3 4l-6 6l-5 8l-18 -3l3 14l-2 16l-11 6l-1 9l3 14l-4 8l-3 9l6 11l-15 11l13 7l10 10l-2 10l5 8h6l-2 15l14 -1l1 11l8 5l17 7l-2 17
l16 -6l6 7l6 7l4 -3l5 8l10 1l4 12l11 -2l3 13l13 -4l1 16l12 -3h8l-3 20l17 -10l-2 19l17 -8l-1 17l16 -7l4 9l8 5l8 6l1 9l6 7l-11 15l15 3l2 9l-17 4l11 13l-16 5l6 11l-9 9l-13 -8l-4 14l-14 -12l-4 15l-15 -1l-8 -6l-9 -1l-4 -13l-11 2l-8 -15l13 -13l-18 -4l6 -11z
M173 59l6 5l-13 13l18 4l-7 12l7 7h7v13h12l4 10l6 6l7 -3l8 5h10l4 19l12 -10l5 -6l9 -1l8 -4l11 3l8 -3v-7l19 6l-6 -18l17 4l-1 -14l-3 -7l9 -7l-4 -11l10 -6l-1 -10l-6 -5l10 -12l-15 -5l10 -12l-10 -7h-7l-3 -10l-9 -3l5 -19l-15 3l-7 3l-8 -6l-10 1l-6 -12l-10 3l-5 6
l-10 -4l-7 9l-12 -9l-7 9v7l-7 6l-6 6l-8 6l-8 4l3 7l-13 6l8 12l-9 7v9z" />
    <glyph glyph-name="at" unicode="@" horiz-adv-x="1000" 
d="M634 268l5 6l-15 10l17 8l-11 10l8 8l3 14l-14 7l11 11l-8 8l1 9v9l-8 6v10l-15 2l3 12l1 5l-7 6l-6 7l-16 -4v13v5l-8 2l-8 5l-8 4h-10v5l-10 -8l-8 10l-11 -15l-7 14l-7 4l-8 -5l-10 3l-7 -15l-10 8l-5 3l-6 -13l-11 7l-6 -12l-10 2l-6 2l1 -18l-16 8l-6 -8l-7 -5l-6 1
l-1 -12l-11 -1l4 -18l-14 2l-6 -2l-1 -10l-9 -5l7 -15l-12 -3l-6 -5v-10l-6 -7l11 -13l-12 -6l-5 -9l9 -10l-11 -8l4 -9l-2 -9l-4 -15l17 -9l-16 -9l16 -9l-11 -9l-3 -9l8 -7l-4 -10l5 -8l3 -9l-3 -4l8 -6l-1 -10l13 -4l-2 -11l-3 -3l17 3l-5 -17l8 -4l7 -6v-5l9 -4l8 -4
l14 9l4 -12l10 -6l9 3l9 -5l11 16l7 -14l4 -4l8 10l10 -7l9 2l8 5l7 -2l7 6l9 2l3 15l11 -3l8 1l-2 17l16 -4l5 7l5 8l10 6l-5 15h16l-7 16l14 1l10 10v10l7 7l-11 15l15 3l9 15l-9 12l14 5l1 9zM762 521l-7 -14l13 -12l-12 -7l-7 -15l1 -10v-9l-8 -14l-1 -9l2 -10l-7 -15
l7 -11l-6 -8l-7 -14v-10l1 -9l-7 -15l13 -12l-12 -7l-7 -14l2 -10l-1 -9l-7 -15l15 -12l-14 -7l-8 -14l1 -10v-9l-7 -15l4 -10l-3 -9l-7 -14l12 -12l-11 -7l-6 -16l9 -10l-7 -8l2 -11l5 -7l5 -8l8 -5l6 -7l1 -4l8 8l10 -5l7 9l10 -2l17 5l6 8l7 5l4 -2l-2 14h14l-6 18l15 -2
l6 2l-7 15h17l-1 11l6 7l7 6l-10 13l16 4l1 9l1 9l7 9l-3 10l7 7l-15 13l15 6l6 12l-10 10l12 8l1 9l-3 9l5 11l-13 9l14 9l-4 9v9l4 15l-10 9l4 9l3 16l-10 8l3 9l1 18l-3 8l-6 8l-2 18l-15 4l5 11l-4 18h-19l7 14l4 3l-18 -1l8 16l-12 3l-1 10l3 4l-10 3l-2 10l-17 -3
l2 14l1 5l-18 -6l4 18l-11 1l-5 8l-1 6l-14 -6l-1 16l-11 -2l-6 8l-4 7l-14 -10l-2 17l-13 -5l-5 9l-7 7l-14 -14l-3 20l-9 2l-10 -1l-12 7l-9 -3l-8 6l-12 -15l-7 14v4l-10 -12l-8 13l-9 -7l-9 8l-9 -10l-9 7l-8 4l-9 -7l-9 6l-9 -15l-9 10l-6 4l-8 -11l-10 9l-7 -12l-10 5
l-7 3l-5 -16l-13 12l-4 -20l-12 11l-5 3l-4 -18l-13 13l-4 -18l-12 8l-5 3l-4 -14l-12 6l-4 -14l-11 3l-5 2l-4 -10l-11 2l-8 -6l-6 -7l-4 3l-3 -12l-12 2l-1 -14h-11l-5 2l-6 -6l-7 -6l3 -17l-14 2l-4 2l2 -15l-15 2l2 -14l-11 -2l-5 1l5 -14h-16l-4 -8l-3 -9h-5l-5 -8
l-5 -7l8 -15l-13 -3h-5l-1 -9l-7 -7l-2 -9l-2 -9l-5 -2l7 -12l-13 -5l13 -14l-15 -4l-5 -2l6 -11l-11 -6l1 -10l-1 -9l-5 -5l9 -10l-12 -8l5 -9l-3 -9l-5 -6l6 -9l-7 -9l14 -9l-10 -9l-4 -15l18 -9l-17 -9l3 -9l2 -9l-3 -12l15 -7l-13 -11l6 -8l1 -9l-2 -11l2 -9l2 -8l18 -5
l-10 -12l-2 -7l5 -8v-9l18 -4l-8 -12l-2 -7l15 -3l-7 -13l12 -5l-1 -10l-3 -5l7 -6l3 -9h16l-3 -13l-2 -5l6 -7l5 -7l19 3l-5 -15l-2 -4l12 -1v-12l16 3v-13l-1 -5l9 -3l5 -8l15 6l2 -13l-1 -5l9 -2l6 -7l17 9l1 -15v-5l13 7l3 -14l13 6l5 -10l2 -5l12 7l5 -13l12 9l6 -11
l4 -5l9 -2l8 -2l11 5l8 -5l5 -5l9 1l9 -3h9l9 2l8 -5l10 15l8 -16l9 2l9 2l9 -4l9 16l9 -15l9 14l9 -9l14 -3l7 19l11 -17l7 16l10 -9l17 -1l7 10l10 -7l6 19l11 -11h16l6 12l12 -8l4 19l12 -10h14l6 10l11 -3l3 16l12 -6h10l2 16l14 -8l3 13l11 -1l-1 -7l14 -4l-7 -13
l10 -5l2 -9l-1 -8l8 -6l-1 -11l19 -1l-7 -13l-8 1l-8 -4l-8 -4l-1 -19l-13 7h-13l-3 -19l-14 13l-6 -11l-10 1h-17l-4 -19l-13 13l-7 -8l-9 -1l-17 1l-8 -5l-9 1l-7 -14l-10 6l-15 2l-6 -19l-12 16l-7 -14l-10 6l-11 3l-7 -11l-11 9l-8 -10l-9 4l-2 4l-9 -13l-9 12l-9 -1
l-9 -4l-4 5l-9 -11l-9 11l-9 -1l-9 -3l-2 5l-9 -6l-9 8l-9 -5l-9 2l-2 5l-10 -5l-7 8l-10 -4l-9 3l-1 5l-11 -6l-6 11l-10 -2l-9 2l1 5l-10 1l-8 4l-11 -6l-7 8l1 5l-13 -6l-4 13l-11 -4l-7 7l2 4l-16 -9v18l-16 -9l-2 14l2 4l-11 1l-4 9l-16 -8l-2 14l2 4l-7 6l-6 6l-15 -4
l-2 12l2 4l-19 -6l6 19l-8 4l-8 5l3 4l-16 -2l4 15l-16 -2l1 13l2 5l-11 3v12l-5 7l-9 5l2 5l-10 4l2 11h-20l7 14l2 6l-12 5l5 12l-20 1l8 13l2 8l-6 7v10l-19 2l8 13l2 8l-12 6l8 12l-13 6l4 10l3 10l-6 8l3 10l-19 6l11 11l3 13l-13 7l11 11l-15 7l9 10l4 15l-17 9l16 9
l-9 9l4 9l5 11l-6 9l7 9l-6 9l2 9l6 9v9l3 9l-9 10l7 8l6 7l-9 11l13 6l-8 12l8 7l6 5l-1 10l7 7l-1 9l3 9l6 3l-7 13l15 4l-6 12l9 6l6 2l-5 13l15 2l-1 11l6 7l6 1l1 10l9 5l-7 16l14 1h6l-5 16l17 -3l-2 13l10 4h6l-4 17l17 -5l3 11l7 5l5 -2l6 8l8 4l-1 16l12 -1l5 -2
l2 14l13 -3l1 14h11l5 -2v18l16 -9l7 6l6 7l5 -3l5 9l11 -1l5 10l9 2l5 -3l4 14l12 -7l5 12l10 -1l4 -3l8 5h9l8 6l8 4l3 -4l9 3l9 2l8 5l8 4l3 -4l7 12l11 -9l8 8h9l2 -4l9 1l9 1l8 5l9 1l1 -4l9 15l9 -15l9 18l9 -13l14 -5l9 7l9 -3l16 -6l9 2h9l15 -8l12 11l7 -10l-1 -4
l9 -2l8 -3l13 13l6 -13v-5l13 11l5 -17l10 4l8 -5v-5l15 11l1 -18l9 -2l9 -2v-5l8 -4l8 -5l12 3l6 -8v-5l12 2l3 -13l17 10v-16v-6l16 5l-2 -16l13 1l4 -9v-7l15 2l-3 -15l19 5l-3 -15l-1 -7l6 -6l5 -8h15l-1 -12v-8l8 -6l1 -10l19 1l-6 -14l-1 -10l12 -5l-4 -11l18 -2
l-7 -13l-1 -13l15 -5l-10 -12l18 -4l-9 -12l-2 -15l7 -8l-4 -10l8 -8l-1 -9h-4l2 -9l-1 -9l6 -9l-5 -9l6 -9l-1 -9l-5 -12l5 -9l-6 -9l9 -9l-5 -9l-6 -11l14 -11l-17 -7l12 -10l-10 -8l-7 -9l13 -12l-16 -5v-10v-9l-7 -7l-3 -8l-3 -9l11 -13l-13 -5l-7 -5v-10l-8 -7l7 -13
l-10 -5l-7 -2l5 -13l-14 -2l4 -13l-10 -5l-6 -1l-4 -8l-8 -5l1 -12l-9 -5l-5 2l1 -16l-15 4l-6 -7l-5 -8l-3 3v-18l-16 9l-5 -9l-8 -4l-4 3l-4 -17l-13 12l-6 -10h-10l-4 4l-7 -18l-11 16l-7 -11l-10 5l-11 7l-12 -14l-5 18l-10 -2l-9 2l-3 10l-11 2l-1 11l-10 3l-5 8l1 18
l-9 8l6 10l-4 9l-4 8l-11 -7l6 -17l-18 4l-2 -10l-6 -7l-10 -2l-2 -12l-13 1l3 -18l-14 3l-9 1l-5 -10l-11 2v-20l-14 8l-5 3l-6 -11l-11 6l-5 -15l-11 6l-1 4l-9 -10l-9 9l-8 -19l-10 13v4l-10 -12l-8 14l-9 -2l-9 -1l-16 8l-11 -8l-8 7l-13 11l-15 -12l-3 15l-11 13
l-14 -4l-4 10l3 3l-14 -1l2 15l-14 -1l-1 11l3 5l-20 -2l10 17h-18l5 13l2 8l-9 6l3 11l-8 6l-3 9l2 14l-11 7l7 10l-7 8l-1 9l4 2l-10 9l9 9l-13 9l12 9l-13 9l8 9l6 14l-13 10l14 8l-5 9l2 9l7 9l-14 13l18 4l-5 11l5 8l7 7l3 9l4 8l-11 13l13 5l8 4l4 8l5 7l5 8l1 10l7 1
l-4 15l15 -1l3 9l5 8h7l3 10l10 2l5 8l6 7l6 -2l3 11l12 -1l2 13l10 1l4 -3l2 18l15 -11l1 19l13 -7l3 -4l8 6l10 -1l6 10l10 -1l1 -4l9 8l9 -7l9 6h9l2 -5l9 5l9 -6l10 13l8 -15l9 8l9 -5l9 -8l12 6l5 -12l9 -2h9l4 -9l11 -1l4 -10h11l6 -7l5 -13l12 -1l1 -12l9 -3l6 -7
l5 1l-5 11l10 6l-11 13l11 6l5 1l-7 11l12 6l1 9l-1 10l3 -5l9 17l9 -17l9 1l9 4l4 -5l9 17l9 -17l9 3z" />
    <glyph glyph-name="A" unicode="A" horiz-adv-x="684" 
d="M558 0l-3 17l-11 5v10l-3 18l-15 3l4 12l-3 18l-19 1l7 13l-3 18l-17 2l6 13l-3 17l-10 6l-1 9v4l-9 -14l-9 14l-9 -9l-9 5v4l-9 -15l-9 15l-9 -3l-9 -1v4l-9 -8l-9 8l-9 -7l-9 3l-1 4l-9 -5l-9 5l-9 -7l-9 3v4l-9 -15l-9 15l-9 -6l-9 2v4l-9 -9l-9 9l-9 -10l-9 6v4h-9
h-9l-9 -7l-9 3v4l-9 -1l-9 1l-9 -3l-9 -1l-11 -14l11 -14l-14 -4l-4 2l11 -15l-19 -2l12 -15l-15 -3l-11 -14l1 -10l-4 -8l-4 2v-10l-8 -7l2 -10l-5 -8l-11 -14l-1 -9l-2 -9l-2 4l-9 -16l-9 16l-9 -3l-9 -1l-1 4l-9 -5l-9 5l-9 -17l-9 13l-1 4l-9 -5l-9 5l-9 -2l-9 -2l-2 4
l-9 -16l-9 16h-9l-9 -4l11 13l-1 10l5 8l10 12l-6 13l10 5l11 13l3 8l1 10l11 13l-1 10l5 8l11 13l3 8v10l11 12l-10 15l14 3l11 13l-3 11l6 7l11 13l-4 12l8 6l11 12l-10 15l14 3l11 13l1 9l2 9l11 13l2 9l2 9l11 13v10l4 8l10 12v10l4 8l11 13l-4 12l8 6l11 13l2 9l2 9
l11 13l-4 11l7 7l11 12l-5 12l9 6l11 13l-6 13l10 5l11 13l3 8v10l11 12l-6 13l10 5l11 13l-12 15l15 3l11 13l-4 12l8 6l11 13l-9 14l13 4l10 12v10l4 8l11 13l2 9l2 9l3 -17l10 -5l2 -9l2 -16l5 -7l7 -7l3 -17l13 -3l-1 -11l3 -17l14 -3l-2 -11l2 -16l11 -5l1 -10l3 -16
l8 -6l4 -8l2 -16l8 -7l4 -8l3 -17l5 -8l7 -6l3 -16l12 -4v-10l2 -16l16 -3l-4 -12l3 -17l17 -1l-5 -13l3 -17l6 -7l6 -7l2 -16l17 -2l-5 -12l3 -17l15 -2l-3 -12l3 -17l12 -4v-10l2 -16l17 -3l-5 -12l3 -16l18 -1l-6 -13l3 -17l6 -7l6 -7l2 -16l6 -8l6 -7l3 -16l10 -5l2 -9
l2 -16l11 -6l1 -9l3 -17l18 -1l-6 -13l3 -17l7 -6l5 -8l2 -16l19 -1l-7 -13l3 -17l9 -5l3 -9l-2 4l-9 -4l-9 4l-9 -3l-9 -1l-1 4l-9 -17l-9 17l-9 -1l-9 -3l-1 4l-9 -3l-9 3l-9 -17l-9 13l-2 4l-9 -10l-9 10l-9 -2zM342 489h-5l11 -15l-18 -2l5 -12l-8 -6h-5l11 -15l-19 -2
l4 -11l-7 -7h-5l-2 -9l-5 -8l7 -13l-10 -5h-5l8 -14l-15 -3l9 -13l-12 -5h-5l-2 -9l-6 -8l3 -11l-6 -7h-5l3 -11l-10 -6l1 -10l-4 -8l1 -5l9 7l9 -7l9 2l9 3l1 -5l9 14l9 -14l9 10l9 -5l1 -5l9 17l9 -17l9 14l9 -9l1 -5l9 3l9 -3l9 8l9 -3l1 -5l9 16l9 -16l9 14l9 -9l3 4
l-5 7l-2 9l-12 5l1 10l3 4l-20 1l13 16l-5 7l-7 7l3 4l-11 5l4 11l-16 3l5 12l3 4l-9 6l2 11l-6 7l-6 7l3 4l-4 7l-3 9l-10 6l-1 9l3 4l-9 6l2 11l-12 4v10z" />
    <glyph glyph-name="B" unicode="B" horiz-adv-x="638" 
d="M84 0l4 15l-16 9l12 9l4 16l-6 9l2 9l4 15l-14 9l10 9l4 15l-10 9l6 9l4 15l-6 9l2 9l4 16v9l-4 9l4 15l-17 9l13 9l4 15l-10 9l6 9l4 15l-11 9l7 9l4 16l-10 9l6 9l4 15l-12 9l8 9l4 15l-6 9l2 9l4 16l-16 9l12 9l4 15l-12 9l8 9l4 15l-15 9l11 9l4 15l-16 9l12 9l4 16
l-4 9v9l4 15l-1 9l-3 9l4 15l-12 9l8 9l4 15l-16 9l12 9l4 16l-13 9l9 9l4 15v9l-4 9v-4l9 10l9 -10l9 13l9 -9l1 -4l9 3l9 -3l9 15l9 -11l1 -4l9 3l9 -3l9 15l9 -11v-4l9 14l9 -14l9 16l9 -12v-4l9 7l9 -7l9 11l9 -7l1 -4l9 17l9 -17l9 1l9 3l10 -5l9 5l9 -1l14 -5l9 6
l9 -3l16 -8l11 5l8 -4l15 -9l10 1l9 -2l-1 -5l12 5l4 -13l11 3l7 -7l-1 -5l9 -3l4 -9l14 3l3 -11l-1 -6l9 -5l1 -10l13 -2l1 -10l-1 -10l18 -4l-12 -13l9 -7l1 -9l-4 -1l14 -7l-12 -11l8 -8l-6 -10l10 -8l-4 -9l-7 -17l1 -9l-4 -9l7 -10l-5 -8l-4 2l8 -14l-16 -2l8 -15
l-17 -1l3 -12l-7 -6l-4 3l-1 -13l-13 1l-5 -7l-8 -5l3 -17l-14 2l11 -10l8 -4l8 -4l15 10l3 -14l5 -10l11 -1l3 -11l17 6v-14l2 -11l8 -5l1 -10l10 -5l4 -8l-1 -10l10 -6l-4 -11l6 -7l5 -8l-3 -11l8 -8l-6 -10l2 -8l4 -9l-5 -2l4 -9l-5 -9l11 -10l-8 -8l-5 -1l12 -12l-16 -5
l6 -11l-5 -8h-5l10 -14l-16 -3l6 -12l-9 -6l-5 1l-2 -9l-8 -6l10 -17h-16l-5 1l-2 -11l-11 -2l2 -14l-11 -2l-7 1l-2 -14l-13 4l-7 -7l-6 -7h-11l-5 -13l-12 7l-5 -11h-10l-16 1l-7 -10l-10 6l-5 -19l-12 11l-6 4l-8 -16l-10 15l-9 -1h-9l-9 -4l-9 -2l-17 4l-9 -10l-9 6
l-17 4l-9 -17l-9 13l-17 4l-9 -17l-9 13l-17 4l-9 -5l-9 1l-17 4l-9 -6l-9 2l-17 4l-9 -6l-9 2l-17 4l-9 -12zM226 609l-4 -4l3 -9l-3 -9l10 -9l-6 -9l-4 -3l17 -9l-17 -9l7 -9l-3 -9l-4 -4l13 -9l-13 -9l5 -9l-1 -9l-4 -4l5 -9l-5 -9l1 -9l3 -9l9 -4l9 9l9 -9l9 3l9 1l9 -4
l9 15l9 -15l9 2l9 2l6 -3l7 9l10 -5l9 3l8 5l4 -2l-1 14l14 -1l1 11l8 5l7 12l-1 9l4 8l-11 12l10 7l4 3l-12 7l9 11l-14 7l6 10l1 5l-12 1l-1 12l-17 -5l1 14l-6 6l-12 -15l-6 18l-10 -6l-8 8l-10 -9l-8 8l-17 5l-9 -16l-9 11l-17 5l-9 -12zM226 333l-4 -17l8 -9l-4 -9
l-4 -17l17 -9l-13 -9l-4 -17l2 -9l2 -9l-4 -17l14 -9l-10 -9l-4 -17l16 -9l-12 -9l-4 -17l11 -9l-7 -9l10 -5l9 16l9 -16l9 7l9 -2l11 -5l9 8l9 -8l9 13l9 -8l6 -4l8 7l10 -5l8 11l10 -9l7 16l10 -9l7 -1l6 8h10l8 5l6 8l4 -1v11l10 4l3 9l2 9l5 6l-8 10l11 8l-12 10l10 8
l3 10l-2 9l-1 9l-17 6l10 11l2 5l-6 7l-3 9l-6 6l-7 7l-1 6l-9 4l-6 6l-9 4l-9 2l-12 7l-9 -4l-9 6h-9l-9 -1l-17 5l-9 -9l-9 4l-17 5l-9 -6l-9 1l-17 5l-9 -7z" />
    <glyph glyph-name="C" unicode="C" horiz-adv-x="678" 
d="M639 180l-5 -3l15 -9l-15 -9l9 -9l-4 -9l-5 -3l18 -9l-18 -9l3 -9l2 -9l-5 -4l15 -9l-15 -9l17 -9l-12 -9l-5 -3l12 -9l-12 -9l16 -9l-11 -9l-14 -1l-6 -9l-11 2l-6 -10l-9 -1h-17l-5 -14l-12 9l-7 -8l-9 -1l-2 4l-8 -10l-10 7l-7 -16l-11 13l-8 -6l-9 -1l-3 4l-9 -1h-9
l-9 -6l-9 5l-9 -1l-9 -4l-10 5l-9 -10l-9 11l-9 -13l-9 9l-7 6l-9 1l-9 2l-11 -15l-7 13l-5 6h-9l-8 5h-10h-9l-3 6l-9 2l-8 4l-9 2h-9l-2 6h-10l-6 9l-9 2l-9 2l-1 6l-12 -3l-3 13h-10l-7 6l1 5l-12 1l-2 11l-10 3l-7 5l2 5l-14 -1l2 14l-20 -6l4 16l2 5l-12 3l1 12l-16 -2
l1 13l2 5l-9 5l-1 10l-9 5l-4 8l3 5l-5 7l-3 9l-13 4l1 10l3 5l-6 8v9l-18 4l8 12l3 6l-4 8v10l-10 6l1 10l4 6l-3 9v9l-12 7l5 10l4 6l-6 9l5 9l-2 9l-3 9l5 4l-13 9l14 9l-10 9l6 9l5 4l-11 10l14 8l-6 10l4 8l5 3l-13 13l18 4l-14 13l14 6l5 2l-3 10l9 7l-7 12l9 6l5 1
l-9 14l17 2l-6 13l10 5l6 1l-9 16l18 -1v11l6 7h6l-6 16l17 -2l-4 14l11 3l5 -1l2 11l11 2l6 7l3 9l6 -1l-5 19l18 -7l1 13l10 2l6 -1l1 14l14 -4l1 14h11l6 -2l2 16l14 -7l5 10l9 2l6 -2l3 18l14 -12l4 15l11 -4l9 -2l4 17l13 -12l4 18l12 -9l8 -3l8 6l10 -3l9 3l8 4l10 -4
l9 12l9 -11l8 16l10 -11l17 -5l9 13l9 -14l9 1l9 3l16 -7l10 9l8 -12l10 12l8 -10l15 -8h10l7 -5l13 13l6 -13l-2 -4h10l7 -7l14 10l3 -17l14 10l4 -13l-5 -3l17 -9l-17 -9l8 -9l-3 -9l-5 -3l12 -9l-12 -9l18 -9l-13 -9l-5 -4l2 -9l-2 -9l6 -9l-1 -9l-5 -3l7 -9l-7 -9l7 -9
l-2 -9l-6 9l-10 2l-5 7l-13 -3l-5 9l-6 8l-11 -3l-5 11h-10l-8 4l-5 7l-12 -8l-6 13l-10 -1l-8 3l-6 6l-10 -8l-7 11l-12 -14l-7 13l-8 5l-9 -6l-9 7l-10 -13l-8 10l-7 4l-8 -9l-10 7l-8 -10l-9 4l-6 3l-8 -5h-10l-6 -11l-10 2l-7 1l-2 -16l-14 8l-2 -17l-12 5h-7l-2 -11
h-12l-2 -12l-10 -2l-7 -1l-5 -7l-8 -6l5 -17l-14 1l-8 -4l-5 -7l-5 -8l8 -15l-14 -2l-7 -5l2 -11l-10 -6l10 -14l-13 -4l-7 -8l2 -10l-6 -7l3 -10l-3 -9l-5 -11l6 -9l-8 -9l2 -9l1 -9l-4 -12l8 -9l-7 -9l3 -9l3 -9l-2 -11l6 -8l-2 -10l14 -6l-5 -10l-2 -8l16 -4l-9 -13
l11 -5v-10l-1 -7h17l-7 -15l13 -2v-11l1 -7l8 -5l4 -9l18 5l-3 -15l1 -6h11l4 -11l14 4l3 -11l3 -6l12 5l4 -13l9 -2l9 -2l6 -6l12 8l5 -13l11 5l8 -5l9 -5l9 7l9 -9l10 17l8 -14l9 -4l8 16l10 -15l9 2l9 4l9 -3l8 5l9 -1l7 12l10 -4l8 -2l2 20l15 -14l2 20l13 -9l9 -1l6 9
l11 -1l5 10l9 2l11 1l4 11l11 -1l1 15z" />
    <glyph glyph-name="D" unicode="D" horiz-adv-x="741" 
d="M84 0l4 15l-1 9l-3 9l4 16l-1 9l-3 9l4 15l-15 9l11 9l4 15l-17 9l13 9l4 15l-13 9l9 9l4 16l-7 9l3 9l4 15l-6 9l2 9l4 15l-3 9l-1 9l4 15l-17 9l13 9l4 16l-8 9l4 9l4 15l-13 9l9 9l4 15l-6 9l2 9l4 16l-13 9l9 9l4 15l-5 9l1 9l4 15l-8 9l4 9l4 15l-7 9l3 9l4 16
l-14 9l10 9l4 15l-1 9l-3 9l4 15l-7 9l3 9l4 15l-3 9l-1 9l4 16l-10 9l6 9l4 15l-17 9l13 9l1 -4l9 17l9 -17l9 13l9 -9l1 -4h9h9l9 12l9 -8l1 -4l9 5l9 -5l9 16l9 -12l1 -4l9 5l9 -5l9 6l9 -2l1 -4l9 10l9 -10l9 14l9 -10l1 -4h9h9l9 5l9 -1l1 -5l9 9l9 -9l9 16l9 -17l9 16
l9 -12l14 -6h9l9 -2l11 15l7 -13l9 -7l11 8l6 -11l12 8l7 -8l5 -7l11 3l7 -8l12 8l6 -10l2 -6l14 9l3 -17l12 5l6 -8l-1 -5l8 -4l7 -5l10 -1l8 -5l-2 -4l10 -2l4 -9l16 5l1 -13l-3 -3l17 3l-5 -16h13l3 -10l7 -17l6 -7l8 -5l-4 -2l5 -8l4 -8l13 -3l-1 -11l3 -18l12 -5
l-1 -10l-4 -3l10 -6l-5 -11l18 -4l-8 -12l-4 -3l13 -7l-10 -11l10 -8l-2 -9l-4 -4l7 -8l-5 -10l5 -8l2 -9l-4 -5l2 -9l-2 -9l4 -9l1 -9l-5 -5l7 -9l-7 -9l17 -9l-13 -9l-5 -4l2 -9l-4 -9l14 -10l-12 -8l-5 -2l9 -11l-12 -6l2 -10l-1 -9h-5l7 -12l-12 -5l8 -12l-9 -7l-4 1
l-4 -8l-3 -9l10 -14l-13 -4l-12 -13l11 -16l-16 -2l-14 -12l6 -15l-13 -2l-3 3l4 -17l-17 4v-12l-9 -4l-4 3v-14l-14 3v-15h-11l-4 3l1 -18l-16 8l-2 -13h-11l-6 2l-6 -9l-11 2l-3 -14l-11 2l-8 2l-8 -5h-9l-6 -13l-10 3l-11 2l-5 -17l-12 13l-8 -7l-9 -1l-15 3l-8 -7l-10 5
l-7 -14l-10 7l-1 4l-9 -9l-9 9l-9 -13l-9 12l-9 -16l-9 11l-1 4l-9 -15l-9 15l-9 -1l-9 -3l-1 4l-9 -11l-9 11l-9 -12l-9 8l-1 4l-9 -12l-9 12l-9 -11l-9 7l-1 4l-9 -4l-9 4l-9 -3l-9 -1l-1 4l-9 -3l-9 3l-9 -7l-9 3l-1 4l-9 -5l-9 5l-9 -14zM226 606l-4 -16l1 -9l3 -9
l-4 -17l10 -9l-6 -9l-4 -16l16 -9l-12 -9l-4 -16l2 -9l2 -9l-4 -16l13 -9l-9 -9l-4 -17l10 -9l-6 -9l-4 -16l14 -9l-10 -9l-4 -16l2 -9l2 -9l-4 -17l6 -9l-2 -9l-4 -16l10 -9l-6 -9l-4 -16l13 -9l-9 -9l-4 -16l7 -9l-3 -9l-4 -17l3 -9l1 -9l-4 -16l10 -9l-6 -9v-4l9 7l9 -7
l9 11l9 -7l17 -4l9 1l9 3l16 -4l9 12l9 -11l9 7l9 -2l10 -3l7 15l11 -12l8 9l9 -2l5 -3l5 14l12 -9l6 11l10 -2l3 -3l2 16l14 -8l5 10l9 2l15 6l-3 17l14 -2l13 9l-6 17h14l11 13l-7 13l11 5h5v10l5 7l-5 12l6 7l5 6l-9 10l12 8l-15 11l13 7l5 11l-16 10l17 8l-15 9l11 9
l4 12l-16 9l15 9l-6 9l1 9l4 7l-12 7l9 11l-4 8l-3 9l4 4l-16 5l10 12l-3 8l-6 8l-3 17l-6 7l-6 7l-6 15l-10 4l-5 7l-9 13l-16 -6l-1 13l1 4l-15 -11l-1 19l-16 -12l-2 16l-2 5l-12 -9l-5 14l-10 -1l-9 2l-9 6l-10 -7l-8 10l-9 -2h-9l-16 5l-9 -3l-9 4l-9 -6l-9 2l-17 4
l-9 -6l-9 2v4l-9 -17l-9 17l-9 -5z" />
    <glyph glyph-name="E" unicode="E" horiz-adv-x="567" 
d="M84 0l4 15l-14 9l10 9l4 16l-8 9l4 9l4 15v9l-4 9l4 15l-11 9l7 9l4 15l-15 9l11 9l4 16l-2 9l-2 9l4 15l-3 9l-1 9l4 15l-14 9l10 9l4 15l-15 9l11 9l4 16l-4 9v9l4 15l-12 9l8 9l4 15l-8 9l4 9l4 16l-2 9l-2 9l4 15l-3 9l-1 9l4 15l-9 9l5 9l4 15l-4 9v9l4 16l-14 9
l10 9l4 15l-15 9l11 9l4 15l-16 9l12 9l4 15l-16 9l12 9l4 16l-16 9l12 9l4 15l-12 9l8 9l17 -4l9 8l9 -4l17 -4l9 2l9 2v-4l9 4l9 -4l9 12l9 -8l17 -4l9 17l9 -13l17 -4l9 15l9 -11v-4l9 15l9 -15l9 3l9 1l17 -4l9 4h9l17 -4l9 2l9 2l17 -4l9 4h9l17 -4l9 14l9 -10v-4l9 16
l9 -16l9 10l9 -6l17 -4l9 3l9 1l-5 -6l5 -9l-5 -9l12 -9l-7 -9l-5 -6l18 -9l-18 -9l6 -9l-1 -9l-5 -6l3 -9l-3 -9l15 -9l-10 -9l-17 4l-9 -6l-9 2l-17 4l-9 -13l-9 9l-17 4l-9 -5l-9 1l-16 4l-9 -17l-9 13l-17 4l-9 -13l-9 9l-17 4l-9 -5l-9 1l-17 4l-9 -1l-9 -3l-17 4
l-9 -11l-9 7l-4 -3l3 -9l-3 -9l17 -9l-13 -9l-4 -3l17 -9l-17 -9l5 -9l-1 -9l-4 -3l12 -9l-12 -9l3 -9l1 -9l-4 -3l16 -9l-16 -9v-9l4 -9v-4l9 16l9 -16l9 7l9 -3l1 -4l9 2l9 -2l9 15l9 -11v-4l9 2l9 -2l9 4h9v-4l9 13l9 -13l9 17l9 -13v-4l9 11l9 -11l9 13l9 -9l1 -4l9 5
l9 -5l9 5l9 -1v-4l9 17l9 -17l9 15l9 -11l-4 -4v-9v-9l16 -9l-12 -9l-4 -4l7 -9l-7 -9l4 -9v-9l-4 -4l7 -9l-7 -9l3 -9l1 -9v4l-9 -2l-9 2l-9 -1l-9 -3l-1 4l-9 -3l-9 3l-9 -10l-9 6v4l-9 -5l-9 5l-9 -4h-9v4l-9 -3l-9 3l-9 -8l-9 4v4l-9 -10l-9 10l-9 -6l-9 2l-1 4h-9h-9
l-9 -17l-9 13v4l-9 -15l-9 15l-9 -7l-9 3l-4 -16l2 -9l2 -9l-4 -16l15 -9l-11 -9l-4 -16l8 -9l-4 -9l-4 -16v-9l4 -9l-4 -16l12 -9l-8 -9l-4 -16l10 -9l-6 -9l17 -4l9 10l9 -6l17 -4l9 10l9 -6l17 -4l9 8l9 -4l17 -4l9 14l9 -10l16 -4h9l9 4l17 -4l9 10l9 -6l17 -4l9 17
l9 -13l17 -4l9 5l9 -1l-5 -6l18 -9l-18 -9l2 -9l3 -9l-5 -6l7 -9l-7 -9l16 -9l-11 -9l-5 -6l1 -9l-1 -9l3 -9l2 -9l-17 4l-9 -8l-9 4v4l-9 -17l-9 17l-9 -15l-9 11l-17 4l-9 -8l-9 4l-17 4l-9 -15l-9 11l-17 4l-9 -10l-9 6l-17 4l-9 -7l-9 3v4l-9 -11l-9 11h-9l-9 -4l-17 4
l-9 -4h-9l-17 4l-9 -1l-9 -3v4l-9 -5l-9 5l-9 -13l-9 9l-17 4l-9 -1l-9 -3l-17 4l-9 -7z" />
    <glyph glyph-name="F" unicode="F" horiz-adv-x="487" 
d="M84 0l4 15l-3 9l-1 9l4 16l-9 9l5 9l4 15l-4 9v9l4 15l-14 9l10 9l4 15l-15 9l11 9l4 16l-16 9l12 9l4 15l-16 9l12 9l4 15l-16 9l12 9l4 15l-12 9l8 9l4 16l-8 9l4 9l4 15l-2 9l-2 9l4 15l-4 9v9l4 16l-12 9l8 9l4 15l-17 9l13 9l4 15l-15 9l11 9l4 15l-15 9l11 9l4 16
l-3 9l-1 9l4 15l-4 9v9l4 15l-2 9l-2 9l4 15l-4 9v9l4 16l-14 9l10 9l4 15l-16 9l12 9v-4l9 10l9 -10l9 3l9 1l17 -4l9 4h9v-4l9 11l9 -11l9 17l9 -13l17 -4l9 5l9 -1v-4l9 2l9 -2l9 14l9 -10l17 -4l9 6l9 -2v-4l9 13l9 -13l9 5l9 -1l17 -4l9 17l9 -13v-4l9 13l9 -13l9 5
l9 -1l17 -4l9 1l9 3v-4l9 11l9 -11l9 3l9 1l-5 -6l18 -9l-18 -9l18 -9l-13 -9l-5 -6l6 -9l-6 -9l13 -9l-8 -9l-5 -6l4 -9l-4 -9l17 -9l-12 -9l-17 4h-9l-9 -4v4l-9 -16l-9 16l-9 -7l-9 3l-17 4l-9 -2l-9 -2l-17 4l-9 -15l-9 11l-17 4l-9 -2l-9 -2v4l-9 -4l-9 4l-9 -13l-9 9
l-17 4l-9 -17l-9 13l-4 -4l11 -9l-11 -9l13 -9l-9 -9l-4 -5l5 -9l-5 -9l5 -9l-1 -9l-4 -5l17 -9l-17 -9l15 -9l-11 -9l-4 -4v-9v-9l16 -9l-12 -9l2 -4l9 7l9 -7l9 4h9l1 -4l9 7l9 -7l9 3l9 1l1 -4l9 2l9 -2l9 1l9 3l2 -4l9 3l9 -3l9 10l9 -6l2 -4l9 5l9 -5l9 4h9l1 -4l9 3
l9 -3l9 8l9 -4l-5 -5l11 -9l-11 -9l7 -9l-2 -9l-5 -5l1 -9l-1 -9l18 -9l-13 -9l-5 -5l16 -9l-16 -9l8 -9l-3 -9l-1 5l-9 -3l-9 3l-9 -16l-9 11l-2 5l-9 -9l-9 9l-9 -1l-9 -4l-2 5l-9 -13l-9 13l-9 -11l-9 6l-1 5l-9 -11l-9 11l-9 -11l-9 6l-1 5l-9 -9l-9 9l-9 -15l-9 10
l-2 5l-9 -1l-9 1l-9 -11l-9 6h-4l17 -9l-17 -9l5 -9l-1 -9l-4 -17l17 -9l-13 -9h-4l1 -9l-1 -9l6 -9l-2 -9h-4l15 -9l-15 -9v-9l4 -9l-4 -17l2 -9l2 -9h-4l8 -9l-8 -9l17 -9l-13 -9h-4l15 -9l-15 -9l8 -9l-4 -9l-4 -17l15 -9l-11 -9h-4l10 -9l-10 -9l7 -9l-3 -9v4l-9 -11
l-9 11h-9l-9 -4v4l-9 -4l-9 4l-9 -1l-9 -3v4l-9 -5l-9 5l-9 -13l-9 9v4l-9 -1l-9 1l-9 -7z" />
    <glyph glyph-name="G" unicode="G" horiz-adv-x="798" 
d="M427 304l5 5l-9 9l9 9l-15 9l10 9l5 5l-9 9l9 9l-2 9l-3 9l5 5l-12 9l12 9l-6 9l1 9v-5l9 8l9 -8l9 6l9 -1l1 -5l9 2l9 -2l9 1l9 4v-5l9 12l9 -12l9 14l9 -9v-5l9 4l9 -4l9 6l9 -1l1 -5l9 1l9 -1l9 10l9 -5v-5l9 2l9 -2l9 15l9 -10l1 -5l9 12l9 -12l9 12l9 -7v-5l9 9
l9 -9l9 3l9 2l-4 -16l9 -9l-5 -9l-4 -16l13 -9l-9 -9l-4 -16l3 -9l1 -9l-4 -16l13 -9l-9 -9l-4 -16l6 -9l-2 -9l-4 -15l11 -9l-7 -9l-4 -16l4 -9v-9l-4 -16l1 -9l3 -9l-4 -16l14 -9l-10 -9l-4 -16l14 -9l-10 -9l-4 -16l8 -9l-4 -9l-5 3l-3 -14l-13 6l-4 -12h-10h-11l-5 -10
l-11 3l-6 -10l-9 -1h-15l-5 -15l-12 9l-8 -6l-8 -4h-17l-7 -10l-11 6l-6 -12l-10 3l-17 2l-9 -3h-9l-8 -8h-9l-15 4l-9 -12l-9 11l-9 -4l-9 -2l-11 5l-9 -5l-9 6l-9 -14l-9 10l-9 6l-11 -14l-7 16l-9 -1l-9 -1l-6 6l-11 -9l-6 13l-10 -1l-9 1l-4 6l-8 3l-9 3h-9l-9 2l-2 6
l-11 -4l-5 11l-12 -4l-6 8l-1 6l-9 2l-6 7l-11 -1l-7 6l1 5l-8 4l-6 7l-14 -3l-3 11l1 5l-8 4l-5 9l-18 -6l2 15l2 5l-8 6l-3 9l-13 1l-2 10l3 5l-12 3l2 12l-8 5l-5 8l2 5l-9 6l1 10l-18 1l6 13l3 6l-7 8l1 9l-14 5l4 11l3 6l-19 5l15 13l-11 6l2 10l3 9l-11 8l9 10l-8 8
l1 9l4 9l-13 9l12 9l-15 9l10 9l5 10l-5 9l6 9l-4 9v9l5 6l-14 11l17 7l-2 9v9l6 5l-14 12l18 5l-8 11l7 8l5 2v9l6 8v9l2 9h5l-12 16l20 1l-10 14l13 4l5 -1l-10 17l19 -2l-8 16l14 2l4 -2l4 8l7 6l3 10l5 7l4 -3l6 7l6 6l4 10l6 6l5 -2l6 7l8 4l5 9l6 6l4 -3l1 16l14 -6
l1 15l12 -2l5 -3v20l16 -12l3 13l11 -1l5 -3l5 11l12 -5l8 5l7 6l8 -2l3 19l14 -14l6 12l10 -3l7 -3l7 16l11 -13l7 10l10 -2l11 -4l8 2h9l9 3l9 3l11 -4l9 5l9 -4l9 12l9 -7l14 -5l10 16l8 -17l10 12l8 -9l16 -7l10 9l8 -12l10 8l8 -6l16 -8l11 8l6 -12l12 9l7 -9l13 -9
l14 12l3 -18l9 -2l10 1l10 -9l14 11l3 -17h9l9 -3l-4 -17l11 -9l-7 -9l-4 -17l17 -9l-13 -9l-4 -17l12 -9l-8 -9l-4 -17l3 -9l1 -9l-6 8l-13 -7l-3 15l-14 -9l-4 13l-8 8l-13 -8l-4 15l-11 -5l-7 7l-8 7l-14 -14l-3 20l-14 -14l-5 15l-8 7l-13 -13l-4 17l-13 -14l-6 14l-6 6
l-10 -10l-8 12l-11 -16l-7 15l-3 5l-9 -8l-9 9l-9 -3l-9 -1l-10 4l-9 -2l-9 1l-9 -5l-9 -1l-8 3l-6 -17l-12 14l-8 -10l-9 2l-7 2l-6 -8l-11 2l-8 -3l-7 -7l-6 2l-6 -8h-9l-2 -16l-12 3l-6 1l2 -16l-16 5l-5 -9l-6 -6l-5 1l2 -15l-14 1l1 -13l-10 -3l-6 -2l-4 -8l-5 -7
l5 -13l-10 -5l-6 -4l-1 -9l-6 -8l2 -10l-4 -8l-6 -7l13 -12l-17 -5l14 -13l-14 -6l-5 -12l2 -9l-3 -9l15 -10l-12 -8l-4 -8l13 -9l-12 -9l14 -8l-8 -10l-3 -7l13 -7l-10 -11l14 -7l-6 -10l-3 -5l17 -3l-11 -14l6 -7l5 -8l-2 -5l14 -3l-6 -13l14 -3l-2 -11l-2 -4l11 -3v-11
l19 4l-4 -15l-2 -4l10 -3l3 -10l14 2l2 -11l-2 -4l17 9l-2 -19l10 -1l8 -5l1 -5h10l7 -7l11 3l7 -6l2 -5l13 13l4 -18h10h9l6 -5l9 9l9 -10l9 8l9 -5l14 -3l9 5l9 -4l8 15l10 -9l13 -1l6 15l12 -11l7 7l9 2l10 -1l2 18l14 -10l8 5l7 6l5 15l-6 9l1 9l5 15l-16 9l11 9l5 16
l-18 9l13 9l5 15l-7 9l2 9l5 15l-2 9l-3 9l-1 4l-9 -2l-9 2l-9 -1l-9 -3l-2 4l-9 -9l-9 9l-9 -6l-9 2l-2 4l-9 -4l-9 4l-9 -14l-9 10l-1 4h-9h-9l-9 -8z" />
    <glyph glyph-name="H" unicode="H" horiz-adv-x="768" 
d="M84 0l4 15l-8 9l4 9l4 16l-8 9l4 9l4 15l-4 9v9l4 15l-5 9l1 9l4 15l-15 9l11 9l4 16l-3 9l-1 9l4 15l-12 9l8 9l4 15l-17 9l13 9l4 15l-8 9l4 9l4 16l-9 9l5 9l4 15l-7 9l3 9l4 15l-13 9l9 9l4 16l-15 9l11 9l4 15l-5 9l1 9l4 15l-3 9l-1 9l4 15l-15 9l11 9l4 16l-3 9
l-1 9l4 15l-15 9l11 9l4 15l-9 9l5 9l4 15l-3 9l-1 9l4 16l-3 9l-1 9l4 15l-17 9l13 9v-4l9 14l9 -14l9 16l9 -12v-4l9 15l9 -15l9 2l9 2v-4l9 3l9 -3h9l9 4v-4l9 4l9 -4l9 1l9 3l-4 -17l3 -9l1 -9l-4 -17l12 -9l-8 -9l-4 -17l11 -9l-7 -9l-4 -17l17 -9l-13 -9l-4 -16l10 -9
l-6 -9l-4 -17l8 -9l-4 -9l-4 -17l1 -9l3 -9l-4 -17l17 -9l-13 -9l17 -5l9 11l9 -6l16 -5l9 15l9 -10l17 -5l9 9l9 -4l17 -5l9 2l9 3l16 -5l9 3l9 2l17 -5l9 6l9 -1l17 -5l9 12l9 -7l16 -5l9 17l9 -12l17 -5l9 14l9 -9l4 17l-10 9l6 9l4 17l-9 9l5 9l4 17l-10 9l6 9l4 16
l-11 9l7 9l4 17l-15 9l11 9l4 17v9l-4 9l4 17l-15 9l11 9l4 17l-3 9l-1 9v-4l9 11l9 -11l9 17l9 -13v-4l9 12l9 -12l9 3l9 1v-4l9 12l9 -12l9 14l9 -10v-4l9 12l9 -12l9 8l9 -4l-4 -15l17 -9l-13 -9l-4 -16l17 -9l-13 -9l-4 -15l15 -9l-11 -9l-4 -15l17 -9l-13 -9l-4 -15
l11 -9l-7 -9l-4 -16l17 -9l-13 -9l-4 -15l7 -9l-3 -9l-4 -15l3 -9l1 -9l-4 -15l1 -9l3 -9l-4 -16l3 -9l1 -9l-4 -15l15 -9l-11 -9l-4 -15l8 -9l-4 -9l-4 -16l5 -9l-1 -9l-4 -15v-9l4 -9l-4 -15l3 -9l1 -9l-4 -15l12 -9l-8 -9l-4 -16l13 -9l-9 -9l-4 -15l3 -9l1 -9l-4 -15
l11 -9l-7 -9l-4 -15l10 -9l-6 -9l-4 -16v-9l4 -9l-4 -15l10 -9l-6 -9v4l-9 -2l-9 2l-9 -4h-9v4l-9 -15l-9 15l-9 -16l-9 12v4l-9 -2l-9 2l-9 -15l-9 11v4l-9 -12l-9 12l-9 -13l-9 9l4 15l-11 9l7 9l4 15l-11 9l7 9l4 15l-15 9l11 9l4 15l-2 9l-2 9l4 15l-11 9l7 9l4 15
l-11 9l7 9l4 15l-6 9l2 9l4 15l-16 9l12 9l4 15l-4 9v9l4 15l-11 9l7 9l-17 4l-9 -16l-9 12l-16 4l-9 -4h-9l-17 4l-9 -3l-9 -1l-17 4l-9 -7l-9 3l-16 4l-9 -15l-9 11l-17 4l-9 -2l-9 -2l-17 4l-9 -9l-9 5l-16 4l-9 -8l-9 4l-17 4l-9 -4h-9l-4 -15l14 -9l-10 -9l-4 -15
l13 -9l-9 -9l-4 -15l4 -9v-9l-4 -15l15 -9l-11 -9l-4 -15l1 -9l3 -9l-4 -15l5 -9l-1 -9l-4 -15l15 -9l-11 -9l-4 -15l17 -9l-13 -9l-4 -15l6 -9l-2 -9l-4 -15l1 -9l3 -9v4l-9 -2l-9 2l-9 -1l-9 -3v4l-9 -9l-9 9l-9 -6l-9 2v4l-9 -4l-9 4l-9 -14l-9 10v4h-9h-9l-9 -8z" />
    <glyph glyph-name="I" unicode="I" horiz-adv-x="318" 
d="M87 0l5 15l-7 9l2 9l5 16l-7 9l2 9l5 15l-5 9v9l5 15l-12 9l7 9l5 15l-11 9l6 9l5 16l-10 9l5 9l5 15l-8 9l3 9l5 15l-11 9l6 9l5 15l-17 9l12 9l5 16l-10 9l5 9l5 15l-16 9l11 9l5 15l-8 9l3 9l5 16l-15 9l10 9l5 15l-11 9l6 9l5 15l-14 9l9 9l5 15l-3 9l-2 9l5 16l-6 9
l1 9l5 15l-17 9l12 9l5 15l-3 9l-2 9l5 15l-6 9l1 9l5 16l-5 9v9l5 15l-11 9l6 9v-4l9 15l9 -15l9 16l9 -12v-4l9 15l9 -15l9 7l9 -3v-4l9 6l9 -6l9 1l9 3v-4l9 14l9 -14l9 2l9 2l-5 -15l14 -9l-9 -9l-5 -16l18 -9l-13 -9l-5 -15l15 -9l-10 -9l-5 -15l15 -9l-10 -9l-5 -15
l8 -9l-3 -9l-5 -16l7 -9l-2 -9l-5 -15l8 -9l-3 -9l-5 -15l9 -9l-4 -9l-5 -15l15 -9l-10 -9l-5 -16l7 -9l-2 -9l-5 -15l18 -9l-13 -9l-5 -15l13 -9l-8 -9l-5 -16l8 -9l-3 -9l-5 -15l9 -9l-4 -9l-5 -15l13 -9l-8 -9l-5 -15l15 -9l-10 -9l-5 -16l7 -9l-2 -9l-5 -15l6 -9l-1 -9
l-5 -15l9 -9l-4 -9l-5 -15l14 -9l-9 -9l-5 -16l6 -9l-1 -9l-5 -15l15 -9l-10 -9v4l-9 -1l-9 1l-9 -8l-9 4v4l-9 -9l-9 9l-9 -4h-9v4l-9 -6l-9 6l-9 -3l-9 -1v4l-9 -14l-9 14l-9 -1z" />
    <glyph glyph-name="J" unicode="J" horiz-adv-x="355" 
d="M124 732v-4l9 10l9 -10l9 6l9 -2v-4l9 5l9 -5l9 4h9v-4l9 11l9 -11l9 17l9 -13v-4h9h9l9 15l9 -11l-4 -16l8 -9l-4 -9l-4 -16l9 -9l-5 -9l-4 -16v-9l4 -9l-4 -16l6 -9l-2 -9l-4 -16l4 -9v-9l-4 -16l6 -9l-2 -9l-4 -16l6 -9l-2 -9l-4 -16l4 -9v-9l-4 -17l11 -9l-7 -9
l-4 -16l10 -9l-6 -9l-4 -16l9 -9l-5 -9l-4 -16l7 -9l-3 -9l-4 -16l10 -9l-6 -9l-4 -16l16 -9l-12 -9l-4 -16l9 -9l-5 -9l-4 -16l15 -9l-11 -9l-6 -16l7 -9l-8 -9l14 -10l-11 -8l-7 -9l8 -11l-11 -6l11 -12l-11 -7l-7 -4l-1 -9l-6 -7l1 -10l-5 -8h-6l7 -17l-19 4l-4 -9l-4 -8
l-6 1l-5 -9h-10l-5 -10l-8 -4l-8 2l-6 -12l-11 7l-4 -18l-12 8l-15 3l-7 -18l-11 16l-7 -16l-10 10l-13 7l-11 -6l-7 9l-10 -4l-8 8h-9l-8 3l-12 -13l-7 12l4 7l-2 9l2 9l-13 9l9 9l4 7l-17 9l17 9l-14 9l10 9l4 7l-14 9l14 9l-7 9l3 9l10 -8l11 4l6 -9l11 4l6 -10l12 5
l7 -6l2 -4l7 16l11 -13l8 8h9l12 10l-9 17h16l5 1l-12 10l13 8l-6 9l8 9l-8 9l5 9l4 16l-12 9l8 9l4 15l-14 9l10 9l4 15l-6 9l2 9l4 16l-5 9l1 9l4 16l-8 9l4 9l4 15l-13 9l9 9l4 15l-5 9l1 9l4 16l-14 9l10 9l4 16l-1 9l-3 9l4 15l-8 9l4 9l4 15l-9 9l5 9l4 16l-4 9v9
l4 16l-6 9l2 9l4 15l-3 9l-1 9l4 15l-14 9l10 9l4 16l-1 9z" />
    <glyph glyph-name="K" unicode="K" horiz-adv-x="667" 
d="M494 0l-7 16l-8 5l-6 7l-6 16l-13 2l-1 10l-7 16l-19 -3l5 15l-6 17l-12 3l-2 9l-7 16l-12 2l-2 10l-7 16l-13 1l-1 11l-6 16l-6 6l-8 6l-7 16l-16 -1l2 13l-7 16l-11 3l-3 9l-6 17l-7 6l-7 6l-7 16l-14 1v11l-6 16l-19 -2l5 14l-7 16h-15l1 12l-4 -15l6 -9l-2 -9l-4 -16
l5 -9l-1 -9l-4 -15l5 -9l-1 -9l-4 -15l17 -9l-13 -9l-4 -15l6 -9l-2 -9l-4 -16l11 -9l-7 -9l-4 -15l6 -9l-2 -9l-4 -15l17 -9l-13 -9l-4 -15l5 -9l-1 -9l-4 -16l8 -9l-4 -9l-4 -15l9 -9l-5 -9v4l-9 -17l-9 17l-9 -15l-9 11l-17 4l-9 -14l-9 10l-17 4l-9 -3l-9 -1v4l-9 -3
l-9 3h-9l-9 -4l4 15l-13 9l9 9l4 16l-12 9l8 9l4 15l-11 9l7 9l4 15l-10 9l6 9l4 15l-6 9l2 9l4 16v9l-4 9l4 15l-1 9l-3 9l4 15l-16 9l12 9l4 15l-17 9l13 9l4 16l-9 9l5 9l4 15l-10 9l6 9l4 15l-16 9l12 9l4 16l-4 9v9l4 15l-6 9l2 9l4 15l-1 9l-3 9l4 15l-16 9l12 9l4 16
l-4 9v9l4 15l-12 9l8 9l4 15l-10 9l6 9l4 15l-6 9l2 9l4 16l-5 9l1 9l4 15l-4 9v9v-4l9 11l9 -11l9 17l9 -13l17 -4h9l9 4l17 -4l9 15l9 -11v-4l9 8l9 -8l9 9l9 -5l-4 -16v-9l4 -9l-4 -16l6 -9l-2 -9l-4 -16l4 -9v-9l-4 -16l6 -9l-2 -9l-4 -16l6 -9l-2 -9l-4 -16l4 -9v-9
l-4 -16l11 -9l-7 -9l-4 -16l10 -9l-6 -9l-4 -16l9 -9l-5 -9l14 9v12l8 5l13 9l-1 13l10 3l13 9l-7 17h15l13 9l-1 13l10 3l14 9l-6 17h14l13 9l1 11l8 5l14 9l-6 17h14l13 9l-1 13l10 3l13 9l-5 16l13 1l13 9l5 8l4 8l14 9l1 11l7 6l13 9l-6 17l15 -1l15 -4l9 2l9 2l16 -4
l9 5l9 -1l15 -4l9 4h9l16 -4l9 10l9 -6l15 -4l9 15l9 -11l-14 -10l6 -17l-15 1l-15 -10l5 -17l-14 1l-14 -10l-1 -11l-8 -5l-14 -10l-2 -10l-7 -6l-15 -10l-5 -8l-4 -8l-14 -10l4 -16h-13l-14 -9l-5 -8l-4 -8l-14 -10l4 -15l-13 -1l-15 -10l7 -18l-16 2l-14 -10l4 -16h-13
l-14 -10l4 -16h-13l-15 -10v-12l-9 -4l-14 -10l-2 -11l-7 -5l6 -15l12 -2l3 -9l7 -16l12 -2l3 -9l6 -15l17 2l-2 -13l7 -15l10 -3l5 -8l6 -16l20 4l-5 -15l6 -15l16 1l-1 -12l7 -15l11 -2l4 -9l6 -16l13 -1l2 -10l7 -15l15 1v-12l6 -15l18 3l-3 -14l6 -16l11 -3l4 -8l7 -15
l10 -3l5 -8l6 -15l13 -1l2 -10l7 -16l17 2l-2 -13l6 -15l10 -3l5 -8v4l-9 -14l-9 14l-9 -1l-9 -3v4l-9 -8l-9 8l-9 -9l-9 5l-17 4l-9 -4h-9v4l-9 -6l-9 6l-9 -3l-9 -1v4l-9 -14l-9 14l-9 -1z" />
    <glyph glyph-name="L" unicode="L" horiz-adv-x="486" 
d="M87 0l5 15l-6 9l1 9l5 16l-2 9l-3 9l5 15l-14 9l9 9l5 15l-15 9l10 9l5 15l-3 9l-2 9l5 16l-17 9l12 9l5 15l-7 9l2 9l5 15l-12 9l7 9l5 15l-6 9l1 9l5 16l-2 9l-3 9l5 15l-1 9l-4 9l5 15l-8 9l3 9l5 16l-1 9l-4 9l5 15l-17 9l12 9l5 15l-18 9l13 9l5 15l-4 9l-1 9l5 16
l-6 9l1 9l5 15l-18 9l13 9l5 15l-7 9l2 9l5 15l-2 9l-3 9l5 16l-15 9l10 9l5 15l-2 9l-3 9v-4l9 2l9 -2l9 8l9 -4v-4l9 2l9 -2l9 14l9 -10v-4l9 8l9 -8l9 7l9 -3v-4l9 6l9 -6l9 15l9 -11l-5 -16l16 -9l-11 -9l-5 -15l17 -9l-12 -9l-5 -16l6 -9l-1 -9l-5 -16l8 -9l-3 -9
l-5 -15l14 -9l-9 -9l-5 -16l17 -9l-12 -9l-5 -16l7 -9l-2 -9l-5 -15l11 -9l-6 -9l-5 -16l11 -9l-6 -9l-5 -16l17 -9l-12 -9l-5 -15l15 -9l-10 -9l-5 -16l5 -9v-9l-5 -16l12 -9l-7 -9l-5 -15l13 -9l-8 -9l-5 -16l2 -9l3 -9l-5 -16l3 -9l2 -9l-5 -15l12 -9l-7 -9l-5 -16l5 -9
v-9v-4l9 7l9 -7l9 14l9 -10l1 -4l9 2l9 -2l9 12l9 -8v-4l9 14l9 -14l9 4h9l1 -4l9 15l9 -15l9 9l9 -5v-4l9 4l9 -4l9 7l9 -3l1 -4l9 11l9 -11l9 16l9 -12v-4l9 6l9 -6l9 11l9 -7l-4 -6l5 -9l-5 -9l3 -9l1 -9l-4 -6l14 -9l-14 -9l3 -9l1 -9l-4 -6l7 -9l-7 -9l13 -9l-9 -9
l-15 4l-9 -15l-9 11l-15 4l-9 -16l-9 12l-16 4h-9l-9 -4l-15 4l-9 -8l-9 4l-15 4l-9 -10l-9 6l-16 4l-9 -9l-9 5l-15 4l-9 -14l-9 10l-15 4l-9 -8l-9 4l-15 4l-9 -5l-9 1l-15 4l-9 -4h-9l-16 4l-9 -13l-9 9l-15 4l-9 -2z" />
    <glyph glyph-name="M" unicode="M" horiz-adv-x="866" 
d="M153 768l4 -16l8 -6l4 -8l3 -15l15 -2l-3 -12l4 -16l13 -3l-1 -11l3 -16l7 -7l5 -7l3 -15l11 -5l2 -9l3 -16l5 -7l7 -7l4 -16l17 -1l-5 -13l3 -15l14 -3l-2 -11l4 -16l8 -6l4 -8l4 -16l11 -5l1 -9l3 -15h19l-7 -14l4 -16l5 -7l7 -7l3 -16l13 -3l-1 -11l3 -15l14 -3
l-1 -11l3 -16l7 -6l5 -8l4 -16l11 -5l1 -9l3 -15l18 -1l-6 -13l4 -16l12 -4v-10l11 12l4 8l1 10l11 11l-5 12l9 6l11 12l-8 15l13 3l11 12l-3 12l7 6l11 11l-10 16l15 2l11 12l-7 13l11 5l11 12l-8 15l13 3l11 11l-5 13l9 5l11 12l-3 12l8 6l11 12l-5 13l10 5l11 11l-2 11
l6 7l11 12l-10 16l15 2l11 12l3 8l1 10l11 11l-2 12l7 6l11 12l-5 13l9 5l11 12v11l5 7l11 11l-6 13l10 5l11 12l-7 14l12 4l-2 -16l9 -8l-1 -9l-2 -17l3 -9l5 -8l-2 -16l17 -6l-9 -11l-2 -17l17 -6l-10 -11l-2 -16l6 -8l2 -9l-2 -16l15 -6l-7 -11l-2 -17l7 -8l1 -9l-2 -16
l11 -7l-3 -10l-2 -17l14 -7l-6 -10l-2 -16l18 -6l-10 -11l-2 -16l8 -8v-9l-2 -17l1 -9l6 -8l-2 -16l13 -7l-5 -10l-2 -16l7 -8l1 -9l-2 -17l13 -7l-5 -10l-2 -16l20 -6l-12 -11l-2 -17l19 -6l-11 -11l-2 -16l15 -7l-7 -10l-2 -16l5 -8l3 -9l-2 -17l9 -8l-2 -9l-2 -16l8 -8
v-9l-2 -17l13 -7l-5 -10l-2 -16l9 -8l-1 -9v4l-9 -4l-9 4l-9 -9l-9 5v4l-9 -12l-9 12l-9 -7l-9 3v4l-9 -8l-9 8l-9 -15l-9 11v4l-9 -11l-9 11l-9 -16l-9 12l2 17l-5 8l-2 9l2 16l-3 9l-4 8l2 17l-9 8l1 9l2 16l-6 8l-1 9l2 17l-2 9l-5 8l2 16l-15 7l8 10l2 17l-15 7l8 10
l2 16l-3 8l-4 9l2 17l-19 6l11 11l2 16l-8 8l1 9l2 17l-12 7l5 10l-12 -13l1 -11l-5 -7l-12 -13l-3 -9l-2 -9l-12 -13l-3 -8l-1 -10l-4 2l2 -11l-11 -5l-3 -8l-1 -10l-12 -13l11 -15l-15 -3l-12 -13l11 -16l-16 -2l-12 -13l-1 -10l-3 -8l-12 -13v-10l-5 -8l-12 -13l11 -16
l-15 -2l-4 2l1 -11l-10 -5l-2 -9l-2 -9l-12 -13l9 -15l-13 -3l-12 -13l-3 -9l-2 -9l-12 -13l-1 -9l-3 -9l-4 17l-12 4v10l-4 17l-7 7l-6 7l-4 17l-16 2l4 12l4 2l-12 4l3 12l-10 5l-2 9l-4 17l-9 5l-3 9l-4 17l-18 1l5 13l-4 17l-18 1l6 13l-4 17h-19l6 14l-4 17l-9 6l-3 8
l4 2l-11 5l2 11l-16 2l4 12l-4 17h-19l7 14l-4 17l-10 5l-3 9l-4 17l-13 3l1 11l-7 -16l10 -10l-8 -8l-7 -15l15 -11l-13 -7l-7 -15l12 -12l-11 -7l-7 -15l3 -9l-1 -9l-7 -16l10 -10l-8 -8l-7 -15l11 -10l-9 -8l-7 -16v-9l2 -9l-7 -15l1 -9l1 -9l-7 -15l9 -11l-8 -8l-7 -15
l4 -9l-2 -9l-7 -16l6 -10l-4 -8v4l-9 -14l-9 14l-9 -2l-9 -2v4l-9 -12l-9 12l-9 -14l-9 10v4l-9 -4l-9 4l-9 -15l-9 11v4l-9 -9l-9 9l-9 -4h-9l7 14l-5 11l4 8l7 15l-9 11l8 8l7 14l-14 12l13 7l7 16l-6 9l4 9l7 14l-10 11l9 8l7 14l-4 10l3 9l7 15l-1 10v9l7 14l-12 12
l11 7l7 15l-2 10l1 9l7 14l-6 11l5 8l7 14l-12 12l11 7l7 16l-14 11l12 7l7 14l-14 12l13 7l7 14l1 10l-2 9l7 15l-6 11l5 8l7 14l-9 11l8 8l7 15l-7 11l6 8l7 14l-12 12l11 7l7 14l-7 11l6 8l7 16l-4 9l2 9l7 14l-2 10l1 9l7 15l-12 12l11 7l7 14l-1 10v9z" />
    <glyph glyph-name="N" unicode="N" horiz-adv-x="828" 
d="M84 0l4 15l-8 9l4 9l4 16l-8 9l4 9l4 15l-16 9l12 9l4 16l-10 9l6 9l4 15l-2 9l-2 9l4 15l-11 9l7 9l4 16l-3 9l-1 9l4 15l-9 9l5 9l4 16v9l-4 9l4 15l-17 9l13 9l4 15l-17 9l13 9l4 16l-10 9l6 9l4 15l-7 9l3 9l4 15l-5 9l1 9l4 16l-17 9l13 9l4 15l-8 9l4 9l4 16l-15 9
l11 9l4 15l-16 9l12 9l4 15l-3 9l-1 9l4 16l-13 9l9 9l4 15l-8 9l4 9l4 16l-11 9l7 9l4 15l-13 9l9 9l9 -13l8 -4l8 -5l8 -13l15 4l1 -13l9 -14l16 4v-13l9 -13l16 5v-14l9 -13l15 4l1 -13l8 -13h12l4 -9l9 -14l16 4v-13l9 -13h12l4 -9l8 -13l16 5v-14l9 -13l17 6l-1 -15
l9 -14l9 -3l7 -6l9 -13l15 3l1 -12l8 -13l9 -3l7 -6l9 -13l17 6l-1 -15l9 -14l13 2l3 -11l8 -13l9 -3l7 -6l9 -13l16 4v-13l9 -13l7 -6l9 -3l9 -14l14 2l2 -11l8 -13l7 -5l9 -4l9 -13l11 -1l5 -8l5 15l-11 9l6 9l5 15l-8 9l3 9l5 16l-2 9l-3 9l5 15l-1 9l-4 9l5 15l-15 9
l10 9l5 15l-10 9l5 9l5 16l-2 9l-3 9l5 15l-9 9l4 9l5 15l-9 9l4 9l5 15l-13 9l8 9l5 16l-10 9l5 9l5 15l-7 9l2 9l5 15l-10 9l5 9l17 -5l9 18l9 -13v-5l9 17l9 -17l9 15l9 -10l17 -5l9 16l9 -11l17 -5l9 7l9 -2l-4 -15l12 -9l-8 -9l-4 -16l16 -9l-12 -9l-4 -15v-9l4 -9
l-4 -16l7 -9l-3 -9l-4 -15l4 -9v-9l-4 -16l4 -9v-9l-4 -15l4 -9v-9l-4 -15v-9l4 -9l-4 -16l16 -9l-12 -9l-4 -15l13 -9l-9 -9l-4 -16l9 -9l-5 -9l-4 -15l11 -9l-7 -9l-4 -16l9 -9l-5 -9l-4 -15l12 -9l-8 -9l-4 -16l9 -9l-5 -9l-4 -15l17 -9l-13 -9l-4 -15l16 -9l-12 -9
l-4 -16l17 -9l-13 -9l-4 -15l6 -9l-2 -9l-4 -16l11 -9l-7 -9l-4 -15l14 -9l-10 -9l-4 -16l1 -9l3 -9l-4 -15l3 -9l1 -9l-9 13l-8 5l-8 4l-8 14l-16 -4v13l-9 13l-18 -7l2 16l-9 13l-10 3l-6 6l-9 13l-15 -3l-1 12l-8 14l-17 -5l1 14l-9 13l-15 -3l-1 12l-9 13l-13 -2l-3 11
l-8 14l-13 -1l-3 10l-9 13l-17 -6l1 15l-9 13l-11 1l-5 8l-9 13l-6 6l-10 3l-8 14l-8 4l-8 5l-9 13l-7 6l-9 3l-9 13l-15 -3l-1 12l-8 14l-10 3l-6 6l-9 13l-18 -7l2 16l-9 13l-10 2l-6 7l-9 13l-15 -3l-1 12l-8 14l-17 -5l1 14l-9 13l-7 5l-9 4l-5 -15l17 -9l-12 -9l-5 -15
l17 -9l-12 -9l-5 -16l4 -9l1 -9l-5 -15l4 -9l1 -9l-5 -15l13 -9l-8 -9l-5 -15l14 -9l-9 -9l-5 -16l9 -9l-4 -9l-5 -15l13 -9l-8 -9l-5 -15l1 -9l4 -9l-5 -15l3 -9l2 -9l-5 -16l10 -9l-5 -9l-5 -15l16 -9l-11 -9l-5 -15l15 -9l-10 -9l-17 4l-9 -6l-9 2v4l-9 -7l-9 7l-9 -10
l-9 6l-17 4l-9 -9l-9 5l-17 4l-9 -13z" />
    <glyph glyph-name="O" unicode="O" horiz-adv-x="868" 
d="M434 -22l-7 5l-9 -4l-9 5l-10 -15l-8 11l-6 6l-11 -13l-7 15l-10 -11l-8 10l-4 6l-10 -5l-7 9l-10 -1l-9 1l-2 5l-12 -5l-5 12l-9 1l-9 1l-2 6l-8 4l-8 4l-14 -8l-4 12l-1 6l-14 -6l-1 15l-10 2l-8 4l1 5h-12l-2 12l-10 2l-7 6l1 6l-15 -2l2 14h-14l-2 10l2 5h-15l3 14
l-9 4l-6 7l2 6l-17 -1l7 16l-6 7l-8 5l2 6l-18 1l10 15l-13 4l1 10l2 6l-14 4l8 13l-16 3l5 12l3 6l-15 6l11 12l-5 8l-4 8l3 7l-12 7l9 11l-2 9l-5 8l4 8l-7 9l6 9l-3 9l-2 9l5 8l-16 10l17 8l-15 9l11 9l6 6l-6 10l8 8l-10 10l9 8l6 4l-9 11l13 6l-14 13l14 6l6 3l-1 10
l8 7l-14 14l16 4l6 2l3 8l5 8l-3 12l7 6l6 1l-8 16l18 -1l-7 15l13 2l5 -1v12l12 2l2 10l6 7l6 -1v13h12l5 8l5 8l5 -2l-2 18l16 -6l3 11l8 4l6 -2l1 15l14 -5l5 10l8 3l6 -2l8 4l8 4l5 9l9 3l5 -3l8 4l9 2l8 4l7 7l6 -3l5 16l13 -12l7 10l9 -1l7 -3l8 10l10 -7l7 15l10 -8
l7 -4l9 1h9l9 14l9 -9l7 -5l9 4l9 -5l9 12l9 -8l6 -6l9 4l9 -6l11 15l7 -14l4 -6l10 5l7 -9l10 2l9 -2l2 -5l10 1l7 -8l9 -1l9 -1l2 -6l14 8l2 -16l12 3l6 -7l1 -6l10 -2l5 -7l12 1l6 -7l-1 -5l16 4l-2 -16l13 1l4 -9l-1 -6l8 -5l5 -7l19 5l-3 -15l-2 -5l12 -2v-12l15 1v-12
l-2 -6l6 -7l4 -8l9 -4l5 -8l-2 -6l14 -3l-6 -13h20l-8 -14l-2 -6l18 -3l-12 -14l8 -6l3 -9l-3 -6l10 -7l-6 -11l8 -7l1 -9l-3 -7l2 -9l1 -9l5 -8l2 -9l-4 -8l14 -9l-13 -9l5 -9v-9l-5 -8l13 -9l-14 -9l2 -9l2 -9l-6 -6l2 -9l-4 -9l-2 -8l3 -10l-6 -4l2 -10l-6 -7l13 -13
l-13 -6l-6 -3l1 -10l-8 -7l7 -12l-9 -6l-6 -2l12 -16h-20l4 -12l-8 -6l-6 -1l1 -11l-11 -4l3 -12l-9 -5l-5 1l1 -13l-13 -1l3 -15l-11 -2l-6 1l2 -15l-14 2l-5 -9l-5 -7l-5 2l4 -19l-18 7l2 -17l-13 2l-6 2l-6 -7l-9 -3l-3 -11l-10 -2l-6 2v-20l-16 12l-1 -18l-13 6l-5 3
l-6 -11l-11 5l-6 -8l-9 -3l-6 3l-5 -17l-13 13l-7 -7l-9 -2l-7 3l-8 -10l-10 7l-6 -18l-11 11l-7 4l-9 -6l-9 5l-9 -6zM434 110l10 -4l8 3l9 -1l9 11l9 -5l8 -2l9 3l9 1l5 14l11 -5l7 -2l7 6l9 2l5 11l9 1l6 -1l3 11h11l1 13l11 1l7 1l-5 17l17 -4l2 10l7 6l7 2l1 10l8 5
l-6 15l12 3l7 5l-5 11l11 6v10l3 8l7 9l-10 12l14 5l-1 10l1 9l5 13l-14 10l15 8l-7 9l4 9l4 14l-4 9l3 9l-6 9v9l2 11l-13 6l9 12l-19 4l10 12l2 8l-5 8l-2 9l-13 5l2 10l1 8l-9 5l-1 10l-19 -1l6 14v6l-10 3l-2 10l-17 -4l1 14v6l-16 -6l1 17l-10 1l-7 6l-3 6l-15 -11
l-1 19l-14 -9l-4 13l-6 6l-12 -10l-5 14h-10h-9l-9 5l-10 -13l-8 15l-10 -10l-8 7l-10 4l-8 -8l-9 6l-9 -6h-9l-8 3l-8 -4h-10l-7 -8l-9 -1l-7 2l-6 -8h-10l-7 -6l-7 -6l-6 1l-2 -12l-12 1v-15l-12 1h-6l-3 -10l-10 -3l4 -16h-13l-7 -3l-2 -9l-7 -6l5 -14l-11 -4l-7 -5
l-1 -9l-5 -8l-3 -8v-10l-7 -9v-9l-4 -8l4 -11l-4 -8l-5 -14l7 -9l-8 -9l15 -10l-12 -8l-4 -13l10 -9l-9 -9l12 -9l-6 -9l-2 -11l19 -5l-15 -13l6 -8l3 -8l-2 -8l17 -3l-10 -14l14 -4l-3 -11l-1 -7l19 1l-9 -16l4 -8l9 -5v-7l18 5l-6 -18l16 2v-12v-6l11 -1l4 -10l15 6l2 -13
l3 -6l9 -2l7 -6l9 -1l9 -3l6 -6l11 5l6 -10l11 4l8 -4l9 -5l9 8l9 -10l9 3h9z" />
    <glyph glyph-name="P" unicode="P" horiz-adv-x="583" 
d="M87 0l5 15l-13 9l8 9l5 16l-12 9l7 9l5 15l-17 9l12 9l5 15l-5 9v9l5 15l-18 9l13 9l5 16l-2 9l-3 9l5 15l-9 9l4 9l5 15l-16 9l11 9l5 15l-14 9l9 9l5 16l-8 9l3 9l5 15l-5 9v9l5 15l-9 9l4 9l5 16l-2 9l-3 9l5 15l-15 9l10 9l5 15l-7 9l2 9l5 15l-12 9l7 9l5 16l-7 9
l2 9l5 15l-1 9l-4 9l5 15l-7 9l2 9l5 15l-2 9l-3 9l5 16l-1 9l-4 9l5 15l-15 9l10 9l1 -4l9 7l9 -7l9 8l9 -4v-4l9 14l9 -14h9l9 4v-4l9 13l9 -13l9 4h9l1 -4l9 12l9 -12l9 5l9 -1l1 -4l9 17l9 -17l9 7l9 -3v-4l9 4l9 -4l9 5l9 -1l9 -5l9 2l9 2l14 -6l10 12l8 -10l16 -8
l11 6l8 -5v-5l9 1l8 -7l11 4l7 -6v-5l15 7l1 -16l12 3l6 -8v-6l8 -4l5 -8l19 7l-2 -15l-1 -7l12 -4l-2 -11l16 -1l-2 -12v-13l4 -9l2 -8l7 -7l3 -9l-4 -3l12 -8l-10 -10l18 -7l-16 -11l17 -7l-11 -10l-5 -4l4 -9l-6 -9l8 -10l-10 -8l5 -9l-2 -9l-9 -11l-1 -9l-4 -9v-9l-2 -9
l-8 -4l7 -15h-17l-1 -10l-5 -7h-7l3 -16l-16 4l-5 -8l-5 -8l-5 2l-6 -7l-9 -1l-8 -5l-6 -8l-3 4l-7 -7h-10l-3 -17l-12 7l-18 1l-7 -7l-9 -2l-15 3l-7 -12l-10 5l-9 4l-9 -18l-9 13l-2 5l-9 -10l-9 10l-9 -7l-9 2l-1 5l-9 -10l-9 10l-9 -10l-9 5l-5 -17l12 -9l-7 -9l-5 -16
l12 -9l-7 -9l-5 -17l4 -9l1 -9l-5 -16l18 -9l-13 -9l-5 -17l15 -9l-10 -9l-5 -16l3 -9l2 -9l-5 -17l9 -9l-4 -9l-5 -16l18 -9l-13 -9l-5 -17l16 -9l-11 -9v4l-9 -7l-9 7l-9 -4h-9v4l-9 -15l-9 15l-9 -4h-9v4l-9 -9l-9 9l-9 -17l-9 13v4l-9 -5l-9 5l-9 -5zM231 611h-5l7 -9
l-7 -9l4 -9l1 -9h-5l10 -9l-10 -9l3 -9l2 -9l-5 -17l1 -9l4 -9h-5l13 -9l-13 -9l13 -9l-8 -9h-5l4 -9l-4 -9l8 -9l-3 -9l9 -4l9 4l9 -4l9 11l9 -11l9 10l9 -6l13 -3l7 12l11 -10l8 5l9 1l2 -4l1 17l15 -8l8 4l6 8l12 11l-9 16l14 2l5 6l-8 10l11 8l-11 10l9 8l2 14l-15 6
l11 11l-15 6l7 11l-3 8l-8 4l-5 8l-14 -3l-3 11l-6 6l-9 1l-9 2l-10 -5l-8 7l-9 -1h-9l-9 5l-9 -17l-9 17l-9 -15l-9 15l-9 -8z" />
    <glyph glyph-name="Q" unicode="Q" horiz-adv-x="891" 
d="M445 -22l-7 5l-9 -2l-9 3l-9 -14l-9 10l-6 6l-12 -17l-6 19l-11 -12l-7 11l-4 6l-10 -4l-7 8l-13 -14l-6 14l-4 6l-11 -6l-6 12l-11 -4l-7 6l-2 6l-15 -10l-1 18l-9 1l-9 3l-2 6l-15 -7v17l-15 -7l-3 12v6l-7 5l-7 6l-18 -8l1 16v6l-10 3l-4 9l-10 2l-6 7l1 6l-13 2l1 12
l-6 7l-9 4l1 6l-13 2l3 13l-14 1v11l2 6l-14 3l5 13l-6 7l-6 7l2 6l-8 7l2 10l-7 7l-4 8l3 7l-4 8l-2 9l-4 8l-5 8l3 7l-11 8l8 10l-3 9l-4 8l4 8l-14 9l13 9l-14 9l9 9l5 8l-8 9l9 9l-13 9l9 9l6 6l-11 11l13 7l-11 11l10 7l6 4l-13 13l18 4l-1 10l2 9l6 3l-10 14l17 3
l-5 11l7 7l6 2l-4 12l13 4v10l4 8l6 1l2 10l8 5l-4 14l11 3h6l2 10l10 3l3 10l5 7h6v14l14 -2l-4 17l14 -2l6 -1l-4 19l18 -8l-1 16l12 -1l6 -1l1 17l15 -8l3 12l10 1l5 -2l5 10l12 -3l3 14l11 -2l7 -2l8 4l9 2l3 16l12 -6l6 -3l9 4l9 1l8 4l8 5l7 -4l7 17l11 -14l6 18
l11 -11l7 -4l9 3l9 -2l9 4l9 1l7 -5l9 12l9 -13l9 1l9 3l6 -5l10 9l8 -12l10 11l8 -9l4 -6l11 5l6 -10l10 1l9 -1l4 -6l13 11l4 -17l14 13l4 -15l2 -6l12 5l4 -12l11 2l7 -6l2 -6l16 9l-1 -19l10 -1l8 -4v-6l16 6l-2 -17l9 -3l8 -5v-6l18 6l-4 -18l9 -3l7 -6l-1 -6l11 -2
l1 -11l7 -6l8 -5l-1 -6h16l-6 -15l12 -2l2 -10l-2 -6l10 -5l-1 -11l12 -4v-10l-2 -6l17 -3l-11 -14l5 -8l6 -7l-3 -7l14 -5l-8 -12l14 -5l-5 -11l-3 -7l2 -9l1 -9l14 -7l-7 -10l-4 -8v-9l1 -9l6 -9l-1 -9l-5 -17l5 -9l-6 -9l6 -9l-3 -9l-8 -14l15 -12l-19 -5v-10l1 -9
l-9 -12l11 -14l-17 -4l1 -9l-2 -9l-10 -10l4 -11l-11 -5l6 -13l-10 -5l-11 -8l-3 -8l-6 -7l-4 -9l-2 -9l-11 -6l1 -13h-13l5 -17h-13l7 -15l7 -6l8 -5l8 -15l16 2l-1 -13l7 -15l12 -1l3 -10l8 -15l11 -2l4 -9l7 -15l10 -3l5 -8l-16 4l-9 -13l-9 9l-16 4l-9 -10l-9 6l-16 4
l-9 -1l-9 -3l-16 4l-9 -4h-9l-16 4l-9 -8l-9 4l3 4h-14l2 13l-16 -2l1 13l-8 16l-13 1l-2 10h-11l-2 -19l-15 13l-6 -9l-9 -2l-13 1l-8 -4h-10l-6 -11l-10 2l-13 2l-8 -10l-10 7l-9 -2l-8 -6l-13 4l-9 -6l-9 5l-9 -8zM445 99l16 -3l8 8l10 -6l7 13l10 -6h15l5 14l12 -8l8 7
l8 3l2 5l-13 1l1 12l-16 -2l1 13l2 5l-10 3l-2 10h-14l-1 11l2 5l-18 -4l6 17l-15 -1v12l2 5l-11 3l-1 11l-8 5l-7 6l2 5l-17 -3l5 16l-19 -5l4 16l2 5l-6 6l-6 7l-12 1l-3 10l15 -4l9 17l9 -13l16 -4l9 9l9 -5l15 -4l9 6l9 -2l16 -4l9 16l9 -12l15 -4l9 10l9 -6l2 -9l18 4
l-6 -17l18 3l-3 -14l1 -8l11 -3l1 -11h15v-11l2 -9l8 -5l4 -8l10 -4l5 -7l7 3l-1 11l10 4l-5 14l11 4l7 5l2 8l4 9l-1 10l3 8l6 8l-3 10l7 7l1 10l-1 9l5 13l-3 9l4 9l-6 9l3 9l4 11l-18 8l17 10l-8 9l2 9l3 9l-11 7l7 10l-4 9l-4 8l2 7l-7 7l1 10l-4 8l-7 7l2 6l-20 -1
l11 17h-17l4 13l2 5l-8 5l-3 9l-16 -2l1 13l1 5l-14 -3l1 15l-11 1l-6 7v5l-15 -7v17l-11 -1l-7 6l-2 5l-14 -12l-3 19l-13 -9l-5 11l-3 5l-13 -15l-4 19h-10h-9l-7 5l-10 -11l-8 12l-9 -3h-9l-6 4l-9 -12l-9 11l-9 -10l-9 4l-6 3l-8 -5l-9 1l-6 -15l-11 7l-4 3l-4 -15
l-13 9l-3 -16l-12 5l-5 3v-17l-15 7l-6 -6l-7 -7l-5 2l4 -18l-17 6l-3 -10l-8 -5l-5 1l-2 -11l-10 -3l-5 -7l-3 -10l-6 -2l2 -11l-11 -4l1 -11l-6 -7l-6 -4l1 -10l-8 -7l11 -14l-13 -4l-6 -7l5 -10l-9 -7l6 -11l-5 -8l-5 -11l11 -9l-12 -9l12 -10l-9 -8l-4 -11l7 -9l-6 -9
l15 -8l-9 -10l-3 -10l7 -7l-3 -10l10 -7l-2 -10l-2 -7l6 -7v-10l6 -7l5 -8l-2 -6l5 -7l4 -9l11 -4l2 -9l-2 -5h15l-3 -14l7 -6l8 -5l-1 -5l17 6l-4 -18l8 -5l9 -3v-5l14 6l1 -16l10 -1l8 -4l1 -5l9 -2l8 -5l13 9l5 -12l4 -5l11 8l6 -12l13 14l6 -14l6 -5l10 13l8 -14l9 4z
" />
    <glyph glyph-name="R" unicode="R" horiz-adv-x="583" 
d="M84 0l4 15l-13 9l9 9l4 16l-5 9l1 9l4 15l-5 9l1 9l4 15l-7 9l3 9l4 15l-13 9l9 9l4 16l-17 9l13 9l4 15l-16 9l12 9l4 15l-15 9l11 9l4 15l-9 9l5 9l4 16l-6 9l2 9l4 15l-13 9l9 9l4 15l-4 9v9l4 16l-3 9l-1 9l4 15l-3 9l-1 9l4 15l-5 9l1 9l4 15l-14 9l10 9l4 16l-17 9
l13 9l4 15l-9 9l5 9l4 15l-6 9l2 9l4 15l-1 9l-3 9l4 16l-16 9l12 9l4 15l-11 9l7 9v-4l9 3l9 -3l9 11l9 -7l1 -4l9 17l9 -17l9 8l9 -4l1 -4l9 12l9 -12l9 16l9 -12v-4l9 15l9 -15l9 11l9 -7v-4l9 7l9 -7l9 11l9 -7l1 -4l9 11l9 -11l9 5l9 -1l9 -5l9 9l9 -5l14 -6l11 16
l7 -14l16 -8l10 1h9v-5h9l8 -6l10 3l8 -5v-5l12 1l4 -10l10 -1l8 -4v-6l10 -2l3 -10l17 5v-13l-1 -7l16 -1l-6 -14l10 -5l4 -8v-13l4 -9l2 -8l14 -5l-4 -11l-4 -3l17 -7l-15 -11l16 -7l-14 -11l14 -7l-8 -10l-5 -5l14 -10l-16 -8l1 -9l-3 -9l6 -9l-3 -9l-9 -11l4 -11l-9 -7
l12 -13l-14 -5l-8 -4l5 -15h-15l-2 -9l-5 -8h-7l1 -14l-14 2l-5 -8l-5 -8l-5 2l-1 -15l-14 7l-1 -17l-13 4l-4 3l-6 -7l-11 1l-6 -10h-9l5 -16l13 -2v-11l5 -17h18l-5 -13l5 -16l16 -1l-2 -12l5 -16l12 -3l1 -10l5 -17l18 1l-5 -14l5 -16l9 -5l4 -8l5 -17h16l-3 -13l5 -16
l12 -3l1 -10l5 -16l11 -4l3 -9l5 -17l16 -1l-3 -12l5 -16l5 -8l8 -5l-16 4l-9 -9l-9 5l-15 4l-9 -9l-9 5l-16 4l-9 -14l-9 10l-15 4l-9 -6l-9 2l-16 4l-9 -16l-9 12l-3 15l-14 3l1 11l-3 15l-14 3l1 11l-4 16l-17 1l5 13l-3 15l-14 3l1 11l-3 15l-15 2l2 12l-4 16l-19 -1
l6 14l-3 15l-13 4v10l-3 15l-11 5l-2 9l-4 16l-10 5l-2 9l-3 15l-18 1l5 13l-3 15l-8 6l-5 8l-3 5l-9 -2l-9 -3h-4l1 -9l-1 -9l8 -9l-4 -9l-4 -17l16 -9l-12 -9h-4l4 -9l-4 -9l16 -9l-12 -9h-4v-9v-9l1 -9l3 -9l-4 -17l3 -9l1 -9h-4l9 -9l-9 -9l5 -9l-1 -9h-4l4 -9l-4 -9
l2 -9l2 -9l-4 -17l6 -9l-2 -9h-4l12 -9l-12 -9l4 -9v-9v4l-9 -15l-9 15l-9 -12l-9 8v4l-9 -2l-9 2l-9 -6l-9 2v4l-9 -10l-9 10l-9 -6l-9 2v4l-9 -1l-9 1l-9 -17zM228 611h-4v-9v-9l3 -9l1 -9h-4l13 -9l-13 -9l3 -9l1 -9l-4 -17l9 -9l-5 -9h-4l10 -9l-10 -9v-9l4 -9h-4l14 -9
l-14 -9l9 -9l-5 -9l9 -4h9h9l9 16l9 -16l9 17l9 -13l13 -3l8 8l10 -6l8 5l9 1l2 -4l2 16l14 -7v19l14 -7l12 11l2 9l3 9l5 6l-1 9l4 9l-9 10l7 8l2 14l-6 8l2 9l-19 5l11 12l-3 8l-11 1l-2 11l-15 -3l-2 11l-6 6l-12 -15l-6 18l-10 -9l-8 11l-10 -7l-8 6l-9 5l-9 -14l-9 14
l-9 -15l-9 15l-9 -2z" />
    <glyph glyph-name="S" unicode="S" horiz-adv-x="594" 
d="M37 218l1 -4l9 2l9 -2l9 11l9 -7l2 -4l9 3l9 -3l9 8l9 -4l2 -4l9 16l9 -16l9 16l9 -12l1 -4l9 9l9 -9l9 4h9l-4 -2l18 -7l-16 -11l1 -9l1 -9l8 -8l-2 -9l-1 -7l16 -1l-8 -14l15 -2l-2 -12v-5l14 6l1 -16l15 8l3 -13l13 -6l11 15l7 -17l10 14l8 -12l16 -3l8 2h10l8 4l9 2
l7 -2l2 16l14 -8l6 7l8 5h5l-3 13l13 2l-4 14l10 4l6 14l1 9l2 9l-14 11l12 7l2 17l-10 7l3 10l4 3l-6 7l-4 8l-19 -2l5 14l-10 13l-18 -9l3 20l-12 -1l-5 8l-7 9h-10l-6 8l-14 -7l-2 15l-16 -11v20l-9 1l-9 3l-9 10l-9 2l-7 6l-12 -5l-4 13h-10l-8 4l1 4l-17 -10l2 20
l-11 -1l-4 10l-14 -5l-4 11l-5 9l-17 -7l3 19l-13 -3l-4 10l1 5l-12 1v13l-15 -2v12l4 2l-17 2l8 14l-5 8l-7 6v18l-15 5l6 11l4 3l-6 9l5 9l-7 9l1 9h4l-6 10l8 8l-12 10l10 8l4 -1l-14 14l20 3l-13 14l14 5l4 -1l-8 15h18l-4 13l9 5l5 -1l1 12l11 2l-5 16l13 1l5 -2l5 9
l10 2l4 9l7 6l8 -1l6 7l10 1l5 9l9 3l11 -2l4 17l13 -11l4 19l12 -10l13 -3l9 10l9 -9l9 8l9 -2l8 -5l9 1l9 -3l10 15l8 -12l6 -6l12 9l5 -14l10 2l9 -2l3 -6l13 6l4 -14l15 12l3 -15l2 -7l12 2l3 -12l14 5l3 -12v-6l18 4l-6 -17l18 4l-2 -14l-2 -6h15l-5 -15l11 -3l3 -9
l-3 -5l13 -4l-7 -13l14 -4l-4 -11l-4 -6l6 -8l-4 -10l10 -8l-3 -9l-1 4l-9 -17l-9 17l-9 -2l-9 -2v4l-9 -3l-9 3l-9 -6l-9 2l-1 4l-9 -6l-9 6l-9 -3l-9 -1l-1 4l-9 -4l-9 4l-9 -14l-9 10l4 5l-15 6l11 11l-7 8l-1 9l3 3l-7 6l-6 7l-14 -2l-2 11l-9 6l-12 -14l-5 18l-12 -13
l-7 12l-7 2l-4 -15l-13 9l-3 -17l-14 11l-7 -5l-8 -5l-9 -9l3 -11l-10 -6l3 -11l-6 -7l-3 -14l17 -7l-10 -10l4 -15h16l-2 -12l6 -9l10 -2l5 -9l13 4l4 -10l-2 -4l9 -3l7 -5l14 7l2 -16l14 9l2 -17l10 1l8 -5l10 -10l11 3l5 -11l13 5l3 -13l15 10l3 -14v-5l14 6l1 -16l12 3
l3 -12l17 9l1 -15l6 -10l11 -2l4 -9l15 6l2 -13v-6l12 -1v-12l12 -2l4 -8l6 -17h16l-2 -12l2 -15l4 -8l7 -7l-1 -15l11 -7l-3 -10l-4 -16l10 -9l-4 -9l-5 -5l14 -10l-15 -8l5 -9l-2 -9l-5 -3l13 -13l-18 -4l8 -12l-8 -7l-6 -2l6 -12l-13 -4l9 -14l-13 -4h-6l3 -13l-13 -2
l4 -14l-11 -3h-6l5 -18l-18 6v-14l-10 -2h-8l-5 -10l-11 1l-4 -10l-9 -3l-10 1l-3 -18l-14 11l-7 -7l-8 -4l-15 1l-8 -4h-9l-9 -4l-8 -4l-1 4l-9 -9l-9 8l-8 -17l-10 16l-9 -6h-9l-10 5l-10 -16l-8 17h-9l-9 -4l-6 6h-9l-8 3l-10 -2l-9 1l-2 5l-12 -6l-5 12l-11 -3l-8 4v5
l-10 -1l-6 8l-9 2l-9 2l2 4h-11l-3 11l-15 -5l-2 12l-8 16l-10 3l-6 7l3 3h-18l9 16l-16 1l3 12l3 4l-5 8l-1 9l-10 6l-1 9l3 6l-12 6l8 11l-8 8v9l4 10l-2 9l1 9l-19 8z" />
    <glyph glyph-name="T" unicode="T" horiz-adv-x="516" 
d="M186 0l4 16l-16 9l12 9l4 15l-9 9l5 9l4 16l-8 9l4 9l4 16l-3 9l-1 9l4 15v9l-4 9l4 16l-16 9l12 9l4 16l-4 9v9l4 15l-5 9l1 9l4 16l-9 9l5 9l4 16l-6 9l2 9l4 15l-9 9l5 9l4 16l-14 9l10 9l4 16l-4 9v9l4 15l-15 9l11 9l4 16l-12 9l8 9l4 16l-4 9v9l4 15l-5 9l1 9l4 16
l-6 9l2 9v4l-9 -6l-9 6l-9 -9l-9 5v4l-9 -1l-9 1l-9 -7l-9 3v4l-9 -11l-9 11l-9 -9l-9 5v4l-9 -4l-9 4l-9 -11l-9 7v4l-9 -6l-9 6l-9 -7l-9 3l4 6l-8 9l8 9l-12 9l8 9l4 6l-4 9l4 9l-15 9l11 9l4 6l-14 9l14 9v9l-4 9l16 -4l9 7l9 -3l15 -4l9 2l9 2l16 -4l9 17l9 -13l15 -4
l9 1l9 3l16 -4l9 9l9 -5l16 -4l9 7l9 -3l15 -4l9 16l9 -12l16 -4l9 15l9 -11l15 -4l9 6l9 -2l16 -4l9 9l9 -5l16 -4l9 16l9 -12l15 -4l9 5l9 -1l16 -4l9 9l9 -5l15 -4l9 11l9 -7l16 -4l9 6l9 -2l-4 -6l4 -9l-4 -9l3 -9l1 -9l-4 -6l1 -9l-1 -9l4 -9v-9l-4 -6l7 -9l-7 -9
l15 -9l-11 -9v4l-9 -3l-9 3l-9 -10l-9 6v4l-9 -16l-9 16l-9 -2l-9 -2v4l-9 -2l-9 2h-9l-9 -4v4l-9 -14l-9 14l-9 -16l-9 12v4l-9 -15l-9 15l-9 -13l-9 9l-4 -16l4 -9v-9l-4 -15l6 -9l-2 -9l-4 -16l4 -9v-9l-4 -16l17 -9l-13 -9l-4 -15l8 -9l-4 -9l-4 -16l4 -9v-9l-4 -16
l16 -9l-12 -9l-4 -15l3 -9l1 -9l-4 -16l14 -9l-10 -9l-4 -16l12 -9l-8 -9l-4 -15l7 -9l-3 -9l-4 -16l14 -9l-10 -9l-4 -16l3 -9l1 -9l-4 -15l14 -9l-10 -9l-4 -16v-9l4 -9l-4 -16l15 -9l-11 -9l-4 -15l2 -9l2 -9l-4 -16v-9l4 -9v4l-9 -13l-9 13l-9 -5l-9 1v4l-9 -12l-9 12
l-9 -4h-9v4l-9 -13l-9 13l-9 -9l-9 5v4l-9 -7l-9 7l-9 -9z" />
    <glyph glyph-name="U" unicode="U" horiz-adv-x="720" 
d="M80 732v-4l9 7l9 -7l9 11l9 -7v-4l9 12l9 -12l9 4h9v-4l9 11l9 -11l9 15l9 -11v-4l9 8l9 -8l9 7l9 -3l-4 -16l3 -9l1 -9l-4 -17v-9l4 -9l-4 -16l13 -9l-9 -9l-4 -17l15 -9l-11 -9l-4 -16l12 -9l-8 -9l-4 -17l17 -9l-13 -9l-4 -16l5 -9l-1 -9l-4 -16l5 -9l-1 -9l-4 -17
l6 -9l-2 -9l-4 -16v-9l4 -9l-4 -17l15 -9l-11 -9l-4 -16l3 -9l1 -9l-4 -17l1 -9l3 -9l-4 -16v-9l4 -9l-3 -13l13 -7l-11 -11l11 -7l-4 -10l-2 -7l11 -6l-4 -11l11 -5v-10v-6h13l-1 -14l15 2v-12l4 -7l8 -3l8 -5l10 -1l8 -3l13 -6l11 11l7 -14l11 14l7 -12l14 -3l8 5l10 -2
l7 14l10 -7l8 -1l5 9l11 -1l5 10l9 2h6l2 11l10 3l-6 18l15 -2l6 4l-9 13l16 4l-12 14l15 4l6 12l-9 10l11 8l-16 11l14 7l4 16l-1 9l-3 9l4 17l-8 9l4 9l4 16l-2 9l-2 9l4 17l-16 9l12 9l4 16l-9 9l5 9l4 17l-8 9l4 9l4 16l-3 9l-1 9l4 16v9l-4 9l4 17l-16 9l12 9l4 16
l-4 9v9l4 17l-5 9l1 9l4 16l-9 9l5 9l4 17l-6 9l2 9l4 16l-9 9l5 9v-4l9 14l9 -14l9 4h9v-4l9 15l9 -15l9 12l9 -8v-4l9 4l9 -4l9 5l9 -1v-4l9 6l9 -6l9 6l9 -2l-4 -16l9 -9l-5 -9l-4 -17l1 -9l3 -9l-4 -16l7 -9l-3 -9l-4 -17l11 -9l-7 -9l-4 -16l9 -9l-5 -9l-4 -17l4 -9v-9
l-4 -16l11 -9l-7 -9l-4 -16l6 -9l-2 -9l-4 -17l7 -9l-3 -9l-4 -16l8 -9l-4 -9l-4 -17l12 -9l-8 -9l-4 -16l4 -9v-9l-4 -17l15 -9l-11 -9l-4 -16l14 -9l-10 -9l-5 -4v-9l-1 -9l7 -9l-4 -9l-5 -2l1 -9l-4 -8l15 -12l-14 -7l-5 -1l-2 -9l-4 -8l5 -11l-7 -7l-5 1l3 -12l-11 -4
l11 -15l-15 -3l-5 1l8 -17l-18 2v-11l-7 -6l-4 2v-13h-13l6 -18l-15 2l-5 2l-4 -10l-10 -1l-2 -13l-10 -1l-4 3l-3 -15l-13 6l-5 -9l-9 -3l-7 2l-7 -7l-10 1l-7 -6l-8 -4l-8 3l-8 -3l-9 -1l-8 -6l-9 -2l-10 4l-9 -8l-9 7l-8 -16l-10 10l-10 5l-9 -3l-9 4l-9 -9l-9 6l-6 6
l-12 -14l-5 18l-10 -1h-9l-4 6l-9 1l-8 5l-8 3l-10 -1v5l-15 -9l-1 18l-16 -11l-2 15l1 5l-17 -7l2 18l-15 -6l-2 13l2 4l-9 3l-3 10l-11 2l-5 8l3 4l-9 5l-2 10l-19 -3l5 15l3 3l-11 4l3 12l-8 6l-4 8l3 4l-18 2l12 15l-6 7l-4 8l4 3l-16 7l13 11l-15 7l7 10l4 4l-8 9l7 9
l-15 8l9 10l4 16l-3 9l-1 9l4 17l-14 9l10 9l4 16v9l-4 9l4 17l-15 9l11 9l4 16l-2 9l-2 9l4 17v9l-4 9l4 16l-13 9l9 9l4 16l-5 9l1 9l4 17l-12 9l8 9l4 16l-4 9v9l4 17l-13 9l9 9l4 16l-9 9l5 9l4 17l-7 9l3 9l4 16l-9 9z" />
    <glyph glyph-name="V" unicode="V" horiz-adv-x="646" 
d="M323 -36l-2 16l-7 7l-4 8l-2 15l-14 4l3 11l-2 16l-14 4l3 11l-2 16l-18 2l7 13l-2 16l-16 3l5 12l-2 15l-3 8l-8 7l-2 16l-15 4l4 11l-2 16l-5 8l-6 7l-2 15l-8 6l-3 9l-2 16l-10 6l-1 9l-2 16l-11 5v10l-2 16l-18 2l7 13l-2 16l-10 5l-2 9l-2 16l-12 5l1 10l-2 16l-5 8
l-6 7l-2 16l-13 4l2 11l-2 15l-6 7l-5 8l-2 16l-19 2l8 13l-2 16l-19 2l8 13l-2 15l-18 2l7 13l-2 16l-5 8l-6 7l-2 16l-7 7l-4 8l-2 16l-14 4l3 11l-2 15l-15 3l4 12l-2 16l-18 2l7 13l2 -4l9 11l9 -11l9 1l9 3l3 -4l9 5l9 -5l9 10l9 -6l2 -4l9 17l9 -17h9l9 4l2 -4l9 15
l9 -15h9l9 4l1 -17l5 -8l6 -7l2 -17l4 -8l7 -7l1 -17l5 -7l6 -8l2 -18l4 -8l6 -7l2 -17l6 -7l5 -8l1 -17l8 -6l3 -9l1 -17l7 -7l4 -8l2 -17l12 -5l-1 -10l1 -17l18 -3l-7 -12l2 -17l14 -4l-3 -11l2 -18l14 -4l-4 -11l1 -17l13 -5l-2 -10l2 -17l5 -8l6 -7l1 -17l16 -3l-5 -12
l10 14l-5 11l7 7l10 14l-4 11l7 7l10 14l-6 11l8 7l10 15l-8 12l10 6l10 14l-3 11l6 7l10 14l-5 11l7 7l10 14l-3 10l5 8l10 14l-4 11l7 7l10 14l1 9l1 9l10 14l-5 12l8 6l10 15l1 9l1 9l10 14l-4 10l6 8l10 14l1 9l2 9l10 14l1 9l1 9l2 -4l9 11l9 -11l9 5l9 -1l2 -4l9 13
l9 -13l9 11l9 -7l3 -4l9 11l9 -11h9l9 4l2 -4l9 11l9 -11l9 8l9 -4l-10 -13l5 -12l-8 -6l-10 -12l1 -10l-4 -8l-10 -13l6 -12l-9 -6l-10 -13l-1 -9l-2 -9l-10 -13l-2 -8l-1 -10l-10 -12l4 -11l-7 -7l-10 -13l7 -12l-10 -6l-10 -13l3 -11l-6 -7l-10 -12l4 -11l-7 -7l-10 -13
l11 -14l-14 -4l-10 -13l9 -13l-12 -5l-10 -13l4 -11l-7 -7l-10 -12l9 -14l-13 -4l-10 -13l8 -13l-11 -5l-10 -13l7 -12l-10 -6l-10 -13l-2 -9l-1 -9l-10 -12l8 -13l-11 -5l-10 -13l7 -13l-10 -5l-10 -13l8 -13l-11 -5l-10 -12l9 -13l-12 -5l-10 -13l-1 -9l-2 -9l-10 -13
l10 -14l-13 -4l-10 -13l11 -14l-14 -4l-10 -12v-9l-3 -9l-10 -13l-2 -9z" />
    <glyph glyph-name="W" unicode="W" horiz-adv-x="970" 
d="M485 459l-11 -13l7 -12l-10 -6l-11 -13l-3 -8v-10l-11 -13l8 -13l-11 -5l-11 -13l6 -12l-9 -6l-11 -13l10 -14l-13 -4l-11 -13l-3 -8v-10l-11 -13l4 -11l-7 -7l-11 -13l-2 -9l-1 -9l-10 -12l-2 -9l-1 -9l-11 -13l7 -13l-10 -5l-11 -13l10 -14l-13 -4l-11 -13l1 -10l-4 -8
l-11 -13l11 -15l-14 -3l-11 -13l5 -12l-8 -6l-11 -13l10 -14l-13 -4l-11 -13l5 -12l-8 -6l-1 16l-14 5l4 11v16l-8 7l-2 9l-1 16l-13 5l3 11l-1 16l-13 5l3 11l-1 16l-12 6l2 10v16l-4 8l-6 8l-1 16l-10 6v10l-1 16l-12 6l2 10l-1 16l-18 4l8 12v16l-14 5l4 11l-1 16l-15 5
l5 11l-1 16l-17 4l7 12l-1 17l-18 4l8 12v16l-19 4l9 12l-1 16l-10 6v10l-1 16l-7 7l-3 9l-1 16l-11 6l1 10v16l-9 7l-1 9l-1 16l-10 6v10l-1 16l-7 7l-3 9l-1 16l-7 8l-3 8v16l-4 8l-6 8l-1 16l-4 9l-6 7l-1 16l-18 4l8 12v-5l9 6l9 -6l9 9l9 -4v-5l9 12l9 -12l9 11l9 -6
l1 -5l9 4l9 -4l9 13l9 -8v-5l9 6l9 -6l9 7l9 -2v-17l10 -6v-10l1 -16l8 -7l2 -9v-17l11 -6l-1 -10l1 -17l15 -5l-5 -11v-16l14 -5l-4 -11l1 -17l19 -4l-9 -12v-17l18 -4l-8 -12l1 -17l8 -7l2 -9v-16l7 -7l3 -9l1 -17l14 -5l-4 -11v-17l14 -5l-4 -11l1 -16l18 -4l-8 -12v-17
l16 -5l-6 -11l11 14l3 8v10l11 14l-7 13l11 5l11 15l2 9l1 9l11 14l-2 10l5 8l11 14l-3 11l6 7l11 14l-3 12l7 6l11 14l-11 14l14 4l11 15l-2 10l5 8l11 14l-4 12l8 6l11 14l2 9l1 9l11 14l-6 12l9 6l11 15l1 9l2 9l11 14l-11 15l15 3l11 14l-12 15l15 3l3 -17l18 -2l-7 -13
l3 -18l5 -7l7 -7l3 -18l7 -7l4 -8l3 -17l14 -4l-3 -11l3 -17l15 -3l-4 -12l3 -18l19 -1l-7 -13l3 -17l14 -4l-3 -11l3 -18l5 -8l6 -7l3 -18l9 -6l3 -8l3 -17l13 -4l-2 -11l3 -17l20 -1l-9 -14l3 -18l4 -8l7 -7l3 -18l18 -1l-6 -13l3 -17l4 -8l7 -7l9 14l1 10v9l9 14l3 8
l-1 10l9 14l1 10v9l10 15l1 8v10l9 13v10l1 9l10 15l-2 10l3 8l9 14v10l1 9l10 15l-6 11l7 7l9 13l-12 14l13 5l10 15l-9 12l10 6l9 14l-9 13l10 6l9 14l-6 11l8 7l9 14l1 10v9v-5l9 14l9 -14l9 9l9 -4l1 -5l9 9l9 -9l9 10l9 -5v-5l9 13l9 -13l9 8l9 -3v-5l9 9l9 -9l9 7
l9 -2l-9 -14l5 -11l-7 -7l-9 -13v-10l-1 -9l-9 -14l6 -11l-8 -7l-9 -14l-1 -9l-1 -9l-9 -14l3 -10l-5 -8l-9 -13v-10l-1 -9l-9 -14l-1 -9l-1 -9l-9 -14l7 -12l-9 -6l-9 -14l2 -10l-4 -8l-9 -13l10 -13l-11 -6l-9 -14l7 -12l-9 -6l-9 -14l7 -12l-9 -6l-10 -15l-2 -8l1 -10
l-9 -13l9 -13l-10 -6l-9 -14l4 -11l-6 -7l-9 -14l6 -11l-8 -7l-9 -14l1 -9l-3 -9l-9 -13l7 -12l-8 -7l-9 -14l-1 -9l-1 -9l-9 -14l-2 -8v-10l-9 -14l4 -11l-6 -7l-9 -13l8 -12l-9 -7l-9 -14l4 -10l-6 -8l-9 -14l4 -11l-6 -7l-2 16l-18 2l6 13l-2 16l-17 3l5 12l-2 16l-12 5
v10l-2 16l-18 3l6 12l-2 16l-15 4l3 11l-2 16l-15 4l3 11l-2 16l-6 8l-6 7l-2 16l-16 3l4 12l-2 15l-14 4l3 11l-2 16l-15 4l3 11l-2 16l-16 3l4 12l-2 16l-6 8l-6 7l-2 16l-18 2l6 13l-2 16l-19 2l7 13l-2 16l-8 7l-4 8l-2 16l-6 8z" />
    <glyph glyph-name="X" unicode="X" horiz-adv-x="616" 
d="M460 0l-4 16l-12 3l-1 10l-4 16l-19 -1l6 14l-4 16l-19 -1l6 14l-4 16l-16 1l3 12l-3 15l-17 2l4 12l-4 16l-8 6l-5 7l-4 16l-14 2l1 11l-4 16l-13 3v10l-4 16l-13 3v10l-12 -11l8 -15l-13 -3l-12 -11l5 -13l-10 -5l-12 -11l6 -14l-11 -4l-12 -11v-11l-5 -7l-11 -11
l7 -14l-12 -4l-12 -11l7 -15l-12 -3l-12 -11l4 -13l-9 -5l-12 -11l8 -15l-13 -3l-12 -11l-1 -10l-4 -8l-4 4l-9 -1l-9 1l-9 -13l-9 9l-4 4l-9 -3l-9 3l-9 -16l-9 12l-3 4l-9 -7l-9 7l-9 -1l-9 -3l-4 4h-9h-9l-9 -7l-9 3l12 11l-4 14l10 4l12 11l4 9l2 9l13 12l-3 12l8 6
l12 11l1 10l4 8l12 11l3 10l3 8l12 11l-10 17l16 1l13 12l-3 12l8 6l12 11l3 9l3 9l12 11l-9 17l15 1l12 11l-1 11l6 7l13 12l-3 12l8 6l12 11l-1 12l7 6l12 11l-4 14l10 4l-5 16l-14 2l1 11l-5 17l-7 6l-6 7l-5 16l-13 2v11l-5 16l-16 1l3 12l-5 17l-9 5l-4 8l-5 16l-14 2
l1 11l-4 16l-12 3l-1 10l-5 17l-15 1l2 12l-5 16l-10 4l-3 9l-5 16l-6 7l-7 6l-5 17l-7 6l-6 7l-5 16l-15 1l2 12l4 -4l9 12l9 -12l9 13l9 -9l4 -4l9 13l9 -13h9l9 4l3 -4l9 16l9 -16l9 8l9 -4l4 -4l9 15l9 -15l9 17l9 -13l4 -16l5 -7l8 -6l4 -17h18l-5 -13l4 -16l12 -3
l1 -10l3 -15l14 -3l-1 -11l4 -16l15 -1l-2 -12l4 -17l6 -7l7 -6l4 -16l5 -7l8 -6l4 -16l13 -3v-10l12 11l-5 14l10 4l12 12l1 10l4 8l12 11l-1 11l6 7l11 11l-3 12l8 6l12 11l-1 11l6 7l12 12l-7 14l12 4l12 11l3 9l2 9l12 11l-10 17l15 1l4 -4l9 17l9 -17l9 17l9 -13l3 -4
l9 14l9 -14l9 5l9 -1l4 -4l9 16l9 -16l9 11l9 -7l4 -4l9 15l9 -15l9 7l9 -3l-12 -11l7 -15l-13 -3l-13 -12l10 -16l-15 -2l-12 -11l1 -12l-7 -6l-12 -11l10 -17l-16 -1l-13 -12l1 -11l-6 -7l-12 -11l-4 -8l-2 -10l-12 -11l-3 -9l-2 -9l-13 -12l9 -16l-14 -2l-12 -11l6 -15
l-12 -3l-12 -11l-4 -9l-2 -9l-13 -12l3 -12l-8 -6l-12 -11l10 -17l-16 -1l5 -16l14 -2l-1 -11l5 -16h17l-4 -13l5 -17l13 -2v-11l4 -16l10 -4l3 -9l5 -16l7 -6l6 -7l5 -16l19 2l-6 -15l5 -17l7 -6l6 -7l5 -16l13 -2v-11l5 -16l8 -5l5 -8l4 -16l5 -7l8 -6l5 -17l16 -1l-3 -12
l5 -16l18 1l-5 -14l5 -16l10 -4l3 -9l-4 4l-9 -2l-9 2l-9 -13l-9 9l-3 4l-9 -17l-9 17l-9 -7l-9 3l-4 4l-9 -13l-9 13l-9 -16l-9 12l-4 4l-9 -2l-9 2l-9 -3z" />
    <glyph glyph-name="Y" unicode="Y" horiz-adv-x="586" 
d="M601 732l-12 -11l5 -13l-10 -5l-12 -10l-3 -9l-2 -9l-12 -11l3 -12l-8 -6l-11 -10l-1 -10l-4 -8l-12 -11l-2 -9l-3 -9l-12 -10l11 -17l-16 -1l-12 -11l3 -12l-8 -6l-12 -11l-2 -9l-3 -9l-12 -10l10 -17l-15 -1l-12 -11l1 -11l-6 -7l-11 -10l3 -12l-8 -6l-12 -11l2 -12
l-7 -6l-12 -10l5 -13l-10 -5l-12 -11l5 -14l-10 -4l-5 -15l4 -9l1 -9l-5 -15l11 -9l-6 -9l-5 -16l14 -9l-9 -9l-5 -15l5 -9v-9l-5 -15l12 -9l-7 -9l-5 -15l9 -9l-4 -9l-5 -15l13 -9l-8 -9l-5 -16l8 -9l-3 -9l-5 -15l2 -9l3 -9l-5 -15l3 -9l2 -9v4l-9 -12l-9 12l-9 -12l-9 8
v4l-9 -13l-9 13l-9 -13l-9 9v4h-9h-9l-9 -16l-9 12v4l-9 -8l-9 8l-9 -15l-9 11l5 15l-18 9l13 9l5 15l-1 9l-4 9l5 16l-16 9l11 9l5 15l-9 9l4 9l5 15l-11 9l6 9l5 15l-13 9l8 9l5 15l-2 9l-3 9l5 16l-1 9l-4 9l5 15l-10 9l5 9l5 15l-12 9l7 9l-4 16l-8 5l-5 8l-4 15l-9 5
l-4 8l-4 16l-12 3l-1 10l-3 15l-10 4l-3 9l-4 16l-16 1l3 12l-4 15l-6 7l-7 6l-4 16l-19 -1l6 14l-4 16l-19 -1l6 14l-4 15l-20 -2l7 15l-4 16h-17l4 13l-3 15l-9 5l-4 8l-4 16l-18 -1l5 14l-4 15l-14 2l1 11l-4 16h-18l5 13l3 -4l9 7l9 -7l9 14l9 -10l4 -4l9 16l9 -16l9 7
l9 -3l3 -4l9 17l9 -17l9 5l9 -1l3 -4h9h9l9 2l9 2l4 -17h18l-5 -13l4 -17l16 -2l-3 -12l4 -16l5 -8l7 -6l4 -17l12 -3l1 -10l4 -17h20l-7 -14l4 -17l15 -2l-2 -11l4 -16l17 -1l-5 -13l4 -17l14 -3l-1 -11l4 -17l10 -4l3 -9l12 12l2 9l3 9l12 13l-11 16l16 2l11 12l2 9l3 9
l12 12l-5 13l10 5l12 13l1 10l4 8l12 12l4 8l1 10l11 12l-7 14l12 4l12 13l-9 15l14 3l12 12l-1 11l6 7l3 -4l9 2l9 -2l9 13l9 -9l3 -4l9 17l9 -17l9 7l9 -3l4 -4l9 13l9 -13l9 16l9 -12l3 -4l9 2l9 -2l9 3z" />
    <glyph glyph-name="Z" unicode="Z" horiz-adv-x="602" 
d="M57 732l15 -4l9 1l9 3l16 -4l9 8l9 -4l15 -4l9 7l9 -3l15 -4l9 6l9 -2l16 -4l9 14l9 -10l15 -4l9 7l9 -3l15 -4l9 16l9 -12l16 -4h9l9 4l15 -4l9 16l9 -12l15 -4l9 13l9 -9l15 -4l9 8l9 -4l16 -4l9 5l9 -1l15 -4l9 9l9 -5l15 -4l9 5l9 -1l16 -4l9 8l9 -4l15 -4l9 6l9 -2
l-12 -11l8 -15l-13 -3l-12 -11l6 -14l-11 -4l-12 -11l11 -17l-16 -1l-12 -10l1 -11l-6 -7l-12 -11l4 -13l-9 -5l-12 -11l-3 -9l-2 -9l-12 -11l5 -14l-10 -4l-12 -11l4 -13l-9 -5l-12 -11l10 -16l-15 -2l-12 -11l1 -11l-6 -7l-11 -10l7 -15l-12 -3l-12 -11l8 -15l-13 -3
l-12 -11l10 -16l-15 -2l-12 -11l9 -16l-14 -2l-12 -11l9 -16l-14 -2l-12 -11l-2 -9l-3 -9l-12 -11l3 -12l-8 -6l-12 -10l-2 -9l-3 -9l-12 -11l8 -15l-13 -3l-12 -11l-3 -9l-2 -9l-12 -11l-2 -9l-3 -9l15 -4l9 6l9 -2l15 -4l9 11l9 -7l15 -4l9 3l9 1l15 -4l9 10l9 -6l15 -4
l9 5l9 -1l15 -4l9 6l9 -2l15 -4l9 3l9 1l15 -4l9 7l9 -3l15 -4l9 13l9 -9l15 -4l9 12l9 -8l-4 -6l2 -9l-2 -9v-9l4 -9l-4 -6l13 -9l-13 -9l17 -9l-13 -9l-4 -6l12 -9l-12 -9l17 -9l-13 -9l-15 4h-9l-9 -4l-15 4l-9 -5l-9 1l-16 4l-9 -14l-9 10l-15 4l-9 -3l-9 -1l-15 4
l-9 -6l-9 2l-15 4l-9 -8l-9 4l-15 4l-9 -15l-9 11l-15 4l-9 -11l-9 7l-16 4l-9 -6l-9 2l-15 4l-9 -13l-9 9l-15 4l-9 -2l-9 -2l-15 4l-9 -2l-9 -2l-15 4l-9 -2l-9 -2l-15 4l-9 -7l-9 3l-16 4l-9 -11l-9 7l-15 4l-9 -7l-9 3l-15 4l-9 -3l-9 -1l12 11l-8 15l13 3l12 11l-2 12
l7 6l12 11l-6 14l11 4l12 10v10l5 8l12 11l3 9l2 9l11 11l2 9l3 9l12 11l-8 15l13 3l12 11l4 8l1 10l12 11l1 10l4 8l12 11l-11 17l16 1l12 10l3 9l2 9l12 11l-9 16l14 2l12 11l3 9l2 9l12 11l3 9l2 9l12 11l-6 14l11 4l11 11l-3 12l8 6l12 11l-1 11l6 7l12 10l4 8l1 10
l12 11l-10 16l15 2l12 11l-9 16l14 2l12 11l-2 12l7 6l-15 4l-9 -2l-9 -2l-15 4l-9 -15l-9 11l-15 4l-9 -4h-9l-15 4l-9 -12l-9 8l-16 4l-9 -9l-9 5l-15 4l-9 -15l-9 11l-15 4l-9 -1l-9 -3l-15 4l-9 -1l-9 -3l-15 4l-9 -2l-9 -2l5 6l-1 9l1 9l-5 9v9l5 6l-16 9l16 9l-6 9
l1 9l5 6l-17 9l17 9l-15 9z" />
    <glyph glyph-name="bracketleft" unicode="[" horiz-adv-x="375" 
d="M339 732l-15 4l-9 -5l-9 1l-16 4l-9 -9l-9 5l-15 4l-9 -5l-9 1l-15 4l-9 -8l-9 4l-4 -15l6 -9l-2 -9l-4 -15l14 -9l-10 -9l-4 -15l11 -9l-7 -9l-4 -15l17 -9l-13 -9l-4 -16l5 -9l-1 -9l-4 -15l9 -9l-5 -9l-4 -15l2 -9l2 -9l-4 -15l11 -9l-7 -9l-4 -15l9 -9l-5 -9l-4 -15
l16 -9l-12 -9l-4 -15l6 -9l-2 -9l-4 -15l13 -9l-9 -9l-4 -15l13 -9l-9 -9l-4 -16l16 -9l-12 -9l-4 -15l15 -9l-11 -9l-4 -15l15 -9l-11 -9l-4 -15l2 -9l2 -9l-4 -15l8 -9l-4 -9l-4 -15l2 -9l2 -9l-4 -15l14 -9l-10 -9l-4 -15l1 -9l3 -9l-4 -16l2 -9l2 -9l-4 -15l6 -9l-2 -9
l-4 -15l11 -9l-7 -9l-4 -15l3 -9l1 -9l-4 -15l10 -9l-6 -9l15 -5l9 6l9 -1l15 -5l9 7l9 -2l16 -5l9 4l9 1l15 -5l9 8l9 -3l-5 -4l14 -9l-14 -9l13 -9l-8 -9l-5 -4l3 -9l-3 -9l1 -9l4 -9l-5 -4l14 -9l-14 -9l18 -9l-13 -9l-16 5l-9 -13l-9 8l-15 5l-9 -18l-9 13l-16 5l-9 -1
l-9 -4l-16 5l-9 -6l-9 1l-16 5l-9 -15l-9 10l-16 5l-9 -4l-9 -1l-15 5l-9 -7l-9 2l-16 5l-9 -9l-9 4l5 15l-16 9l11 9l5 16l-12 9l7 9l5 15l-7 9l2 9l5 15l-14 9l9 9l5 16l-3 9l-2 9l5 15l-3 9l-2 9l5 16l-3 9l-2 9l5 15l-8 9l3 9l5 15l-12 9l7 9l5 16l-8 9l3 9l5 15l-4 9
l-1 9l5 15l-15 9l10 9l5 16l-8 9l3 9l5 15l-12 9l7 9l5 15l-5 9v9l5 16l-2 9l-3 9l5 15l-3 9l-2 9l5 16l-15 9l10 9l5 15l-1 9l-4 9l5 15l-5 9v9l5 16l-18 9l13 9l5 15l-2 9l-3 9l5 15l-16 9l11 9l5 16l-2 9l-3 9l5 15l-2 9l-3 9l5 15l-12 9l7 9l5 16l-9 9l4 9l5 15l-6 9
l1 9l5 16l-1 9l-4 9l5 15l-17 9l12 9l5 15l-16 9l11 9l5 16l-8 9l3 9l5 15l-3 9l-2 9l16 -4l9 15l9 -11l15 -4l9 4h9l16 -4l9 12l9 -8l16 -4l9 9l9 -5l16 -4l9 15l9 -11l16 -4l9 1l9 3l15 -4l9 1l9 3l16 -4l9 2l9 2l-5 -4l1 -9l-1 -9l5 -9v-9l-5 -4l16 -9l-16 -9l6 -9l-1 -9
l-5 -4l17 -9l-17 -9l15 -9z" />
    <glyph glyph-name="backslash" unicode="\" horiz-adv-x="422" 
d="M458 -93l-17 5l-9 -2l-9 -3l-17 5l-9 -2l-9 -3v5l-9 -8l-9 8l-9 -10l-9 5l-17 5l-9 -3l-9 -2l-2 16l-18 2l7 13l-2 17l-18 2l7 13l-2 16l-14 4l3 11l-2 16l-12 5l1 10l-2 17l-19 2l8 13l-2 16l-4 8l-7 7l-3 17l-17 2l6 13l-2 16l-16 3l5 12l-2 16l-6 7l-5 8l-2 17l-7 7
l-4 8l-2 16l-18 2l7 13l-2 16l-19 2l8 13l-2 17l-15 3l4 12l-2 16l-14 4l3 11l-2 17l-6 7l-5 8l-2 16l-17 3l6 12l-2 16l-17 3l6 12l-2 17l-14 4l3 11l-2 16l-15 3l4 12l-2 16l-18 2l7 13l-3 17l-9 6l-2 9l-2 16l-7 7l-4 8l-2 17l-19 2l8 13l-2 16l-4 8l-7 7l-2 16l-6 7
l-5 8l-2 17l-19 2l8 13l-2 16l-10 6l-1 9l17 -4l9 12l9 -8l17 -4l9 14l9 -10v-4l9 2l9 -2l9 13l9 -9l17 -4l9 4h9l2 -16l11 -5v-10l2 -17l12 -5l-1 -10l2 -16l5 -8l6 -7l2 -16l18 -2l-7 -13l2 -17l20 -2l-9 -13l2 -16l11 -5v-10l3 -17l4 -8l7 -7l2 -16l15 -3l-4 -12l2 -16
l19 -2l-8 -13l2 -17l18 -3l-7 -12l2 -16l13 -4l-2 -11l2 -16l12 -5l-1 -10l2 -17l12 -5l-1 -10l2 -16l19 -2l-8 -13l2 -17l15 -4l-4 -11l2 -16l4 -8l7 -7l2 -16l14 -4l-3 -11l2 -17l13 -4l-2 -11l2 -16l16 -3l-5 -12l2 -16l13 -4l-2 -11l3 -17l6 -7l5 -8l2 -16l8 -7l3 -8
l2 -17l12 -5l-1 -10l2 -16l17 -3l-6 -12l2 -16l9 -6l2 -9l2 -17l18 -2l-7 -13l2 -16l18 -2z" />
    <glyph glyph-name="bracketright" unicode="]" horiz-adv-x="375" 
d="M36 732l4 4l-16 9l16 9l-12 9l8 9l4 4l-13 9l13 9l-15 9l11 9l4 4l-15 9l15 9l-11 9l7 9l16 -4l9 12l9 -8l16 -4l9 13l9 -9l15 -4l9 7l9 -3l16 -4l9 7l9 -3l16 -4l9 12l9 -8l15 -4l9 11l9 -7l16 -4l9 14l9 -10l16 -4l9 8l9 -4l-4 -15l3 -9l1 -9l-4 -16l1 -9l3 -9l-4 -15
l10 -9l-6 -9l-4 -15l5 -9l-1 -9l-4 -16l9 -9l-5 -9l-4 -15l1 -9l3 -9l-4 -16l15 -9l-11 -9l-4 -15l2 -9l2 -9l-4 -15l3 -9l1 -9l-4 -16l14 -9l-10 -9l-4 -15l15 -9l-11 -9l-4 -15l16 -9l-12 -9l-4 -16l2 -9l2 -9l-4 -15l12 -9l-8 -9l-4 -15l1 -9l3 -9l-4 -16l12 -9l-8 -9
l-4 -15v-9l4 -9l-4 -16l1 -9l3 -9l-4 -15l1 -9l3 -9l-4 -15l7 -9l-3 -9l-4 -16l9 -9l-5 -9l-4 -15l2 -9l2 -9l-4 -15l15 -9l-11 -9l-4 -16l16 -9l-12 -9l-4 -15l11 -9l-7 -9l-4 -15l9 -9l-5 -9l-4 -16l16 -9l-12 -9l-4 -15l1 -9l3 -9l-4 -16l15 -9l-11 -9l-4 -15l13 -9
l-9 -9l-4 -15l3 -9l1 -9l-4 -16l3 -9l1 -9l-4 -15l15 -9l-11 -9l-16 5l-9 -18l-9 13l-16 5l-9 -13l-9 8l-15 5l-9 -12l-9 7l-16 5l-9 -4l-9 -1l-16 5l-9 -15l-9 10l-15 5l-9 -15l-9 10l-16 5l-9 -12l-9 7l-16 5l-9 -14l-9 9l4 4l-16 9l16 9l-5 9l1 9l4 4l-3 9l3 9l-17 9
l13 9l4 4v9v9l-2 9l-2 9l15 -5l9 17l9 -12l15 -5l9 8l9 -3l16 -5l9 13l9 -8l15 -5l9 15l9 -10l5 15l-3 9l-2 9l5 15l-14 9l9 9l5 15l-5 9v9l5 15l-9 9l4 9l5 16l-9 9l4 9l5 15l-2 9l-3 9l5 15l-17 9l12 9l5 15l-18 9l13 9l5 15l-9 9l4 9l5 15l-1 9l-4 9l5 15l-13 9l8 9l5 15
l-17 9l12 9l5 16l-16 9l11 9l5 15l-11 9l6 9l5 15l-10 9l5 9l5 15l-10 9l5 9l5 15l-17 9l12 9l5 15l-13 9l8 9l5 15l-1 9l-4 9l5 15l-12 9l7 9l5 15l-11 9l6 9l5 16l-14 9l9 9l5 15l-11 9l6 9l5 15l-4 9l-1 9l5 15l-5 9v9l5 15l-10 9l5 9l-15 4l-9 -14l-9 10l-16 4l-9 -6
l-9 2l-15 4l-9 -15l-9 11l-15 4l-9 -15z" />
    <glyph glyph-name="asciicircum" unicode="^" horiz-adv-x="500" 
d="M249 628l-4 2l2 -13l-13 -2l8 -17h-15l-4 2l-5 -8l-6 -7l7 -16l-14 -1l-4 2l5 -15h-16l-3 -9l-4 -8l-4 2l-3 -10l-8 -5l8 -17h-15l-1 4l-9 -17l-9 17l-9 -12l-9 8v4l-9 -11l-9 11l-9 -3l-9 -1v4l-9 -14l-9 14l-9 -14l-9 10l-1 4l-9 -11l-9 11l-9 -13l-9 9l13 10l-8 17h15
l13 11l1 10l6 7l12 10l3 9l4 8l13 10l-9 17h16l13 11l5 8l2 9l13 10l3 9l4 8l12 10l-8 16l15 1l13 11l-1 11l8 6l13 10l-5 15l12 2l2 -4l9 14l9 -14l9 2l9 2l2 -4l9 13l9 -13l9 4h9l2 -4l9 8l9 -8l9 8l9 -4l6 -15l6 -7l8 -5l5 -16l19 2l-5 -14l6 -15l19 3l-5 -15l6 -15
l12 -2l2 -10l5 -16l6 -7l8 -5l6 -15h15l-1 -12l6 -15l19 3l-5 -15l5 -16l18 2l-4 -14l6 -15l13 -1l1 -11v4l-9 -9l-9 9l-9 -9l-9 5l-1 4l-9 -16l-9 16l-9 -12l-9 8l-1 4h-9h-9l-9 -11l-9 7v4l-9 -10l-9 10l-9 -13l-9 9l3 4h-14l3 14l-8 5l-6 7l3 4l-9 4l-2 10l-13 2l-1 10
l2 4l-17 -2l7 16l-11 4l-4 8l3 4l-18 -2l7 16l-18 -2z" />
    <glyph glyph-name="underscore" unicode="_" horiz-adv-x="500" 
d="M-6 -138l16 -4l9 15l9 -11l16 -4l9 16l9 -12l16 -4l9 5l9 -1l17 -4l9 3l9 1l16 -4l9 5l9 -1l16 -4l9 4h9l16 -4l9 4h9l16 -4l9 13l9 -9l16 -4l9 2l9 2l16 -4l9 15l9 -11l16 -4l9 16l9 -12l17 -4l9 10l9 -6l16 -4l9 17l9 -13l16 -4l9 8l9 -4l16 -4l9 7l9 -3h-4l6 -9l-6 -9
l12 -9l-8 -9h-4l4 -9l-4 -9l16 -9l-12 -9h-4l10 -9l-10 -9l2 -9l2 -9l-16 4l-9 -14l-9 10l-16 4l-9 -3l-9 -1l-16 4l-9 -6l-9 2l-17 4l-9 -8l-9 4l-16 4l-9 -5l-9 1l-16 4l-9 -17l-9 13l-16 4l-9 -9l-9 5l-16 4l-9 -3l-9 -1l-16 4l-9 -13l-9 9l-16 4l-9 -12l-9 8l-16 4
l-9 -7l-9 3l-17 4l-9 -10l-9 6l-16 4l-9 -8l-9 4l-16 4l-9 -9l-9 5l-16 4l-9 -10l-9 6h4l-5 9l5 9l-7 9l3 9h4l-16 9l16 9l-12 9l8 9h4l-11 9l11 9l-8 9z" />
    <glyph glyph-name="grave" unicode="`" horiz-adv-x="250" 
d="M-30 754l1 -4l9 15l9 -15l9 16l9 -12l2 -4l9 10l9 -10l9 17l9 -13l1 -4l9 8l9 -8l9 7l9 -3l2 -4l9 6l9 -6l9 12l9 -8l1 -4l9 4l9 -4l9 16l9 -12l-2 -5l14 -3l-5 -13l7 -6l6 -7l-2 -5h17l-8 -16l8 -6l5 -7l-2 -6l11 -4l-1 -11l11 -3l2 -10l-2 -5l9 -5v-11l19 1l-6 -14
l-2 -5l12 -3l-3 -13l8 -6l5 -7l-8 4l-9 -13l-9 13l-9 -12l-9 8l-7 4l-9 -7l-9 7l-9 -10l-9 6l-8 4l-9 -8l-9 8l-9 -9l-9 5l-7 14h-13l-2 10l-8 15l-9 3l-6 7l-7 14l-11 1l-4 9l-7 14l-19 -5l3 15l-7 14l-15 -2v12l-8 15l-14 -2l-1 12l-7 14l-12 1z" />
    <glyph glyph-name="a" unicode="a" horiz-adv-x="675" 
d="M594 0l-16 4l-9 -4h-9l-16 4l-9 -9l-9 5l-16 4l-9 -13l-9 9l-16 4l-9 -15l-9 11l4 4l-14 9l14 9l-3 9l-1 9l4 3l-8 9l8 9l-3 9l-1 9l-5 1l1 -11l-11 -4l10 -17l-20 2l5 -13l-11 -4l-13 -5l2 -16l-16 5l2 -16l-13 1h-14l-6 -11l-11 4l-3 -17l-12 7l-1 4l-9 -1h-9l-7 -18
l-10 16l-9 -9l-9 3l-11 5l-9 -6l-9 8l-9 -1l-9 -2l-7 6l-9 -1l-8 5h-10h-9l-2 6l-13 -6l-4 14l-13 -7l-5 10v6l-15 -6v16l-12 -2l-5 9l1 5l-16 -3l4 16l-11 2l-5 8l2 6l-10 4v11l-8 5l-6 7l2 6l-19 1l12 16l-10 5l-2 9l3 7l-14 5l8 12l-5 8l-4 8l3 8l-10 8l7 10l-6 8l-2 9
l4 10l-17 8l16 10l-17 8l12 10l5 10l-15 10l16 8l-11 9l8 9l6 8l-1 9l5 8l-3 10l2 9l7 5l-11 13l17 4v9l2 9l7 3l-9 15l17 1l-9 15l14 3l7 2l-7 16l18 -2l-8 17h15l6 -1l2 11l10 2l4 9l6 7l6 -2l4 10h11l4 9l8 5l5 -3l6 8h10l2 16l12 -4l5 -3l8 4h10l4 18l12 -9l5 -4l7 17
l11 -15l7 11l10 -5l2 -5l11 17l7 -19l10 8l8 -10l9 7l9 -4l11 -9l10 3l7 -9l12 8l6 -10l6 -10l9 -2l5 -9l17 8v-15l4 -12l14 -1l-3 -13l7 -6l7 -6h1l4 17l-14 9l10 9l4 16l-3 9l-1 9l16 -4l9 6l9 -2l16 -4l9 8l9 -4l16 -4l9 5l9 -1l16 -4l9 17l9 -13l-4 -17l9 -9l-5 -9
l-4 -17l3 -9l1 -9l-4 -16l13 -9l-9 -9l-4 -17l12 -9l-8 -9l-4 -17l7 -9l-3 -9l-4 -17l10 -9l-6 -9l-4 -17l8 -9l-4 -9l-4 -16l9 -9l-5 -9l-4 -17l10 -9l-6 -9l-4 -17l5 -9l-1 -9l-4 -17l7 -9l-3 -9l-4 -17l16 -9l-12 -9l-4 -16l12 -9l-8 -9l-4 -17l11 -9l-7 -9l-4 -17l8 -9z
M190 261l-3 -18l10 -8l-7 -10l4 -8l2 -9v-11l4 -8l2 -9l16 -3l-5 -12v-7l11 -3l1 -11l17 3l-2 -14l2 -6l12 2l4 -11h10l8 -5l7 -6l9 2l9 -5l10 10l8 -8l7 -4l7 14l11 -12l7 14l10 -8l2 -4l5 14l12 -8l4 18l12 -8l16 7l2 12l9 3l4 -1l1 10l9 5l4 8l1 10l7 8l-9 12l14 5l-5 11
l5 8l5 2l-12 10l13 8l-5 9l6 9l-6 9l3 9l3 11l-1 9l-1 9l-11 7l5 10l2 7l-16 4l9 13l-19 2l8 13l1 6l-10 4l-2 10h-14l-1 11l-3 7l-11 -1l-5 9l-10 2l-8 3l-11 6l-10 -9l-8 12l-9 -5l-9 3l-10 3l-8 -7l-10 4l-8 -5l-9 -2l-7 1l-4 -12l-12 4l-7 -6l-7 -7l-9 -3l-3 -10l-9 -4
l4 -16h-13l-9 -9l13 -15l-19 -2l2 -10l-5 -8h-5l14 -11l-16 -7l14 -11l-16 -7l4 -9z" />
    <glyph glyph-name="b" unicode="b" horiz-adv-x="675" 
d="M81 0l5 15l-9 9l4 9l5 15l-18 9l13 9l5 15l-6 9l1 9l5 15l-6 9l1 9l5 15l-10 9l5 9l5 15l-13 9l8 9l5 15l-9 9l4 9l5 15l-16 9l11 9l5 15l-13 9l8 9l5 15l-15 9l10 9l5 15l-12 9l7 9l5 15l-6 9l1 9l5 15l-8 9l3 9l5 15l-17 9l12 9l5 15l-18 9l13 9l5 15l-7 9l2 9l5 15
l-13 9l8 9l5 15l-7 9l2 9l5 15l-12 9l7 9l5 15l-7 9l2 9l5 15l-2 9l-3 9l5 15l-12 9l7 9l5 15l-12 9l7 9l5 15l-8 9l3 9l5 15l-15 9l10 9l17 -5l9 8l9 -3l16 -5l9 2l9 3l16 -5l9 1l9 4l17 -5l9 14l9 -9l-5 -16l14 -9l-9 -9l-5 -15l1 -9l4 -9l-5 -16l9 -9l-4 -9l-5 -16l18 -9
l-13 -9l-5 -15l3 -9l2 -9l-5 -16l10 -9l-5 -9l-5 -16l2 -9l3 -9l-5 -15l18 -9l-13 -9l-5 -16l5 -9v-9l-5 -15l3 -9l-4 -9l15 -10l-16 -8l4 -9v-9h1l11 7l-9 17l20 -3l-5 15l12 2l11 3l3 11h11l3 11l9 3h14l6 10l11 -3l3 16l12 -6l3 -4l8 4l10 -2l7 15l11 -13l7 17l10 -11
l4 -5l10 14l8 -16l9 4l9 -1l3 -5l10 1l7 -6l11 5l8 -5l1 -5l12 5l4 -13l8 -4h10l1 -6l11 1l4 -11h10l7 -6v-6l17 5l-4 -18l8 -4l8 -5l-1 -7h15l-4 -14l7 -6l7 -6l-1 -8h18l-9 -16l20 1l-7 -14l-2 -8l18 -3l-12 -13l11 -6l-1 -10l-2 -10l7 -7l-3 -10l10 -7l-2 -10l-4 -10
l15 -8l-14 -10l16 -8l-10 -10l-5 -10l1 -9l-2 -9v-9l4 -9l-6 -7l7 -10l-10 -7l6 -11l-5 -8l-6 -4l5 -11l-10 -6l-2 -9l1 -10l-6 -2l4 -12l-12 -5l1 -10l-4 -8l-6 -1v-10l-10 -5l-3 -8l-3 -9l-6 1v-12l-12 -1l3 -17l-13 1l-5 2l-7 -7l-8 -4l-3 -11l-9 -3l-6 2l-3 -16l-14 9
l-4 -13l-10 1l-8 3l-5 -19l-13 15l-7 -10l-9 1l-12 3l-9 -11l-9 10l-9 -7l-9 1v5l-9 -6l-9 7l-9 1l-9 1l-9 -1l-9 -2l-11 9l-14 -12l-3 18l-10 -2l-8 4l-7 12l-9 3l-5 8l-8 5l-9 3l3 4l-14 1l4 14l-10 4v11l-7 6l-7 6l-4 -3v-9v-9l11 -9l-7 -9l-4 -4l9 -9l-9 -9l11 -9l-7 -9
l-16 4l-9 -15l-9 11l-16 4l-9 -13l-9 9l-15 4l-9 -10l-9 6l-16 4l-9 -9zM485 261l4 1l-3 9l1 9l-9 8l7 10l-15 7l8 10v12l-6 8l-1 9l-18 2l7 13l-2 9l-10 4l-3 10h-12l-3 10l-3 7l-12 -3l-4 11l-11 -1l-7 6l-9 6l-11 -16l-7 19l-9 -6l-9 4l-12 3l-8 -10l-10 7l-7 -16l-10 9
l-7 1l-3 -14l-13 6l-1 -18l-13 5l-7 -1l7 -18l-19 5l3 -14l-11 -3l-6 -4l4 -11l-11 -6v-9l-3 -9l-6 -10l15 -10l-17 -8l2 -9l1 -9l-4 -2l8 -9l-7 -9l8 -9l-7 -9l5 -9l1 -9l-2 -10l6 -8l-1 -10l13 -5l-4 -11l-3 -4l20 2l-10 -17l5 -7l8 -6l11 -14l18 8l-1 -16l-1 -5l14 13
l4 -18l11 5l7 -7l6 -5l9 4l9 -6l9 1l9 2l8 -3l9 2l9 1l8 5l9 2l6 -2l5 10l11 -1l1 16l12 -3l7 2l1 10l11 3l5 8l3 9l8 8l-3 11l10 6l-8 12l10 6l6 17l-11 10l13 8v9z" />
    <glyph glyph-name="c" unicode="c" horiz-adv-x="528" 
d="M42 260l5 7l-1 9l2 9l-7 9l4 9l5 4l-15 13l19 4l-3 10l3 9l6 3l-1 10l8 7l-6 12l8 6l6 2l-6 13l15 2l-3 12l8 6h6l-7 16l18 -2l-5 15l12 2h6l-4 17l17 -5l-2 15l12 1l6 -1l4 9l11 1l3 12l9 2l7 -1l1 18l15 -10v19l14 -7l6 -3l7 10l10 -4l5 15l11 -5l9 -3l7 8l10 -4l7 13
l10 -5l9 -4l9 7l9 -6l9 2l9 4l14 -6l10 11l8 -12l10 11l8 -8l14 -8l10 6l7 -10l12 12l7 -11l15 -10l11 4l6 -10l8 -2h10h-5l1 -9l-1 -9l14 -9l-9 -9h-5l14 -9l-14 -9l1 -9l4 -9h-5l9 -9l-9 -9l18 -9l-13 -9h-5l3 -9l-3 -9l10 -9l-5 -9l-14 12l-8 3l-8 5l-16 -11l-2 15
l-14 10l-10 -1l-7 7h-9l-9 2l-7 5l-11 -14l-7 17l-9 -3l-9 1l-13 3l-7 -18l-11 16l-7 -14l-10 8l-7 2l-7 -9l-10 4l-6 -10h-10l-4 3l-3 -12l-12 1l1 -16l-13 2l-4 2l-3 -10l-8 -5l6 -15l-13 -2l-6 -3l13 -14l-19 -3l11 -13l-13 -5l-5 -9l4 -9l-6 -9l3 -9v-9l-4 -11l9 -8
l-7 -9l11 -9l-5 -9l-3 -5l4 -9l2 -8l10 -7v-9l-3 -3l10 -4l1 -10l18 2l-4 -14l-2 -4l9 -3l6 -7l15 5l3 -11l4 -6l9 -1l8 -4l13 12l6 -13l13 -6l10 17l8 -18l10 15l8 -12l8 -4l8 11l10 -9l8 7h9l16 1l6 11l11 -5l4 17l12 -7l4 -3v18l16 -8l6 6l9 3l8 5l5 8l-5 -1l9 -9l-9 -9
l8 -9l-3 -9l-5 -1l8 -9l-8 -9l1 -9l4 -9h-5l10 -9l-10 -9l5 -9v-9l-5 -1l6 -9l-6 -9l3 -9l2 -9l-18 -2l-5 -10l-12 4l-3 -16l-12 6l-16 1l-8 -3l-9 -1l-8 -9l-9 1l-14 3l-8 -14l-10 13l-9 -10l-9 4l-9 5l-10 -17l-8 18l-9 -6l-9 3l-6 6l-10 -10l-8 12l-9 -4l-9 3l-3 6
l-11 -4l-7 10l-8 2l-10 -1l-3 6l-8 3l-8 5l-15 -10l-3 14l-1 6h-10l-5 10l-9 2l-8 4l1 5l-8 6l-6 6l-13 -1l-3 10l2 5l-11 4l-1 10l-7 6l-8 5l2 6l-5 7l-4 9l-14 2l1 11l2 6l-12 5l6 12l-15 4l4 11l3 7l-17 5l13 12l-15 6l7 11l4 9l-11 9l10 9l-11 9z" />
    <glyph glyph-name="d" unicode="d" horiz-adv-x="675" 
d="M594 0l-16 4h-9l-9 -4l-16 4l-9 -6l-9 2l-15 4l-9 -14l-9 10l-16 4l-9 -1l-9 -3l5 4l-13 9l13 9l-6 9l1 9l5 3l-11 9l11 9l-14 9l9 9l-5 1l7 -15h-17l4 -13l-14 -2l3 -12l-9 -5l-13 -5l-3 -10l-11 -1l1 -16l-12 1h-14l-7 -8l-10 1l-8 -4l-7 -6l-1 4l-8 -11l-10 10l-8 -4
l-9 2l-9 -6h-9l-12 5l-10 -14l-8 16l-10 -16l-8 13l-6 6l-11 -8l-6 12l-12 -11l-7 11l-2 6l-9 4l-8 4l-12 -6l-6 9v6l-17 -9l2 19l-16 -6l-1 13l1 6l-7 6l-6 6l-7 6l-9 4l2 6l-6 7l-4 8l-7 6l-7 6l2 6l-10 6l3 11l-16 2l4 12l3 7l-14 5l8 12l-14 5l5 11l3 8l-6 8l3 10l-19 6
l11 11l4 10l-2 9l1 9l-15 9l10 9l5 10l-12 10l13 8l-14 10l11 8l6 8l-11 12l15 5l2 9l-2 10l6 5l-8 12l14 5l-13 14l15 4l7 3l4 9l5 7l-8 15l13 3l6 1l4 9l7 6l5 7l2 10h6l-6 19l19 -7l4 9l6 7l6 -2l-2 19l17 -9l-3 20l15 -6l5 -3l5 10l11 -2l3 15l11 -3l5 -3l5 19l13 -15
l7 9h9l5 -4l8 12l10 -10l8 2l9 4l2 -5l10 9l8 -11l10 16l8 -18l10 16l8 -13l11 -9l12 8l5 -14l8 -3l10 1l6 -10l17 9l-3 -20l17 8v-15l4 -12l13 -1l-2 -13l13 -2l1 -10h1l4 15l-12 9l11 9l-5 9l4 9l-13 9l8 9l4 16l-4 9v9l4 15l-5 9l1 9l4 16l-12 9l8 9l4 16v9l-4 9l4 15
l-11 9l7 9l4 16l-9 9l5 9l4 16l-12 9l8 9l4 15l-17 9l13 9l4 16l-2 9l-2 9l16 -5l9 16l9 -11l17 -5l9 12l9 -7l17 -5l9 13l9 -8l16 -5l9 6l9 -1l-4 -15l10 -9l-6 -9l-4 -15l13 -9l-9 -9l-4 -15l2 -9l2 -9l-4 -15l11 -9l-7 -9l-4 -15l3 -9l1 -9l-4 -15l1 -9l3 -9l-4 -15
l13 -9l-9 -9l-4 -15l17 -9l-13 -9l-4 -15l13 -9l-9 -9l-4 -15l9 -9l-5 -9l-4 -15l15 -9l-11 -9l-4 -15l10 -9l-6 -9l-4 -15l3 -9l1 -9l-4 -15l12 -9l-8 -9l-4 -15l6 -9l-2 -9l-4 -15l4 -9v-9l-4 -15l15 -9l-11 -9l-4 -15l17 -9l-13 -9l-4 -15v-9l4 -9l-4 -15l10 -9l-6 -9
l-4 -15l9 -9l-5 -9l-4 -15l17 -9l-13 -9l-4 -15l2 -9l2 -9l-4 -15l6 -9l-2 -9l-4 -15l2 -9zM190 261l-3 -18l14 -7l-11 -11l10 -8l-4 -9v-12l8 -6l-1 -10l19 -2l-8 -13v-7l9 -5l3 -9l15 1v-12l2 -6l15 8l1 -17l13 5l5 -10l7 -6h9l9 -3l9 5l9 -3l7 -4l7 16l11 -14l8 4l9 2
l2 -4l8 7l9 -1l8 5l8 5l16 7l-3 17l14 -2l4 -1v11l10 4l-3 12l8 6l7 8l-5 11l10 6l-3 10l3 9l5 2l-15 10l16 8l-15 10l16 8l-8 9l5 9l3 11l-1 9l-1 9l-8 8l2 9l2 7l-16 4l9 13l-17 3l6 12l1 6l-17 -2l5 16l-7 6l-8 5l-3 7l-15 -9l-1 17l-12 -3l-6 8l-11 6l-9 -1l-9 4l-9 -6
l-9 4l-10 3l-8 -7l-10 4l-7 -12l-10 5l-8 1l-5 -11l-11 2l-2 -15l-12 3l-9 -3l7 -18l-18 4l6 -17l-15 1l-9 -9l6 -13l-13 -4l12 -15l-15 -3h-5v-9l-2 -9l7 -10l-9 -8l13 -10z" />
    <glyph glyph-name="e" unicode="e" horiz-adv-x="642" 
d="M324 431l-16 1l-5 -17l-12 14l-7 -13l-10 5l-17 -6v-15l-15 5l-4 -9l-8 -5l-6 -1l4 -13l-14 -2l7 -15h-17l-3 -8l-3 -9l1 -5l9 12l9 -12l9 4l9 1v-5l9 2l9 -2l9 14l9 -9l1 -5l9 18l9 -18l9 14l9 -9v-5l9 10l9 -10l9 16l9 -11l1 -5l9 11l9 -11l9 4l9 1v-5l9 13l9 -13l9 7
l9 -2l1 -5l9 5l9 -5l9 16l9 -11l-1 10l-19 -2l10 17l-5 8l-8 5v6l-14 -1v13l-13 -1l-3 10l-1 5l-15 -11l-1 19l-9 2l-9 2l-6 5l-10 -5l-8 8l-9 -1zM603 255l-17 5l-9 -18l-9 13l-16 5l-9 -4l-9 -1l-17 5l-9 -12l-9 7l-17 5l-9 -15l-9 10l-17 5l-9 -11l-9 6l-17 5l-9 -2
l-9 -3l-16 5l-9 -7l-9 2l-17 5l-9 -16l-9 11l-17 5l-9 -4l-9 -1l-16 5l-9 -5h-9l-17 5l-9 -3l-9 -2l-17 5l-9 -15l-9 10l-4 -8l7 -8l-5 -9l9 -9l-3 -9l-3 -5l9 -6l-4 -11l7 -7l2 -9l-3 -3h17l-8 -16h18l-5 -13l-3 -3h13l1 -12l7 -6l9 -3v-5l11 3l5 -10l13 7l5 -11l7 -5
l10 13l8 -15l10 12l8 -10l5 -4l9 2h9l7 16l11 -14l8 11l9 -4l11 1l7 7l9 2l4 11l9 2l8 4v11l9 4l-5 14l11 4l17 -4l9 7l9 -3v-4l9 12l9 -12l9 16l9 -12v-4l9 16l9 -16l9 10l9 -6l17 -4l9 17l9 -13l-9 -10l-4 -9l-4 -8l4 -11l-7 -7l-8 -5l8 -15h-17l-4 -8l-1 -10l-7 -2
l-1 -11l-11 -2l5 -17h-13l-5 2l-6 -8l-8 -4l1 -15h-12l-6 2l-5 -9h-11l-2 -14l-11 1l-5 3l-5 -16l-12 10l-4 -16l-12 6l-8 3l-7 -12l-11 9l-7 -11l-10 3l-12 4l-9 -6l-9 5l-8 -14l-10 8l-11 5l-9 -4l-9 5l-9 -1l-9 -2l-7 6l-11 -8l-6 12l-10 -1h-9l-4 6l-10 -1l-7 8l-13 -11
l-5 13l-1 6l-16 -10v18l-13 -4l-5 9v6l-15 -6l1 17l-7 5l-10 2l2 5l-14 -1l2 14l-19 -5l3 15l2 5l-17 -1l7 16l-6 7l-8 5l3 4l-5 7l-3 9l-4 8l-8 6l3 4l-5 8v9l-9 7l-1 9l4 4l-14 7l11 11l-14 7l6 10l4 5l-13 8l12 10l-6 9v9l5 5l-16 10l17 8l-1 9l-2 9l5 3l-13 12l17 5
l-11 12l10 7l6 3l-11 13l17 4l-10 13l12 5h5l4 8l5 8l-6 14l11 4l5 -1l-9 18l20 -3l5 8l2 9l5 -1l-4 17l17 -4l5 8l4 8l6 -1l7 6l7 5l-3 19l15 -5l5 -2l6 8l10 1l-1 19l14 -6l6 -3l2 20l15 -13l6 8l9 2l7 -3l6 13l11 -9l6 18l11 -10l7 -4l9 8l9 -7l9 12l9 -6l7 -5l9 1l9 -2
l9 9l9 -6l5 -5l11 14l6 -17l12 14l7 -13l2 -5l12 8l5 -14l8 -3l10 1l1 -5l16 12v-20l15 11l3 -15l-1 -5l13 3l2 -13l13 2l4 -9l-2 -5l15 2l-2 -14l9 -4l7 -6l-3 -4h17l-6 -15l8 -5l6 -7l-2 -6l9 -5l-1 -10l15 -2l-2 -12l-2 -7l3 -9l2 -8l14 -5l-4 -11l-3 -9l11 -8l-8 -10
l14 -7l-6 -10l-4 -12l18 -8l-17 -10l3 -9z" />
    <glyph glyph-name="f" unicode="f" horiz-adv-x="308" 
d="M83 0l5 16l-16 9l11 9l5 15l-1 9l-4 9l5 15l-3 9l-2 9l5 16l-3 9l-2 9l5 16l-18 9l13 9l5 15l-2 9l-3 9l5 15l-1 9l-4 9l5 16l-16 9l11 9l5 16l-5 9v9l5 15l-1 9l-4 9l5 15l-10 9l5 9l5 16l-15 9l10 9l-1 4l-9 -12l-9 12l-9 -17l-9 13l-1 4l-9 -6l-9 6l-9 -15l-9 11l5 4
l-16 9l16 9l-3 9l-2 9l5 4l-18 9l18 9l-2 9l-3 9l5 4l-12 9l12 9l-16 9l11 9l1 -4l9 6l9 -6l9 17l9 -13l1 -4l9 13l9 -13l9 6l9 -2l5 15l-16 9l11 9l5 15l-8 9l3 9l5 16l-17 9l12 9l5 15l-18 9l13 9l5 9l-1 9l2 9l-10 9l11 9l-8 9l5 9l8 13l-8 11l12 6l-12 13l12 6l6 2
l-9 16h18l-7 14l12 4l4 -3l-2 16l15 -4l-2 16l13 -1l5 -3l4 15l13 -9l7 6l8 5l10 -4l7 16l10 -14l9 8l9 -2l4 -5l10 17l8 -18l10 13l8 -10l10 -7l13 13l4 -18l13 13l4 -18l13 14l6 -14l-4 -3v-9v-9l3 -9l1 -9l-4 -3v-9v-9l7 -9l-3 -9l-4 -3l9 -9l-9 -9l7 -9l-3 -9l-9 7
l-10 -4l-7 9l-11 -7l-6 12l-9 2l-10 -2l-4 3l-2 -16l-14 9l-2 -19l-13 8l-6 -4l2 -10l-6 -8l15 -13l-19 -4l2 -10l-2 -9l-5 -7l14 -9l-14 -9l8 -9l-3 -9l-5 -8l18 -9l-18 -9l2 -9l3 -9l-5 -7l17 -9l-17 -9l13 -9l-8 -9l1 -4l9 16l9 -16l9 12l9 -8l1 -4l9 5l9 -5l9 11l9 -7
l1 -4l9 9l9 -9l9 9l9 -5l-4 -4l11 -9l-11 -9l2 -9l2 -9l-4 -4l12 -9l-12 -9l13 -9l-9 -9l-4 -4l10 -9l-10 -9v-9l4 -9l-1 4l-9 -8l-9 8l-9 -13l-9 9l-1 4l-9 -8l-9 8l-9 -12l-9 8l-1 4l-9 -16l-9 16l-9 -7l-9 3l-5 -16l12 -9l-7 -9l-5 -15l5 -9v-9l-5 -15l13 -9l-8 -9
l-5 -16l11 -9l-6 -9l-5 -16l2 -9l3 -9l-5 -15l9 -9l-4 -9l-5 -15l1 -9l4 -9l-5 -16l9 -9l-4 -9l-5 -16l9 -9l-4 -9l-5 -15l2 -9l3 -9l-5 -15l15 -9l-10 -9l-5 -16l15 -9l-10 -9l-17 4l-9 -16l-9 12l-16 4l-9 -3l-9 -1l-16 4l-9 -5l-9 1l-17 4l-9 -4h-9z" />
    <glyph glyph-name="g" unicode="g" horiz-adv-x="675" 
d="M594 522l-4 -16l7 -9l-3 -9l-4 -15l14 -9l-10 -9l-4 -16l10 -9l-6 -9l-4 -15l14 -9l-10 -9l-4 -16l16 -9l-12 -9l-4 -15l13 -9l-9 -9l-4 -16l3 -9l1 -9l-4 -15l6 -9l-2 -9l-4 -16v-9l4 -9l-4 -16l14 -9l-10 -9l-4 -15l5 -9l-1 -9l-4 -16l8 -9l-4 -9l-4 -15l12 -9l-8 -9
l-4 -16l4 -9v-9l-4 -15l14 -9l-10 -9l-4 -16l16 -9l-12 -9l-5 -14l13 -9l-14 -9l10 -9l-6 -9l-6 -10l16 -11l-18 -7l9 -10l-7 -8l-6 -4l12 -12l-16 -5l5 -11l-5 -8h-5l11 -15l-18 -2l6 -12l-9 -6l-4 2l5 -13l-14 -2v-11l-6 -7l-14 -9l5 -17l-14 1l-17 -7l-1 -14h-11l-3 4
l-1 -17l-15 9l-1 -19l-13 7l-5 3l-4 -18l-13 13l-5 -16l-11 6l-9 3l-7 -15l-11 12l-8 -6l-9 -1l-13 4l-9 -14l-9 13l-9 -11l-9 6l-10 5l-9 -10l-9 11l-9 -4h-9l-6 5l-10 -10l-8 13l-9 -5l-9 3l-3 5l-12 -10l-5 14l-13 -13l-6 13l1 5l-15 -12l-2 19l-12 -6l-6 9l-12 13l-10 1
l-8 4l-10 15l-7 5l-9 4l-6 17h-15l1 12l4 3l-15 3l7 13l-18 2l7 13l3 6l-2 9l-2 8l-4 9l-4 8l4 10l-3 9l2 9l-18 8l12 10l17 -5l9 2l9 3l17 -5l9 1l9 4v-5l9 16l9 -16l9 5h9l17 -5l9 1l9 4l-4 -1l10 -8l-8 -10l15 -7l-13 -11l13 -7l-7 -10l-2 -5l20 2l-10 -17l10 -4l3 -9
l3 -6l14 11l3 -18l14 11l4 -14l4 -5l9 2l9 -3l10 16l8 -18h9l9 3l4 -4l7 12l11 -10l7 16l10 -10l17 2l6 9l9 2l15 7l-4 19l15 -4l4 -1l-7 14l17 1l-2 12l7 6l7 8l-13 13l17 4l-5 11l5 8l5 1l-17 10l18 8l-17 10l18 8l-1 9l-2 9l5 10l-11 9l11 9l-9 9l4 9l5 10l-11 9l11 9
l-15 9l10 9l-12 -9l8 -17l-18 2l6 -15l-13 -2l-11 -2v-16l-15 5l1 -16l-13 2h-13l-5 -15l-12 9l-8 -5l-8 -5l-2 4l-7 -16l-11 15l-8 -9l-9 7l-8 -18l-10 12l-5 5l-10 -14l-8 15l-10 -15l-8 12l-2 5l-12 -14l-5 17l-12 -14l-7 13l-1 5l-8 3l-9 4l-9 -1l-9 3l2 4l-9 4l-7 5
l-12 -2l-6 7l2 5l-14 -2v13h-12l-5 8l2 5l-11 2v12l-13 1l-2 10l1 7l-4 8l-4 7l-17 1l4 13l2 9l-20 2l13 15l-7 7l-3 8l2 12l-19 6l16 12l-6 8l-2 9l4 17l-14 9l13 9l-8 9l2 9l5 14l-17 10l18 8v9l-3 9l6 9l-14 11l17 6l-11 12l10 7l7 6l-13 14l18 3l-9 13l10 6l6 2v10l9 6
l-7 13l11 5h6l-2 13l12 2l-3 13l10 4l5 -1l-1 14l14 -2l5 8l5 8l4 -3l1 16l14 -6v17l13 -3l5 -3l5 13l12 -6l8 4l7 7l6 -3l7 10l11 -6l5 16l11 -7l8 -4l9 10l9 -9l8 14l10 -8v-5l10 16l8 -17l9 7l9 -9l10 11l8 -8l11 -9l10 2l7 -8l12 8l6 -10l7 -11l14 3l1 -14l8 -4l9 -3
l-3 -4l12 -2l-1 -12l6 -7l5 -7l12 -2l2 -10l5 1l-9 9l9 9l-2 9l-3 9l5 2l-15 9l15 9l-15 9l10 9l15 -4l9 16l9 -12l16 -4l9 3l9 1l15 -4l9 5l9 -1l15 -4l9 4h9zM190 261l-4 -1l1 -9l1 -9l5 -8l-3 -10l18 -6l-11 -11v-12l8 -7v-9l18 -2l-7 -13l1 -8l19 4l-6 -18l15 3v-13
l4 -7l15 8l1 -17l12 4l6 -8l8 -6l9 -1l9 -2l10 11l8 -9l12 -3l8 10l10 -7l8 9l9 -2l7 -1l1 15l14 -7v20l14 -7h6l5 8l7 5v12l8 5l6 4l-4 11l11 6l-5 11l8 7l5 9l-10 10l12 8l-4 9l2 9l4 4l-14 9l13 9l-1 9v9l-2 9l-3 9l2 11l-4 8v10l-12 6l3 10l3 4l-7 6l-1 9l-9 6l-4 8
l-10 14l-11 1l-5 8v5l-8 2l-9 4l-14 -12l-4 14l-9 5l-9 1l-9 1l-10 -10l-8 7l-8 3l-9 -1l-9 -1l-7 -15l-10 8l-6 2l-6 -8h-9l-5 -10l-9 -3l-7 -2l-4 -8l-8 -5l-2 -11l-6 -6l-9 -10l6 -12l-12 -5l-1 -9l-2 -9l-5 -5l13 -10l-15 -8l15 -10l-17 -8v-9z" />
    <glyph glyph-name="h" unicode="h" horiz-adv-x="643" 
d="M81 0l5 15l-2 9l-3 9l5 15l-2 9l-3 9l5 15l-15 9l10 9l5 15l-3 9l-2 9l5 15l-16 9l11 9l5 15l-9 9l4 9l5 15l-7 9l2 9l5 15l-10 9l5 9l5 15l-1 9l-4 9l5 15l-18 9l13 9l5 15l-7 9l2 9l5 15l-9 9l4 9l5 15l-3 9l-2 9l5 15l-15 9l10 9l5 15l-3 9l-2 9l5 15l-14 9l9 9l5 15
l-5 9v9l5 15l-14 9l9 9l5 15l-9 9l4 9l5 15l-11 9l6 9l5 15l-10 9l5 9l5 15l-18 9l13 9l5 15l-12 9l7 9l5 15l-17 9l12 9l5 15l-15 9l10 9l17 -5l9 6l9 -1l16 -5l9 18l9 -13l16 -5l9 17l9 -12l17 -5l9 5h9l-5 -15l17 -9l-12 -9l-5 -16l15 -9l-10 -9l-5 -15l2 -9l3 -9l-5 -15
l7 -9l-2 -9l-5 -15l5 -9v-9l-5 -16l7 -9l-2 -9l-5 -15l4 -9l1 -9l-5 -15l1 -9l4 -9l-5 -15l14 -9l-9 -9l-5 -16l16 -9l-11 -9l-5 -15l10 -9l-5 -9l13 8l-6 17l17 -3l-8 18l16 -1l14 3l6 8l10 1l5 9l8 4h14l8 4l9 1l6 11l10 -1l9 -4l8 12l9 -10l8 17l10 -11l5 -5l10 11l8 -13
l9 5l9 -2v-5l9 -1l8 -4l12 8l7 -9l-2 -4l13 4l2 -13l8 -5l10 -1l-3 -3l15 2l-2 -15l17 5l-1 -14l-3 -4l9 -5l1 -10l8 -5l5 -8l-3 -5l19 -2l-13 -15l13 -5l-2 -10l-3 -9l8 -7l-4 -10l18 -6l-10 -11l-4 -11l13 -9l-12 -9l7 -9l-1 -9h-5l7 -9l-7 -9l3 -9l2 -9h-5l9 -9l-9 -9
l13 -9l-8 -9h-5l12 -9l-12 -9l5 -9v-9h-5l16 -9l-16 -9l12 -9l-7 -9h-5l1 -9l-1 -9l3 -9l2 -9h-5l8 -9l-8 -9l11 -9l-6 -9h-5l5 -9l-5 -9l5 -9v-9h-5l4 -9l-4 -9l3 -9l2 -9h-5l12 -9l-12 -9l2 -9l3 -9l-17 4l-9 -3l-9 -1l-16 4l-9 -14l-9 10l-16 4l-9 -17l-9 13l-17 4l-9 -5
l-9 1l5 16l-4 9l-1 9l5 16l-8 9l3 9l5 16l-3 9l-2 9l5 16l-5 9v9l5 15l-3 9l-2 9l5 16l-7 9l2 9l5 16l-2 9l-3 9l5 16l-6 9l1 9l5 16l-3 9l-2 9l4 5l-3 8l1 10l-9 8l7 10l-7 8l1 9l2 5l-8 6l1 11l-9 6l-3 8l-9 11l-15 -7l-2 14l-16 7l-9 1l-9 -3l-5 4l-7 -17l-11 15l-7 -17
l-10 11l-3 4l-4 -14l-12 6l-4 -14l-11 3l-4 2l-5 -8l-8 -4l1 -14l-11 -2l-7 -5l12 -16l-20 -1l-1 -9l-2 -9h-5l8 -10l-9 -8l2 -9l-4 -9v-9l2 -9l-5 -17l5 -9v-9h-5l17 -9l-17 -9l12 -9l-7 -9l-5 -17l13 -9l-8 -9l-5 -17l5 -9v-9h-5l18 -9l-18 -9l4 -9l1 -9l-5 -17l8 -9
l-3 -9h-5l9 -9l-9 -9l16 -9l-11 -9l-5 -17l13 -9l-8 -9l-17 4h-9l-9 -4l-16 4l-9 -9l-9 5l-16 4l-9 -1l-9 -3l-17 4l-9 -14z" />
    <glyph glyph-name="i" unicode="i" horiz-adv-x="300" 
d="M219 0l-17 4l-9 -2l-9 -2l-16 4l-9 -6l-9 2l-16 4l-9 -1l-9 -3l-17 4l-9 -5l-9 1l5 17l-3 9l-2 9l5 17l-3 9l-2 9l5 16l-9 9l4 9l5 17l-7 9l2 9l5 17l-6 9l1 9l5 17l-6 9l1 9l5 17l-15 9l10 9l5 16l-1 9l-4 9l5 17l-17 9l12 9l5 17l-17 9l12 9l5 17l-11 9l6 9l5 17l-12 9
l7 9l5 16l-3 9l-2 9l5 17l-11 9l6 9l5 17l-18 9l13 9l17 -4l9 2l9 2l16 -4l9 8l9 -4l16 -4l9 3l9 1l17 -4l9 1l9 3l-5 -17l5 -9v-9l-5 -17l17 -9l-12 -9l-5 -16l12 -9l-7 -9l-5 -17l13 -9l-8 -9l-5 -17l5 -9v-9l-5 -17l18 -9l-13 -9l-5 -17l4 -9l1 -9l-5 -16l8 -9l-3 -9
l-5 -17l9 -9l-4 -9l-5 -17l16 -9l-11 -9l-5 -17l13 -9l-8 -9l-5 -17l1 -9l4 -9l-5 -16l10 -9l-5 -9l-5 -17l2 -9l3 -9l-5 -17l15 -9zM70 674l6 5l-6 11l11 6l-10 12l10 7l7 1l-2 14l15 -1l3 9l6 7l6 -3l5 17l13 -12l6 13l10 -4l4 -6l9 -2l8 -3l10 1l9 -1l1 -7l12 -1v-12h14
l2 -10l-3 -7l7 -8l-2 -10l6 -7l3 -9l-6 -3l2 -10l-6 -7v-10l-1 -9h-6l1 -14l-14 2l-6 -7l-4 -9l-6 3l-8 -5h-10l-5 -16l-11 7l-4 6l-14 -15l-3 20l-10 -3l-9 3v6l-9 4l-4 9l-12 1l-4 8l3 6l-5 7v10l-7 7z" />
    <glyph glyph-name="j" unicode="j" horiz-adv-x="300" 
d="M219 -300l-17 4l-9 -10l-9 6l-16 4l-9 -7l-9 3l-16 4l-9 -9l-9 5l-17 4l-9 -6l-9 2l5 16l-13 9l8 9l5 16l-11 9l6 9l5 17l-4 9l-1 9l5 16l-13 9l8 9l5 16l-2 9l-3 9l5 17l-17 9l12 9l5 16l-4 9l-1 9l5 16l-11 9l6 9l5 16l-1 9l-4 9l5 16l-18 9l13 9l5 17l-13 9l8 9l5 16
l-1 9l-4 9l5 16l-12 9l7 9l5 17l-17 9l12 9l5 16l-16 9l11 9l5 16l-3 9l-2 9l5 16l-6 9l1 9l5 16l-1 9l-4 9l5 17l-8 9l3 9l5 16l-6 9l1 9l5 16l-2 9l-3 9l5 17l-2 9l-3 9l5 16l-13 9l8 9l5 16l-18 9l13 9l17 -4l9 15l9 -11l16 -4l9 8l9 -4l16 -4l9 5l9 -1l17 -4l9 2l9 2
l-5 -16l8 -9l-3 -9l-5 -16l10 -9l-5 -9l-5 -17l18 -9l-13 -9l-5 -16l3 -9l2 -9l-5 -16l7 -9l-2 -9l-5 -17l2 -9l3 -9l-5 -16l8 -9l-3 -9l-5 -16l16 -9l-11 -9l-5 -16l4 -9l1 -9l-5 -16l12 -9l-7 -9l-5 -17l1 -9l4 -9l-5 -16l1 -9l4 -9l-5 -16l2 -9l3 -9l-5 -17l7 -9l-2 -9
l-5 -16l14 -9l-9 -9l-5 -16l16 -9l-11 -9l-5 -16l17 -9l-12 -9l-5 -16l10 -9l-5 -9l-5 -17l2 -9l3 -9l-5 -16l17 -9l-12 -9l-5 -16l18 -9l-13 -9l-5 -17l11 -9l-6 -9l-5 -16l1 -9l4 -9l-5 -16l17 -9zM70 674l6 5l-15 13l20 4v10v9l7 1v13h13l2 10l7 6l6 -3l5 16l13 -11l5 14
l11 -5l4 -6l10 4l7 -9l13 14l6 -14l1 -7l9 -4l3 -9l19 6l-3 -16l-3 -7l16 -6l-11 -12l8 -7l1 -9l-6 -3l4 -11l-8 -6l11 -13l-12 -6h-6l3 -16l-16 4l-6 -7l-4 -9l-6 3l-9 -4l-9 -1l-8 -3l-8 -6l-4 6l-11 -6l-6 11l-11 -7l-8 7v6l-7 6l-6 7l-19 -7l3 16l3 6l-15 5l10 12l-11 6
z" />
    <glyph glyph-name="k" unicode="k" horiz-adv-x="569" 
d="M81 0l5 15l-18 9l13 9l5 15l-1 9l-4 9l5 15l-14 9l9 9l5 15l-12 9l7 9l5 15l-8 9l3 9l5 15l-4 9l-1 9l5 15l-1 9l-4 9l5 15l-16 9l11 9l5 15l-15 9l10 9l5 15l-12 9l7 9l5 15l-5 9v9l5 15l-3 9l-2 9l5 16l-11 9l6 9l5 15l-8 9l3 9l5 15l-5 9v9l5 15l-16 9l11 9l5 15
l-13 9l8 9l5 15l-16 9l11 9l5 15l-10 9l5 9l5 15l-12 9l7 9l5 15l-7 9l2 9l5 15l-6 9l1 9l5 15l-14 9l9 9l5 15l-12 9l7 9l5 15l-12 9l7 9l16 -4l9 1l9 3l17 -4l9 1l9 3l16 -4l9 15l9 -11l16 -4l9 1l9 3l-4 -15l12 -9l-8 -9l-4 -15l3 -9l1 -9l-4 -15l12 -9l-8 -9l-4 -15
l17 -9l-13 -9l-4 -15l2 -9l2 -9l-4 -15l8 -9l-4 -9l-4 -15l5 -9l-1 -9l-4 -16l13 -9l-9 -9l-4 -15l12 -9l-8 -9l-4 -15l5 -9l-1 -9l-4 -15l16 -9l-12 -9l-4 -15l4 -9v-9l-4 -15l17 -9l-13 -9l-4 -15l13 -9l-9 -9l-4 -15l5 -9l-1 -9l14 10v11l7 6l14 11l-6 16l13 1l14 10
l-6 16l13 1l14 11l5 8l3 9l14 10l4 8l3 9l14 11l5 8l2 9l14 10l-2 12l9 5l17 -4l9 8l9 -4l16 -4l9 1l9 3l17 -4l9 17l9 -13l16 -4l9 13l9 -9l17 -4l9 8l9 -4l-15 -10l2 -14l-10 -3l-15 -10v-12l-8 -5l-4 2l1 -13h-13v-12l-8 -5l-15 -10l4 -15l-12 -2l-15 -10l2 -14l-10 -3
l-15 -10l-3 -10l-5 -7l-4 2l3 -14l-15 1l-4 -8l-4 -9l-15 -10l7 -18l-15 1l-15 -10l-3 -9l-5 -8l7 -14h14l1 -11l8 -15l6 -6l9 -4l7 -15l19 4l-4 -15l7 -14l15 1v-12l7 -14l6 -7l9 -4l8 -15l14 2l1 -12l7 -14l18 4l-3 -15l7 -14l18 3l-3 -14l7 -15l7 -6l8 -5l8 -15l10 -2
l5 -8l7 -14l6 -7l9 -4v4l-9 -7l-9 7l-9 -5l-9 1v4l-9 -1l-9 1l-9 -1l-9 -3l-17 4l-9 -12l-9 8v4l-9 -17l-9 17l-9 -15l-9 11v4l-9 -8l-9 8l-9 -5l-9 1l-7 16l-8 5l-7 6l-7 17l-12 2l-3 9l-8 16l-13 1l-2 10l-7 17l-19 -4l4 15l-7 16l-8 5l-7 6l-7 16l-11 2l-4 9l3 3l-7 6
l-4 8l-11 2l-4 9l-7 16l-18 -3l3 14l-4 -1l3 -9l-3 -9l11 -9l-7 -9h-4v-9v-9v-9l4 -9h-4l1 -9l-1 -9l6 -9l-2 -9l-4 -1l13 -9l-13 -9l15 -9l-11 -9l-4 -1l16 -9l-16 -9l9 -9l-5 -9h-4l1 -9l-1 -9l16 -9l-12 -9l-16 4l-9 -17l-9 13l-16 4l-9 -10l-9 6l-17 4h-9l-9 -4l-16 4
l-9 -16z" />
    <glyph glyph-name="l" unicode="l" horiz-adv-x="304" 
d="M83 1l5 16l-13 9l8 9l5 17l-12 9l7 9l5 16l-17 9l12 9l5 16l-14 9l9 9l5 17l-17 9l12 9l5 16l-7 9l2 9l5 16l-16 9l11 9l5 17l-8 9l3 9l5 16l-7 9l2 9l5 16l-9 9l4 9l5 17l-7 9l2 9l5 16l-12 9l7 9l5 16l-2 9l-3 9l5 17l-1 9l-4 9l5 16l-17 9l12 9l5 16l-4 9l-1 9l5 17
l-2 9l-3 9l5 16l-15 9l10 9l5 16l-1 9l-4 9l5 17l-8 9l3 9l5 16l-10 9l5 9l5 16l-11 9l6 9l5 17l-12 9l7 9l5 16l-14 9l9 9l17 -5l9 5h9l16 -5l9 15l9 -10l16 -5l9 9l9 -4l17 -5l9 13l9 -8l-5 -16l1 -9l4 -9l-5 -17l7 -9l-2 -9l-5 -16l9 -9l-4 -9l-5 -16l6 -9l-1 -9l-5 -17
l8 -9l-3 -9l-5 -16l3 -9l2 -9l-5 -16l12 -9l-7 -9l-5 -17l18 -9l-13 -9l-5 -16l16 -9l-11 -9l-5 -16l10 -9l-5 -9l-5 -17l1 -9l4 -9l-5 -16l12 -9l-7 -9l-5 -16l12 -9l-7 -9l-5 -17l11 -9l-6 -9l-5 -16l6 -9l-1 -9l-5 -16l2 -9l3 -9l-5 -17l13 -9l-8 -9l-5 -16l3 -9l2 -9
l-5 -16l13 -9l-8 -9l-5 -17l11 -9l-6 -9l-5 -16l16 -9l-11 -9l-5 -16l16 -9l-11 -9l-5 -17l3 -9l2 -9l-5 -16l15 -9l-10 -9l-17 5l-9 -2l-9 -3l-16 5l-9 -18l-9 13l-16 5l-9 -15l-9 10l-17 5l-9 -9z" />
    <glyph glyph-name="m" unicode="m" horiz-adv-x="934" 
d="M218 0l-16 4l-9 -14l-9 10l-16 4l-9 -8l-9 4l-17 4l-9 -8l-9 4l-16 4l-9 -6l-9 2l5 17l-14 9l9 9l5 17l-7 9l2 9l5 16l-10 9l5 9l5 17l-4 9l-1 9l5 17l-11 9l6 9l5 17l-13 9l8 9l5 17l-7 9l2 9l5 16l-11 9l6 9l5 17l-16 9l11 9l5 17l-7 9l2 9l5 17l-18 9l13 9l5 17l-10 9
l5 9l5 16l-18 9l13 9l5 17l-1 9l-4 9l5 17l-5 9v9l15 -4l9 16l9 -12l16 -4l9 15l9 -11l15 -4l9 7l9 -3l15 -4l9 1l9 3l-4 -1l5 -9l-5 -9l13 -9l-9 -9l-4 -1l7 -9l-7 -9l4 -9v-9l13 10l2 10l8 5l-2 12l9 5l12 4l1 14l13 -3v16l12 -2h13l7 6h10l4 15l11 -4l14 -3l8 11l10 -9
l8 4l9 3l14 -6l11 13l7 -16l10 10l8 -8l7 -8l12 5l4 -13l12 4l6 -8l3 -9h12l1 -12l11 -1l5 -8v-8h17l-7 -15l19 2l-6 -15l12 8l-8 17l19 -3l1 10l6 7l11 3l7 6l8 5l6 7l5 8l9 -1l4 13l13 -5l3 14l11 -2l3 -4l7 16l11 -13l7 11l10 -4l7 -5l9 4l9 -6l10 12l8 -9l1 -5l9 -1
l8 -4h10h9l-1 -5l16 10v-18l16 10l2 -15l-3 -3l19 7l-5 -19l15 3l1 -12l-3 -4l8 -6l2 -9l6 -7l8 -5l-3 -5l16 -4l-9 -13l12 -5l-1 -10l-3 -9l16 -6l-11 -11l11 -7l-3 -10l-4 -13l12 -9l-11 -9l4 -9l2 -9h-4l4 -9l-4 -9l16 -9l-12 -9h-4l12 -9l-12 -9l12 -9l-8 -9l-4 -1l1 -9
l-1 -9l8 -9l-4 -9h-4l9 -9l-9 -9l12 -9l-8 -9h-4l5 -9l-5 -9l16 -9l-12 -9h-4l10 -9l-10 -9l8 -9l-4 -9l-4 -1l8 -9l-8 -9l6 -9l-2 -9h-4l17 -9l-17 -9l9 -9l-5 -9h-4l9 -9l-9 -9l12 -9l-8 -9l-16 4l-9 -16l-9 12l-16 4l-9 -4h-9l-17 4l-9 -6l-9 2l-16 4h-9l-9 -4h5l-13 9
l13 9l-4 9l-1 9h5l-3 9l3 9l-16 9l11 9l5 1l-18 9l18 9l-4 9l-1 9h5l-12 9l12 9l-16 9l11 9h5l-16 9l16 9l-5 9v9h5l-17 9l17 9l-4 9l-1 9l5 1l-3 9l3 9l-3 9l-2 9h5l-9 9l9 9l-1 9l-4 9h5l-5 9l5 9l-2 9l-3 9l2 11l-5 8l1 10l-15 6l11 11l-7 8l-1 9l-4 9l-13 -1l-1 13
l-17 -6v14l-4 5l-10 -8l-7 11l-11 -6l-8 5l-2 4l-7 -6l-10 3l-9 -3l-8 -5l-4 3l1 -16l-15 5l-3 -11l-9 -3l-9 -8l6 -13l-13 -4l-1 -10l-3 -8l-6 -13l4 -9l-6 -9l15 -10l-17 -8l15 -10l-12 -8h-5l13 -9l-13 -9l12 -9l-7 -9h-5l13 -9l-13 -9l9 -9l-4 -9l-5 -17l15 -9l-10 -9
h-5l6 -9l-6 -9l5 -9v-9h-5l5 -9l-5 -9l15 -9l-10 -9l-5 -17l5 -9v-9h-5l13 -9l-13 -9l12 -9l-7 -9h-5l17 -9l-17 -9l14 -9l-9 -9l-16 4l-9 -16l-9 12l-17 4l-9 -6l-9 2l-16 4l-9 -15l-9 11l-16 4l-9 -7l-9 3h4l-6 9l6 9l-8 9l4 9h4l-6 9l6 9l-11 9l7 9l4 1l-1 9l1 9v9l-4 9
h4l-16 9l16 9l-3 9l-1 9h4l-1 9l1 9l-14 9l10 9h4v9v9l-7 9l3 9l4 1l-9 9l9 9l-10 9l6 9h4l-11 9l11 9l-13 9l9 9h4l-4 9l4 9l-14 9l10 9l3 9l-11 7l7 11l-14 6l10 11l-2 9l-6 8l-3 9l-11 1l-3 11h-12l-4 9l-5 6l-10 -4l-7 7l-11 -6l-8 5l-4 4l-8 -5l-9 1l-7 -13l-10 5l-5 2
l4 -20l-18 8l3 -18l-14 3l-9 -9l5 -13l-13 -4l-3 -8v-10l-5 -8l10 -10l-12 -8l10 -10l-12 -8l9 -10l-7 -8h-4l5 -9l-5 -9l1 -9l3 -9h-4l12 -9l-12 -9l2 -9l2 -9l-4 -17l12 -9l-8 -9h-4l10 -9l-10 -9l15 -9l-11 -9h-4l15 -9l-15 -9l2 -9l2 -9l-4 -17l14 -9l-10 -9h-4l1 -9
l-1 -9l17 -9l-13 -9h-4l14 -9l-14 -9l8 -9z" />
    <glyph glyph-name="n" unicode="n" horiz-adv-x="638" 
d="M81 0l5 17l-15 9l10 9l5 17l-8 9l3 9l5 16l-16 9l11 9l5 17l-15 9l10 9l5 17l-17 9l12 9l5 17l-13 9l8 9l5 17l-17 9l12 9l5 16l-12 9l7 9l5 17l-12 9l7 9l5 17l-6 9l1 9l5 17l-1 9l-4 9l5 17l-13 9l8 9l5 16l-10 9l5 9l5 17l-13 9l8 9l5 17l-6 9l1 9l15 -4l9 14l9 -10
l16 -4l9 14l9 -10l15 -4l9 5l9 -1l15 -4l9 3l9 1l-4 -2l13 -9l-13 -9l13 -9l-9 -9l-4 -1l4 -9l-4 -9l16 -9l-12 -9l15 10l2 10l10 3l1 11l7 6l17 6l1 14l14 -4l4 9l8 5l15 1l6 9l11 -3l3 16l12 -5l9 -3l7 11l11 -8l7 12l10 -5l5 -5l9 5l9 -7l9 3h9l-1 -4l10 1l7 -7l13 9
l6 -10l-2 -4l17 10l-2 -19l15 6l3 -12l9 -15l17 3l-1 -13l-3 -3l10 -5l-1 -11l10 -4l3 -9l-3 -5l3 -8l3 -9l5 -8l6 -7l-3 -8l18 -6l-15 -12l15 -7l-7 -10l-4 -11l15 -8l-14 -10l8 -9l-2 -9h-4l7 -9l-7 -9l6 -9l-2 -9h-4l14 -9l-14 -9l2 -9l2 -9h-4l12 -9l-12 -9v-9l4 -9h-4
l12 -9l-12 -9l2 -9l2 -9h-4l5 -9l-5 -9l16 -9l-12 -9h-4v-9v-9l10 -9l-6 -9h-4l6 -9l-6 -9l12 -9l-8 -9h-4l15 -9l-15 -9l16 -9l-12 -9h-4l14 -9l-14 -9l5 -9l-1 -9l-16 4l-9 -6l-9 2l-17 4l-9 -7l-9 3l-17 4l-9 -2l-9 -2l-16 4l-9 -12l-9 8l4 16l-6 9l2 9l4 16l-14 9l10 9
l4 16l-10 9l6 9l4 16l-8 9l4 9l4 15l-14 9l10 9l4 16l-3 9l-1 9l4 16l-13 9l9 9l4 16l-5 9l1 9l4 16l-16 9l12 9l4 5l-17 7l16 11l-17 7l15 10l-9 9l3 9l3 5l-18 2l10 14l-9 6l-2 9l-8 11l-7 5l-10 2l-15 7l-11 -14l-7 12l-5 4l-7 -17l-11 15l-8 -9l-9 3l-3 4l-6 -8h-10
l-8 -4l-7 -7l-4 2l-1 -12h-12v-13l-10 -3l-7 -5l1 -11l-9 -6l4 -11l-7 -7h-5l16 -11l-17 -7l4 -9l-6 -9l12 -10l-10 -8l-4 -17l17 -9l-13 -9h-4l7 -9l-7 -9l9 -9l-5 -9l-4 -17l1 -9l3 -9l-4 -17l5 -9l-1 -9h-4l8 -9l-8 -9l4 -9v-9l-4 -17l6 -9l-2 -9h-4l17 -9l-17 -9l6 -9
l-2 -9l-4 -17l1 -9l3 -9l-16 4l-9 -17l-9 13l-16 4l-9 -17l-9 13l-17 4l-9 -13l-9 9l-16 4l-9 -10z" />
    <glyph glyph-name="o" unicode="o" horiz-adv-x="658" 
d="M190 261l-4 -3l3 -9l-1 -9l13 -7l-11 -11l8 -8l-1 -9v-12l17 -2l-9 -14l13 -4l-2 -11l2 -8l12 -1v-12l17 3l-1 -13l5 -7l9 -1l7 -7l14 8l4 -12l8 -6l9 4l9 -6l11 15l7 -13l9 -3l7 17l11 -15l7 17l10 -10l9 -1l4 12l12 -4l1 18l13 -6l8 2l2 11l11 2l6 7l3 9l9 8l-10 15
l17 2l-12 15l15 3l5 2l-8 10l10 8l-3 9l5 9v9l-2 9l4 3l-9 8l7 10l-11 8l9 10l-6 8l-1 9v12l-12 5l4 11l-18 2l7 13l-2 8l-10 3l-2 10l-16 -3v13l-5 7l-16 -12v20l-11 -2l-7 6l-8 6l-10 -8l-8 10h-9l-9 -2l-9 3l-8 -6l-10 4l-8 -10l-9 3l-9 1l-6 -8h-10l-5 -10l-9 -2l-8 -2
l6 -18l-19 5l-1 -11l-8 -5l-9 -8l-2 -9l-5 -8l13 -15l-16 -3l-5 -2l17 -11l-19 -7l13 -10l-15 -8l9 -10zM329 -20l-9 5l-9 -2l-9 3l-9 -6l-9 3l-6 6l-10 -6l-7 10l-11 -5l-8 4l-4 6h-9l-8 6l-10 -2l-8 4l-2 6l-12 -4l-3 13l-9 3l-9 2l-1 6l-11 -1l-3 12l-17 -9v16l1 5h-13
l1 13l-16 -2v12l2 5l-9 5l-2 10l-8 5l-7 6l3 4l-8 6l-1 10l-9 6l-3 8l3 6l-14 5l7 12l-9 6l-1 9l4 5l-20 5l16 12l-12 7l4 10l4 5l-5 9l4 9l-15 8l9 10l5 5l-14 10l15 8l-7 9l4 9l5 3l-14 12l18 5l-12 12l11 7l6 3l-12 14l18 3l-8 12l10 6h5l-10 16h19l-6 13l10 5h6l-4 14
h15v11l7 6l5 -1l6 7l7 6l-3 15l12 1l6 -1l1 13l13 -2v15l12 -1l6 -2l5 9h11v18l13 -5l7 -2l3 17l14 -11l6 8l9 2l8 -3l8 6l9 -2l6 15l11 -7l9 -4l8 14l10 -13l9 6h9l9 -5l10 16l8 -17l9 4l9 -1l6 -6l10 4l7 -8l11 9l8 -8l4 -6l10 1l7 -7l10 2l8 -4l2 -6l14 7l1 -16l13 4
l5 -9v-6l15 4v-15l11 -1l6 -6l-1 -5l9 -4l3 -9l10 -4l6 -6l-2 -5h16l-5 -15l20 4l-5 -15l-3 -4l16 -2l-7 -14l17 -1l-5 -13l-3 -6l10 -6l-3 -11l9 -6l1 -9l-4 -5l2 -8l2 -9l3 -9l5 -8l-4 -5l17 -8l-16 -10l14 -8l-8 -10l-5 -5l14 -10l-15 -8l6 -9l-3 -9l-5 -3l6 -10l-10 -7
l5 -11l-4 -8l-6 -3l11 -13l-17 -4l-1 -9l-1 -9h-5l7 -14l-16 -2l-4 -8v-10h-6l5 -14h-16l-3 -8l-4 -9l-5 1l-3 -10l-10 -3l6 -18l-15 2l-6 1l-7 -5l-7 -6l-1 -13l-11 -1l-6 2l-5 -10l-11 1l-1 -16l-12 3l-7 2l-3 -18l-14 12l-2 -19l-13 9l-8 3l-5 -16l-12 12l-8 -7l-9 -1
l-9 4l-9 -7l-9 6l-9 -8z" />
    <glyph glyph-name="p" unicode="p" horiz-adv-x="675" 
d="M81 522l16 -4l9 6l9 -2l15 -4l9 8l9 -4l16 -4l9 1l9 3l16 -4l9 4h9l-4 -2l13 -9l-13 -9l3 -9l1 -9l-4 -1l2 -9l-2 -9l8 -9l-4 -9l13 12l-1 11l12 4l-5 14l11 3l12 4l1 13l13 -2l6 8l6 6h13l2 19l15 -13l5 12l10 -1l2 -4l7 13l11 -12l7 14l10 -12l8 18l10 -12l12 -5l10 13
l8 -15l9 7l9 -4l6 -6l10 4l7 -8l12 10l7 -10l3 -6l14 8l3 -16l11 4l7 -7v-6l15 5v-15l15 6l2 -13l-1 -6l14 1l-1 -13l18 5l-2 -15l-2 -6h15l-5 -15l13 -2l1 -10l-2 -6l11 -5l-4 -12l10 -5l2 -9l-3 -7l13 -5l-7 -12l10 -6l-1 -10l-3 -8l13 -7l-10 -11l12 -7l-4 -10l-4 -10v-9
l1 -9l9 -9l-4 -9l-5 -15v-9l-1 -9l7 -9l-4 -9l-7 -11l12 -12l-16 -5l11 -12l-10 -7l-7 -6l14 -14l-20 -3l-2 -8v-10l-7 -3l8 -15l-16 -1l-2 -9l-3 -9h-6l9 -18l-20 4l8 -17h-15l-5 1l-3 -10l-11 -2l3 -16l-13 1l-5 2l1 -18l-16 8l-4 -11l-9 -2l-5 3l-7 -6l-9 -1l-6 -10
l-9 -1l-4 4l-5 -18l-13 14l-6 -12l-10 3l-5 4l-9 -9l-9 8l-9 -11l-9 5l-1 5l-10 -12l-8 14l-9 -1l-9 3l-10 -15l-8 12l-11 8l-11 -5l-6 11l-11 -4l-7 6l-6 10l-9 3l-6 7l-15 -5l-2 12l-4 12l-13 1l2 13l-19 -3l5 15l-4 -13l18 -8l-17 -10l7 -9l-6 -9l17 -8l-12 -10l-5 -15
l9 -9l-4 -9l-5 -16l18 -9l-13 -9l-5 -15l16 -9l-11 -9l-5 -15l3 -9l2 -9l-5 -16l8 -9l-3 -9l-5 -15l1 -9l4 -9l-5 -15l4 -9l1 -9l-5 -16l12 -9l-7 -9l-5 -15l2 -9l3 -9l-17 4l-9 -3l-9 -1l-16 4l-9 -12l-9 8l-16 4l-9 -1l-9 -3l-17 4l-9 -11l-9 7l5 16l-5 9v9l5 16l-13 9
l8 9l5 17l-3 9l-2 9l5 16l-7 9l2 9l5 16l-14 9l9 9l5 17l-17 9l12 9l5 16l-10 9l5 9l5 16l-1 9l-4 9l5 16l-4 9l-1 9l5 16l-18 9l13 9l5 17l-12 9l7 9l5 16l-10 9l5 9l5 16l-13 9l8 9l5 17l-2 9l-3 9l5 16l-8 9l3 9l5 16l-18 9l13 9l5 16l-6 9l1 9l5 16l-6 9l1 9l5 17l-8 9
l3 9l5 16l-17 9l12 9l5 16l-2 9l-3 9l5 17l-7 9l2 9l5 16l-10 9l5 9l5 16l-3 9zM485 261l4 4l-17 7l15 11l-10 8l8 10l-10 8l4 9v13l-15 4l9 13l-4 8l-6 7l-1 8h-14l3 14l-6 7l-9 4l-3 7l-13 -6l-3 14h-10l-8 4l-9 6l-10 -5l-8 8l-9 -2h-9l-2 4l-7 -17l-11 15l-8 -9l-9 3
l-18 -2l-7 -5l-8 -5l-17 -7l-4 -10l-7 -5l-6 -1l-4 -8l-6 -7l-3 -8l-3 -9l-8 -10l6 -11l-10 -6l-2 -9l1 -10l-5 -5l7 -9l-8 -9l14 -10l-16 -8l12 -10l-9 -8l-3 -10l16 -7l-14 -11l8 -8l-2 -9l-2 -7l17 -3l-10 -14l6 -8l5 -7v-6l10 -3l2 -11l10 -2l5 -8l2 -6l11 1l5 -10l15 9
l3 -13l10 -6l10 8l8 -11l11 16l7 -14l3 -4l8 11l10 -9l7 10l10 -4l18 1l8 5l8 5l16 6l-2 18l14 -4l14 12l3 9l4 8l6 4l-6 12l12 5v10l1 9l6 15l-7 9l9 9l-2 9z" />
    <glyph glyph-name="q" unicode="q" horiz-adv-x="675" 
d="M594 522l-4 -16l6 -9l-2 -9l-4 -16l8 -9l-4 -9l-4 -17l1 -9l3 -9l-4 -16l4 -9v-9l-4 -16l13 -9l-9 -9l-4 -17l3 -9l1 -9l-4 -16l2 -9l2 -9l-4 -16l8 -9l-4 -9l-4 -16l7 -9l-3 -9l-4 -16l12 -9l-8 -9l-4 -17l10 -9l-6 -9l-4 -16l3 -9l1 -9l-4 -16l17 -9l-13 -9l-4 -17
l8 -9l-4 -9l-4 -16l12 -9l-8 -9l-4 -16l12 -9l-8 -9l-4 -16l17 -9l-13 -9l-4 -16l14 -9l-10 -9l-4 -17l7 -9l-3 -9l-4 -16l6 -9l-2 -9l-4 -16l12 -9l-8 -9l-4 -17l13 -9l-9 -9l-4 -16l7 -9l-3 -9l-4 -16l12 -9l-8 -9l-16 4l-9 -13l-9 9l-17 4l-9 -10l-9 6l-17 4l-9 -16
l-9 12l-16 4l-9 -12l-9 8l4 15l-9 9l5 9l4 16l-8 9l4 9l4 15l-6 9l2 9l4 15l-10 9l6 9l4 16l-8 9l4 9l4 15l-11 9l7 9l4 15l-9 9l5 9l4 16v9l-4 9l4 15l-8 9l4 9l5 13v9l1 9l-8 9l9 9l-14 9l10 9l-11 -7l5 -15l-16 1l9 -18l-16 1l-11 -2l-7 -6l-8 -5l1 -17l-13 3h-13l-8 -6
h-9l-3 -19l-13 9l-2 4l-7 -17l-11 15l-8 -6l-10 4l-7 -14l-10 8l-5 5l-10 -15l-8 16l-9 -7l-9 4l-2 5h-9l-8 4l-11 -5l-8 5l-1 5l-15 -11l-2 18l-12 -5l-6 8v5l-13 -2l-2 12l-13 -3l-5 9l1 5l-15 -3l1 15l-7 6l-9 3l2 5l-18 -2l7 17l-13 1l-2 10l1 7l-11 5l3 11l-7 7l-6 7
l2 9l-16 4l9 13l-13 4l3 11l2 13l-19 5l15 12l-19 5l11 12l4 15l-7 9l6 9l-18 8l12 10l5 10l-8 9l9 9l-17 10l13 8l6 7l-14 12l17 5l-1 10v9l6 4l-4 11l9 6l2 9l-1 10l6 2l1 10l7 7l-7 13l10 5l6 1l4 8l6 7l2 9l5 8l5 -1l-3 15l16 -2l5 8l4 8l5 -2l1 15l14 -4l5 9l7 5l7 -2
l3 15l13 -7l8 5l7 6l8 -3l7 8l11 -4l5 16l11 -7l12 -3l8 17l10 -16l9 10l9 -4l1 -5h9l9 -1l9 2l9 -4l10 17l8 -14l10 -8l12 7l5 -14l11 6l7 -8l7 -11l15 5l-1 -16l8 -4l9 -3l6 -17l12 -3l-2 -12l19 3l-5 -15l5 1l-6 9l6 9l-6 9l1 9l5 2l-8 9l8 9l-17 9l12 9l16 -4l9 1l9 3
l15 -4l9 6l9 -2l16 -4l9 9l9 -5l16 -4l9 2zM190 261l-3 -16l5 -8l-3 -10l16 -7l-10 -10l-2 -7l11 -6l-6 -11l12 -6l-2 -10l-3 -3l16 1l-5 -15l6 -7l8 -5l10 -13l14 4l3 -11l15 -10l9 -2l10 1l2 -5l10 10l8 -12l9 3h9l11 -3l8 8l10 -5l8 4l9 3l6 -2l1 19l15 -10l4 11l10 1h6
l4 9l8 5l3 10l6 6l6 4l3 9l4 8l2 9l1 9l5 9l-7 10l9 8l1 9l-3 9l4 6l-8 8l7 10l-17 7l15 10l-14 8l8 10l1 13l-18 4l13 13l-10 6l1 10l2 6l-17 -1l7 16l-7 6l-7 6l-11 14l-11 1l-6 7l-15 10l-10 -2l-8 4l-1 5l-9 -6l-9 8l-10 -14l-8 11l-10 3l-8 -10l-10 7l-6 -18l-11 11
l-7 1l-3 -13l-13 5l-4 -13l-10 1l-8 -2l-4 -8l-7 -6l6 -17h-14l-8 -10v-9l-6 -8l6 -11l-8 -7l-5 -3l2 -9l-4 -9l8 -10l-10 -8l2 -9z" />
    <glyph glyph-name="r" unicode="r" horiz-adv-x="414" 
d="M219 0l-17 4l-9 -12l-9 8l-16 4l-9 -3l-9 -1l-16 4l-9 -14l-9 10l-17 4l-9 -6l-9 2l5 17l-1 9l-4 9l5 17l-12 9l7 9l5 16l-14 9l9 9l5 17l-18 9l13 9l5 17l-8 9l3 9l5 17l-10 9l5 9l5 17l-14 9l9 9l5 16l-18 9l13 9l5 17l-16 9l11 9l5 17l-10 9l5 9l5 17l-4 9l-1 9l5 17
l-10 9l5 9l5 16l-13 9l8 9l5 17l-10 9l5 9l5 17l-5 9v9l16 -4l9 3l9 1l15 -4l9 6l9 -2l16 -4h9l9 4l16 -4l9 9l9 -5l-4 -16l8 -9l-4 -9l-4 -17v-9l4 -9l5 -1l-5 15h15l1 10l9 5l2 10l4 8l14 5l1 14l13 -3l3 11l9 3l10 -2l6 11l11 -7l7 13l10 -5v-5l13 13l5 -17l8 -2l9 -3
l12 12l5 -16l10 2l9 -2l-4 -5l3 -9l-3 -9l9 -9l-5 -9l-4 -4l14 -9l-14 -9l1 -9l3 -9l-4 -5l10 -9l-10 -9l17 -9l-13 -9l-1 5l-12 -14l-5 18l-10 -1l-8 5l-12 -13l-5 17l-11 -5l-8 5l-10 3l-7 -14l-10 7l-14 -2l-7 -8l-8 -3l-4 2l-2 -11l-11 -1l3 -16h-13l-9 -8l12 -16
l-19 -1l-3 -9l-1 -9l-6 -10l2 -9l-4 -9l2 -9l-4 -9l10 -10l-8 -8l-5 -15l15 -9l-10 -9l-5 -16l7 -9l-2 -9l-5 -15l12 -9l-7 -9l-5 -15l4 -9l1 -9l-5 -16l1 -9l4 -9l-5 -15l8 -9l-3 -9l-5 -16l9 -9l-4 -9l-5 -15l5 -9v-9z" />
    <glyph glyph-name="s" unicode="s" horiz-adv-x="502" 
d="M440 371l-15 5l-9 -4l-9 -1l-15 5l-9 -14l-9 9l-16 5l-9 -11l-9 6l-15 5l-9 -9l-9 4l1 14l-17 5l12 13l-6 7l-3 9l-4 6l-10 -4l-7 9l-11 -5l-8 5l-10 2l-6 -15l-12 11l-6 -11l-10 2l-11 -15l-3 -8v-10l1 -14l13 -4l-2 -11l4 -7l8 -3l8 -5l12 4l4 -12l12 4l6 -8l8 -8
l15 14l3 -19l13 11l5 -13l7 -8l11 5l6 -11l14 12l4 -15l3 -7l15 8l1 -17l9 -3l9 -2v-6l18 8l-3 -19l8 -4l9 -3l-2 -5l9 -4l3 -9l17 2l-2 -13l-4 -3l19 -2l-11 -14l7 -7l4 -8l-4 -7l11 -8l-8 -10l11 -7l-4 -10l-5 -2l5 -9l-7 -9l7 -9l-4 -9l-5 1l14 -15l-19 -3l2 -10l-4 -8
l-4 2l1 -12l-11 -3l-1 -11l-5 -7l-5 2v-13l-13 1l5 -19l-15 3l-7 1l-7 -7l-9 -1l-3 -14l-11 1l-14 1l-7 -7l-10 2l-8 -4l-8 -5l-3 4l-7 -13l-11 12l-8 -11l-9 9l-8 -14l-10 8l-12 5l-9 -5l-9 6l-9 -14l-9 10l-7 6l-10 -7l-7 10l-11 -9l-8 8l-2 5l-13 -11l-4 17l-12 -9l-6 11
l1 4l-15 -7v17l-14 -6l-4 11l3 4l-9 4l-4 8l-16 -3v13l4 3l-10 5l1 11l-5 7l-8 6l3 7l-14 5l8 12l-15 5l6 11l3 12l-18 8l17 10l-8 9l2 9l16 -4l9 9l9 -5l15 -4l9 13l9 -9l16 -4l9 17l9 -13l16 -4l9 15l9 -11l-3 -6l11 -6l-8 -11l5 -8l3 -9l9 -15h13l3 -10l12 -7l11 11
l6 -14l11 7l8 -6l2 -4l7 6l10 -1l8 6l9 -1l7 10h9l8 7l3 9l4 8l-5 12l8 6l1 14l-11 6l2 10l-12 14l-7 5l-10 2v5l-12 -9l-5 15l-10 -1l-7 7h-9l-9 2l-8 8l-12 -7l-5 13l-11 -4l-6 10l-11 -6l-7 8l-11 11l-13 -7l-3 15l-15 -10l-3 14l-1 6l-7 5l-7 6l-16 -6l-1 13l-6 17l-9 5
l-5 7l-2 18l-6 7l-4 8l4 4l-10 9l9 9l-16 8l10 10l6 9v9l3 8l-9 11l8 8l7 4l-10 16l20 -1l-10 16l15 2l10 2l4 8l9 4l-3 17l14 -2l11 1l4 11l12 -3l2 16l12 -4l11 -2l8 8l10 -3l7 8l9 1l12 -4l7 15l10 -13l8 18l10 -12l15 -6l9 1l9 2l15 -9h10l9 -1v-5h9l7 -7l13 6l5 -10
l-1 -5l16 6l-1 -17h11l6 -7l-2 -5h15l-4 -15l9 -4l6 -7l-2 -8l5 -8l3 -8l10 -6l1 -9l-3 -13l10 -8l-8 -10l6 -8z" />
    <glyph glyph-name="t" unicode="t" horiz-adv-x="309" 
d="M85 0l5 16l-14 9l9 9l5 15l-13 9l8 9l5 15l-4 9l-1 9l5 16l-15 9l10 9l5 16l-7 9l2 9l5 15l-1 9l-4 9l5 15l-12 9l7 9l5 16l-14 9l9 9l5 16l-18 9l13 9l5 15l-8 9l3 9l5 15l-10 9l5 9l5 16l-14 9l9 9l-15 4l-9 -17l-9 13l-16 4l-9 -15l-9 11l4 4l-9 9l9 9l-3 9l-1 9l4 4
l-9 9l9 9l-12 9l8 9l4 4l-9 9l9 9l-4 9v9l16 -4l9 3l9 1l15 -4l9 6l9 -2l5 16l-1 9l-4 9l5 15l-10 9l5 9l5 16l-9 9l4 9l5 15l-1 9l-4 9l5 16l-13 9l8 9l16 -4l9 4h9l17 -4l9 3l9 1l16 -4l9 10l9 -6l16 -4l9 7l9 -3l-4 -16l9 -9l-5 -9l-4 -15l12 -9l-8 -9l-4 -16l15 -9
l-11 -9l-4 -15v-9l4 -9l-4 -16l14 -9l-10 -9l15 -4l9 4h9l15 -4l9 3l9 1l15 -4l9 9l9 -5l-5 -4l15 -9l-15 -9l2 -9l3 -9l-5 -4l11 -9l-11 -9l18 -9l-13 -9l-5 -4l17 -9l-17 -9l4 -9l1 -9l-15 4l-9 -15l-9 11l-15 4l-9 -7l-9 3l-15 4l-9 -13l-9 9l-4 -16l5 -9l-1 -9l-4 -15
l6 -9l-2 -9l-4 -15l13 -9l-9 -9l-4 -16l17 -9l-13 -9l-4 -16l1 -9l3 -9l-4 -15l3 -9l1 -9l-4 -15l3 -9l1 -9l-4 -16l11 -9l-7 -9l-4 -16l14 -9l-10 -9l-4 -15l6 -9l-2 -9l-4 -15l11 -9l-7 -9l-4 -16l3 -9l1 -9l-16 4h-9l-9 -4l-16 4l-9 -7l-9 3l-17 4l-9 -8l-9 4l-16 4
l-9 -4h-9z" />
    <glyph glyph-name="u" unicode="u" horiz-adv-x="618" 
d="M402 522l16 -4l9 4h9l16 -4l9 2l9 2l17 -4l9 9l9 -5l16 -4l9 3l9 1l-5 -17l18 -9l-13 -9l-5 -16l9 -9l-4 -9l-5 -17l14 -9l-9 -9l-5 -17l11 -9l-6 -9l-5 -16l17 -9l-12 -9l-5 -17l9 -9l-4 -9l-5 -17l11 -9l-6 -9l-5 -16l7 -9l-2 -9l-5 -17l6 -9l-1 -9l-5 -3l7 -9l-8 -9
l9 -9l-6 -9l-5 -2l13 -12l-17 -5l3 -10l-2 -9l-5 -1l3 -11l-10 -6l1 -10l-3 -8l-5 1l8 -16l-17 1l8 -16l-14 -2l-5 1l2 -13h-14l4 -15l-12 -2l-5 2l-3 -11h-11l1 -16l-13 2l-7 2l-2 -16l-14 8l-8 -4l-6 -8l-9 2l-6 -14l-12 10l-5 -15l-11 6l-13 3l-9 -6l-9 5l-9 -8l-9 2
l-13 6l-9 -2l-9 3l-9 -9l-9 6l-7 6l-12 -8l-5 13l-12 -8l-7 8l-3 6l-10 -1l-6 9l-13 -7l-5 11l1 5l-13 -1l-2 12l-8 4l-9 3l2 5l-14 -1l2 14l-18 -4l3 15l3 4l-6 7l-4 8l-8 6l-5 7l3 4l-14 4l8 13l-7 7l-4 8l4 4l-19 5l15 12l-15 6l7 11l4 3l-5 9l4 9l-13 8l7 10l5 17l-5 9
v9l5 16l-5 9v9l5 17l-8 9l3 9l5 17l-5 9v9l5 16l-13 9l8 9l5 17l-17 9l12 9l5 17l-16 9l11 9l5 16l-15 9l10 9l5 17l-10 9l5 9l16 -4l9 6l9 -2l17 -4l9 3l9 1l16 -4l9 11l9 -7l16 -4h9l9 4l-4 -17l15 -9l-11 -9l-4 -16l11 -9l-7 -9l-4 -17l14 -9l-10 -9l-4 -16l9 -9l-5 -9
l-4 -17l7 -9l-3 -9l-4 -16l1 -9l3 -9l-4 -17l12 -9l-8 -9l-4 -16l17 -9l-13 -9l-4 -17l1 -9l3 -9l-3 -16l5 -8l-3 -10l13 -7l-6 -10l-3 -3l15 -2l-7 -14l15 -3l-3 -11l11 -13h11l7 -6l5 -5l9 -1l9 -1l10 7l8 -5l7 -4l7 14l11 -12l8 7h9l16 5l8 6l5 8l4 -1l-12 15l20 1l-8 14
l12 4l6 15l-16 11l18 7l-2 9v9l4 17l-5 9l1 9l4 16l-13 9l9 9l4 17l-13 9l9 9l4 16l-12 9l8 9l4 17l-1 9l-3 9l4 16l-2 9l-2 9l4 17l-13 9l9 9l4 16l-4 9v9l4 17l-14 9z" />
    <glyph glyph-name="v" unicode="v" horiz-adv-x="522" 
d="M261 -27l-3 16l-16 2l4 12l-3 17l-16 2l4 12l-3 16l-4 8l-8 6l-3 17l-15 2l3 12l-3 16l-16 2l4 12l-3 17l-9 5l-3 9l-3 16l-10 5l-2 9l-3 17l-6 7l-6 7l-3 16l-12 4v10l-3 17l-14 3l2 11l-3 16l-13 3l1 11l-3 17l-9 5l-3 9l-3 16l-15 2l3 12l-3 17l-12 4v10l-3 16l-6 7
l-6 7l-3 17l-14 3l2 11l-3 16l-19 1l7 13l-3 17l-5 7l-7 7v-4l9 3l9 -3l9 11l9 -7v-4l9 3l9 -3l9 17l9 -13v-4l9 13l9 -13l9 4h9v-4l9 12l9 -12l9 4h9l2 -16l8 -7l4 -8l2 -16l11 -5l1 -10l2 -16l9 -7l3 -8l2 -16l16 -3l-4 -12l2 -16l19 -2l-7 -13l2 -16l19 -2l-7 -13l2 -16
l18 -3l-6 -12l2 -16l13 -5l-1 -10l2 -16l10 -6l2 -9l11 13l1 9l2 9l11 13l-7 13l10 5l11 13l3 8v10l11 13l-10 14l13 4l11 13l-7 12l10 6l11 13l-10 14l13 4l11 13l-5 12l8 6l11 13l-3 11l6 7l11 13l2 8l1 10v-4l9 12l9 -12l9 17l9 -13v-4l9 1l9 -1l9 3l9 1v-4l9 11l9 -11
l9 12l9 -8v-4l9 11l9 -11l9 5l9 -1l-11 -12l-3 -8l-1 -10l-11 -13l4 -12l-8 -6l-11 -12l8 -14l-12 -4l-11 -13l1 -11l-5 -7l-11 -12l-4 -8v-10l-11 -13l12 -16l-16 -2l-11 -12l8 -14l-12 -4l-11 -13l11 -15l-15 -3l-11 -12l-1 -9l-3 -9l-11 -13l1 -11l-5 -7l-11 -12l8 -14
l-12 -4l-11 -13l8 -14l-12 -4l-11 -12l7 -13l-11 -5l-11 -13l-3 -9l-1 -9l-11 -12l-2 -9l-2 -9l-11 -13l8 -14l-12 -4l-11 -12v-10l-4 -8l-11 -13l9 -14z" />
    <glyph glyph-name="w" unicode="w" horiz-adv-x="786" 
d="M242 250l4 -2l-2 12l11 4l-6 13l10 5l5 -1l-9 14l17 2l-9 14l13 4l12 14l-3 11l7 7l5 -1l-6 13l14 3l1 9l3 9l4 -2l-4 13l13 3l-9 15l13 3l5 -1l3 8l5 8l3 9l1 9l12 14v10l4 8l5 -1l-7 14l15 2v10l4 8l4 -2l1 10l8 6l-4 12l8 6l-4 -2l4 -8l5 -8l16 -2l-4 -12l-3 -3h19
l-11 -16l4 -8l8 -6l4 -18l13 -4l-1 -10l-3 -3l12 -4l-4 -12l10 -5l2 -9l-4 -2l12 -4l-3 -12l16 -2l-4 -12l-3 -3l8 -6v-10l6 -7l6 -7l4 -18l18 -1l-6 -13l-3 -3l13 -3l-5 -13h19l-7 -14l-4 -2h19l-10 -16l16 -2l-4 -12l4 -1v10l7 7l-2 10l4 8l4 -1v9l7 8l-1 9l3 9l4 -1l1 9
l6 8l-3 10l5 8l4 -1l-6 12l13 5l-10 13l12 5l4 -1l-8 13l15 4l-5 11l7 7l4 -1v10l7 7v9l2 9l4 -1v10l7 7l1 9l1 9l4 -1l-5 12l12 5v9l2 9v-4l9 17l9 -17l9 8l9 -4v-4l9 13l9 -13l9 10l9 -6v-4l9 16l9 -16l9 8l9 -4v-4l9 10l9 -10l9 6l9 -2l-10 -13l2 -10l-5 -8l-9 -12l3 -11
l-6 -7l-10 -13l6 -12l-9 -6l-10 -12l11 -14l-14 -4l-10 -13l2 -10l-4 -8l-10 -12l3 -11l-6 -7l-10 -13l1 -10l-4 -8l-9 -12l10 -14l-13 -4l-10 -13l10 -14l-13 -4l-10 -12l6 -12l-9 -6l-10 -13l9 -12l-11 -6l-10 -12l3 -11l-6 -7l-10 -13l9 -13l-12 -5l-9 -12l9 -13l-12 -5
l-10 -13l-4 -8l1 -10l-10 -12l8 -13l-11 -5l-10 -13l9 -13l-11 -5l-10 -12l2 -10l-5 -8l-3 15l-11 5l-2 9l-3 16l-6 7l-6 7l-3 15l-13 4v10l-3 16l-14 3l2 11l-3 15l-14 3l1 11l-3 16l-9 5l-3 9l-3 15l-16 2l3 12l-3 16l-11 4l-1 10l-3 15l-6 7l-7 7l-3 16l-14 3l2 11l-3 15
h-19l6 14l-11 -11l-3 -9l-2 -9l-11 -12l-1 -10l-3 -8l-11 -11l5 -13l-10 -5l-11 -12v-10l-4 -8l-11 -11l10 -16l-15 -2l-11 -12l9 -14l-13 -4l-11 -11l-1 -10l-4 -8l-11 -12l7 -13l-11 -5l-11 -11l-1 -10l-4 -8l-11 -12v-10l-4 -8l-11 -11l2 -12l-7 -6l-2 16l-8 7l-3 8
l-1 15l-15 4l4 11l-2 16l-18 2l7 13l-2 15l-18 2l7 13l-1 16l-17 3l6 12l-2 15l-12 5l1 10l-2 16l-10 6l-1 9l-1 15l-6 7l-5 8l-2 16l-14 4l3 11l-2 15l-4 8l-7 7l-1 16l-18 3l7 12l-2 15l-13 4l2 11l-2 16l-17 3l6 12l-1 15l-12 5l1 10l-2 16l-10 6l-1 9l-2 15l-4 8l-7 7
l-1 16l-16 4l5 11l-2 15l-20 2l9 13v-4l9 1l9 -1l9 3l9 1v-4l9 11l9 -11l9 12l9 -8v-4l9 11l9 -11l9 5l9 -1v-4h9h9l9 8l9 -4l-4 -2l15 -4l-9 -13l9 -6l2 -9l-4 -2l3 -8l3 -9l20 -2l-9 -13l-4 -2l15 -4l-9 -13l20 -2l-9 -13l-4 -2l6 -7v-10l9 -6l2 -9l-4 -2l15 -4l-9 -13
l17 -3l-6 -12l-4 -2l15 -4l-9 -13l5 -8l6 -7l-4 -2l6 -7v-10l17 -3l-6 -12l-4 -2l8 -7l-2 -10l17 -3z" />
    <glyph glyph-name="x" unicode="x" horiz-adv-x="552" 
d="M395 0l-6 16l-11 3l-3 9l-6 16l-14 1v11l-5 16l-19 -2l5 14l-6 16l-9 4l-5 8l-6 16l-7 6l-7 6l-6 16l-9 5l-5 7l-13 -11l3 -13l-10 -4l-13 -11l6 -15l-13 -2l-13 -11l1 -11l-7 -6l-13 -11l3 -13l-10 -4l-13 -11l8 -17h-15l-13 -11l5 -14l-12 -3l-3 4l-9 -14l-9 14l-9 -9
l-9 5l-4 4l-9 -9l-9 9l-9 -12l-9 8l-4 4l-9 -14l-9 14h-9l-9 -4l-3 4l-9 -10l-9 10l-9 -10l-9 6l13 10l-8 17h15l13 10l2 10l5 7l13 9l-8 17h15l13 10l-5 14l12 3l13 10l-4 14l11 3l12 10l4 8l3 9l13 10l-2 12l9 5l13 9l-3 13l10 4l13 10l-2 13l9 4l13 10l-4 14l11 3l-7 16
h-15l1 12l-7 16l-7 6l-7 6l-7 17l-13 2l-1 10l-7 16l-12 2l-2 10l-7 16l-6 7l-8 5l-7 16l-13 2l-1 10l-7 17l-17 -2l3 14l-7 16l-6 7l-8 5l-7 16l-6 6l-8 6l3 -4h9h9l9 9l9 -5l3 -4l9 7l9 -7h9l9 4l3 -4l9 1l9 -1l9 10l9 -6l3 -4l9 6l9 -6l9 11l9 -7l-3 -4l18 3l-7 -17l19 3
l-5 -15l-3 -4l19 3l-8 -17h14v-12l-2 -4l19 3l-9 -17l9 -5l6 -7l-3 -4l12 -2l-1 -12l9 -5l5 -7l-3 -4l7 -6l4 -8h15l-1 -12l4 -2l5 8l6 7l1 10l6 7l4 -2l4 9l7 6l-5 15l12 2l5 -1l1 10l10 4l-1 12l8 5l4 -2l-2 13l13 2l-3 13l10 4l4 -2l1 11l10 4l-4 14l11 3l3 -4l9 15
l9 -15l9 16l9 -12l3 -4l9 3l9 -3l9 8l9 -4l3 -4l9 5l9 -5l9 3l9 1l3 -4l9 3l9 -3l9 7l9 -3l-14 -11l2 -13l-9 -4l-14 -11l-3 -9l-4 -8l-14 -12l-3 -9l-4 -8l-14 -11l8 -17h-15l-14 -11l-4 -8l-3 -9l-14 -11l1 -12l-8 -5l-14 -12l-1 -10l-6 -7l-14 -11l-4 -8l-3 -9l-14 -11
l-2 -10l-5 -7l6 -15l19 3l-5 -15l6 -15l7 -6l7 -6l5 -14l18 2l-3 -14l6 -15h15l-1 -12l6 -15l7 -6l7 -6l5 -15l11 -3l3 -9l6 -15l6 -7l8 -5l5 -14l7 -7l8 -5l6 -15l18 2l-4 -14l6 -15l19 3l-5 -15l-3 4l-9 -4l-9 4l-9 -14l-9 10l-4 4l-9 -16l-9 16l-9 -5l-9 1l-4 4l-9 -1
l-9 1l-9 -14l-9 10l-3 4l-9 -3l-9 3l-9 -16z" />
    <glyph glyph-name="y" unicode="y" horiz-adv-x="583" 
d="M100 -300l10 13l-1 10l4 8l10 13l1 9l2 9l11 14l-1 10l4 8l10 13l-5 12l8 6l10 13l-9 13l12 5l10 13l-3 11l6 7l10 13l-6 12l9 6l11 14l-11 14l14 4l10 13l-8 13l11 5l10 13l-10 14l13 4l-3 17l-12 5l1 10l-3 18l-13 4l1 10l-3 17l-15 3l4 12l-3 18l-17 2l5 12l-2 16
l-5 8l-7 7l-3 18l-14 3l2 11l-3 17l-13 4l2 11l-3 18l-19 1l7 13l-3 17l-7 7l-4 8l-3 18l-19 1l7 13l-3 17l-14 4l3 11l-3 18l-15 3l3 11l-2 16l-6 8l-6 7l-3 18l-12 4v10l-3 17l-12 5l1 10l-3 18l-13 4l1 10l2 -4l9 11l9 -11l9 12l9 -8l1 -4l9 2l9 -2l9 9l9 -5l1 -4l9 9
l9 -9h9l9 4l2 -4l9 9l9 -9l9 15l9 -11l2 -16l5 -8l7 -7l2 -16l6 -8l6 -7l3 -17l3 -9l8 -6l2 -16l13 -5l-1 -10l2 -16l11 -5l1 -10l2 -16l3 -8l8 -7l2 -16l6 -8l6 -7l2 -16l14 -4l-2 -11l3 -17l9 -6l2 -9l2 -16l15 -4l-3 -11l2 -16l19 -2l-7 -13l10 13l-13 15l16 3l10 13
l-11 14l14 4l11 14l-7 13l10 5l10 13l-13 15l16 3l10 13v9l3 9l10 13l-4 11l7 7l10 13l-1 10l4 8l10 13l2 9l1 9l11 14l-8 13l11 5l10 13l3 8v10l10 13l-1 10l4 8v-4l9 1l9 -1l9 13l9 -9v-4l9 5l9 -5l9 7l9 -3v-4l9 9l9 -9l9 10l9 -6v-4l9 5l9 -5l9 11l9 -7l-10 -12l11 -14
l-14 -4l-10 -13l11 -14l-14 -4l-9 -12l-1 -9l-2 -9l-10 -13l4 -11l-7 -7l-10 -12l1 -10l-4 -8l-10 -13v-9l-3 -9l-10 -12v-9l-3 -9l-10 -13l4 -11l-7 -7l-9 -12l5 -11l-8 -7l-10 -12l-1 -9l-2 -9l-10 -13l-1 -9l-2 -9l-10 -12l12 -15l-15 -3l-10 -13l-2 -9l-1 -9l-9 -12
l4 -11l-7 -7l-10 -13l1 -10l-4 -8l-10 -12l-3 -8v-10l-10 -13v-10l-3 -8l-10 -12l12 -15l-15 -3l-9 -12l-1 -9l-2 -9l-10 -13l10 -14l-13 -4l-10 -12l8 -13l-11 -5l-10 -13l-2 -9l-1 -9l-10 -12l3 -11l-6 -7l-10 -13l-2 -9l-1 -9l-9 -12l-2 -9l-1 -9l-10 -13l12 -14l-15 -4
l-10 -12l13 -15l-16 -3v4l-9 -4l-9 4l-9 -14l-9 10l-1 4l-9 -16l-9 16l-9 -5l-9 1l-1 4l-9 -1l-9 1l-9 -14l-9 10v4l-9 -3l-9 3l-9 -16z" />
    <glyph glyph-name="z" unicode="z" horiz-adv-x="502" 
d="M30 522l15 -4l9 14l9 -10l15 -4l9 3l9 1l15 -4l9 3l9 1l15 -4l9 13l9 -9l15 -4l9 17l9 -13l15 -4l9 15l9 -11l15 -4l9 4h9l15 -4l9 3l9 1l15 -4h9l9 4l15 -4l9 17l9 -13l15 -4l9 5l9 -1l15 -4l9 2l9 2l15 -4l9 2l9 2l15 -4l9 4h9l-12 -11l2 -13l-8 -5l-13 -11l8 -16
l-14 -1l-12 -11l7 -15l-13 -3l-13 -11l-4 -8l-2 -10l-12 -11l2 -13l-8 -5l-13 -11l4 -13l-10 -4l-12 -11l4 -14l-10 -4l-13 -11l7 -16l-13 -2l-12 -10l5 -14l-11 -4l-13 -11l6 -15l-12 -3l-12 -11l1 -12l-7 -6l-13 -11l8 -17l-14 -1l-12 -10l-1 -11l-5 -7l-13 -11l-2 -10
l-4 -8l16 -4l9 6l9 -2l17 -4l9 11l9 -7l16 -4l9 1l9 3l16 -4l9 14l9 -10l16 -4l9 1l9 3l17 -4l9 7l9 -3l16 -4l9 4h9l-5 -4l16 -9l-16 -9l14 -9l-9 -9l-5 -4l16 -9l-16 -9l4 -9l1 -9l-5 -4l9 -9l-9 -9l12 -9l-7 -9l-16 4l-9 -15l-9 11l-16 4h-9l-9 -4l-16 4l-9 -5l-9 1
l-16 4l-9 -2l-9 -2l-16 4l-9 -17l-9 13l-16 4l-9 -8l-9 4l-16 4l-9 -14l-9 10l-16 4l-9 -7l-9 3l-16 4l-9 -12l-9 8l-16 4l-9 -10l-9 6l-16 4l-9 -14l-9 10l-16 4l-9 -8l-9 4l-16 4l-9 -2l-9 -2l-16 4l-9 -11l-9 7l13 11l-5 14l11 4l12 10l5 8l1 10l13 11l5 8l1 10l13 11
l-9 17l15 1l13 11l-4 14l10 4l12 10l-1 12l7 6l13 11v11l6 7l13 11v11l6 7l12 10l-9 17l15 1l13 11l-6 15l12 3l13 11l3 9l3 9l13 11l3 9l3 9l12 10l-3 13l9 5l13 11l-5 15l11 3l-2 4l-9 -9l-9 9l-9 -16l-9 12l-2 4l-9 -4l-9 4l-9 -12l-9 8l-3 4l-9 -6l-9 6l-9 -7l-9 3l-2 4
l-9 -13l-9 13l-9 -15l-9 11l-2 4l-9 -15l-9 15l-9 -12l-9 8l-2 4l-9 -3l-9 3l-9 -3l-9 -1l4 4l-17 9l17 9l-3 9l-1 9l4 4l-3 9l3 9l-3 9l-1 9l4 4l-17 9l17 9l-8 9z" />
    <glyph glyph-name="braceleft" unicode="{" horiz-adv-x="500" 
d="M444 -130l-4 -4l1 -9l-1 -9l11 -9l-7 -9l-4 -4l13 -9l-13 -9v-9l4 -9l-4 -4l3 -9l-3 -9l1 -9l3 -9l-10 4l-9 -14l-9 14l-9 -14l-9 14l-9 -3l-9 -1l-1 5l-9 -9l-9 10l-9 -8l-9 9h-9l-9 -3l-8 7l-11 -9l-6 13h-10h-9l-1 6l-13 -7l-3 15l-16 -11l-2 15l-10 15l-9 3l-7 6l4 3
l-20 -2l10 17l-7 6l-6 7l3 4l-3 9l-2 8l-16 5l6 11l3 8l-13 7l10 11l-13 7l6 10l4 12l-12 9l11 9v9l-5 9l4 1l-2 9l2 9l-15 9l11 9l4 1l-2 9l2 9l-11 9l7 9h4l-12 9l12 9l-4 9v9l4 1l-9 9l9 9l-14 9l10 9l4 1l-6 9l6 9l-17 9l13 9l1 18l-9 8l6 10l-9 8l2 9l1 6h-14l3 14h-14
l-1 11l-2 5l-12 -11l-5 15l-11 -5l-8 5l-12 5l-9 -7l-9 7l-9 -2l-9 -3l4 3l-1 9l1 9l-5 9l1 9l4 2l-3 9l3 9l-9 9l5 9l4 3l-9 9l9 9v9l-4 9l14 -5l9 2l9 -2l9 1l9 4l3 -4l8 7l10 -2l5 17l11 -8l5 -1l4 9l7 5l-1 13l9 4l7 17l-11 11l14 7l-5 10l4 8l4 1l-11 9l11 9v9l-4 9
l4 1l-1 9l1 9v9l-4 9h4l-14 9l14 9l-3 9l-1 9l4 1l-3 9l3 9l-13 9l9 9l4 1l-17 9l17 9l-15 9l11 9l5 12l-4 9l5 9l-3 9l-1 9l6 7l1 9l2 9l-17 11l15 7l5 1l-3 11l9 6v10l1 9l4 -2l3 9l6 6l1 10l5 8l3 -3l1 12h12l-4 17l14 -1l5 -3l2 17l14 -9l8 4l6 8l10 -2l7 11l11 -7l6 12
l10 -3l1 -4l9 11l9 -10l8 14l10 -13l9 13l9 -7l10 -4l9 12l9 -12l9 7l9 -7l9 15l9 -11l-4 -4l4 -9l-4 -9l3 -9l1 -9l-4 -4l6 -9l-6 -9l11 -9l-7 -9l-4 -4l1 -9l-1 -9l14 -9l-10 -9l-6 4l-9 -1l-9 1l-9 -7l-9 7l-9 -4h-9l-2 4l-7 -16l-11 14l-7 -15l-10 8l-10 -7l8 -16
l-15 -1l-5 -2l3 -9l-4 -9l8 -9l-9 -9l11 -10l-8 -8l-4 -1l15 -9l-15 -9v-9l4 -9h-4l5 -9l-5 -9l2 -9l2 -9l-4 -1l17 -9l-17 -9l8 -9l-4 -9h-4l14 -9l-14 -9l7 -9l-3 -9l-4 -1l12 -9l-12 -9l10 -9l-6 -9l-6 -12l14 -10l-16 -8l8 -10l-10 -8l2 -9l1 -9l-9 -11l7 -12l-14 -5
l8 -12l-10 -6l-7 -1l-6 -6l-6 -7l-6 -6l-3 -10l-6 2l1 -19l-16 9l-2 -14l-11 1l1 -6l11 2l4 -11l11 1l7 -6v-7l11 -2l1 -11l19 5l-3 -15l1 -14l15 -4l-9 -13l6 -7l5 -8l-3 -13l2 -9v-9l11 -8l-9 -10l13 -7l-7 -10l-4 -1l9 -9l-9 -9l16 -9l-12 -9l-4 -1l4 -9l-4 -9l12 -9
l-8 -9h-4l6 -9l-6 -9l7 -9l-3 -9l-4 -1l13 -9l-13 -9l15 -9l-11 -9l-4 -1l15 -9l-15 -9l12 -9l-8 -9l-4 -1l3 -9l-2 -9l4 -9l-3 -9l18 -8l-12 -10l3 -13l8 -5l6 -7l17 -7l9 2h9l8 -4l9 3l9 -3l9 17l9 -17l9 8z" />
    <glyph glyph-name="bar" unicode="|" horiz-adv-x="500" 
d="M186 774l7 -4l9 9l9 -9l9 2l9 2l6 -4l9 2l9 -2l9 1l9 3l7 -4l9 8l9 -8l9 16l9 -12l-4 -16l10 -9l-6 -9l-4 -15l5 -9l-1 -9l-4 -16l5 -9l-1 -9l-4 -15l13 -9l-9 -9l-4 -16l3 -9l1 -9l-4 -16l1 -9l3 -9l-4 -15l2 -9l2 -9l-4 -16l8 -9l-4 -9l-4 -15l7 -9l-3 -9l-4 -16l16 -9
l-12 -9l-4 -16l15 -9l-11 -9l-4 -15l6 -9l-2 -9l-4 -16l12 -9l-8 -9l-4 -15l8 -9l-4 -9l-4 -16l16 -9l-12 -9l-4 -16l1 -9l3 -9l-4 -15l16 -9l-12 -9l-4 -16l15 -9l-11 -9l-4 -15l9 -9l-5 -9l-4 -16l12 -9l-8 -9l-4 -16l16 -9l-12 -9l-4 -15l14 -9l-10 -9l-4 -16l8 -9l-4 -9
l-4 -15l1 -9l3 -9l-4 -16l8 -9l-4 -9l-4 -16l11 -9l-7 -9l-4 -15l6 -9l-2 -9l-4 -16l2 -9l2 -9l-4 -15l5 -9l-1 -9l-4 -16l1 -9l3 -9l-7 4l-9 -1l-9 1l-9 -7l-9 3l-6 4l-9 -8l-9 8l-9 -17l-9 13l-7 4l-9 -3l-9 3l-9 -6l-9 2l4 16l-16 9l12 9l4 15l-5 9l1 9l4 16l-1 9l-3 9
l4 15l-14 9l10 9l4 16l-13 9l9 9l4 16l-8 9l4 9l4 15l-1 9l-3 9l4 16l-10 9l6 9l4 15l-2 9l-2 9l4 16l-8 9l4 9l4 16l-4 9v9l4 15l-16 9l12 9l4 16l-6 9l2 9l4 15l-9 9l5 9l4 16l-8 9l4 9l4 16l-17 9l13 9l4 15l-4 9v9l4 16l-17 9l13 9l4 15l-11 9l7 9l4 16l-6 9l2 9l4 16
l-5 9l1 9l4 15l-8 9l4 9l4 16v9l-4 9l4 15l-14 9l10 9l4 16l-9 9l5 9l4 16l-1 9l-3 9l4 15l-6 9l2 9l4 16l-6 9l2 9l4 15l-6 9l2 9l4 16v9z" />
    <glyph glyph-name="braceright" unicode="}" horiz-adv-x="500" 
d="M56 -130l8 -4l9 4l9 -4l9 3l9 -3l9 7l9 -3l18 -2l7 16l10 -9l11 8l-5 13l11 4l5 1l-6 9l7 9l-5 9l6 9l-4 9l1 9l4 1l-1 9l1 9l-15 9l11 9l4 1l-5 9l5 9l-8 9l4 9h4l-3 9l3 9l-4 9v9l4 1l-6 9l6 9l-4 9v9l4 1l-16 9l16 9l-7 9l3 9l6 12l-6 9l8 9l-12 10l14 8l-17 10l14 8
l9 11l-5 12l12 5l-1 10l4 8h6l-6 18l18 -4v12l9 4l5 -2l7 7l9 2v17l13 -4l-1 6l-15 -8v17l-8 4l-10 2v6l-9 4l-3 10l-14 -1l-1 11l-1 14l-20 2l13 15l-5 8l-6 7l3 13l-7 8l5 10l-17 7l15 11l-13 7l7 10l4 1l-10 9l10 9l-11 9l7 9h4l-8 9l8 9l-8 9l4 9l4 1l-9 9l9 9l-12 9
l8 9h4l-5 9l5 9l-10 9l6 9l4 1l-12 9l12 9l-12 9l8 9l4 2l-12 9l11 9l-13 8l12 10l-2 9l-4 9l-3 12l-8 5l-6 7l-1 5l-11 -13l-7 15l-10 -11l-8 9l-6 4h-9h-9l-9 -17l-9 17l-9 -13l-9 9l4 4l-10 9l10 9l-6 9l2 9l4 4l-17 9l17 9l-11 9l7 9l4 4l-1 9l1 9l-9 9l5 9l10 -4l9 16
l9 -16l9 4l9 -4l9 13l9 -9l1 -5l10 12l8 -13l10 15l8 -16l9 10l9 -7l8 -7l11 6l6 -10l11 7l8 -7l1 -5l10 1l6 -9l13 7l5 -11l-3 -3l17 4l-4 -17l7 -5l9 -4l-4 -3l6 -7l4 -8l10 -4l3 -9l-3 -4l12 -6l-7 -11l12 -6l-2 -10l-3 -8l4 -9l-1 -9l4 -8l3 -9l-4 -12l2 -9l-1 -9l9 -9
l-4 -9l-4 -1l16 -9l-16 -9l10 -9l-6 -9l-4 -1l5 -9l-5 -9l5 -9l-1 -9h-4l13 -9l-13 -9l3 -9l1 -9l-4 -1l1 -9l-1 -9l2 -9l2 -9l-4 -1l8 -9l-8 -9l7 -9l-3 -9l-1 -18l17 -6l-14 -12l16 -6l-9 -11l-2 -5l10 -3l1 -11l15 1v-12l1 -5l11 6l6 -11l13 14l6 -14l14 -5l9 2l9 -2
l9 17l9 -12l-4 -3l15 -9l-15 -9l9 -9l-5 -9l-4 -2l12 -9l-12 -9l16 -9l-12 -9l-4 -3l14 -9l-14 -9l8 -9l-4 -9l-12 5l-9 -2l-9 2l-9 -9l-9 4l-4 4l-6 -14l-12 10l-7 -9h-9h-6l-4 -9l-7 -5l-2 -11l-6 -6l-7 -17v-9l-3 -9v-9l1 -9l-4 -1l7 -9l-7 -9l8 -9l-4 -9l-4 -1l17 -9
l-17 -9l3 -9l1 -9h-4l6 -9l-6 -9l16 -9l-12 -9l-4 -1l5 -9l-5 -9l1 -9l3 -9l-4 -1l14 -9l-14 -9l13 -9l-9 -9l-5 -12l8 -9l-9 -9l1 -9l3 -9l-6 -7l9 -10l-12 -8l1 -9l1 -9l-5 -1l5 -12l-11 -5l1 -10l-2 -9l-4 2l9 -16l-18 1v-11l-6 -7l-16 -8v-14l-10 -2l-5 2l-4 -12l-12 4
v-19l-14 7l-10 2l-8 -7l-10 3l-4 -19l-12 10l-1 4l-9 -12l-9 11l-9 -7l-9 6l-9 -7l-9 1l-10 4l-9 -8l-9 8h-9h-9l-9 -14l-9 10l4 4l-9 9l9 9l-1 9l-3 9l4 4l-6 9l6 9l-6 9l2 9l4 4l-6 9l6 9v9z" />
    <glyph glyph-name="asciitilde" unicode="~" horiz-adv-x="750" 
d="M87 282l5 5l-1 9l1 9l-18 9l13 9l5 4l-9 9l9 9l-16 9l11 9l5 5l-17 9l17 9l-4 9l-1 9l4 -3l3 13l12 -4l-1 19l17 -10l4 10l9 3l2 -4l4 16l13 -10l6 11l11 -5l5 14l11 -4l18 -2l7 18l11 -16l7 11l10 -4l7 -5h9l9 -2l10 14l8 -12l14 -8h9l8 -4l13 13l6 -13v-5l12 7l5 -12
l12 8l5 -13l13 10l6 -11l14 -10l10 1l8 -6l8 -2h10l6 -6l13 11l4 -16l12 6l7 -7l9 -6l10 1h9l9 -4l7 14l10 -12l8 15l10 -9l6 -3l4 16l13 -10l9 3l7 7l8 -1l4 12l12 -3l4 11l9 2l12 4l4 9l10 2l7 5l5 9l-4 -6l12 -9l-12 -9l8 -9l-4 -9l-4 -7l6 -9l-6 -9l1 -9l3 -9l-4 -6
l12 -9l-12 -9v-9l4 -9l-3 3l-6 -8h-10l-2 -15l-14 6v-19l-14 7l-2 4l-5 -14l-12 9l-8 -4l-9 -1l-8 -6l-8 -4l-18 3l-7 -16l-11 13l-8 -5l-9 -1l-5 5l-10 -12l-8 14l-9 -5l-9 3l-11 8l-13 -14l-4 19l-10 -3l-9 3l-14 9l-14 -13l-3 19l-14 -14l-5 15l-13 9l-12 -6l-5 12
l-15 -15l-4 16l-9 7l-10 -2l-7 7h-10l-9 1l-2 5l-9 -4l-9 6l-9 -2h-9l-17 2l-6 -18l-12 15l-8 -4l-9 -3l-4 3l-5 -13l-12 6l-1 -20l-15 12l-5 -11h-10l-9 -1l1 -15l-15 4l-5 -7l-9 -4l-1 -14h-11z" />
    <glyph glyph-name="afii10051" unicode="&#x402;" horiz-adv-x="381" 
d="M153 732v-4l9 7l9 -7l9 12l9 -8v-4l9 13l9 -13l9 11l9 -7v-4h9h9h9l9 4v-4l9 17l9 -17l9 8l9 -4l-5 -16l16 -9l-11 -9l-5 -16l17 -9l-12 -9l-5 -16l4 -9l1 -9l-5 -16l10 -9l-5 -9l-5 -16l18 -9l-13 -9l-5 -16l7 -9l-2 -9l-5 -16l14 -9l-9 -9l-5 -16l9 -9l-4 -9l-5 -17
l12 -9l-7 -9l-5 -16l18 -9l-13 -9l-5 -16l11 -9l-6 -9l-5 -16l2 -9l3 -9l-5 -16l16 -9l-11 -9l-5 -16l2 -9l3 -9l-5 -16l16 -9l-11 -9l-5 -16l11 -9l-6 -9l-6 -16l11 -10l-12 -8l13 -10l-10 -8l-7 -9l2 -10l-5 -7l-1 -10l1 -9l-7 -4l10 -14l-17 -2l4 -12l-8 -6h-6l-4 -9
l-8 -4l4 -16l-12 -1l-6 1v-17l-15 8v-17l-13 3l-8 2l-8 -3l-9 -2l-6 -11l-10 1l-15 3l-8 -8l-10 6l-8 -6h-9l-13 7l-9 1l-9 2l-11 -10l-7 14l-10 -7l-7 10l-11 -5l-8 4l5 7l-2 9l2 9l-13 9l8 9l5 7l-1 9l1 9l-5 9v9l5 7l-13 9l13 9l-17 9l12 9l10 -8l12 8l5 -13l9 -2l8 -4
h10l9 -1l2 -4l7 16l11 -13l8 7l9 1l12 10l-5 15l12 2l5 1l-6 9l7 9l-16 10l18 8l-4 9l1 9l5 16l-17 9l12 9l5 15l-17 9l12 9l5 15l-10 9l5 9l5 16l-18 9l13 9l5 16l-5 9v9l5 15l-3 9l-2 9l5 15l-6 9l1 9l5 16l-4 9l-1 9l5 16l-18 9l13 9l5 15l-4 9l-1 9l5 15l-11 9l6 9l5 16
l-18 9l13 9l5 16l-9 9l4 9l5 15l-13 9l8 9l5 15l-3 9l-2 9l5 16l-12 9z" />
    <glyph glyph-name="afii10052" unicode="&#x403;" horiz-adv-x="693" 
d="M113 732v-4l9 7l9 -7l9 12l9 -8v-4l9 13l9 -13l9 11l9 -7v-4h9h9h9l9 4v-4l9 17l9 -17l9 8l9 -4l-5 -16l16 -9l-11 -9l-5 -16l17 -9l-12 -9l-5 -16l4 -9l1 -9l-5 -16l10 -9l-5 -9l-5 -16l18 -9l-13 -9l-5 -16l7 -9l-2 -9l-5 -16l14 -9l-9 -9l-5 -16l9 -9l-4 -9l-5 -17
l12 -9l-7 -9l-5 -16l18 -9l-13 -9l-5 -16l11 -9l-6 -9l-5 -16l2 -9l3 -9l-5 -16l16 -9l-11 -9l-5 -16l2 -9l3 -9l-5 -16l16 -9l-11 -9l-5 -16l11 -9l-6 -9l-5 -10l11 -10l-12 -8l13 -10l-10 -8l-5 -4l2 -9l-6 -8v-10l1 -9h-5l10 -14l-17 -3l5 -11l-8 -7l-13 -11l-3 -9l-4 -8
l-16 -8l1 -15h-12l-3 3l-1 -17l-15 9l-2 -16l-12 4l-6 3l-9 -3l-9 -1l-6 -10l-10 1l-10 4l-9 -8l-9 7l-9 -6h-9l-4 5l-9 2l-9 2l-11 -11l-7 14l-10 -6l-7 10l-11 -5l-8 4l5 6l-2 9l2 9l-13 9l8 9l5 7l-1 9l1 9l-5 9v9l5 6l-13 9l13 9l-17 9l12 9l9 -7l12 8l5 -14l9 -1l8 -4
h10l9 -1l2 -4l7 16l11 -13l8 7l9 1l13 10l-5 15l12 2h5l-6 9l7 9l-16 10l18 8l-4 9l1 9l5 16l-17 9l12 9l5 15l-17 9l12 9l5 15l-10 9l5 9l5 16l-18 9l13 9l5 16l-5 9v9l5 15l-3 9l-2 9l5 15l-6 9l1 9l5 16l-4 9l-1 9l5 16l-18 9l13 9l5 15l-4 9l-1 9l5 15l-11 9l6 9l5 16
l-18 9l13 9l5 16l-9 9l4 9l5 15l-13 9l8 9l5 15l-3 9l-2 9l5 16l-12 9z" />
    <glyph glyph-name="quotesinglbase" unicode="&#x201a;" horiz-adv-x="288" 
d="M29 -126l8 15l-12 13l12 6l8 15l-13 13l13 6l8 16l1 10l-1 9l8 15l-9 12l9 7l8 15l-12 13l12 6l8 15v10v9l8 16l-3 10l3 9l8 15l-13 13l13 6l15 -4l9 17l9 -13l15 -4h9l9 4l16 -4l9 5l9 -1l15 -4l9 11l9 -7l15 -4l9 7l9 -3l-10 -12l6 -13l-10 -5l-11 -13l1 -10l-4 -8
l-11 -12l-3 -8l-1 -10l-11 -13l10 -14l-13 -4l-10 -12l3 -11l-7 -7l-11 -13l1 -10l-4 -8l-11 -12l9 -14l-13 -4l-11 -13v-10l-3 -8l-10 -12l2 -11l-6 -7l-16 4l-9 -13l-9 9l-16 4l-9 -1l-9 -3l-16 4l-9 -12z" />
    <glyph glyph-name="quotedblbase" unicode="&#x201e;" horiz-adv-x="500" 
d="M24 -126l8 15l-12 13l12 6l8 15l-13 13l13 6l8 16l1 10l-1 9l8 15l-9 12l9 7l8 15l-12 13l12 6l8 15v10v9l8 16l-3 10l3 9l8 15l-13 13l13 6l15 -4l9 17l9 -13l15 -4h9l9 4l16 -4l9 5l9 -1l15 -4l9 11l9 -7l15 -4l9 7l9 -3l-10 -12l6 -13l-10 -5l-11 -13l1 -10l-4 -8
l-11 -12l-3 -8l-1 -10l-11 -13l10 -14l-13 -4l-10 -12l3 -11l-7 -7l-11 -13l1 -10l-4 -8l-11 -12l9 -14l-13 -4l-11 -13v-10l-3 -8l-10 -12l2 -11l-6 -7l-16 4l-9 -13l-9 9l-16 4l-9 -1l-9 -3l-16 4l-9 -12zM250 -126l8 15l-8 12l8 7l8 15v10v9l8 16l-2 10l2 9l8 15l1 9
l-1 10l8 15l1 9l-1 10l8 15l-9 12l9 7l8 16l-7 11l7 8l8 15l-12 13l12 6l15 -4l9 3l9 1l15 -4l9 7l9 -3l16 -4l9 4h9l15 -4l9 12l9 -8l15 -4l9 3l9 1l-10 -12l-2 -9l-2 -9l-11 -13l5 -12l-8 -6l-11 -12l8 -14l-12 -4l-11 -13l12 -15l-15 -3l-10 -12l6 -13l-10 -5l-11 -13
l13 -15l-16 -3l-11 -12l8 -14l-12 -4l-11 -13l-2 -9l-1 -9l-10 -12l7 -13l-11 -5l-16 4l-9 -4h-9l-16 4l-9 -2l-9 -2l-16 4l-9 -6z" />
    <glyph glyph-name="ellipsis" unicode="&#x2026;" horiz-adv-x="1024" 
d="M84 70l7 8l-13 13l18 4l1 10l-1 9l9 3l-2 14l15 -1l-5 17l14 -1l10 -2l8 4l9 1l7 8l9 1l8 -7l13 13l4 -18l14 15l5 -15l2 -9l7 -6l5 -7l11 -3l5 -7l-2 -10l14 -6l-9 -12l10 -6l-1 -10l-7 -7l9 -12l-13 -5l2 -10l-3 -9l-8 -1l-5 -7l-7 -6l4 -17l-14 1l-10 2l-7 -10l-11 6
l-7 -7l-9 -2l-7 7l-13 -12l-4 16l-10 -1l-9 2l-2 8l-11 1l-2 12l-16 -4v13l2 9l-4 8l-1 9l-14 5zM424 70l7 8l-2 10l7 7l1 9l-1 10l9 3l6 7l7 6l-2 14l11 2l10 -2l6 12l11 -7l5 17l11 -8l8 -7l10 1l7 -6l11 5l8 -5l2 -9l10 -3l2 -10l16 2v-12l-2 -10l6 -8l-1 -10l5 -8l4 -8
l-7 -7l7 -11l-11 -6l10 -13l-11 -6l-8 -1l6 -19l-18 6l1 -14l-11 -2l-10 2l-5 -19l-13 15l-5 -16l-11 7l-7 7l-9 1l-8 3l-12 -9l-7 10l-2 8l-10 3l-3 10l-8 4l-8 5l2 9l-9 6l4 11l-17 4zM766 70l7 8l-10 12l15 5l-7 12l7 7l9 3l1 12l12 1l-5 17l14 -1l10 -2l8 3l9 2l5 16
l11 -7l8 -7l12 8l5 -13l12 9l7 -9l2 -9l15 2l-3 -15l8 -5l8 -5l-2 -10l12 -7l-7 -11l15 -5l-6 -11l-7 -7l12 -13l-16 -4l6 -12l-7 -7l-8 -1l-2 -11l-10 -2v-13l-10 -3l-10 2l-7 -11l-11 7l-5 -17l-11 8l-7 7l-10 -1l-7 5l-12 -9l-7 10l-2 8l-13 -1v14l-9 3l-7 6l2 9l-12 5
l7 12l-5 8z" />
    <glyph glyph-name="dagger" unicode="&#x2020;" 
d="M399 -216l-16 4h-9l-9 -4l-15 4l-9 -3l-9 -1l-16 4l-9 -3l-9 -1l-15 4l-9 -7l-9 3l-16 4l-9 -12l-9 8l5 15l-13 9l8 9l5 15l-15 9l10 9l5 15l-3 9l-2 9l5 15l-9 9l4 9l5 15l-9 9l4 9l5 15l-15 9l10 9l5 15l-10 9l5 9l5 15l-4 9l-1 9l5 15l-6 9l1 9l5 15l-3 9l-2 9l5 15
l-9 9l4 9l5 15l-8 9l3 9l5 15l-14 9l9 9l5 15l-18 9l13 9l5 15l-6 9l1 9l5 15l-14 9l9 9l5 15l-9 9l4 9l-15 5l-9 -13l-9 8l-15 5l-9 -10l-9 5l-15 5l-9 -8l-9 3l-15 5l-9 -15l-9 10l-15 5l-9 -1l-9 -4h4l-14 9l14 9l-10 9l6 9h4l-10 9l10 9l-11 9l7 9h4l-1 9l1 9l-9 9l5 9
h4l-13 9l13 9l-14 9l10 9l15 -5l9 10l9 -5l15 -5l9 7l9 -2l15 -5l9 10l9 -5l15 -5l9 10l9 -5l15 -5l9 15l9 -10l5 16l-4 9l-1 9l5 15l-13 9l8 9l5 16l-10 9l5 9l5 15l-4 9l-1 9l5 16l-11 9l6 9l5 15l-3 9l-2 9l5 16l-5 9v9l16 -4l9 1l9 3l15 -4l9 1l9 3l16 -4l9 11l9 -7
l15 -4l9 9l9 -5l16 -4l9 14l9 -10l-5 -16l4 -9l1 -9l-5 -15l8 -9l-3 -9l-5 -16l5 -9v-9l-5 -15l13 -9l-8 -9l-5 -16l4 -9l1 -9l-5 -15l3 -9l2 -9l-5 -16l10 -9l-5 -9l15 -5l9 14l9 -9l15 -5l9 18l9 -13l15 -5l9 12l9 -7l15 -5l9 18l9 -13l15 -5l9 14l9 -9h-4l1 -9l-1 -9
l12 -9l-8 -9h-4l4 -9l-4 -9l2 -9l2 -9h-4l6 -9l-6 -9l15 -9l-11 -9h-4l16 -9l-16 -9l1 -9l3 -9l-15 5l-9 -12l-9 7l-15 5l-9 -16l-9 11l-15 5l-9 -3l-9 -2l-15 5l-9 -6l-9 1l-15 5l-9 -16l-9 11l-5 -15l18 -9l-13 -9l-5 -15l1 -9l4 -9l-5 -15l6 -9l-1 -9l-5 -15l12 -9l-7 -9
l-5 -15l8 -9l-3 -9l-5 -15l12 -9l-7 -9l-5 -15l5 -9v-9l-5 -15l1 -9l4 -9l-5 -15l15 -9l-10 -9l-5 -15l9 -9l-4 -9l-5 -15l5 -9v-9l-5 -15l15 -9l-10 -9l-5 -15l5 -9v-9l-5 -15l8 -9l-3 -9l-5 -15l14 -9l-9 -9l-5 -15l2 -9l3 -9l-5 -15l13 -9z" />
    <glyph glyph-name="perthousand" unicode="&#x2030;" horiz-adv-x="1245" 
d="M360 538l-6 -16l12 -10l-13 -8v-9l3 -9l-7 -8l8 -11l-12 -6l-2 -9l2 -10l-6 -3l8 -14l-16 -3l-3 -8v-10l-5 1l-3 -9l-9 -4l7 -18l-15 1l-4 3l-3 -13l-12 2l-1 -14h-11l-4 3l-7 -7l-10 1l-4 -14l-11 4l-8 4l-8 -12l-10 10l-7 -17l-10 10l-7 5l-9 -6l-9 8l-10 -9l-8 7l-2 5
l-12 -8l-5 14l-11 -6l-7 8l1 5h-11l-4 10l-12 -1l-5 8l2 5l-16 -2l4 15l-10 3l-5 8l1 7l-6 7l-1 10l-5 7l-7 7l2 10l-5 8l1 10l-11 6l2 10l3 16l-16 8l15 10l-9 9l3 9l6 15l-8 9l9 9v9l-3 9l7 8l-8 11l12 6l-15 14l15 5l6 3l-11 15l19 1l-7 13l11 5l5 -1l2 11l10 3l-3 15
l11 2l5 -2l1 14l14 -4l-1 16l13 -2l5 -3l5 11l12 -5l4 15l11 -5l7 -4l8 10l10 -8l8 7h9l7 -5l10 15l8 -17l9 7l9 -4l2 -5l10 1l7 -8l8 -2h10l-1 -5l7 -4l8 -6l13 3l4 -9l-2 -5l11 -2v-12h15v-11l-2 -7l18 -1l-10 -15l6 -7l6 -7l-2 -11l11 -7l-7 -10l4 -9l4 -8l-3 -15l16 -8
l-15 -10l6 -9v-9zM127 538l-4 -2l18 -8l-17 -10l17 -8l-16 -10l4 -9l2 -9l-2 -8l8 -7l-3 -10l11 -6l-1 -10l6 -15l18 3l-3 -14l9 -8l13 10l6 -11l12 -1l3 20l13 -10l13 8l-3 15l11 2l6 5l-13 13l18 4l-6 12l7 7l5 3l-6 9l7 9l-15 10l16 8l-2 9l-1 9l4 2l-16 8l15 10l-15 8
l14 10l-11 9l5 9l2 8l-18 4l13 13l-12 6l2 10l-5 14l-9 4l-6 7l-9 7l-10 -2l-9 3l-12 1l-6 -11l-10 2l-13 -8l7 -18l-15 1l-6 -5l7 -12l-13 -5l-2 -9l1 -10l-5 -2l14 -10l-15 -8l7 -9l-8 -9l4 -9zM682 740l-12 -11l3 -12l-8 -6l-12 -11l-4 -9l-2 -9l-12 -12l8 -15l-13 -3
l-12 -11l-3 -9l-3 -9l-12 -11l5 -13l-10 -5l-12 -11l9 -16l-15 -2l-12 -12l9 -15l-14 -3l-12 -11l10 -16l-15 -2l-12 -11l2 -12l-8 -6l-12 -11l2 -12l-7 -6l-13 -12l4 -13l-9 -5l-12 -11l5 -14l-10 -4l-12 -11l9 -17l-15 -1l-12 -11l5 -13l-10 -5l-12 -11l7 -15l-12 -3
l-13 -12l1 -11l-6 -7l-12 -11l9 -16l-14 -2l-12 -11l2 -12l-8 -6l-12 -11l2 -12l-7 -6l-12 -12l-3 -9l-2 -9l-12 -11l-1 -10l-5 -8l-12 -11l6 -14l-11 -4l-12 -11l-1 -11l-5 -7l-12 -12l9 -15l-14 -3l-12 -11l7 -16l-13 -2l-12 -11l-2 -9l-3 -9v4l-9 -17l-9 17l-9 -3l-9 -1
v4l-9 -15l-9 15l-9 -8l-9 4l12 11l-6 14l11 4l12 11l-1 12l7 6l12 12l-3 12l8 6l12 11l-7 15l13 3l12 11l1 10l4 8l12 11l-10 17l16 1l12 12l-5 13l10 5l12 11l-6 14l11 4l12 11l-5 14l11 4l12 11l1 10l4 8l13 12l-11 17l16 1l12 11v11l5 7l12 11l3 9l3 9l12 11l-8 15l13 3
l12 11l-5 14l10 4l13 12v10l5 8l12 11l-10 17l15 1l12 11l-2 12l8 6l12 11l-10 16l15 2l12 12l-1 11l6 7l12 11l3 9l3 9l12 11l-2 12l7 6l12 11l-5 14l11 4l12 12l-1 11l6 7l12 11l-8 16l14 2l12 11v10l5 8v-4l9 5l9 -5l9 4h9v-4l9 15l9 -15l9 11zM817 184l-6 -16l3 -9
l-4 -9l8 -9l-5 -9l-7 -8l4 -10l-8 -7l11 -12l-11 -7l-7 -4l-1 -9l-6 -7l-2 -9l-2 -9l-5 1l-4 -9l-8 -5l3 -14l-11 -3l-4 3l-3 -12l-12 1l-5 -8l-7 -6l-5 3l-4 -14l-13 8l-4 -14l-11 4l-8 4l-7 -18l-11 16l-7 -18l-10 11l-7 5l-10 -13l-8 15l-10 -8l-8 6l-2 5l-12 -8l-5 14
l-8 3l-10 -1l1 5l-10 1l-5 9l-15 -6l-2 13l2 5l-13 1l1 13l-9 4l-6 7l1 7l-20 1l13 16l-9 5l-3 9l2 10l-3 9l-1 9l-10 6l1 10l3 16l-2 9l1 9l-3 9l-3 9l6 15l-13 10l14 8l-9 9l6 9l7 8l-10 12l14 5l-7 11l7 8l6 3l-10 15l18 1l-2 11l6 7l5 -1l-1 13l13 1l4 9l4 8l4 -3l7 7
l8 3l1 16l12 -2l5 -3l6 8l11 -2l6 8l9 2l7 -4l7 12l11 -10l8 6l9 1l7 -5l10 12l8 -14h9l9 3l2 -6l13 10l5 -15l12 9l6 -11l-1 -5l15 5v-15l8 -4l9 -3l-2 -4l11 -2v-12l7 -6l8 -5l-2 -7l13 -3l-5 -13h20l-8 -14l-2 -11l11 -7l-7 -11l10 -7l-1 -9l-3 -15l8 -9l-7 -9l8 -9z
M582 182l-4 -1l15 -8l-14 -10l4 -9l-3 -9l1 -9l5 -9l-2 -8l7 -7l-2 -10l9 -7l1 -9l6 -14l13 -1l2 -10l9 -8l10 -1h9l13 -1l6 11l10 -1l13 8l-6 17h14l6 5l-10 13l16 4l-13 14l14 5l5 3l-16 10l17 8l-5 9l6 9l-2 9l-1 9l4 2l-10 9l9 9l-1 9v9l-17 8l11 10l2 8l-3 8l-2 9l-9 7
l-1 9l-6 14l-7 6l-8 5l-10 8l-12 -9l-7 9l-12 1l-6 -10h-10l-13 -8l7 -18l-15 1l-7 -6l9 -12l-14 -5l3 -11l-4 -8l-5 -2l15 -10l-16 -8l7 -9l-8 -9l6 -9zM1221 184l-6 -16l9 -9l-10 -9l7 -9l-4 -9l-7 -8l12 -12l-16 -5l2 -10l-2 -9l-7 -4l2 -11l-9 -5l3 -11l-7 -7l-5 1
l-2 -11l-10 -3l2 -14l-10 -3l-4 3l-7 -7l-8 -4l1 -16l-13 2l-5 3l-6 -9l-11 3l-8 -3l-7 -7l-8 4l-8 -6l-10 4l-7 -11l-10 4l-7 5l-9 -4l-9 6l-10 -10l-8 8l-2 5h-9l-8 6l-13 -11l-5 13l1 5l-16 -8l1 18l-7 5l-10 2l2 5l-10 4l-2 10h-14l-1 11l1 7l-7 7v10l-13 4l1 10l2 10
l-6 8l2 10l-16 5l7 11l3 16l-12 9l11 9l-4 9l-2 9l6 15l-3 9l4 9l-10 10l7 8l7 8l-4 10l8 7l1 9l-1 10l6 3l-2 11l10 5l-12 16l16 2l5 -1l5 8l7 6l1 11l7 6l4 -3l3 12l12 -2l5 9l8 5l5 -3l3 17l14 -11l3 16l12 -6l7 -4l8 8l10 -6l7 14l10 -7l7 -5l9 6l9 -8l9 8l9 -5l2 -6
l11 4l7 -9l12 7l6 -9l-1 -5l15 6v-16l13 3l4 -10l-2 -4l10 -3l1 -11l7 -6l8 -5l-2 -7h20l-12 -16l7 -6l5 -8l-2 -11l11 -7l-7 -11l11 -6l-2 -10l-3 -15l5 -9l-4 -9l7 -9zM986 182l-4 -1l12 -9l-11 -9l8 -9l-7 -9l4 -9l2 -9l-2 -8l12 -6l-7 -11l14 -5l-4 -11l6 -14l12 -1
l3 -10l9 -8l11 5l8 -6l13 -1l9 4l7 6l13 9l-5 17l14 -1l6 5l-7 12l13 5l-8 12l9 7l5 3l-15 10l16 8l-16 10l17 8l-15 10l12 8l4 2l-5 9l4 9l-4 9l3 9l-5 9l-1 9l2 8l-11 6l6 11l-8 7l-2 9l-7 14l-11 3l-4 8l-10 8l-14 -14l-5 14l-12 1l-6 -12l-10 2l-13 -8l-6 -7l-2 -10
l-7 -6l-2 -9l-3 -8l5 -12l-6 -7l-5 -2l11 -10l-12 -8l16 -10l-17 -8v-9z" />
    <glyph glyph-name="quilsinglleft" unicode="&#x2039;" horiz-adv-x="375" 
d="M306 450l-11 -12l10 -16l-15 -2l-11 -12l3 -12l-8 -6l-11 -12l-1 -10l-4 -8l-11 -12l3 -12l-7 -6l-11 -12l5 -13l-10 -5l-11 -12l4 -13l-9 -5l4 -16l17 -1l-5 -13l4 -16l7 -7l5 -7l4 -16l7 -7l5 -7l3 -16l7 -6l5 -8l4 -16l5 -7l7 -7l4 -16l7 -6l5 -8l-3 4l-9 -17l-9 17
h-9l-9 -4l-4 4l-9 -8l-9 8l-9 -4h-9l-3 4l-9 -14l-9 14l-9 -3l-9 -1l4 3l-9 4l-1 11l-7 6l-7 6l4 3l-12 2l2 13l-13 2l-1 10l4 3l-20 -3l10 18l-8 5l-6 7l4 3h-16l6 15l-14 1v11l4 3l-7 6l-3 9l-9 5l-5 7l4 3l-5 7l-5 8h-16l2 12l4 -2l-1 11l11 4l-1 11l7 6l4 -2l-4 13l14 2
l-6 14l12 3l4 -2l5 7l5 8l-8 16l14 1l4 -2l-5 13l15 2l2 9l4 8l4 -2l-7 15h17l2 9l4 8l4 -2l-9 16l19 -1l-5 14l11 3l3 -4l9 1l9 -1l9 6l9 -2l4 -4l9 7l9 -7l9 2l9 2l3 -4l9 14l9 -14l9 6z" />
    <glyph glyph-name="quoteleft" unicode="&#x2018;" horiz-adv-x="288" 
d="M254 754l-8 -15l1 -10l-1 -9l-8 -15l11 -12l-11 -7l-8 -16l8 -12l-8 -7l-8 -15v-10v-9l-8 -15l2 -10l-2 -9l-8 -15l-2 -9l2 -10l-8 -16l10 -12l-10 -7l-8 -15l4 -11l-4 -8l-15 4l-9 -7l-9 3l-15 4l-9 -10l-9 6l-16 4l-9 -12l-9 8l-15 4h-9l-9 -4l-15 4l-9 -15l-9 11
l10 12l-6 13l10 5l11 13l1 9l2 9l11 12l-8 14l12 4l11 13v9l3 9l10 12l-10 15l14 3l11 13l-8 13l11 5l11 12l3 9l1 9l11 13l-2 11l5 7l10 12l-3 11l7 7l16 -4l9 2l9 2l16 -4l9 14l9 -10l16 -4l9 6z" />
    <glyph glyph-name="quoteright" unicode="&#x2019;" horiz-adv-x="288" 
d="M24 480l8 15l-1 10l1 9l8 15l-11 12l11 7l8 16l-8 12l8 7l8 15v10v9l8 15l-2 10l2 9l8 15l2 9l-2 10l8 16l-10 12l10 7l8 15l-4 11l4 8l15 -4l9 7l9 -3l15 -4l9 10l9 -6l16 -4l9 12l9 -8l15 -4h9l9 4l15 -4l9 15l9 -11l-10 -12l6 -13l-10 -5l-11 -13l-1 -9l-2 -9l-11 -12
l8 -14l-12 -4l-11 -13v-9l-3 -9l-10 -12l10 -15l-14 -3l-11 -13l8 -13l-11 -5l-11 -12l-3 -9l-1 -9l-11 -13l2 -11l-5 -7l-10 -12l3 -11l-7 -7l-16 4l-9 -2l-9 -2l-16 4l-9 -14l-9 10l-16 4l-9 -6z" />
    <glyph glyph-name="quotedblleft" unicode="&#x201c;" horiz-adv-x="500" 
d="M480 754l-8 -15l4 -11l-4 -8l-8 -15l11 -12l-11 -7l-8 -16l1 -10l-1 -9l-8 -15l12 -13l-12 -6l-8 -15l-2 -9l2 -10l-8 -15l6 -11l-6 -8l-8 -16v-10v-9l-8 -15l15 -13l-15 -6l-15 4l-9 -2l-9 -2l-15 4h-9l-9 -4l-16 4l-9 -12l-9 8l-15 4l-9 -4h-9l-15 4l-9 -16l-9 12
l10 12v10l4 8l11 13l-12 15l15 3l11 12l-8 14l12 4l11 13l-12 15l15 3l10 12l-9 14l13 4l11 13l2 8l1 10l11 12l2 9l2 9l11 13v10l3 8l10 12l-5 12l9 6l16 -4l9 9l9 -5l16 -4l9 10l9 -6l16 -4l9 17zM254 754l-8 -15l13 -13l-13 -6l-8 -15v-10v-9l-8 -16l1 -10l-1 -9l-8 -15
l-2 -9l2 -10l-8 -15l5 -11l-5 -8l-8 -15l6 -11l-6 -8l-8 -16l9 -12l-9 -7l-8 -15l8 -12l-8 -7l-15 4l-9 -1l-9 -3l-15 4l-9 -6l-9 2l-16 4l-9 -10l-9 6l-15 4l-9 -1l-9 -3l-15 4l-9 -4h-9l10 12l-4 12l8 6l11 13l1 9l2 9l11 12l-6 13l10 5l11 13l-8 13l11 5l10 12l-7 13
l11 5l11 13l-12 15l15 3l11 12l-11 15l15 3l11 13l2 8l1 10l10 12l-9 14l13 4l16 -4l9 11l9 -7l16 -4l9 6l9 -2l16 -4l9 2z" />
    <glyph glyph-name="quotedblright" unicode="&#x201d;" horiz-adv-x="500" 
d="M24 480l8 15l-4 11l4 8l8 15l-11 12l11 7l8 16l-1 10l1 9l8 15l-12 13l12 6l8 15l2 9l-2 10l8 15l-6 11l6 8l8 16v10v9l8 15l-15 13l15 6l15 -4l9 2l9 2l15 -4h9l9 4l16 -4l9 12l9 -8l15 -4l9 4h9l15 -4l9 16l9 -12l-10 -12v-10l-4 -8l-11 -13l12 -15l-15 -3l-11 -12
l8 -14l-12 -4l-11 -13l12 -15l-15 -3l-10 -12l9 -14l-13 -4l-11 -13l-2 -8l-1 -10l-11 -12l-2 -9l-2 -9l-11 -13v-10l-3 -8l-10 -12l5 -12l-9 -6l-16 4l-9 -9l-9 5l-16 4l-9 -10l-9 6l-16 4l-9 -17zM250 480l8 15l-13 13l13 6l8 15v10v9l8 16l-1 10l1 9l8 15l2 9l-2 10l8 15
l-5 11l5 8l8 15l-6 11l6 8l8 16l-9 12l9 7l8 15l-8 12l8 7l15 -4l9 1l9 3l15 -4l9 6l9 -2l16 -4l9 10l9 -6l15 -4l9 1l9 3l15 -4l9 4h9l-10 -12l4 -12l-8 -6l-11 -13l-1 -9l-2 -9l-11 -12l6 -13l-10 -5l-11 -13l8 -13l-11 -5l-10 -12l7 -13l-11 -5l-11 -13l12 -15l-15 -3
l-11 -12l11 -15l-15 -3l-11 -13l-2 -8l-1 -10l-10 -12l9 -14l-13 -4l-16 4l-9 -11l-9 7l-16 4l-9 -6l-9 2l-16 4l-9 -2z" />
    <glyph glyph-name="bullet" unicode="&#x2022;" horiz-adv-x="604" 
d="M154 381l6 11l-9 10l12 8v9l-1 9l8 6l1 10l8 6l-4 12l8 6l10 3l4 9l8 4l-1 14l11 2l11 1l2 15l14 -7l2 15l12 -3l11 -3l6 19l12 -16l6 17l11 -10l10 -6l9 -1l8 -2l12 13l7 -12l7 -9l13 7l3 -15l11 2l7 -6l3 -10l9 -4l4 -8l11 -2l5 -8v-10l16 -2l-7 -14l7 -6l5 -8l-3 -11
l16 -7l-13 -11l2 -9l6 -8l-6 -11l7 -10l-10 -8v-9l1 -9l-8 -6l11 -16h-20l-2 -9l-2 -9l-11 -4l-6 -7l-6 -6l2 -15l-12 -1h-10l-6 -9h-10l-1 -18l-13 6l-12 2l-8 -6l-10 3l-6 -18l-11 11l-11 6l-11 -11l-7 14l-11 -14l-7 13l-6 8l-15 -9l-1 18l-8 3l-10 1l-4 10l-8 5l-4 8
l-10 4l-6 6v10l-13 4l4 12l-12 4v10l3 12l-12 7l9 11l-18 6z" />
    <glyph glyph-name="endash" unicode="&#x2013;" horiz-adv-x="500" 
d="M-6 229l4 12l-4 9l4 9l-8 9l4 9l4 12l-2 9l2 9l-10 9l6 9l16 -5l9 13l9 -8l16 -5l9 13l9 -8l16 -5l9 18l9 -13l17 -5l9 17l9 -12l16 -5l9 2l9 3l16 -5l9 16l9 -11l16 -5l9 12l9 -7l16 -5l9 7l9 -2l16 -5l9 3l9 2l16 -5l9 7l9 -2l16 -5l9 14l9 -9l17 -5l9 4l9 1l16 -5
l9 15l9 -10l16 -5l9 1l9 4l16 -5l9 10l9 -5l-4 -12l2 -9l-2 -9l17 -9l-13 -9l-4 -12l2 -9l-2 -9v-9l4 -9l-16 5l-9 -13l-9 8l-16 5l-9 -5h-9l-16 5l-9 -17l-9 12l-17 5l-9 -6l-9 1l-16 5l-9 -18l-9 13l-16 5l-9 -14l-9 9l-16 5l-9 -17l-9 12l-16 5l-9 -15l-9 10l-16 5l-9 -2
l-9 -3l-16 5l-9 -3l-9 -2l-16 5l-9 -5h-9l-17 5l-9 -10l-9 5l-16 5l-9 -10l-9 5l-16 5l-9 -11l-9 6l-16 5l-9 -18z" />
    <glyph glyph-name="emdash" unicode="&#x2014;" horiz-adv-x="1000" 
d="M1006 229l-16 5l-9 -4l-9 -1l-15 5l-9 -12l-9 7l-16 5l-9 -12l-9 7l-16 5l-9 -5h-9l-16 5l-9 -6l-9 1l-15 5l-9 -14l-9 9l-16 5l-9 -5h-9l-16 5l-9 -2l-9 -3l-16 5l-9 -2l-9 -3l-15 5l-9 -11l-9 6l-16 5l-9 -5h-9l-16 5l-9 -14l-9 9l-16 5l-9 -17l-9 12l-15 5l-9 -15
l-9 10l-16 5l-9 -3l-9 -2l-16 5l-9 -1l-9 -4l-15 5l-9 -16l-9 11l-16 5l-9 -9l-9 4l-16 5l-9 -17l-9 12l-16 5l-9 -12l-9 7l-15 5l-9 -13l-9 8l-16 5l-9 -16l-9 11l-16 5l-9 -8l-9 3l-16 5l-9 -5h-9l-15 5l-9 -13l-9 8l-16 5l-9 -5h-9l-16 5l-9 -10l-9 5l-16 5l-9 -18l-9 13
l-15 5l-9 -3l-9 -2l-16 5l-9 -14l-9 9l4 12v9v9l-4 9v9l4 12l-6 9l6 9l-5 9l1 9l16 -5l9 18l9 -13l15 -5l9 16l9 -11l16 -5l9 11l9 -6l16 -5l9 11l9 -6l16 -5l9 8l9 -3l15 -5l9 10l9 -5l16 -5l9 13l9 -8l16 -5l9 16l9 -11l16 -5l9 11l9 -6l15 -5l9 10l9 -5l16 -5l9 11l9 -6
l16 -5l9 3l9 2l16 -5l9 12l9 -7l15 -5l9 11l9 -6l16 -5l9 17l9 -12l16 -5l9 2l9 3l15 -5l9 17l9 -12l16 -5l9 15l9 -10l16 -5l9 3l9 2l16 -5l9 1l9 4l15 -5l9 7l9 -2l16 -5l9 6l9 -1l16 -5l9 12l9 -7l16 -5l9 2l9 3l15 -5l9 9l9 -4l16 -5l9 11l9 -6l16 -5l9 7l9 -2l16 -5
l9 3l9 2l15 -5l9 7l9 -2l16 -5l9 9l9 -4l-4 -12l8 -9l-8 -9l10 -9l-6 -9l-4 -12l9 -9l-9 -9v-9z" />
    <glyph glyph-name="trademark" unicode="&#x2122;" horiz-adv-x="853" 
d="M385 429l5 16l-1 9l-4 9l5 15l-16 9l11 9l5 16l-17 9l12 9l5 16l-11 9l6 9l5 15l-9 9l4 9l5 16l-16 9l11 9l5 16l-7 9l2 9l5 15l-14 9l9 9l5 16l-18 9l13 9v-4l9 7l9 -7l9 9l9 -5l1 -4l9 16l9 -16l9 17l9 -13v-4l9 2l9 -2l9 14l9 -10l-3 -5l8 -6l-2 -11l20 -2l-9 -13
l-3 -5l10 -6l-4 -11l18 -3l-7 -12l-3 -4l18 -3l-12 -14l14 -4l-3 -11l-3 -5l16 -4l-10 -13l18 -3l-7 -12l-3 -5l13 -5l-7 -12l9 -6l2 -9l5 2l-13 14l20 3l-2 10l4 8l5 2l-13 14l19 3l-1 10l3 8l5 1l1 9l6 8l-8 12l10 6l5 2l-8 12l14 5l-1 10l3 8l5 2l-2 10l9 7l-9 13l11 5
l1 -4l9 4l9 -4l9 1l9 3v-4l9 1l9 -1l9 10l9 -6l1 -4l9 4l9 -4l9 13l9 -9l-4 -16l16 -9l-12 -9l-4 -15l14 -9l-10 -9l-4 -16l2 -9l2 -9l-4 -16v-9l4 -9l-4 -15l15 -9l-11 -9l-4 -16l8 -9l-4 -9l-4 -16l16 -9l-12 -9l-4 -15l11 -9l-7 -9l-4 -16l12 -9l-8 -9l-2 5l-9 -16l-9 16
l-9 -8l-9 3l-1 5l-9 -5l-9 5l-9 -13l-9 8l5 2l-5 9l5 9l-10 9l5 9l5 2l-18 9l18 9l-3 9l-2 9l5 1l-14 9l14 9l-1 9l-4 9l5 2l-5 9l5 9l-7 9l2 9l5 2l-6 9l6 9l-18 9l13 9l5 2l-16 9l16 9l-11 9l6 9l-10 -14l7 -12l-9 -6l-11 -15l4 -11l-6 -7l-10 -14l6 -11l-8 -7l-10 -15
l8 -12l-10 -6l-10 -14l11 -13l-13 -5l-11 -15l7 -12l-9 -6l-10 -14l6 -11l-8 -7l-16 5l-9 -11l-9 6l-1 17l-6 7l-5 8l-2 18l-14 4l3 11l-1 17l-14 4l3 11l-2 18l-19 2l8 13l-1 17l-5 8l-6 7l-2 18l-19 2l8 13l-1 17l-18 3l7 12l-4 -2l2 -9l-2 -9v-9l4 -9l-4 -2l6 -9l-6 -9
l5 -9l-1 -9l-4 -2l11 -9l-11 -9l1 -9l3 -9l-4 -1l8 -9l-8 -9l10 -9l-6 -9l-4 -2l6 -9l-6 -9l2 -9l2 -9l-4 -2l6 -9l-6 -9l8 -9l-4 -9l-2 5l-9 -9l-9 9l-9 -11l-9 6l-1 5l-9 -10l-9 10l-9 -1zM54 670l4 8l-14 9l14 9l-13 9l13 9l-3 9l-1 9l16 -4l9 2l9 2l15 -4l9 3l9 1l16 -4
l9 2l9 2l15 -4l9 12l9 -8l16 -4l9 6l9 -2l16 -4l9 12l9 -8l15 -4l9 17l9 -13l16 -4l9 12l9 -8l-5 -8l4 -9l-4 -9l1 -9l-1 -9l16 -9l-11 -9l-11 4l-9 -2l-9 2l-9 -7l-9 3l-10 4h-9h-9l-9 -17l-9 13l-4 -16l4 -9v-9l-4 -17l14 -9l-10 -9l-4 -16l1 -9l3 -9l-4 -17l6 -9l-2 -9
l-4 -16v-9l4 -9l-4 -17l10 -9l-6 -9l-4 -16l4 -9v-9l-5 5l-9 -10l-9 10l-9 -15l-9 10l-5 5l-9 -10l-9 10l-9 -15l-9 10l4 16l-17 9l13 9l4 17l-8 9l4 9l4 16l-16 9l12 9l4 17v9l-4 9l4 16l-1 9l-3 9l4 17l-11 9l7 9l4 16l-14 9l10 9l-11 4l-9 -3l-9 3l-9 -7l-9 3l-11 4
l-9 -1l-9 1l-9 -12z" />
    <glyph glyph-name="quilsinglright" unicode="&#x203a;" horiz-adv-x="375" 
d="M69 450l3 -4l9 12l9 -12l9 15l9 -11l4 -4l9 7l9 -7l9 4h9l3 -4l9 12l9 -12l9 4h9l-4 -3l13 -2l-3 -13l19 2l-5 -14l-4 -3l7 -6l3 -9l17 1l-3 -13l-4 -3l5 -7l5 -8l9 -4l5 -8l-4 -3l11 -3l-1 -12l10 -4l4 -8l-4 -3l20 3l-10 -18l18 2l-4 -14l-4 -3l14 -1l-4 -14l14 -1v-11
l-4 2l2 -11l-12 -4l3 -12l-9 -5l-4 2l5 -14l-15 -1l8 -15l-14 -2l-4 2l4 -13l-14 -2l3 -12l-9 -5l-4 2l4 -13l-14 -2l-3 -8l-3 -9l-4 2l4 -13l-14 -2l4 -13l-10 -4l-4 2l9 -16l-19 1l-4 -8l-2 -9l-3 4l-9 -16l-9 16l-9 -14l-9 10l-4 4l-9 -2l-9 2h-9l-9 -4l-3 4l-9 -6l-9 6
l-9 -5l-9 1l11 12l-6 13l11 5l11 12l3 9l2 9l11 12l-3 12l8 6l11 12l-5 13l9 5l11 12l-1 11l6 7l11 12l3 9l2 9l-4 16l-10 5l-2 9l-4 16l-12 4v10l-4 16l-11 4l-1 10l-3 16l-13 3l1 11l-4 16l-12 4v10l-4 16l-5 8z" />
    <glyph glyph-name="currency" unicode="&#xa4;" 
d="M419 371l3 11l-15 7l12 11l-8 8v9l2 5l-8 5l-2 10l-8 5l-5 8l1 5l-16 -9l1 18l-15 -6l-3 12l-5 5l-11 -12l-6 15l-11 -10l-8 9l-6 3l-7 -11l-11 8l-7 -14l-10 7l-5 3l-4 -10h-11l-4 -11l-9 -2h-5l1 -12l-11 -3l3 -13l-9 -5l-6 -10l7 -10l-10 -7l8 -11l-7 -8l-2 -12l11 -7
l-8 -11l2 -9l5 -8l-2 -6l14 -2l-4 -13l10 -4l3 -9v-5l11 -1l4 -9l16 8l2 -14l5 -5l10 6l7 -9l10 3l9 -2l5 -4l8 7l10 -4l7 11l10 -3l5 -2l4 11l11 -1l4 10l9 3l6 1l-4 13l13 2l-9 17l15 1l6 11l-4 10l7 8l-9 10zM109 661l8 -15l9 -5l7 -5l9 -15l8 -6l8 -4l8 -14l7 -6l9 -4
l8 -15l10 -3l6 -7l4 -3l8 4l9 2l6 10l11 -4l6 9l9 1l3 -4l8 7l10 -5l8 5l10 -3l8 5l9 2l2 -5l10 5l8 -7l11 13l7 -16l11 14l7 -12l1 -5l14 13l3 -19l8 -3l9 -3l12 8l6 -10l15 9l6 8l4 8l15 9v12l9 4l15 9l2 12l8 4l15 9l3 9l6 7l-2 -4l15 2l-3 -15l9 -4l7 -6l-3 -3l8 -5
l4 -8l16 3v-13l-2 -4l7 -6l5 -7l9 -4l7 -6l-14 -8l-2 -10l-7 -6l-14 -8v-13l-10 -3l-14 -8l1 -13l-10 -3l-14 -8l5 -17l-14 1l-1 -9l10 -6l-3 -11l18 -2l-10 -14l7 -7l4 -8l-4 -6l6 -9l-3 -9l17 -7l-14 -11l3 -9l4 -8h-5l8 -10l-10 -8l13 -11l-16 -7l9 -10l-7 -8l-6 -2
l-3 -9l-5 -8l-1 -9l-6 -7v-10l-4 -8l8 -15l15 1v-12l8 -15l15 1v-12l8 -15l10 -3l5 -8l8 -15l10 -4l5 -7l-4 2l6 -18l-19 5l1 -13l-10 -3l-4 2l6 -17l-18 4l2 -14l-11 -2l-4 2l-2 -10l-11 -3l-5 -8l-4 -8l-8 15l-11 3l-5 7l-9 15l-9 5l-7 5l-8 14l-10 3l-6 7l-8 15l-7 6
l-9 4l-3 4l-5 -15l-12 9l-8 -7l-9 1l-8 -6l-8 -4l-4 4l-7 -16l-11 14l-8 -9l-10 7l-8 -10l-9 3l-2 5l-9 -4l-9 6l-9 -2l-9 4l-9 -1l-9 -1v5l-14 -13l-3 19l-11 -5l-7 10l-9 -1l-9 3l-15 -9l3 -15l-12 -1l-15 -9l2 -15l-12 -1l-14 -8v-14l-10 -2l-15 -9l5 -17l-14 1l2 4
l-18 -5l6 18l-8 5l-8 5l2 4l-14 -1l2 14l-18 -5l2 15l2 4l-10 3l-2 10l-18 -4l2 14l14 8l2 10l7 6l14 8l1 13l9 3l14 8l5 7l4 9l14 8l6 7l4 9l1 9l-13 5l6 12l-10 5l2 11l-4 8l-7 7l4 5l-6 8l3 10l-11 7l9 11l-9 8l2 9l5 5l-15 11l18 7l-6 10l8 8l-9 10l7 8l7 6v10l8 6
l-9 14l16 3l-2 10l5 8l-7 14l-16 -3v13l-8 14l-8 5l-8 5l-7 14h-13l-3 10l-8 14l-15 -1l-1 11l4 -2l5 8l8 5l-1 13l10 3l4 -3l-1 14l13 -1l-4 18l14 -2l4 -2l4 9l9 4l2 11z" />
    <glyph glyph-name="brokenbar" unicode="&#xa6;" horiz-adv-x="500" 
d="M314 -169l-7 5l-9 -11l-9 11l-9 -16l-9 11l-6 5l-9 -4l-9 4l-9 -7l-9 2l-7 5l-9 -14l-9 14l-9 -6l-9 1l4 15l-4 9v9l4 16l-4 9v9l4 15l-15 9l11 9l4 15l-12 9l8 9l4 16l-13 9l9 9l4 15l-12 9l8 9l4 15l-10 9l6 9l4 16l-12 9l8 9l4 15l-5 9l1 9l4 15l-7 9l3 9l4 16l-7 9
l3 9l4 15l-9 9l5 9l7 -5l9 9l9 -9l9 11l9 -6l6 -5l9 11l9 -11l9 1l9 4l7 -5l9 12l9 -12l9 7l9 -2l-4 -15l5 -9l-1 -9l-4 -16l15 -9l-11 -9l-4 -15l8 -9l-4 -9l-4 -15l5 -9l-1 -9l-4 -16l4 -9v-9l-4 -15l9 -9l-5 -9l-4 -15l7 -9l-3 -9l-4 -16l6 -9l-2 -9l-4 -15l10 -9l-6 -9
l-4 -15l16 -9l-12 -9l-4 -16l5 -9l-1 -9l-4 -15l11 -9zM186 710l7 -4l9 2l9 -2l9 16l9 -12l6 -4l9 7l9 -7l9 4h9l7 -4l9 12l9 -12l9 12l9 -8l-4 -15l10 -9l-6 -9l-4 -16l15 -9l-11 -9l-4 -15l16 -9l-12 -9l-4 -15l2 -9l2 -9l-4 -16l10 -9l-6 -9l-4 -15l16 -9l-12 -9l-4 -15
l5 -9l-1 -9l-4 -16l15 -9l-11 -9l-4 -15l5 -9l-1 -9l-4 -15l8 -9l-4 -9l-4 -16v-9l4 -9l-4 -15v-9l4 -9l-7 4l-9 -9l-9 9l-9 -6l-9 2l-6 4h-9h-9l-9 -4h-9l-7 4l-9 -10l-9 10l-9 -7l-9 3l4 15l-16 9l12 9l4 16l-7 9l3 9l4 15l-10 9l6 9l4 15l-4 9v9l4 16l-13 9l9 9l4 15
l-5 9l1 9l4 15l-13 9l9 9l4 16l-2 9l-2 9l4 15l-9 9l5 9l4 15l-11 9l7 9l4 16l-2 9l-2 9l4 15l-10 9z" />
    <glyph glyph-name="section" unicode="&#xa7;" 
d="M315 169l9 -2l5 14l12 -9l6 12l10 -3l9 3l-4 15l15 -1l2 10l7 6l8 15l-5 10l9 7l-5 11l4 8l1 18l-11 8l8 10l-11 7l3 10l-1 7h-13l1 14l-13 -1l-2 11l-8 6l-9 2l-8 2l-12 -8l-7 8l-8 2l-7 -8l-11 4l-7 -7l-9 -2l-9 -3l5 -17l-17 4v-12l-9 -4l-8 -15l3 -10l-7 -7l3 -10
l-2 -9l-4 -3l10 -7l-7 -10l9 -8l-6 -10l9 -8l-1 -9v-7h14l-2 -13l19 4l-4 -15l10 -7l10 4l7 -8l12 10zM110 -33l4 8l-1 9l1 9l-15 9l11 9l1 -5l9 16l9 -16l9 15l9 -10l1 -5l9 10l9 -10l9 8l9 -3v-5l9 17l9 -17l9 16l9 -11l1 -5l9 15l9 -15l9 4l9 1l-3 -17l10 -8l-9 -10
l17 -7l-15 -10l10 -9l-4 -9l5 -18l13 -3v-10v-5l10 7l7 -10l12 13l7 -12l12 -1l6 11l11 -6l4 18l12 -8l9 16l-10 12l14 5l-7 11l7 8l1 18l-11 7l3 10l-10 15l-16 -5l-1 13l-5 7h-10l-7 7l-12 -6l-5 12h-10l-8 3l-14 10l-10 -1l-7 8l-13 -8l-4 15l-8 3l-10 -1l-6 8l-10 -1
l-6 8l-12 -4l-6 8l-4 8l-10 2l-8 4l-5 13h-13v13l-10 2l-5 8l-1 10l-13 2l4 13h-16l3 13l2 8l-14 4l8 12l-19 3l9 13l4 7l-12 8l10 10l-18 7l12 10l6 11l-15 11l18 7l-15 11l13 7l9 9l-5 12l11 5l2 9l1 9l12 8l-1 12l11 3l3 9l4 8l14 6v14l14 -3l-3 18l14 -3l-9 15l-18 -5
l6 18l-8 6l-8 4l-3 15h-20l11 16h-19l7 14l2 16l-5 9l2 9l-5 8l-2 9l5 6l-16 11l18 7l-13 10l11 8l6 3l1 9l6 8l2 9l1 9l7 2l4 8l6 7l1 10l6 7l8 1l6 7l7 5l2 11l9 4h10l5 11l11 -2l5 9l9 3l13 -1l7 6l10 -1l8 6l8 3l16 -3l8 7l10 -5l7 16l10 -10l14 -6l10 14l8 -16l10 17
l8 -14l8 -7l9 -2l8 -3l12 9l7 -10l4 -8l9 -2l7 -6l12 3l6 -8l1 -7l11 -1l2 -11l9 -3l7 -6l-1 -6l16 -1l-7 -14l9 -6l5 -7l-2 -8l5 -8l1 -9l16 -5l-6 -11l-3 -10l2 -8v-10l4 -8l2 -9l-5 -5l6 -9l-6 -9l10 -9l-5 -9l-1 5l-9 -10l-9 10l-9 -16l-9 11l-2 5l-9 -7l-9 7l-9 -15
l-9 10l-1 5l-9 -5l-9 5l-9 -5h-9l-1 5l-9 -17l-9 17l-9 -2l-9 -3l4 3l-10 8l9 10l-16 7l14 11l-11 8l9 10l-1 8l-5 9l4 3l-7 6l-2 10l-9 5l-4 8l-14 8l-12 -10l-7 10l-10 1l-5 -14l-12 8l-7 -9l-9 -1l-8 -12l3 -10l-8 -7l13 -14l-14 -5l-3 -6l11 -7l-8 -11l17 -6l-10 -11
l-3 -3l15 2l-1 -14l10 -2l6 -7l6 -7l9 -2l8 -5l10 2l7 -9h9l9 -2l3 -6l10 1l6 -8l8 -3l9 -4l13 8l5 -11l11 -11l10 -1l6 -7l10 -1l8 -4l4 -9l17 7l-2 -18l12 1l5 -8l-1 -6l12 -1v-12l10 -3l6 -7l-3 -3l7 -7l2 -9l7 -6l6 -7l-4 -3l18 -4l-13 -13l10 -6v-10l-4 -4l5 -8l-3 -10
l13 -7l-7 -10l-6 -15l11 -10l-13 -8l9 -10l-7 -8l-9 -10l12 -14l-18 -3l12 -14l-15 -4l-12 -8l-3 -9l-7 -6l3 -13l-10 -4l-13 -5l3 -19l-17 7l-3 -10l-8 -5l9 -16l17 4l-5 -17l11 -3l5 -7l4 -17l12 -4l-4 -12l5 -8l7 -6l-2 -17l2 -9l1 -9l11 -7l-4 -10l-5 -5l5 -9l-7 -9v-9
l2 -9l-6 -3l1 -10l-8 -7l6 -12l-9 -6l-7 -2l1 -12l-11 -3l8 -17h-15l-8 -1l-2 -12l-12 -1l1 -13l-11 -2h-9l-5 -9h-11l-1 -16l-12 3l-11 1l-7 -8l-10 3l-5 -16l-11 6l-13 3l-8 -3l-10 1l-8 -10l-9 4l-14 6l-10 -11l-8 13l-9 -2l-9 -1l-8 7l-12 -6l-5 12l-12 -7l-7 8l-5 8
l-16 -9v18l-10 2l-8 3l-2 8l-10 1l-3 11l-16 -4v13v7l-9 4l-1 11l-9 5l-5 7l2 8l-8 7l2 10l-18 3l7 12l4 9l-14 7l12 11l-15 7z" />
    <glyph glyph-name="afii10023" unicode="&#x401;" horiz-adv-x="567" 
d="M451 843l-10 -13l8 -13l-15 -4l3 -11l-6 -7l-17 -2l-3 -16l-13 9l-3 -16l-12 5l-12 10l-13 -7l-4 14l-15 -13l-3 16l-2 17l-7 6v10l-19 2l8 13l10 12l-9 14l16 3l-6 12l9 6l16 2l3 14l13 -7l4 14l11 -3l13 -10l12 5l5 -12l15 13l3 -16l2 -16l8 -6l-1 -10l15 -3zM276 843
l-10 -13l2 -11l-9 -6l-4 -8l1 -10l-17 -2l-4 -13l-12 6l-2 -19l-13 8l-12 10l-15 -11l-2 18l-9 1l-9 2l-2 17l-7 7v9l-18 2l7 13l10 12l-3 11l10 6l-7 12l10 6l16 2l7 5l9 2l2 19l13 -8l13 -10l14 9l3 -16l11 4l7 -7l2 -16l10 -5l-3 -11l8 -7zM507 0l-17 4l-9 -10l-9 6v4
l-9 -16l-9 16l-9 -8l-9 4l-17 4l-9 -17l-9 13l-17 4l-9 -7l-9 3l-17 4l-9 -9l-9 5l-17 4l-9 -15l-9 11v4l-9 -16l-9 16l-9 -12l-9 8l-17 4l-9 -4h-9l-17 4l-9 -6l-9 2v4l-9 -12l-9 12l-9 -17l-9 13l-17 4l-9 -13l-9 9l-17 4l-9 -15l-9 11l4 15l-15 9l11 9l4 16l-8 9l4 9
l4 15l-6 9l2 9l4 15l-12 9l8 9l4 15l-15 9l11 9l4 16l-4 9v9l4 15l-8 9l4 9l4 15l-10 9l6 9l4 15l-4 9v9l4 16l-11 9l7 9l4 15l-9 9l5 9l4 15l-6 9l2 9l4 16l-9 9l5 9l4 15l-3 9l-1 9l4 15l-1 9l-3 9l4 15l-11 9l7 9l4 16l-12 9l8 9l4 15l-11 9l7 9l4 15l-1 9l-3 9l4 15
l-2 9l-2 9l4 16l-7 9l3 9l4 15l-11 9l7 9l17 -4l9 14l9 -10l17 -4l9 5l9 -1v-4l9 7l9 -7l9 11l9 -7l17 -4l9 17l9 -13l17 -4l9 9l9 -5v-4l9 1l9 -1l9 13l9 -9l17 -4l9 16l9 -12l17 -4l9 14l9 -10l17 -4l9 7l9 -3l17 -4l9 14l9 -10v-4l9 9l9 -9l9 10l9 -6l17 -4l9 10l9 -6
l-5 -6l8 -9l-8 -9l2 -9l3 -9l-5 -6l14 -9l-14 -9l15 -9l-10 -9l-5 -6l4 -9l-4 -9l11 -9l-6 -9l-17 4l-9 -3l-9 -1l-17 4l-9 -6l-9 2l-17 4l-9 -15l-9 11l-16 4l-9 -6l-9 2l-17 4l-9 -17l-9 13l-17 4l-9 -14l-9 10l-17 4l-9 -9l-9 5l-17 4l-9 -16l-9 12l-4 -3l15 -9l-15 -9
l1 -9l3 -9l-4 -3l12 -9l-12 -9l15 -9l-11 -9l-4 -3l13 -9l-13 -9l11 -9l-7 -9l-4 -3l12 -9l-12 -9l13 -9l-9 -9v-4l9 3l9 -3l9 12l9 -8l1 -4l9 5l9 -5l9 7l9 -3v-4l9 15l9 -15l9 15l9 -11v-4l9 1l9 -1h9l9 4v-4l9 10l9 -10l9 9l9 -5l1 -4l9 11l9 -11l9 2l9 2v-4l9 17l9 -17
l9 3l9 1l-4 -4l2 -9l-2 -9l11 -9l-7 -9l-4 -4l3 -9l-3 -9v-9l4 -9l-4 -4l13 -9l-13 -9l10 -9l-6 -9v4l-9 -11l-9 11l-9 -10l-9 6l-1 4l-9 -11l-9 11h-9l-9 -4v4l-9 -10l-9 10l-9 -12l-9 8v4l-9 -13l-9 13l-9 -10l-9 6v4l-9 -3l-9 3l-9 -6l-9 2l-1 4l-9 -10l-9 10l-9 -5l-9 1
v4l-9 -11l-9 11l-9 -3l-9 -1l-4 -16l8 -9l-4 -9l-4 -16l11 -9l-7 -9l-4 -16l10 -9l-6 -9l-4 -16l16 -9l-12 -9l-4 -16l7 -9l-3 -9l-4 -16l4 -9v-9l17 -4l9 10l9 -6l17 -4l9 1l9 3l17 -4l9 13l9 -9l17 -4l9 17l9 -13l16 -4l9 4h9l17 -4l9 12l9 -8l17 -4h9l9 4l17 -4l9 5l9 -1
l-5 -6l17 -9l-17 -9l6 -9l-1 -9l-5 -6l15 -9l-15 -9l11 -9l-6 -9l-5 -6l9 -9l-9 -9l9 -9z" />
    <glyph glyph-name="copyright" unicode="&#xa9;" horiz-adv-x="853" 
d="M606 448l-11 4l-9 -5l-9 5l-9 -3l-9 -1l-11 4l-9 -14l-9 14l-9 -17l-9 13l2 8l-6 7v9l-6 8l-4 8l1 5l-17 -6l4 18l-14 -2l-3 10l-7 6l-12 -13l-5 17l-11 -7l-8 6l-17 1l-6 -16l-11 8l-15 -5l2 -18l-14 4l-5 1l9 -16l-18 1v-11l-6 -7l-7 -7l4 -11l-9 -6l13 -14l-14 -5
l-6 -17l13 -10l-14 -8l5 -9l-2 -9l-3 -17l14 -8l-13 -10l13 -8l-7 -10l-2 -9l4 -8l1 -9l8 -7l2 -9l-3 -4l9 -4l1 -11h16l-2 -12l11 -13l17 10v-16v-5l9 4l9 -6l10 9l8 -8l8 -3l6 12l11 -8l8 6l9 2h6l3 9l10 3l1 12l9 4l7 8l-13 14l19 3l-7 12l8 7l13 -4l9 17l9 -17l9 16
l9 -12l12 -4l9 4l9 -4l9 2l9 2l-6 -8l11 -11l-14 -6l7 -11l-6 -8l-7 -3l-3 -8l-5 -8l5 -12l-9 -6l-7 -1l3 -15l-15 1l-1 -11l-8 -5h-8l-5 -8l-10 -2l-1 -15l-12 2l-11 1l-5 -13l-12 8l-4 -17l-12 7l-15 3l-7 -14l-11 12l-8 -2l-9 -4l-8 5l-10 -13l-8 15h-9l-9 -3l-4 6
l-11 -6l-6 11l-13 -13l-6 13v5l-12 -2l-4 11l-9 2l-9 3l1 5l-7 5l-6 7l-14 -3l-3 11l2 5l-6 8l-5 7l-8 5l-6 7l2 6l-15 3l8 14h-20l8 14l2 10l-11 7l7 10l-14 6l6 11l3 12l-8 9l7 9l-13 8l7 10l6 13l-1 9l2 9v9l-3 9l7 9l-5 10l8 7l2 9l-2 10l6 3l-3 12l11 5l-1 10l4 8l6 1
l-6 16l17 -1l-6 15l13 2l5 -1l3 9l11 3l-4 18l14 -3l6 -2l7 4l8 4l8 5l6 8l6 -3l8 5h9l7 10h9l9 -4l7 19l10 -17l8 15l10 -9l12 -6l9 5l9 -7l10 13l8 -10l6 -7l10 1l7 -6l13 9l6 -10l2 -6l14 6l1 -16l17 10l1 -15l-1 -5l15 2l-3 -15h13l3 -10l-2 -5l14 -3l-6 -13l10 -5l2 -9
l-3 -6l2 -8l1 -9l7 -8zM427 678l-14 3l-9 -8l-9 7l-9 -7l-9 1l-13 2l-5 -20l-12 15l-6 -16l-11 8h-12l-8 -4l-9 -3l-2 -18l-13 7l-13 -2l-1 -15l-14 5l-6 -7l-7 -6l-13 -5l4 -18l-17 6l-2 -12l-9 -3l-12 -8l2 -13h-14l3 -14l-11 -3l-11 -9l-2 -9l-7 -6l10 -17l-16 -1l-9 -9
l11 -15l-18 -2l12 -15l-15 -3l-7 -11l9 -11l-13 -6l1 -10l-1 -9l-6 -13l9 -10l-10 -8v-9l3 -9l-3 -13l16 -8l-15 -10l13 -8l-7 -10l-2 -13l17 -5l-12 -12l10 -7l-2 -10l1 -14l6 -7l1 -9l17 -3l-6 -12l3 -13l6 -7l4 -8l8 -5l5 -8l5 -13l8 -6l4 -8h15v-11l7 -12l8 -5l5 -7
l8 -4l9 -4l9 -10h11l4 -10l17 11l1 -16l9 -9l14 12l3 -18l8 -3h10l11 -7l10 2l7 -6l9 -2l10 2l13 -6l9 7l9 -8l9 5l9 -2l13 -3l9 11l9 -10l9 4l9 2l13 -2l5 17l12 -12l6 14l11 -6l14 1l6 9l10 -2l3 17l12 -6l13 3l3 14l13 -5l5 9l8 4l14 6l4 9l9 3v14l11 1l11 6l-2 14h14
l-6 17l15 -1l10 8l4 8l5 7l-6 15l12 3l9 9v9l6 8l2 9l1 9l7 11l-3 10l7 7v10v9l6 14l-2 9l3 9l-5 9l2 9l3 13l-17 8l16 10l-8 9l2 9l2 13l-19 5l14 12l-7 8l-1 9v13l-9 6l2 11l-4 8l-7 7l-3 13l-11 3l1 12l-8 6l-5 7l-5 13l-14 -1l2 14l-11 3l-4 8l-7 12l-9 3l-4 9l-11 2
l-6 6l-8 11l-10 1l-5 8l-17 -10l-1 16l-10 9l-9 1l-8 5l-14 -10l-4 13l-11 7l-12 -12l-5 16l-12 -11l-7 11l-14 6l-9 -4l-9 5l-9 1zM426 740l14 -5l9 11l9 -12l10 16l8 -13l12 -7h9l8 -4l10 1h9l10 -8l12 6l5 -12l10 -1h9l9 -10h10l6 -8l15 11l3 -15l8 -11l9 -3l6 -7l14 4
l4 -10l7 -12l7 -6l7 -6l11 -1l5 -8l5 -13l7 -5l5 -8l8 -5l7 -6l3 -13l8 -5l2 -10l19 2l-5 -14l1 -13l12 -4l-4 -12l14 -3l-2 -11v-13l15 -5l-10 -12l7 -8l3 -8l-2 -13l6 -8l-3 -10l4 -9l4 -8l-4 -14l9 -9l-8 -9l9 -9l-3 -9l-5 -13l16 -10l-17 -8l4 -9l-1 -9l-7 -12l14 -12
l-17 -5l5 -11l-4 -8l-8 -9l5 -12l-11 -6l11 -13l-12 -5l-9 -8l7 -13l-15 -3l-3 -8l-1 -10l-10 -7l6 -14l-16 -1l-2 -9l-4 -8l-12 -7l-4 -9l-8 -5l2 -14l-11 -2l-14 -6l2 -17l-16 5l-6 -7l-5 -8l-14 -4l-6 -6l-9 -4l-4 -10l-8 -4l-13 -1l-5 -11l-12 3l-5 -9l-9 -3h-13l-9 -4
l-8 -2l-5 -15l-11 5l-13 2l-6 -12l-11 8l-8 -5l-9 -3l-12 4l-8 -17l-10 16l-9 -13l-9 7l-12 5l-10 -12l-8 13l-9 -3h-9l-11 7l-12 -15l-5 19l-11 -9l-8 8l-10 8l-11 -6l-6 12l-14 -13l-4 15l-9 9l-15 -11l-1 19l-13 -7l-5 11l-8 11l-10 1l-5 9l-7 5l-10 2l-8 13l-12 -1
l-1 13l-11 1l-6 7l-6 13l-7 6l-5 8l-6 6l-9 4l-3 13l-18 -2l8 17l-10 4l-4 8l-1 13l-9 5l1 11l-10 5l-2 9v13l-19 2l13 15l-14 4l4 11l2 12l-7 8l4 10l-17 6l9 11l4 12l-6 9l5 9l-3 9l-3 9l5 13l-9 9l10 9l-17 10l14 8l7 12l-15 12l18 5l1 10l-2 9l8 11l-6 11l12 6l-4 10
l6 8l9 9l-5 12l13 4l-3 11l7 7l11 8l-10 18l20 -3l-6 15l12 3l13 8l-5 16l17 -3l3 10l5 7l13 6l6 7l8 5l1 12l9 3l12 3l1 15l14 -5l6 8l6 6l13 1l5 10l11 -2l7 5l7 7h13l7 5l10 1l6 8l9 2l12 -2l7 12l11 -9l7 15l10 -7l14 -4l9 10l9 -9l8 15z" />
    <glyph glyph-name="guillemotleft" unicode="&#xab;" horiz-adv-x="500" 
d="M245 450l-11 -12l9 -14l-13 -4l-11 -12l2 -11l-6 -7l-11 -12l-1 -10l-4 -8l-11 -12l10 -15l-14 -3l-11 -12l11 -16l-15 -2l-11 -12l-2 -9l-2 -9l3 -16l6 -7l6 -7l3 -16l11 -5l1 -9l4 -16l16 -2l-4 -12l3 -16l10 -5l2 -9l3 -16l5 -7l7 -7l3 -16l12 -4v-10l-2 4l-9 -14
l-9 14l-9 -4h-9l-1 4l-9 -4l-9 4l-9 -2l-9 -2l-2 4l-9 -10l-9 10l-9 -6l-9 2l-6 17l-15 1l2 12l-6 17h-17l4 13l4 3l-19 -2l9 17h-16l2 12l-6 17l-8 5l-5 8l-6 17h-16l3 13l-6 17l-6 7l-7 6l13 12l1 10l5 8l13 12l-5 14l11 4l4 -2l-9 16l19 -1l-9 16l15 1l13 12v11l6 7
l13 12l2 10l4 8l13 12l5 8l1 10l2 -4l9 16l9 -16l9 13l9 -9l1 -4l9 10l9 -10l9 7l9 -3l2 -4l9 17l9 -17l9 7zM473 450l-11 -12l1 -11l-5 -7l-11 -12l3 -12l-7 -6l-11 -12l4 -13l-9 -5l-11 -12l3 -12l-7 -6l-11 -12l2 -11l-6 -7l-11 -12l-2 -9l-2 -9l3 -16l9 -6l3 -8l3 -16
l5 -8l7 -6l4 -16l11 -4l1 -10l3 -16l16 -2l-4 -12l3 -16l9 -6l3 -8l3 -16l12 -4v-10l-2 4l-9 -12l-9 12l-9 -16l-9 12l-1 4l-9 -17l-9 17l-9 -6l-9 2l-2 4l-9 -17l-9 17l-9 -6l-9 2l-6 17l-10 4l-3 9l4 3l-15 1l5 14l-7 6l-7 6l-6 17l-20 -2l7 15l-6 17l-9 5l-4 8l4 3
l-17 -1l7 16l-7 6l-7 6l-6 17l-10 4l-3 9l13 12l3 9l3 9l4 -2l-7 15h17l1 9l5 8l13 12l2 10l4 8l13 12l3 9l3 9l4 -2l-5 14l15 1l-6 14l12 3l13 12l-8 17l14 1l2 -4l9 15l9 -15l9 12l9 -8l1 -4l9 16l9 -16l9 8l9 -4l2 -4l9 17l9 -17l9 14z" />
    </font>
</defs>
</svg>
